<?xml version="1.0" standalone="no"?>
<!DOCTYPE svg PUBLIC "-//W3C//DTD SVG 20010904//EN"
 "http://www.w3.org/TR/2001/REC-SVG-20010904/DTD/svg10.dtd">
<svg version="1.0" xmlns="http://www.w3.org/2000/svg"
 width="96.000000pt" height="96.000000pt" viewBox="0 0 96.000000 96.000000"
 preserveAspectRatio="xMidYMid meet">
<metadata>
Created by potrace 1.16, written by Peter Selinger 2001-2019
</metadata>
<g transform="translate(0.000000,96.000000) scale(0.100000,-0.100000)"
fill="#000000" stroke="none">
<path d="M359 932 c-247 -65 -398 -321 -334 -567 55 -208 234 -347 450 -347
190 0 339 96 423 270 66 138 55 313 -28 440 -71 110 -185 188 -309 212 -74 14
-125 12 -202 -8z m-69 -352 c0 -25 4 -30 24 -30 19 0 25 6 28 27 2 17 10 29
21 31 15 3 17 -5 17 -67 0 -43 4 -71 11 -71 5 0 24 32 41 70 41 92 55 92 97
-2 l32 -73 25 30 c29 36 29 43 4 75 -11 14 -20 28 -20 33 0 16 40 6 54 -14
l14 -21 11 21 c7 12 21 21 31 21 25 0 25 -7 0 -45 -18 -27 -18 -31 -3 -55 8
-14 22 -31 31 -37 14 -11 12 -13 -12 -13 -17 0 -35 9 -46 22 l-17 22 -12 -22
c-9 -17 -21 -22 -55 -22 -30 0 -46 5 -50 15 -3 9 -18 15 -36 15 -18 0 -33 -6
-36 -15 -4 -11 -21 -15 -55 -15 -48 0 -49 1 -49 30 0 25 -4 30 -25 30 -21 0
-25 -5 -25 -30 0 -27 -3 -30 -32 -29 -18 0 -27 3 -20 6 8 3 12 28 12 74 0 62
2 69 20 69 16 0 20 -7 20 -30z"/>
</g>
</svg>
