<?xml version="1.0" standalone="no"?>
<!DOCTYPE svg PUBLIC "-//W3C//DTD SVG 20010904//EN"
 "http://www.w3.org/TR/2001/REC-SVG-20010904/DTD/svg10.dtd">
<svg version="1.0" xmlns="http://www.w3.org/2000/svg"
 width="500.000000pt" height="500.000000pt" viewBox="0 0 500.000000 500.000000"
 preserveAspectRatio="xMidYMid meet">
<metadata>
Created by potrace 1.16, written by Peter Selinger 2001-2019
</metadata>
<g transform="translate(0.000000,500.000000) scale(0.100000,-0.100000)"
fill="#000000" stroke="none">
<path d="M2175 4885 c-300 -43 -561 -124 -805 -252 -950 -496 -1451 -1551
-1239 -2607 74 -370 247 -737 486 -1032 160 -199 412 -418 620 -541 413 -243
852 -356 1323 -340 359 12 654 85 975 242 663 323 1139 933 1288 1650 41 196
51 298 50 510 -1 360 -64 657 -209 978 -129 289 -284 508 -520 737 -351 340
-770 552 -1265 640 -161 29 -549 37 -704 15z m-687 -1872 l2 -163 155 0 155 0
2 163 3 162 88 3 87 3 0 -376 0 -376 56 3 55 3 156 360 c85 198 160 366 165
373 7 8 39 12 93 12 l82 0 141 -327 c77 -181 150 -349 162 -375 18 -40 25 -48
48 -48 24 0 40 20 143 178 l116 178 -124 192 c-84 132 -119 194 -110 198 8 3
56 3 108 2 l94 -3 75 -114 c68 -104 75 -112 88 -95 8 11 42 62 76 114 l61 95
109 3 c85 2 107 0 103 -10 -2 -7 -57 -94 -121 -193 -64 -99 -114 -185 -112
-192 3 -6 55 -89 117 -182 l111 -171 54 0 c51 0 54 -1 54 -25 l0 -25 -150 0
-150 0 -81 126 c-45 69 -85 122 -89 117 -4 -4 -42 -61 -84 -125 l-75 -118
-208 0 -208 0 -35 83 -35 82 -165 0 -165 0 -35 -82 -35 -83 -232 0 -233 0 0
155 0 155 -155 0 -155 0 0 -155 0 -155 -140 0 -140 0 0 25 c0 23 3 25 50 25
l50 0 0 375 0 376 88 -3 87 -3 3 -162z"/>
<path d="M2456 2827 c-21 -50 -41 -98 -43 -104 -4 -10 17 -13 87 -13 70 0 91
3 87 13 -28 73 -83 197 -87 197 -3 0 -22 -42 -44 -93z"/>
</g>
</svg>
