<svg width="128" height="128" xmlns="http://www.w3.org/2000/svg"><path d="M3 53H2v1h1zM2 75h1v-1H2zM3 49h1v-1H3zM3 80h1v-1H3zM5 83v-1H4v1zM6 86v-1H5v1zM6 40h1v-1H6zM8 38v-1H7v1zM9 36v-1H8v1zM10 33H9v1h1zM12 97h-1v1h1zM17 24v-1h-1v1zM18 22h-1v1h1zM19 107v1h1v-1zM22 17v1h1v-1zM27 114v-1h-1v1zM27 14h1v-1h-1zM30 115h-1v1h1zM30 11v1h1v-1zM34 118v1h1v-1zM37 119h-1v1h1zM38 121h1v-1h-1zM50 4V3h-1v1zM52 125v-1h-1v1zM56 2h-1v1h1zM58 126h1v-1h-1zM67 125v1h2v-1zM71 3h1V2h-1zM75 125h1v-1h-1zM88 120v1h1v-1zM91 119h-1v1h1zM92 118v1h1v-1zM96 11v1h1v-1zM97 116h1v-1h-1zM100 14v-1h-1v1zM101 114v-1h-1v1zM105 18v-1h-1v1zM105 19h1v-1h-1zM108 21v1h1v-1zM109 23h1v-1h-1zM113 102v-1h-1v1zM114 28v-1h-1v1zM119 35h-1v1h1zM119 38h1v-1h-1zM122 43v-1h-1v1zM121 85v1h1v-1zM122 45v1h1v-1zM123 82h-1v1h1zM125 53h-1v1h1z" style="fill:#220925;fill-opacity:.039;stroke:none"/><path d="M2 54v1h1v-1zM3 73H2v1h1zM4 79v-1H3v1zM5 45H4v1h1zM6 42H5v1h1zM11 95h-1v1h1zM12 31v-1h-1v1zM13 27v1h1v-1zM14 101v1h1v-1zM18 21v1h1v-1zM19 21h1v-1h-1zM21 20v-1h-1v1zM22 19v-1h-1v1zM25 112v1h1v-1zM40 6v1h1V6zM41 121v1h1v-1zM47 4h-1v1h1zM48 124v-1h-1v1zM50 4h1V3h-1zM56 2v1h1V2zM67 126v-1h-8v1zM71 2h-1v1h1zM77 4V3h-1v1zM80 124v-1h-1v1zM81 4h-1v1h1zM83 6h1V5h-1zM86 122v-1h-1v1zM87 6h-1v1h1zM94 11h1v-1h-1zM102 112h-1v1h1zM107 19h-1v1h1zM108 21v-1h-1v1zM115 99v-1h-1v1zM115 31h1v-1h-1zM117 96v-1h-1v1zM120 88h1v-1h-1zM123 50h1v-1h-1zM124 78h-1v1h1zM124 55h1v-1h-1zM124 73v1h1v-1z" style="fill:#220925;fill-opacity:.094;stroke:none"/><path d="M2 55v1h1v-1zM3 77v1h1v-1zM4 82h1v-1H4zM6 84H5v1h1zM7 41v-1H6v1zM8 89H7v1h1zM9 91H8v1h1zM11 32h-1v1h1zM15 26h-1v1h1zM25 111h-1v1h1zM29 114h-1v1h1zM30 12h-1v1h1zM35 9h-1v1h1zM36 8v1h1V8zM39 120v1h1v-1zM49 124v-1h-1v1zM52 4V3h-1v1zM53 125h1v-1h-1zM58 3h2V2h-2zM69 3V2h-2v1zM74 124h-1v1h1zM75 3v1h1V3zM79 123h-1v1h1zM88 121v-1h-1v1zM93 117v1h1v-1zM101 15v1h1v-1zM111 104v-1h-1v1zM115 29h-1v1h1zM119 38v1h1v-1zM121 44h1v-1h-1zM122 47h1v-1h-1zM123 50v1h1v-1zM124 56v1h1v-1zM125 71h-1v1h1z" style="fill:#220925;fill-opacity:.224;stroke:none"/><path d="M3 56H2v1h1zM3 72v-1H2v1zM3 51h1v-1H3zM5 47v-1H4v1zM6 43H5v1h1zM8 38H7v1h1zM9 35h1v-1H9zM13 29h-1v1h1zM16 26v-1h-1v1zM17 104v-1h-1v1zM23 110v1h1v-1zM26 16v-1h-1v1zM33 117v1h1v-1zM36 118h-1v1h1zM38 119h-1v1h1zM41 7h1V6h-1zM47 4v1h1V4zM62 3V2h-2v1zM65 3h2V2h-2zM80 5V4h-1v1zM86 6h-1v1h1zM89 119v1h1v-1zM91 119h1v-1h-1zM103 111h1v-1h-1zM109 105h1v-1h-1zM111 26h1v-1h-1zM113 99v1h1v-1zM116 96h-1v1h1zM118 35v-1h-1v1zM119 37v-1h-1v1zM125 71v-1h-1v1z" style="fill:#220925;fill-opacity:.294;stroke:none"/><path d="M3 58v-1H2v1zM2 70v1h1v-1zM7 86H6v1h1zM8 36v1h1v-1zM12 96h-1v1h1zM14 100v-1h-1v1zM18 104h-1v1h1zM22 110h1v-1h-1zM32 11h-1v1h1zM43 122v-1h-1v1zM44 5v1h1V5zM45 123h1v-1h-1zM53 3h-1v1h1zM55 124h-1v1h1zM65 3V2h-3v1zM72 125h1v-1h-1zM74 3v1h1V3zM81 122v1h1v-1zM82 6h1V5h-1zM84 121v1h1v-1zM95 11v1h1v-1zM97 116v-1h-1v1zM98 13v1h1v-1zM99 113v1h1v-1zM102 17h1v-1h-1zM105 110v-1h-1v1zM106 108h-1v1h1zM108 105v1h1v-1zM120 87h1v-1h-1zM123 81v-1h-1v1zM123 76v1h1v-1zM125 58v-1h-1v1zM124 70h1v-1h-1z" style="fill:#220925;fill-opacity:.365;stroke:none"/><path d="M2 58v1h1v-1zM3 70v-1H2v1zM3 51v1h1v-1zM4 76H3v1h1zM4 80v1h1v-1zM6 83H5v1h1zM16 25h1v-1h-1zM18 105v1h1v-1zM19 106v1h1v-1zM21 108v-1h-1v1zM22 108h-1v1h1zM25 16h-1v1h1zM28 113h-1v1h1zM28 14h1v-1h-1zM31 115h-1v1h1zM40 7h-1v1h1zM49 124h1v-1h-1zM55 125h1v-1h-1zM72 124h-1v1h1zM77 123v1h1v-1zM78 5h1V4h-1zM88 7h-1v1h1zM104 18v-1h-1v1zM107 107h-1v1h1zM107 107h1v-1h-1zM111 25v-1h-1v1zM113 29h1v-1h-1zM116 31h-1v1h1zM116 95h1v-1h-1zM120 88h-1v1h1zM121 41h-1v1h1zM122 83h-1v1h1zM122 47v1h1v-1zM123 51v1h1v-1zM125 58h-1v2h1zM125 68h-1v1h1z" style="fill:#220925;fill-opacity:.447;stroke:none"/><path d="M3 60v-1H2v1zM2 69h1v-2H2zM4 76v-1H3v1zM4 48h1v-1H4zM5 45h1v-1H5zM7 42v-1H6v1zM8 88H7v1h1zM11 95v-1h-1v1zM11 32h1v-1h-1zM13 29h1v-1h-1zM15 100h-1v1h1zM17 23v1h1v-1zM24 18v-1h-1v1zM34 11v-1h-1v1zM35 9v1h1V9zM37 8v1h1V8zM40 121h1v-1h-1zM49 5V4h-1v1zM53 4h1V3h-1zM73 3v1h1V3zM87 121v-1h-1v1zM90 8h-1v1h1zM91 10h1V9h-1zM93 11h1v-1h-1zM94 116v1h1v-1zM100 112v1h1v-1zM104 19h1v-1h-1zM109 22h-1v1h1zM109 24h1v-1h-1zM113 100h-1v1h1zM115 98v-1h-1v1zM117 92v1h1v-1zM119 91v-1h-1v1zM122 45v-1h-1v1zM123 53h1v-1h-1zM124 75h-1v1h1zM124 62h1v-2h-1zM124 66v2h1v-2z" style="fill:#220925;fill-opacity:.545;stroke:none"/><path d="M2 60v7h1v-7zM4 53v-1H3v1zM5 79H4v1h1zM8 39H7v1h1zM8 90v1h1v-1zM9 92v1h1v-1zM11 34v-1h-1v1zM12 97v1h1v-1zM18 23h1v-1h-1zM19 21v1h1v-1zM21 20h-1v1h1zM21 20h1v-1h-1zM22 19h1v-1h-1zM27 113v-1h-1v1zM27 15h1v-1h-1zM31 13v-1h-1v1zM32 116v1h1v-1zM39 120v-1h-1v1zM43 7V6h-1v1zM44 121h-1v1h1zM46 6V5h-1v1zM46 123h1v-1h-1zM50 124h1v-1h-1zM54 4h1V3h-1zM57 125v-1h-1v1zM69 124v1h2v-1zM73 4V3h-1v1zM77 124v-1h-1v1zM78 5V4h-1v1zM81 123v-1h-1v1zM81 6h1V5h-1zM84 121h-1v1h1zM85 6h-1v1h1zM88 120h1v-1h-1zM93 117h-1v1h1zM96 13h1v-1h-1zM98 114h-1v1h1zM99 15h1v-1h-1zM105 19v1h1v-1zM106 20v1h1v-1zM108 22v-1h-1v1zM111 101v1h1v-1zM112 27v1h1v-1zM117 34v-1h-1v1zM117 35v1h1v-1zM119 37h-1v1h1zM120 39h-1v1h1zM120 85v1h1v-1zM122 49h1v-1h-1zM123 79h-1v1h1zM123 74v1h1v-1zM124 66h1v-4h-1z" style="fill:#220925;fill-opacity:.639;stroke:none"/><path d="M2 73h1v-1H2zM3 49v1h1v-1zM7 88v-1H6v1zM9 94h1v-1H9zM12 99h1v-1h-1zM16 103v-1h-1v1zM27 15v-1h-1v1zM31 116v1h1v-1zM33 10h-1v1h1zM38 7v1h1V7zM44 6V5h-1v1zM45 123v-1h-1v1zM52 124v1h1v-1zM57 2v1h1V2zM69 3h1V2h-1zM75 124h-1v1h1zM83 122h-1v1h1zM88 7v1h1V7zM91 8h-1v1h1zM93 9h-1v1h1zM96 116h-1v1h1zM97 12v1h1v-1zM98 114v1h1v-1zM100 14v1h1v-1zM103 111h-1v1h1zM111 102v1h1v-1zM112 26v1h1v-1zM116 32v1h1v-1zM117 94h1v-1h-1zM118 92h1v-1h-1zM120 90v-1h-1v1zM120 41h1v-1h-1zM122 85v-1h-1v1zM122 81v1h1v-1zM124 77h-1v1h1zM124 55v1h1v-1zM125 72h-1v1h1z" style="fill:#220925;fill-opacity:.157;stroke:none"/><path d="M4 54v-1H3v1zM3 74v1h1v-1zM4 49h1v-1H4zM5 83h1v-1H5zM7 85H6v1h1zM9 37H8v1h1zM9 36h1v-1H9zM12 31h1v-1h-1zM15 27h-1v1h1zM16 101h-1v1h1zM25 112h1v-1h-1zM29 114v1h1v-1zM35 118v-1h-1v1zM36 118v1h1v-1zM50 4h-1v1h1zM52 123h-1v1h1zM56 3h-1v1h1zM57 124v1h2v-1zM69 125v-1h-1v1zM71 4h1V3h-1zM75 124h1v-1h-1zM91 119v-1h-1v1zM101 112h1v-1h-1zM114 31h1v-1h-1zM115 95v1h1v-1zM121 42h-1v1h1zM122 46v-1h-1v1zM121 83h1v-1h-1zM123 54h1v-1h-1z" style="fill:#220925;fill-opacity:.737;stroke:none"/><path d="M3 54v1h1v-1zM5 50v-1H4v1zM8 90h1v-1H8zM10 93v1h1v-1zM11 32v1h1v-1zM16 27v-1h-1v1zM17 104h1v-1h-1zM25 17h1v-1h-1zM29 114v-1h-1v1zM29 13v1h1v-1zM32 116v-1h-1v1zM35 10h-1v1h1zM37 10V9h-1v1zM39 9V8h-1v1zM44 6h-1v1h1zM44 122h1v-1h-1zM53 124v-1h-1v1zM58 3h-1v1h1zM66 125v-1h-5v1zM70 4V3h-1v1zM75 124v-1h-1v1zM82 121v1h1v-1zM83 7h1V6h-1zM89 8h-1v1h1zM90 9v1h1V9zM92 10v1h1v-1zM95 115v1h1v-1zM98 14v-1h-1v1zM99 113h-1v1h1zM101 17h1v-1h-1zM104 109h-1v1h1zM109 103v1h1v-1zM111 25h-1v1h1zM113 29v1h1v-1zM116 32h-1v1h1zM116 93v1h1v-1zM118 91h-1v1h1zM118 89v1h1v-1zM120 41v-1h-1v1zM121 84h-1v1h1zM121 82h1v-1h-1zM123 56h1v-1h-1zM123 73h1v-1h-1z" style="fill:#220925;fill-opacity:.886;stroke:none"/><path d="M3 56h1v-1H3zM3 73h1v-1H3zM4 78h1v-1H4zM5 82h1v-1H5zM7 85v-1H6v1zM7 41h1v-1H7zM10 92v-1H9v1zM13 29v1h1v-1zM17 26v-1h-1v1zM19 104h-1v1h1zM23 109v-1h-1v1zM24 109h-1v1h1zM34 116h-1v1h1zM40 120v-1h-1v1zM49 123v-1h-1v1zM52 4h-1v1h1zM58 3v1h1V3zM69 3h-1v1h1zM76 5V4h-1v1zM78 123h1v-1h-1zM87 119v1h1v-1zM94 117v-1h-1v1zM104 108v1h1v-1zM105 108h1v-1h-1zM106 106v1h1v-1zM108 106v-1h-1v1zM108 105h1v-1h-1zM113 100v-1h-1v1zM115 96h-1v1h1zM116 34v1h1v-1zM117 36v1h1v-1zM119 38h-1v1h1zM121 47h1v-1h-1zM123 51v-1h-1v1zM122 77v1h1v-1zM123 72h1v-1h-1z" style="fill:#220925;fill-opacity:.937;stroke:none"/><path d="M4 57v-1H3v1zM4 71H3v1h1zM4 50v1h1v-1zM6 46H5v1h1zM6 43v1h1v-1zM8 39h1v-1H8zM10 36H9v1h1zM11 35v-1h-1v1zM13 96h-1v1h1zM14 100h1v-1h-1zM17 25h1v-1h-1zM20 106v-1h-1v1zM21 106h-1v1h1zM21 108h1v-1h-1zM24 18h1v-1h-1zM28 112h-1v1h1zM28 14v1h1v-1zM31 13h1v-1h-1zM35 117v1h1v-1zM37 119h1v-1h-1zM42 7h-1v1h1zM48 6V5h-1v1zM54 124v-1h-1v1zM59 4h2V3h-2zM68 4V3h-2v1zM73 124h1v-1h-1zM80 5h-1v1h1zM85 7v1h1V7zM90 119v-1h-1v1zM92 117h-1v1h1zM95 12v1h1v-1zM96 114v1h1v-1zM99 14h-1v1h1zM100 112h-1v1h1zM103 18v-1h-1v1zM104 19v-1h-1v1zM109 24v1h1v-1zM121 44v-1h-1v1zM124 56h-1v1h1zM124 70h-1v1h1z" style="fill:#220925;fill-opacity:.969;stroke:none"/><path d="M42 8h-3v1h-2v1h-2v1h-2v1h-1v1h-2v1h-1v1h-2v1h-1v1h-1v1h-1v1h-2v1h-1v1h-1v1h-1v1h-1v2h-1v1h-1v1h-1v1h-1v2h-1v1h-1v2h-1v2h-1v2H9v2H8v2H7v3H6v3H5v4H4v6H3v14h1v6h1v4h1v3h1v3h1v2h1v2h1v2h1v2h1v1h1v2h1v1h1v2h1v1h1v1h1v1h1v1h1v1h1v1h1v1h1v1h1v1h1v1h1v1h2v1h1v1h2v1h1v1h2v1h2v1h2v1h2v1h3v1h3v1h3v1h5v1h19v-1h5v-1h3v-1h3v-1h3v-1h2v-1h2v-1h2v-1h1v-1h2v-1h1v-1h2v-1h2v-1h1v-1h1v-1h1v-1h1v-1h1v-1h1v-1h1v-1h1v-1h1v-1h1v-1h1v-2h1v-1h1v-2h1v-1h1v-1h-1v-1h2v-2h1v-2h1v-3h1v-2h1v-5h1v-3h1v-6h1v-4h-1v-1h1v-1h-1v-1h1v-5h-1v-7h-1v-4h-1v-3h-1v-3h-1v-2h-1v-2h-1v-2h-1v-1h-1v-2h-1v-2h-1v-2h-1v-1h-1v-1h-1v-1h-1v-1h-1v-2h-2v-1h-1v-2h-2v-1h-1v-1h-1v-1h-2v-1h-1v-1h-1v-1h-2v-1h-2v-1h-1v-1h-2V9h-2V8h-1v1h-1V8h-3V7h-1V6h-3V5h-6V4H52v1h-2v1h-1V5h-1v1h-3v1h-3zM14 95v-2h-1v-2h-1v-1h-1v-2h-1v-2H9v-3H8v-2H7v-4H6v-6H5v-4h1v-2H5v-1h1v-1H5v-7h1v-6h1v-4h1v-3h1v-2h1v-2h1v-2h1v-2h1v-1h1v-2h1v-1h1v-1h1v-2h1v-1h1v-1h1v-1h1v-1h1v-1h1v-1h1v-1h1v-1h2v-1h1v-1h2v-1h1v-1h2v-1h2v-1h2v-1h2v-1h2v-1h3v-1h3V9h4V8h8V7h9v1h7v1h5v1h3v1h3v1h2v1h2v1h2v1h2v1h2v1h1v1h2v1h1v1h1v1h1v1h2v1h1v1h1v1h1v1h1v1h1v2h1v1h1v1h1v2h1v1h1v2h1v2h1v1h1v3h1v2h1v3h1v3h1v5h1v16h-1v5h-1v4h-1v3h-1v2h-1v2h-1v2h-1v2h-1v2h-1v1h-1v2h-1v1h-1v1h-1v1h-1v2h-1v1h-2v1h-1v1h-1v1h-1v1h-1v1h-1v1h-2v1h-1v1h-2v1h-1v1h-2v1h-2v1h-3v1h-2v1h-3v1h-3v1h-5v1H53v-1h-5v-1h-3v-1h-3v-1h-3v-1h-2v-1h-2v-1h-2v-1h-2v-1h-1v-1h-1v-1h-2v-1h-1v-1h-2v-1h-1v-1h-1v-1h-1v-1h-1v-1h-1v-1h-1v-2h-1v-1h-1v-1h-1v-1z" style="fill:#220925;fill-opacity:1;stroke:none"/><path d="M3 74h1v-1H3zM4 78v1h1v-1zM5 46h1v-1H5zM7 43v-1H6v1zM7 87v1h1v-1zM11 95v1h1v-1zM13 99h1v-1h-1zM16 102v1h1v-1zM24 111h1v-1h-1zM27 15h-1v1h1zM32 12h1v-1h-1zM41 8V7h-1v1zM41 121h1v-1h-1zM46 5v1h1V5zM47 123h1v-1h-1zM50 5h1V4h-1zM57 4V3h-1v1zM61 125v-1h-2v1zM68 125v-1h-2v1zM70 4h1V3h-1zM76 4v1h1V4zM80 123v-1h-1v1zM80 5v1h1V5zM85 121h1v-1h-1zM86 8h1V7h-1zM94 12h1v-1h-1zM101 15h-1v1h1zM102 111h1v-1h-1zM111 102h-1v1h1zM112 27v-1h-1v1zM114 98h-1v1h1zM120 88v-1h-1v1zM122 50h1v-1h-1zM123 79v-1h-1v1zM123 54v1h1v-1zM124 73h-1v1h1z" style="fill:#220925;fill-opacity:.827;stroke:none"/><path d="M6 63v-7H5v7zM5 65h1v-1H5zM5 71h1v-4H5zM7 50H6v2h1zM6 75v2h1v-2zM7 48h1v-2H7zM8 79H7v2h1zM9 43H8v2h1zM9 83v-1H8v1zM9 42h1v-1H9zM10 83H9v3h1zM11 40v-1h-1v1zM10 87v1h1v-1zM11 37v1h1v-1zM12 89h-1v1h1zM12 36h1v-1h-1zM13 90h-1v1h1zM13 34v1h1v-1zM14 92h-1v1h1zM15 32h-1v1h1zM14 94v1h1v-1zM16 32v-1h-1v1zM15 95v1h1v-1zM17 97v-1h-1v1zM17 28v1h1v-1zM19 28v-1h-1v1zM19 100v-1h-1v1zM19 27h1v-1h-1zM19 100v1h1v-1zM21 25h-1v1h1zM21 101h-1v1h1zM22 24h-1v1h1zM21 102v1h1v-1zM22 24h1v-1h-1zM23 103h-1v1h1zM24 19v-1h-1v1zM23 22v1h1v-1zM24 104h-1v1h1zM24 21v1h1v-1zM25 106v-1h-1v1zM25 20v1h1v-1zM27 107v-1h-1v1zM28 20v-1h-1v1zM28 107h-1v1h1zM28 19h1v-1h-1zM30 17v1h1v-1zM31 109h-1v1h1zM31 17h1v-1h-1zM31 110v1h2v-1zM34 16v-1h-1v1zM34 112v-1h-1v1zM35 15h1v-1h-1zM35 112v1h1v-1zM38 14v-1h-1v1zM39 114v-1h-2v1zM40 12h-1v1h1zM39 114v1h2v-1zM43 11h-2v1h2zM42 116h2v-1h-2zM46 11v-1h-2v1zM47 117v-1h-2v1zM45 122h1v-1h-1zM47 9v1h3V9zM52 118v-1h-4v1zM49 5v1h1V5zM51 8v1h4V8zM53 119h6v-1h-6zM59 7v1h9V7zM65 4V3h-3v1zM74 119v-1h-7v1zM75 9V8h-3v1zM73 5h1V4h-1zM79 118v-1h-4v1zM80 10V9h-3v1zM79 116v1h3v-1zM83 11v-1h-2v1zM83 115v1h2v-1zM84 8h1V7h-1zM86 12v-1h-2v1zM86 114v1h1v-1zM87 13h1v-1h-1zM90 113h-2v1h2zM90 14v-1h-1v1zM92 112h-2v1h2zM91 15h1v-1h-1zM92 111v1h2v-1zM93 16h1v-1h-1zM95 110h-1v1h1zM95 116v-1h-1v1zM96 17v-1h-1v1zM96 18h1v-1h-1zM97 109h-1v1h1zM98 108h-1v1h1zM97 114h1v-1h-1zM99 18h-1v1h1zM100 19h-1v1h1zM100 107h-1v1h1zM101 20h-1v1h1zM101 107v-1h-1v1zM101 105v1h1v-1zM103 104h-1v1h1zM104 23v-1h-1v1zM105 23h-1v1h1zM106 20h-1v1h1zM105 24v1h1v-1zM107 21h-1v1h1zM106 25v1h1v-1zM106 101v1h1v-1zM108 26h-1v1h1zM108 101v-1h-1v1zM109 28v-1h-1v1zM109 99v-1h-1v1zM109 29v1h1v-1zM109 97v1h1v-1zM110 30v1h1v-1zM110 96v1h1v-1zM112 32v-1h-1v1zM111 94v2h1v-2zM113 34v-1h-1v1zM113 93h-1v1h1zM113 34v1h1v-1zM113 91v2h1v-2zM115 32v-1h-1v1zM115 36h-1v1h1zM115 91v-1h-1v1zM115 33v1h1v-1zM115 39h1v-1h-1zM115 88v1h1v-1zM116 93h-1v1h1zM116 41h1v-2h-1zM117 86h-1v1h1zM118 43v-1h-1v1zM118 83h-1v2h1zM119 44h-1v2h1zM119 81h-1v2h1zM120 47h-1v2h1zM119 77v3h1v-3zM121 50h-1v4h1zM121 73h-1v3h1zM121 55v16h1V55zM121 81h1v-2h-1zM124 64v-1h-1v1z" style="fill:#220a27;fill-opacity:1;stroke:none"/><path d="M7 52H6v3h1zM6 75h1v-3H6zM8 50v-2H7v2zM7 79h1v-3H7zM8 47h1v-2H8zM9 80H8v2h1zM9 44h1v-2H9zM11 40h-1v2h1zM10 87h1v-2h-1zM12 38h-1v2h1zM11 89h1v-2h-1zM12 38h1v-2h-1zM12 89v1h1v-1zM14 35h-1v1h1zM13 91v1h1v-1zM15 35v-2h-1v2zM15 94v-2h-1v2zM16 32h-1v1h1zM16 95v-1h-1v1zM17 30h-1v2h1zM16 96h1v-1h-1zM18 29h-1v1h1zM18 98v-1h-1v1zM19 29v-1h-1v1zM18 98v1h1v-1zM19 28h1v-1h-1zM19 99v1h1v-1zM20 27h1v-1h-1zM20 100v1h1v-1zM22 26v-1h-1v1zM22 101h-1v1h1zM22 24v1h1v-1zM23 102h-1v1h1zM23 23v1h1v-1zM23 103v1h1v-1zM25 23v-1h-1v1zM25 104h-1v1h1zM25 22h1v-1h-1zM26 105h-1v1h1zM26 20v1h2v-1zM27 106v1h1v-1zM29 19h-1v1h1zM28 108h1v-1h-1zM29 18v1h1v-1zM29 109h2v-1h-2zM31 114h-1v1h1zM31 18h1v-1h-1zM31 109v1h1v-1zM32 17h2v-1h-2zM33 110v1h1v-1zM34 15v1h1v-1zM36 112v-1h-2v1zM36 15h1v-1h-1zM38 112h-2v1h2zM38 13v1h2v-1zM40 113h-1v1h1zM40 12v1h2v-1zM41 114v1h1v-1zM43 120h-1v1h1zM45 12v-1h-2v1zM45 7V6h-1v1zM45 115h-1v1h1zM46 10v1h2v-1zM47 117h2v-1h-2zM50 9v1h3V9zM52 118h2v-1h-2zM55 8v1h17V8zM59 118v1h8v-1zM62 3h-1v1h1zM66 3h-1v1h1zM75 117h-2v1h2zM74 4v1h1V4zM77 10V9h-3v1zM79 116h-1v1h1zM79 10v1h2v-1zM82 122v-1h-1v1zM82 7h1V6h-1zM84 12v-1h-2v1zM83 115h-1v1h1zM83 7v1h1V7zM84 114v1h2v-1zM85 120h-1v1h1zM87 13v-1h-2v1zM86 8v1h1V8zM87 14h2v-1h-2zM87 113v1h1v-1zM91 14h-2v1h2zM90 112h-1v1h1zM93 16v-1h-2v1zM92 112v-1h-1v1zM93 11v1h1v-1zM93 16v1h2v-1zM93 111h1v-1h-1zM95 17v1h1v-1zM96 110v-1h-1v1zM98 19v-1h-2v1zM97 108h-1v1h1zM98 20h1v-1h-1zM99 107h-1v1h1zM99 16h1v-1h-1zM99 20v1h1v-1zM99 106v1h1v-1zM100 105v1h1v-1zM102 22v-1h-1v1zM102 23h1v-1h-1zM103 23v1h1v-1zM104 104v-1h-1v1zM104 25h1v-1h-1zM105 103v-1h-1v1zM105 26h1v-1h-1zM106 102v-1h-1v1zM107 26h-1v1h1zM107 101v-1h-1v1zM107 28h1v-1h-1zM107 100h1v-1h-1zM108 23v1h1v-1zM108 28v1h1v-1zM109 31h1v-1h-1zM110 97v-1h-1v1zM111 31h-1v1h1zM110 96h1v-1h-1zM111 32v1h1v-1zM113 34h-1v1h1zM112 92v1h1v-1zM114 36v-1h-1v1zM114 91v-1h-1v1zM115 38v-1h-1v1zM115 90v-1h-1v1zM116 40v-1h-1v1zM115 87v1h1v-1zM116 41v1h1v-1zM116 86h1v-1h-1zM117 43v2h1v-2zM117 83h1v-1h-1zM119 46h-1v1h1zM119 79h-1v2h1zM120 49h-1v2h1zM120 76h-1v1h1zM120 86h-1v1h1zM121 56v-2h-1v2zM121 71h-1v2h1zM123 77v-1h-1v1zM123 57v1h1v-1zM124 66v-1h-1v1z" style="fill:#230c28;fill-opacity:1;stroke:none"/><path d="M7 55H6v2h1zM7 72v-2H6v2zM7 52h1v-2H7zM7 76h1v-1H7zM8 47v1h1v-1zM8 79v1h1v-1zM9 45h1v-1H9zM10 83v-1H9v1zM11 42h-1v1h1zM11 85v-1h-1v1zM12 57v1h1v-1zM12 69v1h1v-1zM13 88h-1v1h1zM13 36v1h1v-1zM13 91h1v-1h-1zM16 33h-1v1h1zM15 93v1h1v-1zM17 31h1v-1h-1zM17 97h1v-1h-1zM18 29v1h1v-1zM19 98v-1h-1v1zM26 22h-1v1h1zM25 105h1v-1h-1zM27 22v-1h-1v1zM26 105v1h1v-1zM29 107v1h1v-1zM31 19v-1h-1v1zM33 25v-1h-1v1zM33 110v-1h-1v1zM36 15h-1v1h1zM38 15v-1h-1v1zM38 21h-1v1h1zM37 106h1v-1h-1zM40 20h-1v1h1zM40 106h-1v1h1zM42 20v-1h-1v1zM41 108h1v-1h-1zM43 12h-1v1h1zM43 114h-1v1h1zM45 11v1h1v-1zM46 115h-1v1h1zM46 18h1v-1h-1zM47 110v-1h-1v1zM48 11h1v-1h-1zM50 17v-1h-1v1zM50 116h-1v1h1zM53 9v1h2V9zM55 16v-1h-1v1zM55 112v-1h-1v1zM55 118v-1h-1v1zM72 10h2V9h-2zM73 15h-1v1h1zM72 111v1h1v-1zM72 118h1v-1h-1zM79 11v-1h-2v1zM77 17h1v-1h-1zM77 116v1h1v-1zM80 17v1h1v-1zM81 109h-1v1h1zM82 11h-1v1h1zM81 116h1v-1h-1zM85 12h-1v1h1zM85 19v1h1v-1zM85 108h1v-1h-1zM86 114h1v-1h-1zM87 21h1v-1h-1zM87 106v1h1v-1zM90 21h-1v1h1zM90 105h-1v1h1zM94 17v1h1v-1zM94 110h1v-1h-1zM97 20h1v-1h-1zM97 108h1v-1h-1zM101 21h-1v1h1zM101 22v1h1v-1zM102 104h-1v1h1zM103 103h-1v1h1zM105 36h1v-1h-1zM106 91h-1v1h1zM107 28v1h1v-1zM107 98v1h1v-1zM108 29v1h1v-1zM108 97v1h1v-1zM112 34v-1h-1v1zM112 93h-1v1h1zM114 36h-1v1h1zM115 39v-1h-1v1zM114 58h1v-1h-1zM115 69h-1v1h1zM115 88h-1v1h1zM115 40v1h1v-1zM116 87v-1h-1v1zM116 43h1v-1h-1zM117 84h-1v1h1zM119 48v-1h-1v1zM119 51v1h1v-1zM119 75v1h1v-1zM120 58h1v-2h-1zM120 69v2h1v-2z" style="fill:#28132b;fill-opacity:1;stroke:none"/><path d="M6 59h1v-2H6zM6 68v2h1v-2zM12 41v-1h-1v1zM12 87v-1h-1v1zM12 39h1v-1h-1zM13 57v-1h-1v1zM12 70v1h1v-1zM13 52h1v-1h-1zM14 75h-1v1h1zM17 44v-1h-1v1zM17 83h-1v1h1zM17 42h1v-1h-1zM17 85v1h1v-1zM19 29h1v-1h-1zM20 99v-1h-1v1zM21 27h-1v1h1zM21 37v-1h-1v1zM20 91h1v-1h-1zM20 100h1v-1h-1zM22 100h-1v1h1zM23 101h-1v1h1zM23 24v1h1v-1zM24 103v-1h-1v1zM25 23h-1v1h1zM24 31v1h1v-1zM24 96h1v-1h-1zM25 104v-1h-1v1zM26 30h-1v1h1zM25 97h1v-1h-1zM27 29h-1v1h1zM27 97h-1v1h1zM27 29h1v-1h-1zM27 98v1h1v-1zM29 19v1h1v-1zM32 17v1h1v-1zM32 102v1h1v-1zM35 17v-1h-1v1zM34 111h1v-1h-1zM36 23v-1h-1v1zM36 105v-1h-1v1zM38 112v1h1v-1zM40 13v1h1v-1zM41 113h-1v1h1zM44 18h-1v1h1zM44 109v-1h-1v1zM49 10v1h1v-1zM50 111v-1h-1v1zM56 9h-1v1h1zM56 117h-1v1h1zM71 9v1h1V9zM72 118v-1h-1v1zM78 111v-1h-1v1zM80 116h1v-1h-1zM83 19h1v-1h-1zM83 109h1v-1h-1zM87 13h-1v1h1zM88 113h1v-1h-1zM91 112v-1h-1v1zM91 23h1v-1h-1zM92 105v-1h-1v1zM92 17h1v-1h-1zM93 110h-1v1h1zM95 25v-1h-1v1zM95 103v-1h-1v1zM100 29v-1h-1v1zM99 99h1v-1h-1zM101 30v-1h-1v1zM101 97h-1v1h1zM102 30h-1v1h1zM101 96v1h1v-1zM102 23v1h1v-1zM102 32h1v-1h-1zM102 95v1h1v-1zM103 25h1v-1h-1zM103 102v1h1v-1zM104 25v1h1v-1zM104 102h1v-1h-1zM105 26v1h1v-1zM105 100v1h1v-1zM106 28h1v-1h-1zM107 100v-1h-1v1zM110 42v-1h-1v1zM109 86h1v-1h-1zM111 43h-1v1h1zM111 83h-1v1h1zM110 94v1h1v-1zM113 52h1v-1h-1zM113 76h1v-1h-1zM115 56h-1v1h1zM114 70v1h1v-1zM118 45h-1v1h1zM118 82v-1h-1v1zM119 49v-1h-1v1zM118 79h1v-1h-1zM119 53h1v-1h-1zM119 75h1v-1h-1zM121 58h-1v1h1zM120 68v1h1v-1z" style="fill:#2c1730;fill-opacity:1;stroke:none"/><path d="M6 60h1v-1H6zM7 68v-1H6v1zM7 52v1h1v-1zM7 75h1v-1H7zM8 49h1v-1H8zM8 79h1v-1H8zM10 46v-1H9v1zM9 82h1v-1H9zM12 56h1v-1h-1zM13 72v-1h-1v1zM15 91h-1v1h1zM16 45h-1v1h1zM15 81v1h1v-1zM17 32h-1v1h1zM17 94h-1v1h1zM18 39v1h1v-1zM19 87h-1v1h1zM22 27v-1h-1v1zM23 25h-1v1h1zM24 33v-1h-1v1zM24 95v-1h-1v1zM29 28v-1h-1v1zM29 100v-1h-1v1zM29 107v-1h-1v1zM32 46v1h1v-1zM36 15v1h1v-1zM37 111h-1v1h1zM38 15h1v-1h-1zM44 13v-1h-1v1zM44 114h-1v1h1zM47 12v-1h-1v1zM47 115h-1v1h1zM51 116h-1v1h1zM54 15h-1v1h1zM54 112v-1h-1v1zM55 59h1v-1h-1zM57 117h-1v1h1zM59 50h1v-1h-1zM69 52h1v-1h-1zM70 117v1h1v-1zM72 59h1v-1h-1zM73 15v1h1v-1zM74 112v-1h-1v1zM74 72v1h1v-1zM77 11v-1h-1v1zM76 117h1v-1h-1zM80 12h1v-1h-1zM81 74h1v-1h-1zM82 73h1v-1h-1zM83 12v1h1v-1zM84 48h-1v1h1zM83 73v1h1v-1zM84 114h-1v1h1zM85 64h1v-1h-1zM88 66h-1v1h1zM88 14v1h1v-1zM91 74v-1h-2v1zM91 16v-1h-1v1zM90 54v1h1v-1zM90 58v1h1v-1zM91 72v1h1v-1zM92 51v1h1v-1zM93 61h-1v1h1zM93 73h-1v1h1zM94 64v1h1v-1zM95 74v-1h-1v1zM98 20v1h1v-1zM99 28v-1h-1v1zM99 100v-1h-1v1zM99 107v-1h-1v1zM103 32v1h1v-1zM103 94v1h1v-1zM107 37v-1h-1v1zM107 90h-1v1h1zM109 40v-1h-1v1zM108 88h1v-1h-1zM111 33v-1h-1v1zM112 46v-1h-1v1zM111 82h1v-1h-1zM112 36h1v-1h-1zM112 92h1v-1h-1zM115 56v-1h-1v1zM114 71v1h1v-1zM120 59v2h1v-2zM121 66h-1v2h1z" style="fill:#311a32;fill-opacity:1;stroke:none"/><path d="M6 60v1h1v-1zM6 66v1h1v-1zM13 55v-1h-1v1zM12 72v1h1v-1zM14 50h-1v1h1zM14 77v-1h-1v1zM14 36h1v-1h-1zM14 47v1h1v-1zM15 80v-1h-1v1zM19 37v1h1v-1zM19 89v1h1v-1zM22 33v1h1v-1zM23 94v-1h-1v1zM29 21v-1h-1v1zM30 26h-1v1h1zM30 100h-1v1h1zM31 19h1v-1h-1zM31 108v1h1v-1zM33 47h-1v17h1zM34 23h-1v1h1zM33 103v1h1v-1zM39 21v-1h-1v1zM39 107v-1h-1v1zM41 20v-1h-1v1zM46 18v-1h-1v1zM46 109h-1v1h1zM49 17v-1h-1v1zM49 111v-1h-1v1zM51 11v-1h-1v1zM53 16v-1h-1v1zM53 112v-1h-1v1zM54 64v-1h-1v1zM57 10V9h-1v1zM56 56v1h1v-1zM57 118h1v-1h-1zM67 15v-1h-7v1zM60 112v1h7v-1zM65 57h-1v-1h-1v2h2zM68 49v1h1v-1zM69 117v1h1v-1zM71 9h-1v1h1zM72 56h-1v1h1zM75 16v-1h-1v1zM74 63v1h1v-1zM74 112h1v-1h-1zM76 49v-1h-1v1zM76 64h-1v1h1zM76 73v1h4v-1zM78 61h-1v1h1zM79 16h-1v1h1zM78 111h1v-1h-1zM79 58v1h1v-1zM80 56v1h1v-1zM81 18h1v-1h-1zM81 67v1h1v-1zM81 109v1h1v-1zM83 73h-1v1h1zM84 65v-1h-1v1zM85 74v-1h-1v1zM89 20h-1v1h1zM91 74h1v-1h-1zM94 23h-1v1h1zM94 73h-1v1h1zM93 104h1v-1h-1zM96 18h-1v1h1zM95 74h1v-1h-1zM95 108v1h1v-1zM97 26v1h1v-1zM98 68v-1h-1v1zM97 100v1h1v-1zM105 33h-1v1h1zM104 94h1v-1h-1zM112 48h1v-1h-1zM112 80h1v-1h-1zM113 50v1h1v-1zM113 76v1h1v-1zM117 43h-1v1h1zM117 83h-1v1h1zM120 66h1v-5h-1z" style="fill:#361f37;fill-opacity:1;stroke:none"/><path d="M6 66h1v-5H6zM7 53v1h1v-1zM8 73H7v1h1zM9 50v-1H8v1zM8 78h1v-1H8zM10 44h1v-1h-1zM11 84v-1h-1v1zM14 37h-1v1h1zM14 90v-1h-1v1zM16 44h-1v1h1zM17 42h-1v1h1zM17 84h-1v1h1zM18 32v-1h-1v1zM17 40v1h1v-1zM18 96v-1h-1v1zM21 34v1h1v-1zM21 93h1v-1h-1zM27 22h1v-1h-1zM27 105v1h1v-1zM31 26v-1h-1v1zM31 102v-1h-1v1zM36 21v1h1v-1zM37 106v-1h-1v1zM40 108h1v-1h-1zM41 13v1h1v-1zM41 114h1v-1h-1zM43 18h-1v1h1zM43 109v-1h-1v1zM47 116h1v-1h-1zM52 10h-1v1h1zM52 15h-1v1h1zM51 112h1v-1h-1zM52 117v-1h-1v1zM57 10h2V9h-2zM58 14v1h2v-1zM58 112v1h2v-1zM59 118v-1h-1v1zM67 15h2v-1h-2zM69 113v-1h-2v1zM70 9h-2v1h2zM68 117v1h1v-1zM76 10h-1v1h1zM76 16v-1h-1v1zM75 111v1h1v-1zM76 116h-1v1h1zM79 11v1h1v-1zM80 116v-1h-1v1zM84 18v1h1v-1zM85 109v-1h-1v1zM86 14v-1h-1v1zM85 114h1v-1h-1zM86 20h1v-1h-1zM86 107v1h1v-1zM89 106h-1v1h1zM90 21v1h1v-1zM90 106h1v-1h-1zM96 25v1h1v-1zM97 101h-1v1h1zM99 22h1v-1h-1zM100 106v-1h-1v1zM106 35v-1h-1v1zM105 93h1v-1h-1zM108 38v-1h-1v1zM107 90h1v-1h-1zM110 32v-1h-1v1zM110 95h-1v1h1zM110 42v1h1v-1zM111 85v-1h-1v1zM114 38v-1h-1v1zM114 89h-1v1h1zM114 39v1h1v-1zM115 54h-1v1h1zM114 73h1v-1h-1zM114 87v1h1v-1zM116 42v-1h-1v1zM115 85v1h1v-1zM117 80v1h1v-1zM118 49v1h1v-1zM118 77v1h1v-1zM119 53v1h1v-1zM120 73h-1v1h1z" style="fill:#38253f;fill-opacity:1;stroke:none"/><path d="M8 55v-1H7v1zM8 72H7v1h1zM12 52v1h1v-1zM12 74v1h1v-1zM19 31v-1h-1v1zM18 96v1h1v-1zM25 31v-1h-1v1zM24 96v1h1v-1zM26 29h-1v1h1zM26 98v-1h-1v1zM27 23v-1h-1v1zM26 29h1v-1h-1zM27 98h-1v1h1zM26 105h1v-1h-1zM27 27v1h1v-1zM27 100h1v-1h-1zM30 19v1h1v-1zM30 107v1h1v-1zM33 23h-1v1h1zM32 103v1h1v-1zM35 16v1h1v-1zM36 111v-1h-1v1zM37 15v1h1v-1zM37 20v1h1v-1zM38 106h-1v1h1zM37 112h1v-1h-1zM39 14v1h1v-1zM39 19v1h1v-1zM40 108v-1h-1v1zM40 113v-1h-1v1zM42 18h-1v1h1zM41 108v1h1v-1zM50 16h1v-1h-1zM51 111h-1v1h1zM53 11v-1h-1v1zM52 116v1h1v-1zM55 15h1v-1h-1zM57 112h-2v1h2zM67 10V9h-7v1zM66 118v-1h-5v1zM72 112h-2v1h2zM71 14v1h1v-1zM75 10h-1v1h1zM74 116v1h1v-1zM76 15v1h1v-1zM76 111v1h1v-1zM86 18h-1v1h1zM85 109h1v-1h-1zM88 14h-1v1h1zM88 19h-1v1h1zM87 107v1h1v-1zM90 15h-1v1h1zM89 21h1v-1h-1zM89 106v1h1v-1zM89 112h1v-1h-1zM91 16v1h1v-1zM92 110h-1v1h1zM94 24h1v-1h-1zM94 103v1h1v-1zM96 20h1v-1h-1zM99 27v1h1v-1zM99 99v1h1v-1zM101 23v-1h-1v1zM101 28h-1v1h1zM101 99v-1h-1v1zM102 30v-1h-1v1zM102 98v-1h-1v1zM103 96h-1v1h1zM113 47v-1h-1v1zM112 80v1h1v-1zM114 53h1v-1h-1zM114 75h1v-1h-1zM116 59h-1v1h1zM115 68h1v-1h-1zM119 50h-1v1h1zM118 77h1v-1h-1z" style="fill:#412e4b;fill-opacity:1;stroke:none"/><path d="M7 55v1h1v-1zM8 71H7v1h1zM9 50H8v1h1zM9 76H8v1h1zM10 44v1h1v-1zM11 82h-1v1h1zM15 37v-1h-1v1zM15 90h-1v1h1zM20 29h-1v1h1zM19 98h1v-1h-1zM97 22v-1h-1v-1h-2v-1h-1v1h-1v-2h-1v-1h-2v-1h-3v-1h-2v-1h-3v-1h-3v1h-1v-2h-5v-1H54v1h-5v2h-1v-1h-2v1h-3v1h-3v1h-2v1h-2v1h-2v1h-1v1h-2v1h-1v1h-2v1h-1v1h-1v1h-1v1h-1v1h-1v1h-1v1h4v-1h1v-1h1v-1h2v-1h1v-1h1v-1h2v-1h1v-1h2v-1h2v-1h2v-1h3v-1h2v-1h4v-1h5v-1h17v1h5v1h4v1h2v1h3v1h2v1h2v1h2v1h1v1h2v1h1v1h1v1h2v1h1v1h1v1h4v-1h-1v-1h-1v-1h-1v-1h-1v-1h-1v-1h-2v-1zM81 114v-1h3v-1h2v-1h2v-1h1v-1h1v1h1v-1h1v-1h2v-1h2v-1h1v-1h1v-1h2v-1h1v-1h1v-1h1v-1h1v-1h1v-1h-2v-1h-1v1h-1v1h-1v1h-2v1h-1v1h-1v1h-1v1h-2v1h-2v1h-1v1h-2v1h-2v1h-3v1h-3v1h-3v1h-5v1h-3v1h-1v-1H55v-1h-6v-1h-3v-1h-2v-1h-3v-1h-2v-1h-2v-1h-1v-1h-2v-1h-2v-1h-1v-1h-1v-1h-2v-1h-1v-1h-1v-1h-1v-1h-1v1h-2v1h1v1h1v1h1v1h1v1h1v1h2v1h1v1h1v1h2v1h2v1h1v1h2v1h3v1h2v1h3v1h4v1h5v1h5v-1h2v1h1v-1h1v1h1v-1h2v1h1v-1h1v1h1v-1h1v1h1v-1h1v-1h3v1h1v-1z" style="fill:#453352;fill-opacity:1;stroke:none"/><path d="M26 23h-1v1h1zM25 104h1v-1h-1zM49 12v-1h-1v1zM49 115h-1v1h1zM78 11v1h1v-1zM79 115h-1v1h1zM101 23v1h1v-1zM102 104v-1h-1v1zM108 29h-1v1h1zM108 98v-1h-1v1zM112 36v1h1v-1zM112 90v1h1v-1zM116 44v1h1v-1zM117 83v-1h-1v1zM119 55v1h1v-1zM119 72h1v-1h-1z" style="fill:#453352;fill-opacity:1;stroke:none"/><path d="M8 57v-1H7v1zM7 70v1h1v-1zM9 55H8v1h1zM9 71H8v1h1zM11 47H9v1h2zM10 75H9v1h1zM9 79v1h2v-1zM11 44v1h1v-1zM12 83v-1h-1v1zM13 42h-1v1h1zM12 85h1v-1h-1zM14 87v-1h-1v1zM14 38v1h1v-1zM15 88h-1v1h1zM16 33v1h2v-1zM17 93h-1v1h1zM19 33v-1h-1v1zM19 94h-1v1h1zM21 29v-1h-1v1zM20 98v1h1v-1zM24 25h1v-1h-1zM29 105v-1h-1v1zM29 21v1h1v-1zM32 19v1h1v-1zM35 108h-1v1h1zM41 112v-1h-1v1zM43 15v-2h-1v2zM43 113h-1v1h1zM46 14v-1h-1v1zM46 114v-1h-1v1zM48 13h1v-1h-1zM50 115v-1h-1v1zM53 12h1v-2h-1zM53 117h1v-1h-1zM54 115v1h1v-1zM74 12v-2h-1v1h-1v1zM72 115v1h1v-1zM73 116v1h1v-1zM77 12v1h1v-1zM77 115h1v-1h-1zM81 13v1h1v-1zM82 113h-1v1h1zM84 15h1v-2h-1zM85 113h-1v1h1zM87 16v-1h-1v1zM87 112v-1h-1v1zM88 110v1h1v-1zM92 19h1v-1h-1zM93 108h-1v1h1zM99 23v-1h-1v1zM98 104v1h1v-1zM102 24v1h1v-1zM102 102v1h1v-1zM107 29v-1h-1v1zM106 99h1v-1h-1zM107 95v1h1v-1zM109 33v-1h-1v1zM108 95h1v-1h-1zM111 33h-1v1h1zM110 91v1h1v-1zM110 94h1v-1h-1zM112 38v1h1v-1zM113 89v-1h-1v1zM114 40h-1v1h1zM114 86h-1v1h1zM115 42h-1v1h1zM115 84h-1v1h1zM117 48h1v-1h-1zM117 51v1h1v-1zM117 76h1v-1h-1zM117 80h1v-1h-1zM120 71v-1h-2v1zM120 56h-1v1h1z" style="fill:#4a3855;fill-opacity:1;stroke:none"/><path d="M8 57H7v13h1zM8 54h1v-2H8zM9 72H8v3h1zM10 48H9v2h1zM9 77v2h1v-2zM11 47v-2h-1v2zM10 80v2h1v-2zM12 43h-1v1h1zM11 83v1h1v-1zM12 41v1h1v-1zM12 86h1v-1h-1zM13 39v1h1v-1zM13 87v1h1v-1zM15 38v-1h-1v1zM15 36h1v-1h-1zM16 34v1h1v-1zM17 93v-1h-1v1zM18 32h-1v1h1zM17 94v1h1v-1zM19 32v-1h-1v1zM19 30v1h1v-1zM21 29h-1v1h1zM20 98h1v-1h-1zM22 98h-1v1h1zM24 101v1h1v-1zM26 103v-1h-1v1zM26 24h1v-1h-1zM28 22h-1v1h1zM28 21v1h1v-1zM30 21h1v-1h-1zM32 19h-1v1h1zM33 18v1h1v-1zM34 17v1h2v-1zM34 110h2v-1h-2zM37 16h-1v1h1zM37 111h1v-1h-1zM38 16h2v-1h-2zM39 112h1v-1h-1zM40 113h1v-1h-1zM41 15h1v-1h-1zM43 13v1h2v-1zM44 114h1v-1h-1zM48 13v-1h-2v1zM49 115v1h1v-1zM52 11h-2v1h2zM52 115v1h1v-1zM55 116h-1v1h1zM55 10v1h5v-1zM60 116v1h7v-1zM61 10v1h1v-1zM72 11v-1h-5v1zM72 116v1h1v-1zM75 115h-1v1h1zM75 12h1v-1h-1zM77 115v1h1v-1zM81 12h-2v1h2zM82 13v1h1v-1zM87 14h-1v1h1zM87 112h-1v1h1zM89 15h-2v1h2zM90 17v-1h-1v1zM93 17h-2v1h2zM97 105v1h1v-1zM98 22h1v-1h-1zM102 24h-1v1h1zM103 26v-1h-1v1zM102 102h1v-1h-1zM104 100h-1v1h1zM105 99h-1v1h1zM106 28h-1v1h1zM106 99v-1h-1v1zM107 30v-1h-1v1zM110 32h-1v1h1zM109 95h1v-2h-1zM112 37v-1h-1v1zM112 91v-1h-1v1zM115 83h1v-1h-1zM118 50h-1v1h1zM118 76h-1v1h1zM118 54v1h1v-1zM118 72v1h1v-1zM120 58v-1h-1v1zM120 70v-1h-1v1z" style="fill:#4f3f5c;fill-opacity:1;stroke:none"/><path d="M8 52h1v-1H8zM9 54H8v1h1zM9 76v-1H8v1zM10 50H9v1h1zM10 77v-1H9v1zM12 42h-1v1h1zM12 85v-1h-1v1zM12 40v1h1v-1zM12 87h1v-1h-1zM14 38h-1v1h1zM13 88v1h1v-1zM16 37v-1h-1v1zM15 91h1v-1h-1zM18 93h-1v1h1zM24 27v-1h1v-1h-2v1h-1v1h-1v2h1v-1h1v-1zM21 99v1h1v1h1v1h1v-2h-1v-1zM25 102h-1v1h1zM26 25v-1h-1v1zM29 21h1v-1h-1zM30 105h-1v2h1zM33 19v-1h-1v1zM32 107v2h1v-2zM38 16h-1v1h1zM40 14v1h1v-1zM43 112h-1v1h1zM46 12h-1v1h1zM45 114v1h1v-1zM49 114h-1v1h1zM50 12v-1h-1v1zM52 12h1v-1h-1zM54 116v-1h-1v1zM55 10h-1v1h1zM60 10v1h1v-1zM62 11h5v-1h-5zM72 10v1h1v-1zM73 115v1h1v-1zM75 12v-1h-1v1zM77 12h1v-1h-1zM78 12v1h1v-1zM79 114h-1v1h1zM82 13v-1h-1v1zM82 115v-1h-1v1zM85 112h-1v1h1zM95 20v-2h-1v2zM94 109h1v-2h-1zM97 22h1v-2h-1zM98 106h-1v1h1zM103 27h1v1h2v-1h-1v-1h-1v-1h-1zM103 102h1v-1h-1zM105 100h-1v1h1zM106 99h-1v1h1zM110 34v-1h-1v1zM114 39v-1h-1v1zM114 89v-1h-1v1zM115 40h-1v1h1zM114 87h1v-1h-1zM116 43v-1h-1v1zM116 44h-1v1h1zM116 84h-1v1h1zM116 47v1h1v-1zM116 80h1v-1h-1zM119 51h-1v1h1zM119 56v-1h-1v1zM118 72h1v-1h-1zM119 76v-1h-1v1z" style="fill:#4c3c57;fill-opacity:1;stroke:none"/><path d="M11 82h3v-3h-1v-3h-1v-5h-1V56h1v-5h1v-3h1v-3h-3v1h1v2h-2v1h1v2H9v1h1v1H9v3H8v15h1v3h1v2h1v2h-1v1h2v2h-1zM14 41v-1h-1v1zM17 92v-1h-1v1zM18 89h-1v1h1zM18 38h1v-1h-1zM20 95h-1v1h1zM107 95h-1v1h1zM108 31h-1v1h1zM111 36v-1h-1v1zM116 82v-1h-1v-2h2v-1h-1v-2h1v-1h1v-5h1V56h-1v-4h-1v-1h-1v-2h1v-1h-2v-2h1v-1h-3v3h1v3h1v6h1v13h-1v6h-1v3h-1v3z" style="fill:#493054;fill-opacity:1;stroke:none"/><path d="M9 46v1h1v-1zM10 81v-1H9v1zM11 41v1h1v-1zM11 86h1v-1h-1zM13 40v-1h-1v1zM12 87v1h1v-1zM16 35v-1h-1v1zM15 93h1v-1h-1zM32 24h-1v1h1zM31 102v1h1v-1zM34 18v-1h-1v1zM34 110v-1h-1v1zM34 23h1v-1h-1zM34 104v1h1v-1zM44 13h1v-1h-1zM44 17v1h1v-1zM45 109h-1v1h1zM45 115v-1h-1v1zM47 11v1h1v-1zM47 17h1v-1h-1zM47 111h1v-1h-1zM56 14v1h2v-1zM57 113h1v-1h-1zM60 9h-1v1h1zM59 118h2v-1h-2zM66 117v1h2v-1zM67 9v1h1V9zM69 15h2v-1h-2zM69 112v1h1v-1zM79 16v1h1v-1zM80 110h-1v1h1zM82 13h1v-1h-1zM83 17h-1v1h1zM82 109v1h1v-1zM83 114h-1v1h1zM88 113v-1h-1v1zM93 23v-1h-1v1zM93 104h-1v1h1zM94 18v-1h-1v1zM93 109v1h1v-1zM95 24v1h1v-1zM95 103h1v-1h-1zM97 107h-1v1h1zM100 105h1v-1h-1zM109 31v-1h-1v1zM109 97v-1h-1v1zM112 34h-1v1h1zM112 92h-1v1h1zM117 46v1h1v-1zM119 55h1v-1h-1zM119 72v1h1v-1z" style="fill:#3c2b44;fill-opacity:1;stroke:none"/><path d="M9 53h1v-1H9zM9 75h1v-1H9zM10 51h1v-2h-1zM11 78v-2h-1v2zM11 48h1v-2h-1zM11 81h1v-2h-1zM15 46v-3h1v-2h1v-2h1v-2h1v-1h1v-1h1v-1h1v-2h1v-1h1v-1h1v-1h-4v1h-1v1h-1v2h-1v1h-1v1h-1v2h-1v2h-1v2h-1v2h-1v2h2v1zM20 92v-1h-1v-2h-1v-1h-1v-2h-1v-2h-1v-3h-1v1h-2v2h1v2h1v2h1v2h1v1h1v2h1v1h1v1h1v2h1v1h3v-2h-1v-1h-1v-2h-1v-1zm-2-2h-1v-1h1zM48 13v1h1v-1zM60 116h2v-1h-2zM63 116h1v-1h-1zM67 115h-2v1h2zM68 113v1h1v-1zM69 115h-1v1h1zM71 115h-1v1h1zM76 115v-1h-3v1zM78 13h-1v1h1zM90 110v-1h-1v1zM92 19v1h1v-1zM111 43h1v3h1v-1h2v-2h-1v-2h-1v-2h-1v-2h-1v-1h-1v-2h-1v-1h-1v-1h-1v-2h-1v-1h-4v1h1v1h1v1h1v2h1v1h1v1h1v2h1v2h1v1h1zM112 88h1v-2h1v-2h1v-2h-2v-1h-1v3h-1v2h-1v1h-1v2h-1v2h-1v1h-1v1h-1v2h-1v1h-1v2h3v-1h1v-1h-1v-1h2v-1h1v-1h1v-2h1v-1h1zM116 48v-2h-1v2zM116 81v-2h-1v2zM116 49v2h1v-2zM117 76h-1v2h1z" style="fill:#463153;fill-opacity:1;stroke:none"/><path d="M11 59h1v-3h-1zM12 68h-1v3h1zM12 51v1h1v-1zM12 75v1h1v-1zM13 49h1v-1h-1zM13 79h1v-1h-1zM16 44v-1h-1v1zM15 83v1h1v-1zM16 41v1h1v-1zM16 86h1v-1h-1zM17 40h1v-1h-1zM17 88h1v-1h-1zM20 37v-1h-1v1zM19 91h1v-1h-1zM23 32h-1v1h1zM22 95h1v-1h-1zM23 31v1h1v-1zM23 95v1h1v-1zM28 27h1v-1h-1zM29 100h-1v1h1zM35 21v1h1v-1zM47 16h-1v1h1zM46 111h1v-1h-1zM50 111h-1v1h1zM81 16h-1v1h1zM92 21h-1v1h1zM98 27h1v-1h-1zM102 31h1v-1h-1zM103 32h1v-1h-1zM103 96h1v-1h-1zM104 32v1h1v-1zM104 95h1v-1h-1zM108 36h-1v1h1zM107 90v1h1v-1zM111 42v-1h-1v1zM110 86h1v-1h-1zM112 44v-1h-1v1zM112 83h-1v1h1zM113 49h1v-1h-1zM114 79v-1h-1v1zM114 51v1h1v-1zM114 75v1h1v-1zM115 59h1v-2h-1zM115 70h1v-2h-1z" style="fill:#452d50;fill-opacity:1;stroke:none"/><path d="M12 59h-1v9h1zM13 54v-1h-1v1zM13 74v-1h-1v1zM13 49v1h1v-1zM14 77h-1v1h1zM14 46v1h1v-1zM14 80v1h1v-1zM15 83h1v-1h-1zM18 86h-1v1h1zM19 38h-1v1h1zM18 88v1h1v-1zM21 36v-1h-1v1zM20 91v1h1v-1zM106 36h1v-1h-1zM106 92h1v-1h-1zM108 38v1h1v-1zM109 89v-1h-1v1zM109 41h1v-1h-1zM109 87h1v-1h-1zM111 44v1h1v-1zM111 83h1v-1h-1zM114 49h-1v1h1zM113 77v1h1v-1zM114 53v1h1v-1zM115 73h-1v1h1zM115 67h1v-7h-1z" style="fill:#402647;fill-opacity:1;stroke:none"/><path d="M13 58h-1v2h1zM13 67h-1v2h1zM14 52h-1v1h1zM13 74v1h1v-1zM16 47v-1h-1v1zM15 81h1v-1h-1zM19 38v1h1v-1zM20 89v-1h-1v1zM22 35h-1v1h1zM21 92h1v-1h-1zM30 67v-1h-1v1zM30 64v1h1v-1zM31 25v1h1v-1zM39 69v-1h-8v1zM31 101v1h1v-1zM38 46h1v-1h-1zM40 46h-1v8h1zM39 68h1v-7h-1zM40 60v1h4v-1zM45 54v-1h-1v1zM46 45h-1v1h1zM58 68H46v1h12zM51 16h-1v1h1zM50 111h1v-1h-1zM52 46v-1h-1v1zM53 62v1h1v-1zM55 15v1h1v-1zM55 58h1v-1h-1zM55 111v1h1v-1zM57 56v-1h-1v1zM59 50h-1v1h1zM60 48h-1v1h1zM61 65v-1h-1v1zM61 46h1v-1h-1zM67 45h-1v1h1zM67 65h1v-1h-1zM69 48h-1v1h1zM70 51v-1h-1v1zM81 69v-1H70v1zM71 16h1v-1h-1zM72 56v-1h-1v1zM72 112v-1h-1v1zM73 57h-1v1h1zM74 63h1v-1h-1zM76 49h-1v1h1zM76 16v1h1v-1zM77 71h-1v1h1zM79 75v-1h-3v1zM76 111h1v-1h-1zM77 52v1h1v-1zM78 59v1h1v-1zM79 58h1v-1h-1zM81 45v1h1v-1zM82 73v-2h-1v2zM85 74h-4v1h4zM83 47v-1h-1v1zM84 72v-1h-1v1zM85 49h-1v1h1zM86 73v-1h-1v1zM86 48h1v-1h-1zM87 65h-1v1h1zM88 71h-1v1h1zM88 74v-1h-1v1zM88 46h1v-1h-1zM89 68v1h8v-1zM89 75h1v-1h-1zM92 53h-1v1h1zM92 60v-1h-1v1zM91 72h1v-1h-1zM92 74v1h3v-1zM93 50v1h1v-1zM94 63v-1h-1v1zM94 45v1h1v-1zM96 26v-1h-1v1zM96 48v-2h-1v2zM95 102h1v-1h-1zM96 72v1h1v-1zM107 39h1v-1h-1zM108 89v-1h-1v1zM112 46h-1v1h1zM112 80h-1v1h1zM114 52h-1v1h1zM113 75h1v-1h-1zM114 58v2h1v-2zM114 66v3h1v-3z" style="fill:#291023;fill-opacity:1;stroke:none"/><path d="M13 60h-1v7h1zM13 54h1v-1h-1zM13 74h1v-1h-1zM15 49h-1v1h1zM14 78h1v-1h-1zM16 44v1h1v-1zM17 83v-1h-1v1zM17 42v1h1v-1zM18 84h-1v1h1zM19 41v-1h-1v1zM18 86v1h1v-1zM22 35h1v-1h-1zM23 92h-1v1h1zM24 33h-1v1h1zM23 94h1v-1h-1zM30 66v-1h-1v1zM29 67v1h1v-1zM31 27v-1h-1v1zM30 68v1h1v-1zM30 100v1h1v-1zM32 46h1v-1h-1zM34 23v1h1v-1zM34 104h1v-1h-1zM40 53v1h4v-1zM45 19v-1h-1v1zM44 47h1v-1h-1zM45 53v-5h-1v5zM44 68h1v-7h-1zM44 108v1h1v-1zM45 68v1h1v-1zM48 18v-1h-1v1zM47 110h1v-1h-1zM51 70h1v-1h-1zM53 47h-1v15h2v-1h-1zM52 63v1h1v-1zM54 59v1h1v-1zM55 70v-1h-1v1zM58 15h-2v1h2zM56 54v1h1v-1zM56 111v1h2v-1zM57 53h1v-1h-1zM59 69v-1h-1v1zM60 68v-1h-1v1zM69 68v-1h-1v1zM69 16h2v-1h-2zM70 68h-1v1h1zM69 112h2v-1h-2zM70 52v1h1v-1zM71 54v1h1v-1zM73 59v1h1v-1zM73 69v1h1v-1zM74 74v-1h-1v1zM75 46v-1h-1v1zM75 61h-1v1h1zM74 72h1v-1h-1zM75 75v-1h-1v1zM75 64h1v-1h-1zM77 51h-1v1h1zM76 70h1v-1h-1zM78 60h-1v1h1zM78 55h1v-1h-1zM80 18v-1h-1v1zM81 75v-1h-2v1zM79 109v1h1v-1zM80 71v1h1v-1zM82 18v1h1v-1zM83 72v-1h-1v1zM82 109h1v-1h-1zM84 48v-1h-1v1zM84 65h-1v1h1zM86 49v-1h-1v1zM85 65h1v-1h-1zM86 74h-1v1h1zM87 45v1h1v-1zM87 67v1h1v-1zM89 68h-1v1h1zM89 75v-1h-1v1zM90 71h-1v1h1zM91 55h-1v1h1zM91 57h-1v1h1zM90 74v1h2v-1zM92 24h1v-1h-1zM92 52v1h1v-1zM92 61h1v-1h-1zM93 104v-1h-1v1zM93 70h1v-1h-1zM95 49h-1v1h1zM95 64v-1h-1v1zM96 26v1h1v-1zM96 74v1h1v-1zM97 100h-1v1h1zM97 64v1h1v-1zM97 69h1v-1h-1zM98 67h1v-1h-1zM103 94h1v-1h-1zM105 35v-1h-1v1zM104 92v1h1v-1zM109 41v-1h-1v1zM109 86h-1v1h1zM109 42v1h1v-1zM110 85v-1h-1v1zM110 45h1v-1h-1zM111 82h-1v1h1zM111 47v1h1v-1zM111 80h1v-1h-1zM113 49h-1v1h1zM113 78v-1h-1v1zM113 53v1h1v-1zM114 73h-1v1h1zM114 66h1v-6h-1z" style="fill:#240c1f;fill-opacity:1;stroke:none"/><path d="M13 54v1h1v-1zM13 69h1v1h3v1h3v1h2v1h2v1h1v1h2v1h1v1h1v1h1v1h1v1h1v1h2v1h1v1h1v1h2v1h1v1h2v1h2v1h2v1h3v1h3v1h5v1h15v-1h5v-1h3v-1h3v-1h2v-1h2v-1h2v-1h1v-1h2v-1h1v-1h1v-1h1v-1h2v-2h2v-1h1v-1h1v-1h1v-1h2v-1h2v-1h2v-1h2v-1h5V57h-4v-1h-3v-1h-2v-1h-2v-1h-2v-1h-1v-1h-1v-1h-1v-1h-2v-1h-1v2h-1v1h-1v2h-1v1h-1v2h-1v1h1v2h1v1h1v2h1v1h2v1h2v2h1v1h-1v2h-4v1h-1v-1h-5v-1h-1v-2h-1v-1h-1v-1h-1v2h-1v1h-1v1h-1v1h-4v1h-1v-1h-2v1h-1v-1h-4v-1h-1v-3h-1v-1h-2v1h-1v-1h-3v1h-1v3h-1v1h-4v1h-1v-1h-2v1h-1v-1h-6v-1h-1v-6h-1v-1h-2v1h-1v6h-1v1h-9v-1h-1v-3h1v-1h1v-1h1v-1h-1v-1h1v-1h-1v-1h1v-1h-1v-1h1v-1h-1v-1h1v-1h-1v-1h1v-1h-1v-1h1v-1h-1v-1h1v-1h-2v1h-1v1h-1v1h-1v1h-2v1h-1v1h-2v1h-2v1h-3v1h-3v1h-1zm77 2v1h1v-1h1v1h3v-1h1v1h1v3h-1v-1h-1v1h-7v-1h-2v1h-3v1h-1v-1h-6v-1h-1v1h-1v-1h-1v-1h1v-2h1v1h1v-1h1v1h3v-1h4v1h2v1h1v-2h1v-1h1v1zM14 73v-1h-1v1zM14 50v1h1v-1zM14 77h1v-1h-1zM16 48v-1h-1v1zM16 79h-1v1h1zM21 37h-1v1h1zM21 89h-1v1h1z" style="fill:#22091b;fill-opacity:1;stroke:none"/><path d="M86 40h-2v-1h-2v-1h-3v-1h-3v-1h-5v-1H56v1h-5v1h-3v1h-3v1h-2v1h-2v1h-2v1h-1v1h-2v2h3v1h1v6h1v1h3v-5h1v-1h-1v-1h1v-1h7v2h1v14h1v-2h1v-2h1v-3h1v-2h1v-2h1v-2h1v-2h1v-1h6v1h1v2h1v2h1v2h1v2h1v3h1v2h1v2h1v1h2v-2h1v-1h1v-2h1v-1h-1v-1h-1v-2h-1v-1h-1v-2h-1v-2h-1v-3h8v1h1v1h1v2h1v-1h1v-1h1v-2h4v-2h-2v-1h-1v-1h-2zM53 62h-1v1h1zM95 46h1v-1h-1zM104 33h-1v1h1zM106 37v1h1v-1zM107 89h-1v1h1zM113 50h-1v1h1zM113 77v-1h-1v1zM114 54h-1v2h1zM113 73h1v-2h-1z" style="fill:#22091b;fill-opacity:1;stroke:none"/><path d="M34 35v1h-1v1h-2v1h-1v1h-2v1h-2v1h-1v1h-2v1h-2v1h-3v1h-2v3h-1v3h-1v4h-1v3h1v-1h3v-1h3v-1h2v-1h2v-1h1v-1h2v-1h1v-1h1v-1h1v-1h2v-3h4v-2h2v-1h1v-1h2v-1h2v-1h2v-1h3v-1h3v-1h5v-1h15v1h5v1h3v1h3v1h2v1h2v1h2v1h1v1h2v2h5v4h2v1h1v1h1v1h1v1h2v1h2v1h2v1h3v1h4v-1h-1v-5h-1v-3h-1v-3h-2v-1h-3v-1h-2v-1h-2v-1h-1v-1h-2v-1h-2v-1h-1v-1h-2v-1h-1v-1h-2v-1h-2v-1h-2v-1h-2v-1h-2v-1h-3v-1h-3v-1h-6v-1H55v1h-5v1h-3v1h-3v1h-2v1h-2v1h-2v1h-2v1zM25 75v-1h-1v-1h-2v-1h-2v-1h-3v-1h-3v-1h-1v3h1v4h1v3h1v3h2v1h3v1h2v1h2v1h1v1h2v1h2v1h1v1h2v1h1v1h2v1h2v1h2v1h2v1h2v1h3v1h4v1h4v1h17v-1h4v-1h4v-1h3v-1h2v-1h2v-1h2v-1h2v-1h2v-1h1v-1h2v-1h1v-1h2v-1h1v-1h2v-1h2v-1h2v-1h2v-1h3v-3h1v-3h1v-5h1v-1h-5v1h-2v1h-2v1h-2v1h-2v1h-1v1h-1v1h-1v1h-2v2h-2v1h-1v1h-1v1h-1v1h-2v1h-1v1h-2v1h-2v1h-2v1h-3v1h-3v1h-5v1H56v-1h-5v-1h-3v-1h-3v-1h-2v-1h-2v-1h-2v-1h-1v-1h-2v-1h-1v-1h-1v-1h-2v-1h-1v-1h-1v-1h-1v-1h-1v-1h-1v-1zM19 88h1v-1h-1z" style="fill:#21091a;fill-opacity:1;stroke:none"/><path d="M32 50v-1h-1v1zM32 51h-1v1h1zM32 54v-1h-1v1zM31 55v1h1v-1zM31 58h1v-1h-1zM32 59h-1v1h1zM31 62h1v-1h-1zM32 64v-1h-1v1zM41 53v-1h-1v1zM41 61h-1v1h1zM43 62h1v-1h-1zM65 64h-1v1h1zM76 63v-1h-1v1zM82 75v1h1v-1zM87 73h-1v1h1zM88 70v1h1v-1zM95 63v1h1v-1zM96 72v-1h-1v1z" style="fill:#21091a;fill-opacity:1;stroke:none"/><path d="M15 49v-1h-1v1zM15 79v-1h-1v1zM31 65h1v-1h-1zM33 45v1h5v-1zM39 61h1v-1h-1zM45 60h-1v1h1zM46 45v1h5v-1zM53 64h-1v1h1zM55 61v-1h-1v1zM57 53v1h1v-1zM59 52v-1h-1v1zM59 67h1v-1h-1zM60 47h1v-1h-1zM62 46h4v-1h-4zM68 47v-1h-1v1zM68 66v1h1v-1zM70 53v1h1v-1zM74 60h-1v1h1zM75 46h-1v2h1zM75 72v1h-1v1h2v-1h4v1h1v-2zM81 45h-6v1h6zM76 51h1v-1h-1zM76 63h1v-1h-1zM78 53v1h1v-1zM79 55v1h1v-1zM82 67h1v-1h-1zM83 72v1h2v-1zM85 64v-1h-1v1zM85 49v1h1v-1zM86 73h-1v1h1zM88 47v-1h-1v1zM89 73h2v-1h-2v-1h-1v1h-1v1h1v1h1zM89 45v1h5v-1zM90 57v-1h-1v1zM96 73v-1h-4v1zM94 48v1h1v-1zM97 65v-1h-2v1zM97 73h-1v1h1zM112 48v1h1v-1zM112 78v1h1v-1z" style="fill:#301429;fill-opacity:1;stroke:none"/><path d="M15 89h-1v1h1zM16 91h-1v1h1zM18 96h1v-1h-1zM19 97h1v-1h-1zM27 103h-1v1h1zM28 105v-1h-1v1zM28 105v1h1v-1zM31 106h-1v1h1zM31 107v1h1v-1zM34 108h-1v1h1zM37 111v-1h-1v1zM39 111h-1v1h1zM41 113h1v-1h-1zM44 114v-1h-1v1zM46 54h-1v1h1zM48 114h-2v1h2zM50 116h2v-1h-2zM60 117v-1h-5v1zM72 117v-1h-5v1zM76 46h-1v1h1zM77 115h-2v1h2zM76 11v1h1v-1zM78 62h-1v1h1zM79 114v1h2v-1zM84 113h-2v1h2zM84 13h-1v1h1zM83 63v1h1v-1zM85 14v1h1v-1zM85 113h1v-1h-1zM89 112v-1h-2v1zM89 110v1h2v-1zM91 17v-1h-1v1zM91 109v1h2v-1zM93 18v1h1v-1zM93 109h1v-1h-1zM95 19v1h1v-1zM95 108h1v-1h-1zM96 21h1v-1h-1zM96 107h1v-1h-1zM99 106v-1h-1v1zM99 22v1h1v-1zM100 105v-1h-1v1zM100 24h1v-1h-1zM100 103v1h1v-1zM102 102h-1v1h1zM107 97h-1v1h1zM108 30h-1v1h1zM108 96h-1v1h1zM108 32h1v-1h-1zM109 96v-1h-1v1zM111 35v-1h-1v1zM111 92h-1v1h1zM111 35v1h1v-1zM111 91v1h1v-1zM113 38v-1h-1v1zM112 90h1v-1h-1zM114 40v-1h-1v1zM114 87h-1v1h1zM114 41v1h1v-1zM115 86v-1h-1v1zM115 44h1v-1h-1zM116 83h-1v1h1zM117 47v-2h-1v2zM117 80h-1v2h1zM118 50v-2h-1v2zM117 77v2h1v-2zM119 54v-2h-1v2zM118 75h1v-2h-1zM120 58h-1v11h1z" style="fill:#52425d;fill-opacity:1;stroke:none"/><path d="M38 26h-3v1h-2v1h-3v1h-2v1h-2v1h-1v1h-1v2h-1v1h-1v1h-1v2h-1v1h-1v2h-1v2h-1v2h1v-1h3v-1h2v-1h2v-1h1v-1h2v-1h2v-1h1v-1h2v-1h1v-1h2v-1h2v-1h2v-1h2v-1h2v-1h3v-1h3v-1h5v-1h16v1h6v1h3v1h3v1h2v1h2v1h2v1h2v1h2v1h1v1h2v1h1v1h2v1h2v1h1v1h2v1h2v1h3v1h1v-2h-1v-2h-1v-2h-1v-1h-1v-2h-1v-1h-1v-1h-1v-2h-1v-1h-1v-1h-2v-1h-2v-1h-3v-1h-2v-1h-3v-1h-3v-1h-3v-1h-4v-1h-4v-1H52v1h-4v1h-4v1h-3v1h-3zM38 101v1h3v1h3v1h3v1h5v1h23v-1h4v-1h4v-1h3v-1h3v-1h3v-1h2v-1h2v-1h4v-1h1v-1h1v-1h1v-2h1v-1h1v-1h1v-2h1v-1h1v-2h1v-2h1v-2h-2v1h-2v1h-2v1h-2v1h-2v1h-1v1h-2v1h-1v1h-2v1h-1v1h-2v1h-2v1h-2v1h-2v1h-2v1h-3v1h-4v1h-4v1H55v-1h-4v-1h-4v-1h-3v-1h-2v-1h-2v-1h-2v-1h-2v-1h-2v-1h-1v-1h-2v-1h-1v-1h-2v-1h-2v-1h-1v-1h-2v-1h-2v-1h-3v-1h-1v2h1v2h1v1h1v2h1v2h1v1h1v1h1v2h1v1h1v1h2v1h3v1h2v1h2v1zM29 28h1v-1h-1zM29 99v1h1v-1zM34 25v-1h-1v1zM33 102v1h1v-1zM37 23v-1h-1v1zM37 104h-1v1h1zM38 21v1h1v-1zM39 105h-1v1h1zM41 21v-1h-1v1zM41 106h-1v1h1zM43 19h-1v1h1zM42 108h1v-1h-1zM49 18v-1h-1v1zM53 17v-1h-2v1zM53 110h-2v1h2zM60 15h-2v1h2zM59 111h-1v1h1zM60 111v1h1v-1zM67 111h-1v1h1zM69 15h-2v1h2zM68 112h1v-1h-1zM74 16v1h2v-1zM76 111v-1h-2v1zM78 17v1h1v-1zM82 19v-1h-1v1zM81 109h1v-1h-1zM85 20v-1h-1v1zM85 108v-1h-1v1zM87 21v-1h-1v1zM86 107h1v-1h-1zM88 22h1v-1h-1zM88 105v1h1v-1zM91 23v-1h-1v1zM91 104h-1v1h1zM93 25h1v-1h-1zM94 102h-1v1h1zM98 27h-1v1h1z" style="fill:#200a1a;fill-opacity:1;stroke:none"/><path d="M98 100v-1h-1v1z" style="fill:#200a1a;fill-opacity:1;stroke:none"/><path d="M27 29v1h1v-1zM27 98h1v-1h-1zM28 28v1h2v-1zM59 111v1h1v-1h1v1h5v-1h1v1h1v-1h6v-1h5v-1h2v-1h3v-1h2v-1h2v-1h2v-1h2v-1h1v-1h2v-1h1v-1h1v-1h2v-1h-3v1h-2v1h-2v1h-3v1h-3v1h-3v1h-4v1h-4v1H52v-1h-5v-1h-3v-1h-3v-1h-3v-1h-3v-1h-2v-1h-2v-1h-3v1h2v1h1v1h1v1h2v1h1v1h2v1h2v1h2v1h2v1h2v1h3v1h5v1zM49 18h-4v1h-2v1h-2v1h-2v1h-2v1h-2v1h-1v1h-2v1h-1v1h-1v1h3v-1h2v-1h3v-1h3v-1h3v-1h4v-1h4v-1h23v1h4v1h4v1h3v1h3v1h3v1h2v1h3v-1h-1v-1h-1v-1h-2v-1h-1v-1h-2v-1h-2v-1h-2v-1h-2v-1h-3v-1h-3v-1h-4v-1h-7v-1h-7v1h-7v1h-4zM97 28v1h2v-1zM100 29h-1v1h1z" style="fill:#1f0b19;fill-opacity:1;stroke:none"/><path d="M30 66h1v-1h-1zM31 67h-1v1h1zM38 68h1v-1h-1zM45 55v-1h-6v1zM45 46v1h1v-1zM51 65h1V47h-1zM56 60v-1h-1v1zM59 52h-1v1h1zM60 64h1v-1h-1zM68 64v-1h-6v1zM70 53v-1h-1v1zM72 59v1h1v-1zM77 50v-1h-1v1zM76 64h1v-1h-1zM79 60h-1v1h1zM81 57h-1v1h1zM83 65h-1v1h1zM85 62h-1v1h1zM86 50h-1v1h1zM89 55v1h1v-1zM97 66v1h1v-1z" style="fill:#472f41;fill-opacity:1;stroke:none"/><path d="M30 67h1v-1h-1zM39 47v-1h-1v1zM46 47h-1v7h1zM45 67h1v-7h-1zM54 65v-1h-1v1zM57 57h-1v1h1zM60 50h-1v1h1zM62 47v-1h-1v1zM65 55h-2v1h2zM66 46v1h1v-1zM69 51v-1h-1v1zM72 57h-1v1h1zM75 65v-1h-1v1zM79 53v-1h-1v1zM81 55h-1v1h1zM82 46h-1v1h1zM83 50h1v-1h-1zM86 62h-1v1h1zM87 48h1v-1h-1zM88 65h-1v1h1zM91 54v-1h-1v1zM91 59h-1v1h1zM93 51v-1h-1v1zM93 63v-1h-1v1zM94 48h1v-2h-1z" style="fill:#543e4e;fill-opacity:1;stroke:none"/><path d="M31 66h2v-1h-2zM39 55v-1h-1v1zM46 59h-1v1h1zM47 46h-1v1h1zM50 46v1h1v-1zM52 65v1h1v-1zM56 60h-1v1h1zM58 54h1v-1h-1zM59 67v-1h-1v1zM70 53h-1v1h1zM69 66v1h1v-1zM73 60h-1v1h1zM80 53h-1v1h1zM83 49v-1h-1v1zM85 52v-1h-1v1zM86 64h1v-1h-1zM88 56v1h1v-1zM92 61h-1v1h1zM94 49v-1h-1v1zM94 65v-1h-1v1zM96 66v-1h-1v1z" style="fill:#72606d;fill-opacity:1;stroke:none"/><path d="M32 67v-1h-1v1zM46 56v-1h-7v1zM46 67h1v-1h-1zM50 66h1v-1h-1zM60 51h1v-1h-1zM61 58v1h1v-1zM64 54v-1h-1v1zM67 59v-1h-1v1zM68 50h-1v1h1zM81 55v1h1v-1zM83 50v-1h-1v1zM84 53h1v-1h-1zM87 63v-1h-1v1zM88 66h1v-1h-1zM90 59h-1v1h1zM91 50v1h1v-1z" style="fill:#c0babe;fill-opacity:1;stroke:none"/><path d="M38 68v-1h-7v1zM33 46v1h1v-1zM39 47h-1v7h1zM38 67h1v-7h-1zM45 59h-6v1h6zM58 68v-1H46v1zM55 62h-1v1h1zM57 56h1v-1h-1zM59 64v1h1v-1zM61 48h-1v1h1zM63 58v-1h-1v1zM66 57h-1v1h1zM67 48v1h1v-1zM68 65h1v-1h-1zM70 55v1h1v-1zM81 68v-1H70v1zM74 62h-1v1h1zM75 47v1h1v-1zM77 51h1v-1h-1zM79 60h1v-1h-1zM81 67h1v-1h-1zM86 50h1v-1h-1zM88 46v1h1v-1zM89 68h8v-1h-8zM96 65v1h1v-1z" style="fill:#675362;fill-opacity:1;stroke:none"/><path d="M32 64v1h1v-1zM46 67h-1v1h1zM52 46h-1v1h1zM55 61h-1v1h1zM58 55v-1h-1v1zM58 68h1v-1h-1zM60 66v-1h-1v1zM61 48v-1h-1v1zM62 64v-1h-1v1zM65 57v-1h-1v1zM68 47h-1v1h1zM68 66h1v-1h-1zM70 68v-1h-1v1zM71 55v-1h-1v1zM73 61v1h1v-1zM77 52h1v-1h-1zM80 55v-1h-1v1zM82 47v1h1v-1zM84 51h1v-1h-1zM86 48v1h1v-1zM87 65v-1h-1v1zM89 67h-1v1h1zM89 57v1h1v-1zM91 52v1h1v-1zM92 60h-1v1h1zM94 50v-1h-1v1zM94 63h-1v1h1zM98 65h-1v1h1z" style="fill:#402839;fill-opacity:1;stroke:none"/><path d="M32 67h1v-1h-1zM38 47h-1v1h1zM37 66v1h1v-1zM51 67h2v-1h-2zM56 62h-1v1h1zM57 67h1v-1h-1zM59 55h-1v1h1zM59 64h-1v1h1zM60 62h-1v1h1zM62 49v-1h-1v1zM62 57h-1v1h1zM67 48h-1v1h1zM67 58v-1h-1v1zM68 62v1h1v-1zM70 55h-1v1h1zM69 65h1v-1h-1zM71 66h-1v1h1zM73 62h-1v1h1zM76 66h-1v1h1zM79 50h-1v1h1zM83 52h1v-1h-1zM84 60v1h1v-1zM86 52h-1v1h1zM87 49v1h1v-1zM90 67v-1h-1v1zM92 65h1v-1h-1zM94 66v1h2v-1z" style="fill:#d2cfd1;fill-opacity:1;stroke:none"/><path d="M33 65h1V47h-1zM54 65h-1v1h1zM54 63v1h1v-1zM80 55h1v-1h-1zM87 65h1v-1h-1zM88 58h1v-1h-1zM91 60h-1v1h1zM92 49v1h1v-1z" style="fill:#9b9098;fill-opacity:1;stroke:none"/><path d="M33 66h1v-1h-1zM82 65h-1v1h1z" style="fill:#aca4aa;fill-opacity:1;stroke:none"/><path d="M37 67v-1h-4v1zM37 55h1v-7h-1zM38 59h-1v7h1zM38 58v1h8v-1zM47 55h-1v1h1zM47 67h4v-1h-4zM57 66h-4v1h4zM57 60h-1v1h1zM60 53h-1v1h1zM69 53h-1v1h1zM72 60h-1v1h1zM75 67v-1h-4v1zM76 66v1h4v-1zM78 65v-1h-1v1zM79 62h1v-1h-1zM81 53h-1v1h1zM81 48v1h1v-1zM83 61v1h1v-1zM86 61v-1h-1v1zM88 57v-1h-1v1zM88 64v-1h-1v1zM88 54v1h1v-1zM88 58v1h1v-1zM90 51v1h1v-1zM90 62h1v-1h-1zM94 67v-1h-4v1zM92 48v1h1v-1z" style="fill:#d9d7d8;fill-opacity:1;stroke:none"/><path d="M38 47v-1h-4v1zM47 46v1h3v-1zM51 66h1v-1h-1zM62 46v1h4v-1zM68 51v1h1v-1zM76 66v-1h-1v1zM76 46v1h5v-1zM77 64h-1v1h1zM84 61v1h1v-1zM88 66v1h1v-1zM89 46v1h5v-1zM90 54h-1v1h1zM89 59h1v-1h-1zM91 52h1v-1h-1zM95 65h-1v1h1z" style="fill:#7c6b78;fill-opacity:1;stroke:none"/><path d="M34 47v1h3v-1zM38 57v-2h-1v2zM38 59v-1h-1v1zM46 59h1v-2h-1zM47 47v1h3v-1zM55 66v-1h-1v1zM57 58v1h1v-1zM60 51v1h1v-1zM61 60h-1v1h1zM66 48v-1h-4v1zM62 50h1v-1h-1zM63 51h-1v1h1zM62 55h1v-1h-1zM63 60v-1h-1v1zM65 52h-2v1h2zM65 60v-1h-1v1zM65 51h1v-1h-1zM66 55v-1h-1v1zM66 49v1h1v-1zM66 59v1h1v-1zM68 52v-1h-1v1zM69 61v-1h-1v1zM70 59h1v-1h-1zM74 66v-1h-1v1zM77 47v2h1v-1h3v-1zM80 52v-1h-1v1zM85 56h1v-2h-5v1h4zM81 59h1v-1h-1zM82 65v-1h-1v1zM83 51v-1h-1v1zM85 56h-3v1h1v3h1v-3h1zM85 59h1v-2h-1zM87 51h-1v1h1zM87 61h-1v1h1zM87 57v1h1v-1zM88 49h1v-1h-1zM93 48v-1h-4v1zM91 64h-1v1h1z" style="fill:#e0e0e0;fill-opacity:1;stroke:none"/><path d="M34 66h1V48h-1zM39 57v-1h-1v1zM46 56h-6v1h6zM47 55h1v-7h-1zM48 59h-1v7h1zM50 48h-1v18h1zM56 64h-1v1h1zM57 61h-1v1h1zM58 59h-1v1h1zM57 66h1v-1h-1zM59 57h-1v1h1zM59 55h1v-1h-1zM61 52h-1v1h1zM60 61v1h8v-1zM62 50h-1v1h1zM62 55h-1v1h1zM63 48h-1v1h1zM66 54v-1h-1v1zM67 51v-1h-1v1zM67 56v-1h-1v1zM68 52h-1v1h1zM69 54h-1v1h1zM70 60h1v-1h-1zM70 65v1h1v-1zM71 61v1h1v-1zM72 64v1h1v-1zM77 66h1v-1h-1zM78 49v1h1v-1zM79 63h1v-1h-1zM81 52h-1v1h1zM80 65v1h1v-1zM81 50h1v-1h-1zM81 60h1v-1h-1zM82 63h-1v1h1zM82 52h1v-1h-1zM88 51v-1h-1v1zM87 62v1h1v-1zM89 60v-1h-1v1zM89 66h1v-1h-1zM92 66h1v-1h-1z" style="fill:#e5e6e6;fill-opacity:1;stroke:none"/><path d="M46 58v-1h-6v-1h-1v1h-2v-9h-2v18h2v-8zM48 66h1V48h-1v7h-1v1h-1v1h1v2h1zM70 56h-1v-1h-1v-2h-1v-2h-2v-1h1v-2h-3v2h-1v1h-1v2h-1v2h-1v1h-1v1h1v1h-1v2h-1v2h-1v1h-1v1h1v1h-1v1h2v-1h1v-1h1v-2h1v-2h1v1h7v1h1v2h1v1h1v1h2v-1h-1v-1h1v-1h-1v-1h-1v-2h-1zm-7-4h-1v-1h1zm3 1v2h1v1h-1v1h1v3h-1v-1h-1v1h-1v-1h-1v1h-1v-1h-1v-2h1v-1h-1v-1h1v-1h1v-2h2v1zm2 8v-1h1v1z" style="fill:#e4e4e4;fill-opacity:1;stroke:none"/><path d="M61 50h1v-1h-1zM84 60h2v1h1v1h1v3h2v1h2v-3h-1v-1h-1v-2h-2v-2h-1v-2h1v-2h1v-1h1v-2h1v-1h1v-2h-3v1h-1v2h-1v1h-1v1h-2v-1h-2v-2h-1v-2h-3v1h1v2h1v1h1v2h5v2h-1v1h-1zm7 5h-1v-1h1zm-5-8v2h-1v-2z" style="fill:#e4e4e4;fill-opacity:1;stroke:none"/><path d="M83 57h-1v3h-2v3h-2v3h2v-1h1v-2h2v-2h1v-1h-1zM82 55v1h3v-1z" style="fill:#e4e4e4;fill-opacity:1;stroke:none"/><path d="M38 55v1h1v-1zM47 47h-1v8h1zM46 66h1v-7h-1zM55 65v-1h-1v1zM58 58v-1h-1v1zM62 55v1h1v-1zM65 56h1v-1h-1zM70 58h1v-1h-1zM73 65h1v-1h-1zM76 48h1v-1h-1zM76 66h1v-1h-1zM79 63v-1h-1v1zM81 60v-1h-1v1zM81 67v-1h-1v1zM83 64v-1h-1v1zM89 54h1v-1h-1z" style="fill:#c7c2c6;fill-opacity:1;stroke:none"/><path d="M39 59h-1v1h1zM57 58h-1v1h1zM60 52v-1h-1v1zM66 59v-1h-4v1zM65 55v-1h-2v1zM72 58h-1v1h1zM76 49h1v-1h-1zM78 61v1h1v-1zM80 59h1v-1h-1zM81 56v1h1v-1zM82 64v1h1v-1zM85 52h1v-1h-1z" style="fill:#857681;fill-opacity:1;stroke:none"/><path d="M50 48h1v-1h-1zM69 53v-1h-1v1zM78 49h-1v1h1zM86 50v1h1v-1zM97 67v-1h-1v1z" style="fill:#b3abb1;fill-opacity:1;stroke:none"/><path d="M50 65h1V48h-1zM56 60h1v-1h-1zM59 53h1v-1h-1zM60 62v1h8v-1zM64 54h1v-1h-1zM71 60h1v-1h-1zM80 52h-1v1h1zM89 47h-1v1h1zM92 63v-1h-1v1zM93 47v1h1v-1zM94 65h-1v1h1z" style="fill:#b7b0b5;fill-opacity:1;stroke:none"/><path d="M56 62v-1h-1v1zM58 54v1h1v-1zM59 65h-1v1h1zM69 65v1h1v-1zM73 62v-1h-1v1zM77 64h1v-1h-1zM79 60v1h1v-1zM82 57h-1v1h1zM88 56h1v-1h-1z" style="fill:#a69da4;fill-opacity:1;stroke:none"/><path d="M58 57v-1h-1v1zM59 63v1h1v-1zM61 49h-1v1h1zM63 57v-1h-1v1zM65 56v1h1v-1zM68 49h-1v1h1zM68 63v1h1v-1zM71 56h-1v1h1zM73 63v1h1v-1zM75 65h-1v1h1zM78 52h1v-1h-1zM83 51h1v-1h-1zM86 61h-1v1h1zM88 49v-1h-1v1zM93 64v-1h-1v1z" style="fill:#948891;fill-opacity:1;stroke:none"/><path d="M61 47v1h1v-1zM67 47h-1v1h1zM70 55v-1h-1v1zM81 48h1v-1h-1zM84 63v-1h-1v1zM91 53v-1h-1v1z" style="fill:#a1979e;fill-opacity:1;stroke:none"/></svg>