<svg width="200" height="200" xmlns="http://www.w3.org/2000/svg"><path d="M2 100h1v-1H2zM3 87v2h1v-2zM4 110H3v2h1zM4 117v1h1v-1zM6 78v-1H5v1zM6 123v-1H5v1zM7 73H6v1h1zM7 129v1h1v-1zM8 132v1h1v-1zM10 65v-1H9v1zM11 138v-1h-1v1zM12 57v1h1v-1zM12 143v1h1v-1zM13 56h1v-1h-1zM16 148v-1h-1v1zM17 149h-1v1h1zM18 49v-1h-1v1zM19 153v-1h-1v1zM19 45v1h1v-1zM21 158h1v-1h-1zM24 160v-1h-1v1zM27 36h-1v1h1zM31 168v-1h-1v1zM36 27h1v-1h-1zM39 176h1v-1h-1zM42 23v-1h-1v1zM44 178h-1v1h1zM46 180v1h1v-1zM48 181h-1v1h1zM51 16h-1v1h1zM51 183v1h1v-1zM53 16v-1h-1v1zM60 187h-1v1h1zM60 11v1h1v-1zM65 10h1V9h-1zM69 8h-1v1h1zM71 8h1V7h-1zM75 193v1h1v-1zM80 5h-1v1h1zM81 195h1v-1h-1zM84 4v1h1V4zM88 196h1v-1h-1zM104 4V3H94v1zM110 195h-1v1h1zM113 5h1V4h-1zM116 195h1v-1h-1zM121 194h1v-1h-1zM124 7V6h-1v1zM129 191h-1v1h1zM132 190h-1v1h1zM135 11h1v-1h-1zM136 188v1h1v-1zM149 183v-1h-1v1zM153 20v-1h-1v1zM156 21h-1v1h1zM158 177v-1h-1v1zM161 26v-1h-1v1zM163 171v1h1v-1zM164 171h1v-1h-1zM170 164v1h1v-1zM172 164v-1h-1v1zM174 39v-1h-1v1zM175 159h1v-1h-1zM178 155h1v-1h-1zM179 47h1v-1h-1zM180 151v1h1v-1zM182 52h1v-1h-1zM184 146h-1v1h1zM185 145v-1h-1v1zM186 143v-1h-1v1zM187 141v-1h-1v1zM189 63h-1v1h1zM191 131v-1h-1v1zM191 127v1h1v-1zM192 124h1v-1h-1zM194 81v-1h-1v1zM193 120h1v-1h-1zM194 85v1h1v-1zM195 114v-1h-1v1zM196 97h-1v6h1z" style="fill:#220925;fill-opacity:.027;stroke:none"/><path d="M4 89H3v1h1zM4 109H3v1h1zM5 83v-1H4v1zM6 121H5v1h1zM7 125H6v1h1zM7 70v1h1v-1zM8 68h1v-1H8zM9 135h1v-1H9zM10 62v1h1v-1zM11 139v1h1v-1zM13 141h-1v1h1zM14 144v-1h-1v1zM15 145h-1v1h1zM17 50h-1v1h1zM22 156h-1v1h1zM23 41h-1v1h1zM24 160v1h1v-1zM28 35h-1v1h1zM29 35v-1h-1v1zM34 28v1h1v-1zM36 28v-1h-1v1zM38 175h1v-1h-1zM41 23h-1v1h1zM43 178v-1h-1v1zM44 20v1h1v-1zM47 18v1h1v-1zM48 182h1v-1h-1zM53 184v1h1v-1zM55 15v-1h-1v1zM55 185v1h1v-1zM57 14v-1h-1v1zM57 187h1v-1h-1zM59 13v-1h-1v1zM65 189h-1v1h1zM74 193v-1h-1v1zM76 7V6h-1v1zM77 194h1v-1h-1zM83 195v-1h-1v1zM85 4v1h1V4zM89 196h2v-1h-2zM108 196h1v-1h-1zM113 5V4h-1v1zM116 195v-1h-1v1zM118 6h1V5h-1zM120 194h1v-1h-1zM125 193v-1h-1v1zM127 7h-1v1h1zM130 8h-1v1h1zM133 9h-1v1h1zM137 11v1h1v-1zM138 187v1h1v-1zM146 184h1v-1h-1zM148 16h-1v1h1zM151 181h1v-1h-1zM155 179v-1h-1v1zM156 22v1h1v-1zM159 175h-1v1h1zM161 26v1h1v-1zM165 170h1v-1h-1zM166 168v1h1v-1zM167 167v1h1v-1zM169 167v-1h-1v1zM169 166h1v-1h-1zM172 38h1v-1h-1zM174 159v1h1v-1zM176 42v1h1v-1zM178 156v-1h-1v1zM182 150v-1h-1v1zM184 54v-1h-1v1zM187 59h-1v1h1zM188 62v-1h-1v1zM188 135v1h1v-1zM190 66h-1v1h1zM191 69h-1v1h1zM192 72h-1v1h1zM192 77h1v-1h-1zM194 119v-1h-1v1zM195 87v-1h-1v1zM194 112v1h1v-1z" style="fill:#220925;fill-opacity:.078;stroke:none"/><path d="M4 92v-2H3v2zM3 108v1h1v-1zM4 84h1v-1H4zM4 117h1v-1H4zM6 78H5v1h1zM6 75h1v-1H6zM8 129v-1H7v1zM9 131H8v1h1zM12 60h-1v1h1zM16 53v-1h-1v1zM17 151h1v-1h-1zM19 48v-1h-1v1zM19 154h1v-1h-1zM20 44v1h1v-1zM24 41v-1h-1v1zM25 162h1v-1h-1zM29 33v1h1v-1zM31 32h-1v1h1zM32 31h-1v1h1zM32 31h1v-1h-1zM33 29v1h1v-1zM38 174v-1h-1v1zM44 21h-1v1h1zM46 180v-1h-1v1zM49 18h1v-1h-1zM64 11v-1h-1v1zM67 190v1h1v-1zM71 192v-1h-1v1zM80 5v1h1V5zM83 194v1h1v-1zM87 4h-1v1h1zM91 195v1h1v-1zM106 195v1h2v-1zM112 5V4h-1v1zM118 5h-1v1h1zM122 7h1V6h-1zM134 190v-1h-1v1zM140 12h-1v1h1zM141 186h-1v1h1zM141 13v1h1v-1zM143 186v-1h-1v1zM144 14h-1v1h1zM145 184h-1v1h1zM145 15v1h1v-1zM151 19v-1h-1v1zM154 20h-1v1h1zM160 175v-1h-1v1zM163 27h-1v1h1zM172 37v-1h-1v1zM178 45v1h1v-1zM179 153h1v-1h-1zM180 49h1v-1h-1zM183 148v-1h-1v1zM185 56v-1h-1v1zM185 57v1h1v-1zM188 138v-1h-1v1zM189 65v-1h-1v1zM190 133v-1h-1v1zM191 129h-1v1h1zM191 127h1v-1h-1zM192 123h1v-1h-1zM193 81v1h1v-1zM194 87v1h1v-1zM195 111h-1v1h1z" style="fill:#220925;fill-opacity:.137;stroke:none"/><path d="M4 93v-1H3v1zM4 108v-2H3v2zM4 115v1h1v-1zM5 120v1h1v-1zM10 65H9v1h1zM11 136h-1v1h1zM12 58v1h1v-1zM13 57h1v-1h-1zM15 54h-1v1h1zM17 149v-1h-1v1zM22 157v1h1v-1zM25 39h-1v1h1zM26 163h1v-1h-1zM37 173v-1h-1v1zM40 25v-1h-1v1zM41 177h1v-1h-1zM46 20h1v-1h-1zM51 182h-1v1h1zM62 11h-1v1h1zM62 188v1h1v-1zM66 9v1h1V9zM70 9V8h-1v1zM72 7v1h1V7zM74 193h1v-1h-1zM76 7h1V6h-1zM79 194v-1h-1v1zM88 5V4h-1v1zM92 195v1h2v-1zM104 195v1h2v-1zM110 5h1V4h-1zM115 194h-1v1h1zM120 194v-1h-1v1zM126 8V7h-1v1zM128 191h-1v1h1zM131 191v-1h-1v1zM135 10h-1v1h1zM150 181h-1v1h1zM153 180v-1h-1v1zM156 178v-1h-1v1zM157 24h1v-1h-1zM164 29v-1h-1v1zM171 35h-1v1h1zM174 161v-1h-1v1zM175 42h1v-1h-1zM182 51v-1h-1v1zM184 146v-1h-1v1zM187 140v-1h-1v1zM191 73v1h1v-1zM192 78h1v-1h-1zM194 118v-1h-1v1zM195 88h-1v1h1zM194 110v1h1v-1z" style="fill:#220925;fill-opacity:.208;stroke:none"/><path d="M4 95v-2H3v2zM4 106v-2H3v2zM4 84v1h1v-1zM4 115h1v-1H4zM5 79v1h1v-1zM6 124v1h1v-1zM8 71H7v1h1zM8 68v1h1v-1zM12 139v-1h-1v1zM16 146h-1v1h1zM17 50h1v-1h-1zM18 151v1h1v-1zM20 154v1h1v-1zM21 44h1v-1h-1zM27 164h1v-1h-1zM35 172h1v-1h-1zM39 26v-1h-1v1zM45 178h-1v1h1zM48 181v-1h-1v1zM51 17h1v-1h-1zM52 184h1v-1h-1zM59 13h1v-1h-1zM61 188v-1h-1v1zM65 189v1h1v-1zM71 191v1h1v-1zM81 6h1V5h-1zM84 195h1v-1h-1zM88 4v1h1V4zM94 195v1h4v-1zM100 196v-1h-1v1zM104 195h-3v1h3zM110 4h-1v1h1zM114 195v-1h-1v1zM116 5v1h1V5zM122 7V6h-1v1zM123 192v1h1v-1zM129 8h-1v1h1zM131 9v1h1V9zM136 189v-1h-1v1zM136 11v1h1v-1zM149 18v-1h-1v1zM155 22v-1h-1v1zM161 174v-1h-1v1zM164 29v1h1v-1zM166 30h-1v1h1zM167 32v-1h-1v1zM168 33v-1h-1v1zM169 34v-1h-1v1zM170 34h-1v1h1zM172 161v1h1v-1zM174 41h1v-1h-1zM177 156h-1v1h1zM178 44h-1v1h1zM180 151h1v-1h-1zM184 144h1v-1h-1zM185 141v1h1v-1zM187 63h1v-1h-1zM188 135h1v-1h-1zM190 68v-1h-1v1zM191 70h-1v1h1zM191 126h1v-1h-1zM192 121v1h1v-1zM194 82h-1v1h1zM193 117h1v-1h-1zM195 89h-1v2h1zM194 110h1v-1h-1z" style="fill:#220925;fill-opacity:.29;stroke:none"/><path d="M4 95H3v9h1zM5 86v-1H4v1zM6 120v-1H5v1zM6 75v1h1v-1zM8 128v-1H7v1zM8 130v1h1v-1zM10 133H9v1h1zM11 64v-1h-1v1zM12 141h1v-1h-1zM13 142v1h1v-1zM14 145h1v-1h-1zM19 46v1h1v-1zM24 159v-1h-1v1zM26 39v-1h-1v1zM29 165v-1h-1v1zM29 166h1v-1h-1zM30 167h1v-1h-1zM31 167v1h1v-1zM33 169v-1h-1v1zM33 169v1h1v-1zM34 170v1h1v-1zM38 27v-1h-1v1zM41 176v-1h-1v1zM43 23v-1h-1v1zM49 18h-1v1h1zM54 15h-1v1h1zM55 184h-1v1h1zM55 15h1v-1h-1zM57 186v-1h-1v1zM57 13v1h1v-1zM58 187h1v-1h-1zM65 10h-1v1h1zM69 191v-1h-1v1zM74 8V7h-1v1zM76 192h-1v1h1zM77 7h1V6h-1zM79 194h1v-1h-1zM82 6h1V5h-1zM85 194v1h1v-1zM90 5V4h-1v1zM98 195v1h1v-1zM100 196h1v-1h-1zM108 5h1V4h-1zM113 194h-1v1h1zM119 193h-1v1h1zM126 191v1h1v-1zM132 190h1v-1h-1zM137 188h1v-1h-1zM147 17v-1h-1v1zM147 182v1h1v-1zM151 20h1v-1h-1zM157 176h-1v1h1zM159 25v-1h-1v1zM161 173h1v-1h-1zM171 163h1v-1h-1zM178 153v1h1v-1zM180 48v-1h-1v1zM183 53v-1h-1v1zM187 61v-1h-1v1zM189 131v1h1v-1zM191 128h-1v1h1zM192 75v-1h-1v1zM192 79h1v-1h-1zM194 84v-1h-1v1zM195 92v-1h-1v1zM195 108h-1v1h1z" style="fill:#220925;fill-opacity:.376;stroke:none"/><path d="M4 87h1v-1H4zM4 114h1v-1H4zM6 81v-1H5v1zM6 124h1v-1H6zM8 72H7v1h1zM9 67h1v-1H9zM11 61v1h1v-1zM16 51v1h1v-1zM17 149v1h1v-1zM23 42h-1v1h1zM24 160h1v-1h-1zM27 38v-1h-1v1zM37 28v-1h-1v1zM39 174v1h1v-1zM43 177v1h1v-1zM46 21v-1h-1v1zM49 182h1v-1h-1zM64 189v-1h-1v1zM67 9v1h1V9zM70 9h1V8h-1zM81 194v-1h-1v1zM86 195h1v-1h-1zM92 4h-2v1h2zM107 4v1h1V4zM116 5h-1v1h1zM120 6v1h1V6zM123 193v-1h-1v1zM125 7h-1v1h1zM129 191h1v-1h-1zM134 10h-1v1h1zM138 12v1h1v-1zM140 186h-1v1h1zM141 14v-1h-1v1zM141 185v1h1v-1zM143 14h-1v1h1zM144 184h-1v1h1zM144 15v1h1v-1zM145 184h1v-1h-1zM151 181v-1h-1v1zM154 179v-1h-1v1zM159 25v1h1v-1zM163 172v-1h-1v1zM171 163h-1v1h1zM174 39h-1v1h1zM176 158v-1h-1v1zM181 149h1v-1h-1zM184 55v-1h-1v1zM185 57v-1h-1v1zM186 59v-1h-1v1zM188 137v-1h-1v1zM189 66v-1h-1v1zM190 72h1v-1h-1zM192 125v-1h-1v1zM193 120h-1v1h1zM194 115h-1v1h1zM194 93h1v-1h-1zM194 108h1v-2h-1z" style="fill:#220925;fill-opacity:.478;stroke:none"/><path d="M5 88v-1H4v1zM4 113h1v-1H4zM5 118v1h1v-1zM6 77h1v-1H6zM7 126v1h1v-1zM9 69H8v1h1zM11 135h-1v1h1zM12 60h1v-1h-1zM13 57v1h1v-1zM14 55v1h1v-1zM16 54v-1h-1v1zM18 49h1v-1h-1zM20 153v-1h-1v1zM21 46v-1h-1v1zM21 155v1h1v-1zM27 37h1v-1h-1zM36 29v-1h-1v1zM42 23h-1v1h1zM46 180h1v-1h-1zM51 17h-1v1h1zM62 11v1h1v-1zM66 190h1v-1h-1zM72 192h1v-1h-1zM74 8h1V7h-1zM76 193h1v-1h-1zM79 7V6h-1v1zM83 6h1V5h-1zM88 195v-1h-1v1zM93 4h-1v1h1zM107 5V4h-2v1zM111 194v1h1v-1zM115 5h-1v1h1zM117 193v1h1v-1zM127 8v1h1V8zM131 9h-1v1h1zM134 188v1h1v-1zM149 19h1v-1h-1zM153 20h-1v1h1zM156 23v-1h-1v1zM157 175v1h1v-1zM160 26v1h1v-1zM164 171v-1h-1v1zM164 169v1h1v-1zM165 169h1v-1h-1zM167 167h-1v1h1zM167 167h1v-1h-1zM168 165v1h1v-1zM169 164v1h1v-1zM173 39v-1h-1v1zM177 43h-1v1h1zM177 154v1h1v-1zM178 47h1v-1h-1zM180 151h-1v1h1zM181 49h-1v1h1zM182 146v1h1v-1zM187 138h-1v1h1zM188 133v1h1v-1zM189 69h1v-1h-1zM193 79h-1v1h1zM193 85h1v-1h-1zM194 115v-1h-1v1zM194 95h1v-2h-1zM194 104v2h1v-2z" style="fill:#220925;fill-opacity:.576;stroke:none"/><path d="M4 88v1h1v-1zM4 110v1h1v-1zM5 83h1v-1H5zM5 118h1v-1H5zM7 78v-1H6v1zM8 73H7v1h1zM8 71h1v-1H8zM10 67H9v1h1zM13 140v-1h-1v1zM13 142h1v-1h-1zM14 144h1v-1h-1zM16 145h-1v1h1zM17 50v1h1v-1zM22 44h-1v1h1zM23 156h-1v1h1zM24 40v1h1v-1zM26 161v1h1v-1zM30 34h1v-1h-1zM31 32v1h1v-1zM32 31v1h1v-1zM37 173h1v-1h-1zM40 24v1h1v-1zM43 176h-1v1h1zM48 180v1h1v-1zM54 184v-1h-1v1zM55 16v-1h-1v1zM55 185h1v-1h-1zM57 15v-1h-1v1zM57 186h1v-1h-1zM58 14h1v-1h-1zM60 186h-1v1h1zM64 189h1v-1h-1zM65 10v1h1v-1zM69 9h-1v1h1zM71 9h1V8h-1zM74 191h-1v1h1zM78 192h-1v1h1zM79 6v1h1V6zM89 195h1v-1h-1zM96 4v1h7V4zM110 194h-1v1h1zM113 6h1V5h-1zM117 194v-1h-1v1zM129 190h-1v1h1zM137 188v-1h-1v1zM138 12h-1v1h1zM147 182h-1v1h1zM147 18h1v-1h-1zM152 179h-1v1h1zM157 24v-1h-1v1zM161 27v1h1v-1zM163 29v-1h-1v1zM170 37h1v-1h-1zM173 160h1v-1h-1zM176 42h-1v1h1zM176 155v1h1v-1zM180 149v1h1v-1zM181 51v1h1v-1zM182 53v1h1v-1zM187 61h-1v1h1zM188 136v-1h-1v1zM188 66v1h1v-1zM190 70v-1h-1v1zM190 72v1h1v-1zM191 123v1h1v-1zM192 80v1h1v-1zM193 87h1v-1h-1zM194 114v-1h-1v1z" style="fill:#220925;fill-opacity:.753;stroke:none"/><path d="M4 89v2h1v-2zM4 109v1h1v-1zM6 116H5v1h1zM7 122v-1H6v1zM8 125H7v1h1zM11 135v-1h-1v1zM12 63v-1h-1v1zM17 53v-1h-1v1zM19 151v-1h-1v1zM19 47v1h1v-1zM20 154h1v-1h-1zM27 162v1h1v-1zM36 172h1v-1h-1zM39 26h1v-1h-1zM44 23v-1h-1v1zM45 179h1v-1h-1zM50 18h-1v1h1zM64 12v-1h-1v1zM70 191h1v-1h-1zM75 8h1V7h-1zM83 194v-1h-1v1zM86 6V5h-1v1zM90 194v1h1v-1zM109 194h-1v1h1zM113 5h-1v1h1zM115 194h1v-1h-1zM119 7V6h-1v1zM120 192v1h1v-1zM125 192v-1h-1v1zM127 9V8h-1v1zM129 9v1h1V9zM132 10v1h1v-1zM139 186h-1v1h1zM139 13v1h1v-1zM141 186v-1h-1v1zM143 16h1v-1h-1zM144 183v1h1v-1zM146 17v-1h-1v1zM150 20h1v-1h-1zM154 21h-1v1h1zM160 174v-1h-1v1zM163 30h1v-1h-1zM169 36h1v-1h-1zM173 161v-1h-1v1zM177 45v1h1v-1zM178 153h1v-1h-1zM180 49v-1h-1v1zM183 55v1h1v-1zM184 57v1h1v-1zM185 59v1h1v-1zM191 126h-1v1h1zM191 76v1h1v-1zM193 119v-1h-1v1zM193 87v1h1v-1zM193 112v1h1v-1z" style="fill:#220925;fill-opacity:.827;stroke:none"/><path d="M5 91H4v1h1zM4 108v1h1v-1zM6 83H5v1h1zM6 78v1h1v-1zM7 75h1v-1H7zM8 128v1h1v-1zM10 131H9v1h1zM10 66h1v-1h-1zM12 136h-1v1h1zM12 60v1h1v-1zM13 58v1h1v-1zM15 57v-1h-1v1zM15 54v1h1v-1zM17 149h1v-1h-1zM23 157v1h1v-1zM25 40h1v-1h-1zM29 164v-1h-1v1zM29 165h1v-1h-1zM34 170h1v-1h-1zM36 171v-1h-1v1zM38 27h1v-1h-1zM42 175h-1v1h1zM46 20v1h1v-1zM50 181v1h1v-1zM63 188v-1h-1v1zM68 190v-1h-1v1zM72 8v1h1V8zM79 193v-1h-1v1zM80 7h1V6h-1zM83 194h1v-1h-1zM86 5v1h1V5zM91 195h1v-1h-1zM106 194v1h2v-1zM111 6h1V5h-1zM117 6v1h1V6zM123 8V7h-1v1zM127 191h1v-1h-1zM133 189h1v-1h-1zM142 14h-1v1h1zM142 185h1v-1h-1zM149 180v1h1v-1zM152 179h1v-1h-1zM155 177h1v-1h-1zM158 24h-1v1h1zM161 173v-1h-1v1zM164 31h1v-1h-1zM165 32h1v-1h-1zM167 32h-1v1h1zM167 34h1v-1h-1zM168 35h1v-1h-1zM171 161v1h1v-1zM175 42v-1h-1v1zM180 50v1h1v-1zM181 147v1h1v-1zM187 137h-1v1h1zM188 65v-1h-1v1zM189 132h-1v1h1zM189 130h1v-1h-1zM192 123v-1h-1v1zM193 82v-1h-1v1zM192 117v1h1v-1zM193 88v1h1v-1zM193 112h1v-1h-1z" style="fill:#220925;fill-opacity:.89;stroke:none"/><path d="M4 92v2h1v-2zM5 106H4v2h1zM6 84H5v1h1zM5 116h1v-1H5zM7 120H6v1h1zM7 124v1h1v-1zM9 71H8v1h1zM10 69v-1H9v1zM13 138h-1v1h1zM17 146h-1v1h1zM18 50h1v-1h-1zM19 152h1v-1h-1zM20 46v1h1v-1zM21 154v1h1v-1zM22 44h1v-1h-1zM25 158h-1v1h1zM26 38v1h1v-1zM31 165h-1v1h1zM31 166v1h1v-1zM32 167v1h1v-1zM34 169v-1h-1v1zM37 28h1v-1h-1zM40 174v1h1v-1zM42 24h1v-1h-1zM44 178h1v-1h-1zM47 180h1v-1h-1zM52 17h-1v1h1zM53 182h-1v1h1zM53 17h1v-1h-1zM61 187v-1h-1v1zM61 12v1h1v-1zM67 11v-1h-1v1zM70 9h-1v1h1zM75 191h-1v1h1zM77 7h-1v1h1zM81 6v1h1V6zM85 193h-1v1h1zM87 6h1V5h-1zM95 195v-1h-3v1zM106 194h-2v1h2zM111 6V5h-1v1zM115 194v-1h-1v1zM120 193v-1h-1v1zM122 8V7h-1v1zM124 192v-1h-1v1zM125 8v1h1V8zM131 190v-1h-1v1zM131 11h1v-1h-1zM135 11h-1v1h1zM135 187v1h1v-1zM148 181h-1v1h1zM149 19v-1h-1v1zM155 23v-1h-1v1zM156 176h1v-1h-1zM159 26v-1h-1v1zM161 171v1h1v-1zM171 162h-1v1h1zM173 40v1h1v-1zM175 156v1h1v-1zM176 45h1v-1h-1zM178 154v-1h-1v1zM179 47h-1v1h1zM179 150v1h1v-1zM182 53v-1h-1v1zM183 146v-1h-1v1zM183 143v1h1v-1zM185 142v-1h-1v1zM186 139h-1v1h1zM187 62h-1v1h1zM187 134v1h1v-1zM189 67h-1v1h1zM189 70v1h1v-1zM191 74v-1h-1v1zM192 78v-1h-1v1zM192 83h1v-1h-1zM193 90h1v-1h-1zM193 110v1h1v-1z" style="fill:#220925;fill-opacity:.945;stroke:none"/><path d="M4 94v1h1v-1zM4 106h1v-2H4zM6 114H5v1h1zM7 80v-1H6v1zM7 76h1v-1H7zM9 99h1V86h1v-5h1v-4h1v-3h1v-3h1v-3h-1v2h-1v3h-1v3h-1v4h-1v5H9zM9 100v5h1v-5zM9 112h1v-6H9zM15 127h-1v-3h-1v-3h-1v-4h-1v-5h-1v6h1v4h1v3h1v3h1v2h1zM10 133v1h1v-1zM11 63v1h1v-1zM14 141v-1h-1v1zM16 66h1v-3h-1v2h-1v3h1zM17 134v-2h-1v-2h-1v3h1v2h1v2h1v2h1v2h1v1h1v-2h-1v-2h-1v-2h-1v-2zM16 144h-1v1h1zM18 61h-1v2h1zM20 58h1v-2h-1v1h-1v2h-1v2h1v-1h1zM22 54h-1v2h1v-1h1v-2h-1zM22 143v-1h-1v2h1v2h1v1h1v2h1v1h1v1h1v-2h-1v-1h-1v-2h-1v-1h-1v-2zM23 53h1v-2h-1zM25 51v-1h-1v1zM26 49h1v-2h-1v1h-1v2h1zM27 37v1h1v-1zM28 46h-1v1h1zM28 152v-1h-1v1zM29 46v-1h-1v1zM29 153v-1h-1v1zM29 45h1v-1h-1zM39 163v-1h-1v-1h-1v-1h-1v-1h-1v-1h-1v-1h-1v-1h-1v-1h-1v-1h-1v-1h-1v2h1v1h1v1h1v1h1v1h1v1h1v1h1v1h1v1h1v1h2v-1zM34 38v1h-1v1h-1v1h-1v1h-1v2h1v-1h1v-1h1v-1h1v-1h1v-1h1v-1h1v-1h1v-1h-2v1h-1v1zM38 35v1h1v-1zM39 34v1h1v-1zM41 34v-1h-1v1zM40 164v1h1v-1zM41 33h2v-1h1v-1h-2v1h-1zM42 167h2v-1h-1v-1h-2v1h1zM45 30h-1v1h1zM44 167v1h1v-1zM45 29v1h2v-1zM48 170v-1h-1v-1h-2v1h1v1zM47 28v1h1v-1zM49 20v-1h-1v1zM50 28v-1h-2v1zM50 171v-1h-2v1h1v1h2v1h2v-1h-1v-1zM51 26h-1v1h2v-1h1v-1h-2zM55 25v-1h-2v1zM55 174v-1h-2v1zM55 183h-1v1h1zM55 15v1h1v-1zM55 23v1h2v-1zM55 175h2v-1h-2zM56 185h1v-1h-1zM57 14v1h1v-1zM57 22v1h2v-1zM57 176h2v-1h-2zM59 186v-1h-1v1zM59 14h1v-1h-1zM61 22v-1h-2v1zM59 177h2v-1h-2zM66 19h-3v1h-2v1h3v-1h2zM66 178h-2v-1h-3v1h2v1h3zM65 189h1v-1h-1zM66 18v1h3v-1zM66 179v1h3v-1zM68 190h1v-1h-1zM69 17v1h3v-1zM72 180h-3v1h3zM71 191h1v-1h-1zM72 16v1h4v-1zM80 183v-1h-4v-1h-4v1h3v1h4v1h6v1h8v1h1v-1h1v-1h-9v-1zM76 15v1h5v-1h6v-1h10v-1H86v1h-6v1zM89 6V5h-1v1zM96 186v-1h-1v1zM95 194v1h2v-1zM99 184v1h-1v-1h-2v1h1v1h4v-2zM98 13v1h1v-1zM100 13v1h11v1h6v1h5v-1h-4v-1h-6v-1zM104 195v-1h-3v1zM102 186h2v-2h-2zM118 182v1h-6v1h-7v1h8v-1h6v-1h4v-1h3v-1h-4v1zM110 6V5h-1v1zM113 193v1h1v-1zM117 6h-1v1h1zM122 17h3v1h4v-1h-3v-1h-4zM126 180v1h3v-1zM129 9h-1v1h1zM129 18v1h3v-1zM129 179v1h3v-1zM137 21v-1h-2v-1h-3v1h2v1zM134 177v1h-2v1h3v-1h2v-1zM136 13h1v-1h-1zM139 22v-1h-2v1zM139 176h-2v1h2zM141 23v-1h-2v1zM141 174v1h-2v1h3v-1h1v-1zM141 23v1h2v-1zM145 25v-1h-2v1zM143 173v1h2v-1zM148 27v-1h-1v-1h-2v1h1v1zM145 172v1h2v-1zM146 17v1h1v-1zM147 171v1h2v-1h1v-1h-2v1zM148 27v1h2v-1zM150 29h1v1h2v-1h-1v-1h-2zM151 168v1h-1v1h2v-1h1v-1zM151 20v1h1v-1zM153 31h1v-1h-1zM153 168h1v-1h-1zM156 34h2v-1h-1v-1h-1v-1h-2v1h1v1h1zM154 166v1h2v-1h1v-1h-2v1zM158 164h-1v1h1zM158 35h1v-1h-1zM169 152v1h-1v1h-1v1h-1v1h-1v1h-1v1h-1v1h-1v1h-1v1h-1v1h-1v1h-1v1h2v-1h1v-1h1v-1h1v-1h1v-1h1v-1h1v-1h1v-1h1v-1h1v-1h1v-2zM159 27h1v-1h-1zM159 35v1h1v1h1v1h1v1h1v1h1v1h1v1h1v1h1v1h1v1h1v-2h-1v-1h-1v-1h-1v-1h-1v-1h-1v-1h-1v-1h-1v-1h-1v-1zM162 170v1h1v-1zM170 46v-1h-1v1zM170 164v-1h-1v1zM172 47h-1v-1h-1v2h1v1h1v1h1v-2h-1zM170 152h1v-1h-1zM171 151h1v-1h1v-1h1v-2h-1v1h-1v1h-1zM172 40h1v-1h-1zM177 54h-1v-2h-1v-1h-1v-1h-1v2h1v1h1v2h1v1h1zM175 145h-1v2h1v-1h1v-2h-1zM175 157h-1v1h1zM176 144h1v-1h1v-2h1v-2h-1v1h-1v2h-1zM182 68h1v-3h-1v-2h-1v-2h-1v-2h-1v-2h-1v-1h-1v2h1v2h1v2h1v2h1v2h1zM179 49v1h1v-1zM180 137h-1v2h1zM181 135h-1v2h1zM182 132h-1v3h1v-2h1v-2h1v-3h-1v2h-1zM185 77h1v4h1v5h1v8h1v10h-1v9h1v-8h1V93h-1v-8h-1v-5h-1v-4h-1v-3h-1v-3h-1v-2h-1v3h1v3h1zM185 125h-1v3h1zM186 60h-1v1h1zM187 118h-1v3h-1v4h1v-3h1zM188 113h-1v5h1zM191 126v-1h-1v1zM192 122v-1h-1v1zM192 117h1v-1h-1zM193 90v1h1v-1zM194 110v-1h-1v1z" style="fill:#240d29;fill-opacity:1;stroke:none"/><path d="M4 97h1v-2H4zM5 104v-1H4v1zM6 86v-1H5v1zM8 127v1h1v-1zM9 85h1v-5H9zM10 112H9v6h1zM10 131v-1H9v1zM10 80h1v-3h-1zM10 118v4h1v-4zM12 73h-1v3h1zM11 122v3h1v-3zM12 73h1v-3h-1zM12 128h1v-3h-1zM14 65v2h-1v3h1v-2h1v-3zM15 133v-3h-1v-2h-1v3h1v2zM14 143h1v-1h-1zM16 65v-2h-1v2zM15 135h1v-2h-1zM17 63v-2h-1v2zM16 137h1v-2h-1zM18 52v-1h-1v1zM18 59h-1v2h1zM17 137v2h1v-2zM19 59v-2h-1v2zM19 141v-2h-1v2zM20 54v1h-1v2h1v-1h1v-2zM19 143h1v1h1v-2h-1v-1h-1zM21 54h1v-1h1v-2h-1v1h-1zM22 144h-1v2h1zM24 149v-2h-1v-1h-1v2h1v1zM24 43v-1h-1v1zM25 48h-1v1h-1v2h1v-1h1zM25 150v-1h-1v1zM25 48h1v-1h-1zM27 154h1v1h1v-2h-1v-1h-1v-1h-1v-1h-1v2h1v1h1zM25 160h1v-1h-1zM29 42v1h-1v1h-1v1h-1v2h1v-1h1v-1h1v-1h1v-2zM28 36v1h1v-1zM30 155h-1v1h1zM30 41v1h1v-1zM31 159h2v-1h-1v-1h-1v-1h-1v2h1zM31 40v1h1v-1zM32 40h1v-1h-1zM33 38v1h1v-1zM33 159v1h1v-1zM34 37v1h1v-1zM34 160v1h1v-1zM35 36v1h1v-1zM36 162v-1h-1v1zM37 28h-1v1h1zM39 35v-1h1v-1h1v-1h1v-1h-2v1h-1v1h-1v1h-1v1h-1v1h2v-1zM37 163v-1h-1v1zM38 163h-1v1h1zM41 165h-1v-1h-2v1h1v1h1v1h2v-1h-1zM39 174h1v-1h-1zM44 30h1v-1h-2v1h-1v1h2zM45 169v-1h-1v-1h-2v1h1v1zM45 22h1v-1h-1zM49 26h-2v1h-1v1h-1v1h2v-1h1v-1h2v-1h1v-1h-2zM46 169h-1v1h1zM46 170v1h1v1h2v-1h-1v-1zM49 172v1h2v-1zM51 24v1h2v-1zM55 175v-1h-2v-1h-2v1h1v1h2v1h2v1h3v-1h-2v-1zM55 23h-2v1h2zM59 22v-1h-3v1h-1v1h2v-1zM59 20v1h2v-1zM61 178v-1h-2v1zM63 20v-1h-2v1zM63 179v-1h-2v1zM66 18h-3v1h3zM65 181h3v1h3v1h4v-1h-3v-1h-3v-1h-3v-1h-3v1h2zM64 11v1h1v-1zM67 12v-1h-1v1zM66 17v1h3v-1zM72 17v-1h-3v1zM72 15v1h4v-1zM79 184v-1h-4v1zM77 8h-1v1h1zM76 14v1h4v-1zM80 192h-1v1h1zM86 14v-1h-6v1zM85 185v-1h-5v1zM85 6v1h2V6zM112 13v-1H86v1zM93 186v-1h-7v1zM94 185v1h1v-1zM95 186v1h1v-1zM96 185v1h1v-1zM101 195v-1h-4v1zM101 185v1h1v-1zM102 5v1h1V5zM102 187h1v-1h-1zM112 186v-1h-8v1zM106 6h1V5h-1zM112 13v1h6v-1zM113 6v1h1V6zM113 185h5v-1h-5zM118 8h3V7h-3zM122 15v-1h-4v1zM123 184v-1h-4v1zM126 16v-1h-4v1zM126 181v1h-3v1h4v-1h3v-1h3v-1h2v-1h-3v1h-3v1zM127 9h-1v1h1zM129 17v-1h-3v1zM129 17v1h3v-1zM130 189h-1v1h1zM132 19h3v-1h-3zM134 12v1h1v-1zM135 20h2v-1h-2zM137 179v-1h-2v1zM139 21v1h2v1h2v1h2v-1h-1v-1h-2v-1h-2v-1h-3v1zM137 177v1h3v-1h2v-1h-3v1zM138 186h-1v1h1zM138 14h1v-1h-1zM143 174v1h-1v1h2v-1h2v-1h1v-1h-2v1zM147 25v-1h-2v1zM145 182v1h1v-1zM148 19v-1h-1v1zM149 25h-2v1h1v1h2v1h2v-1h-1v-1h-2zM149 173v-1h-2v1zM149 19h-1v1h1zM151 171h1v-1h-2v1h-1v1h2zM150 179v1h1v-1zM153 29v-1h-1v1zM152 170h1v-1h-1zM153 29v1h1v1h2v-1h-1v-1zM154 168h-1v1h2v-1h1v-1h-2zM156 31v1h1v1h1v1h1v1h2v-1h-1v-1h-1v-1h-1v-1zM158 167v-1h1v-1h1v-1h-2v1h-1v1h-1v1zM158 25h-1v1h1zM161 163h-1v1h1zM161 28v1h1v-1zM161 35v1h1v-1zM162 163v-1h-1v1zM162 36v1h1v-1zM162 162h1v-1h-1zM163 38h1v-1h-1zM164 160h-1v1h1zM164 170v-1h-1v1zM165 32v-1h-1v1zM164 39h1v-1h-1zM164 160h1v-1h-1zM165 169v-1h-1v1zM165 40h1v-1h-1zM167 158h1v-2h-1v1h-1v1h-1v1h2zM166 41h1v-1h-1zM167 42h1v-1h-1zM168 35v1h1v-1zM168 43h1v-1h-1zM169 156v-1h-1v1zM169 165v-1h-1v1zM170 46h1v1h1v-2h-1v-1h-1v-1h-1v2h1zM170 155v-1h-1v1zM171 154v-1h1v-1h1v-2h-1v1h-1v1h-1v2zM173 47h-1v1h1zM174 51h1v-2h-1v-1h-1v2h1zM174 149h-1v1h1zM174 147v2h1v-1h1v-2h-1v1zM175 43v1h1v-1zM175 52h1v-1h-1zM176 45v1h1v-1zM176 52v2h1v-2zM176 146h1v-2h-1zM179 55h-1v-1h-1v2h1v1h1zM178 143h-1v1h1zM179 143v-2h-1v2zM179 57v2h1v-2zM179 141h1v-2h-1zM181 59h-1v2h1zM180 139h1v-2h-1zM181 149v-1h-1v1zM182 61h-1v2h1zM181 137h1v-2h-1zM182 55v1h1v-1zM182 63v2h1v-2zM182 135h1v-2h-1zM184 68v2h1v-3h-1v-2h-1v3zM184 131h-1v2h1zM185 60v-1h-1v1zM185 131v-3h-1v3zM185 139h-1v1h1zM185 73h1v-3h-1zM185 128h1v-3h-1zM187 76v-3h-1v3zM187 125v-3h-1v3zM187 80h1v-4h-1zM187 122h1v-4h-1zM188 85h1v-5h-1zM188 118h1v-5h-1zM189 132v-1h-1v1zM189 93h1v-8h-1zM189 113h1v-8h-1zM190 128h-1v1h1zM190 103h1v-8h-1zM191 82h1v-1h-1zM192 85v1h1v-1zM192 114h1v-1h-1zM193 93v1h1v-1zM193 95v1h1v-1zM193 104h1v-1h-1zM194 108h-1v1h1z" style="fill:#220a27;fill-opacity:1;stroke:none"/><path d="M193 108h1v-4h-1v-1h1v-7h-1v-1h1v-1h-1v-1h1v-2h-1v-5h-1v-1h1v-2h-1v-1h-1v-1h1v-3h-1v-4h-1v-3h-1v-3h-1v-3h-1v-2h-1v-2h-1v-1h-1v-1h1v-1h-1v-2h-2v-1h1v-1h-1v-1h-1v-2h-1v-1h-1v-2h-1v-2h-2v-2h-1v-2h-1v-1h-1v-1h-1v-2h-1v-1h-1v-1h-2v-2h-1v-1h-1v-1h-2v-2h-1v-1h-2v-2h-2v-1h-2v-2h-1v-1h-2v-1h-1v-1h-2v-1h-1v-1h-1v1h-1v-1h-1v-1h-1v-1h-1v-1h-2v-1h-2v-1h-3v-1h-2v-1h-1v1h-1v-2h-3v-1h-3V9h-1v1h-1V9h-1V8h-7V7h-2V6h-2v1h-1V6h-4V5h-2v1h-1V5h-3v1h-1V5H89v1h-2v1h-2V6h-3v1h-5v2h-1V8h-3v1h-3v1h-3v2h-1v-1h-1v1h-3v1h-2v1h-2v1h-2v1h-2v1h-2v1h-2v1h-1v1h-2v1h-1v1h-2v1h-1v1h-2v1h-1v1h-1v1h-1v1h-1v1h-2v1h-1v1h-1v1h-1v1h-1v1h-1v1h-1v2h-1v1h-1v1h-1v1h-1v1h-1v2h-1v1h-1v1h-1v2h-1v1h-1v2h-1v2h-1v1h-1v2h-1v2h-1v2h-1v2h-1v3h-1v2h-1v3H9v3H8v4H7v4H6v6H5v11H4v6h1v11h1v6h1v4h1v3h1v3h1v3h1v3h1v2h1v2h1v2h1v2h1v2h1v2h1v2h1v1h1v2h1v1h1v2h1v1h1v1h1v1h1v2h1v1h1v1h1v1h1v1h1v1h1v1h1v1h1v1h1v1h1v1h1v1h1v1h2v1h1v1h1v1h1v1h2v1h1v1h2v1h1v1h2v1h2v1h2v1h2v1h2v1h2v1h2v1h3v1h3v1h3v1h3v1h5v1h5v1h28v-1h6v-1h4v-1h4v-1h2v-1h4v-1h2v-1h2v-1h3v-1h2v-1h2v-1h1v-1h2v-1h2v-1h1v-1h2v-1h2v-1h1v-1h1v-1h2v-1h1v-1h1v-1h1v-1h1v-1h1v-1h1v-1h2v-1h1v-1h1v-2h1v-1h1v-1h1v-1h1v-1h1v-1h1v-2h1v-1h1v-1h1v-2h1v-1h1v-2h1v-2h1v-1h1v-2h1v-2h1v-2h1v-1h-1v-1h2v-2h1v-3h1v-3h1v-3h1v-3h1v-4h1v-5h1v-2h-1v-1h1zm-4 10h-1v4h-1v3h-1v3h-1v3h-1v2h-1v2h-1v2h-1v2h-1v2h-1v2h-1v1h-1v2h-1v2h-1v1h-1v1h-1v2h-1v1h-1v1h-1v1h-1v1h-1v2h-1v1h-2v1h-1v1h-1v1h-1v1h-1v1h-1v1h-1v1h-1v1h-2v1h-1v1h-2v1h-1v1h-1v1h-2v1h-2v1h-1v1h-2v1h-2v1h-2v1h-3v1h-2v1h-2v1h-3v1h-3v1h-4v1h-5v1h-6v1h-9v1h-1v-1h-6v1h-1v-1h-9v-1h-6v-1h-5v-1h-4v-1h-3v-1h-3v-1h-2v-1h-2v-1h-2v-1h-3v-1h-2v-1h-2v-1h-1v-1h-2v-1h-2v-1h-1v-1h-1v-1h-2v-1h-1v-1h-2v-1h-1v-1h-1v-1h-1v-1h-1v-1h-1v-1h-1v-1h-1v-1h-2v-1h-1v-2h-1v-1h-1v-1h-1v-1h-1v-1h-1v-2h-1v-1h-1v-1h-1v-2h-1v-2h-1v-1h-1v-2h-1v-2h-1v-2h-1v-2h-1v-2h-1v-2h-1v-3h-1v-3h-1v-3h-1v-4H9V80h1v-3h1v-4h1v-3h1v-3h1v-2h1v-2h1v-2h1v-2h1v-2h1v-2h1v-1h1v-2h1v-1h1v-2h1v-1h1v-1h1v-2h1v-1h1v-1h1v-1h1v-1h1v-1h1v-1h1v-1h1v-1h1v-1h1v-1h1v-1h1v-1h1v-1h1v-1h2v-1h1v-1h2v-1h1v-1h1v-1h2v-1h2v-1h2v-1h2v-1h1v-1h3v-1h2v-1h2v-1h3v-1h3v-1h3v-1h4v-1h4v-1h6v-1h26v1h6v1h4v1h4v1h3v1h3v1h3v1h2v1h3v1h2v1h2v1h1v1h2v1h2v1h2v1h1v1h1v1h2v1h1v1h2v1h1v1h1v1h1v1h1v1h1v1h1v1h1v1h1v1h1v1h1v1h1v1h1v1h1v1h1v2h1v1h1v1h1v2h1v1h1v2h1v1h1v2h1v2h1v2h1v2h1v2h1v2h1v3h1v3h1v3h1v4h1v5h1v10h1v8h-1v10h-1z" style="fill:#220925;fill-opacity:1;stroke:none"/><path d="M5 112v-1H4v1zM5 82h1v-1H5zM7 122H6v1h1zM8 130h1v-1H8zM10 132H9v1h1zM11 64h-1v1h1zM11 137v1h1v-1zM16 148h1v-1h-1zM23 41v1h1v-1zM25 160v1h1v-1zM29 36v-1h-1v1zM29 35h1v-1h-1zM33 30v1h1v-1zM34 30h1v-1h-1zM38 174h1v-1h-1zM45 22v-1h-1v1zM47 19v1h1v-1zM51 183h1v-1h-1zM52 16v1h1v-1zM61 13v-1h-1v1zM62 187h-1v1h1zM70 191v-1h-1v1zM81 193v1h1v-1zM85 5h-1v1h1zM89 195v-1h-1v1zM93 4v1h3V4zM103 4v1h2V4zM111 194h-1v1h1zM119 6v1h1V6zM122 193v-1h-1v1zM124 7h-1v1h1zM125 192h1v-1h-1zM131 190h1v-1h-1zM136 11h-1v1h1zM149 182v-1h-1v1zM154 177v1h1v-1zM158 174v1h1v-1zM171 38h1v-1h-1zM174 159h1v-1h-1zM183 145h1v-1h-1zM184 143h1v-1h-1zM186 141v-1h-1v1zM188 64v-1h-1v1zM189 130v1h1v-1zM191 128v-1h-1v1zM192 75h-1v1h1zM192 120h1v-1h-1zM193 85v1h1v-1zM195 95h-1v9h1z" style="fill:#220925;fill-opacity:.667;stroke:none"/><path d="M9 100h1v-1H9zM9 105v1h1v-1zM11 89v-3h-1v3zM11 109h-1v3h1zM12 81h-1v2h1zM12 115h-1v2h1zM12 79h1v-2h-1zM13 121v-1h-1v1zM13 74v1h1v-1zM13 123v1h1v-1zM15 71h-1v1h1zM14 126v1h1v-1zM15 70h1v-2h-1zM16 130v-1h-1v1zM16 66v1h1v-1zM17 132v-1h-1v1zM17 63v2h1v-2zM18 133h-1v1h1zM18 63h1v-2h-1zM19 60v1h1v-1zM20 89v-1h-1v1zM20 109h-1v2h1zM20 58v1h1v-1zM20 115v1h1v-1zM20 140h1v-1h-1zM21 56v1h1v-1zM21 80h1v-1h-1zM21 141v1h1v-1zM22 56h1v-1h-1zM23 54h1v-1h-1zM23 73v1h1v-1zM23 144v1h1v-1zM24 53h1v-2h-1zM25 128v-1h-1v1zM26 50h-1v1h1zM26 69v-1h-1v1zM25 148h1v-1h-1zM26 49v1h1v-1zM26 66v1h1v-1zM28 47h-1v1h1zM27 151h1v-1h-1zM28 46v1h1v-1zM28 135v1h1v-1zM28 151v1h1v-1zM29 45v1h1v-1zM30 152h-1v1h1zM31 44h-1v1h1zM30 60h1v-1h-1zM32 44v-1h-1v1zM32 140h-1v1h1zM32 42v1h1v-1zM32 56v1h1v-1zM33 41v1h1v-1zM36 39h1v-1h-1zM36 52h1v-1h-1zM37 37v1h1v-1zM38 36v1h1v-1zM40 36v-1h-1v1zM40 150h-1v1h1zM40 162h-1v1h1zM40 34v1h1v-1zM40 151v1h1v-1zM41 164v-1h-1v1zM42 33h-1v1h1zM42 153v-1h-1v1zM42 165v-1h-1v1zM43 32v1h1v-1zM45 31h-1v1h1zM45 166h-1v1h1zM47 31v-1h-2v1zM46 43v-1h-1v1zM46 167h-1v1h1zM47 29v1h1v-1zM48 168h-1v1h1zM49 28h-1v1h1zM49 158h-1v1h1zM49 170v-1h-1v1zM51 28v-1h-1v1zM50 38v1h1v-1zM51 170h-1v1h1zM52 26v1h1v-1zM53 25v1h2v-1zM53 172v1h1v-1zM56 25v-1h-1v1zM56 174v-1h-1v1zM57 34h-1v1h1zM58 23h-1v1h1zM58 175v-1h-1v1zM59 34v-1h-1v1zM61 23v-1h-2v1zM60 166v-1h-1v1zM60 175h-1v1h1zM60 32v1h1v-1zM61 21v1h2v-1zM62 167v-1h-1v1zM62 176h-1v1h1zM63 31h-1v1h1zM65 21v-1h-1v1zM64 30v1h1v-1zM66 19v1h2v-1zM66 29v1h1v-1zM67 178h-1v1h1zM71 19v-1h-2v1zM69 179v1h1v-1zM70 170v1h1v-1zM72 17v1h2v-1zM73 180h-1v1h1zM73 172h1v-1h-1zM78 17v-1h-2v1zM77 181h-1v1h1zM78 25v1h1v-1zM82 183v-1h-2v1zM81 15v1h2v-1zM83 24v1h1v-1zM86 183v1h2v-1zM87 15h4v-1h-4zM92 23h-3v1h3zM95 185h1v-1h-1zM98 14v-1h-1v1zM100 14v-1h-1v1zM105 184h-1v1h1zM111 15v-1h-4v1zM109 24v-1h-2v1zM112 184v-1h-2v1zM111 174v1h1v-1zM117 16v-1h-2v1zM118 173h-1v1h1zM117 183h1v-1h-1zM122 16h-2v1h2zM121 173h1v-1h-1zM121 181v1h1v-1zM123 27h1v-1h-1zM125 17h-1v1h1zM125 180v1h1v-1zM127 27h-1v1h1zM127 18v1h2v-1zM129 179h-1v1h1zM129 28v1h1v-1zM130 19v1h2v-1zM131 178v1h1v-1zM134 20h-1v1h1zM135 21v1h2v-1zM136 176v1h1v-1zM138 22v1h1v-1zM138 175v1h1v-1zM141 24v-1h-1v1zM140 174v1h1v-1zM143 24h-1v1h1zM143 163h-1v1h1zM142 173v1h1v-1zM144 36v-1h-1v1zM144 25v1h1v-1zM145 172h-1v1h1zM145 26v1h1v-1zM146 162v-1h-1v1zM147 37h-1v1h1zM146 171v1h1v-1zM147 27v1h1v-1zM149 159h-1v1h1zM149 28v1h1v-1zM150 170v-1h-1v1zM150 29v1h1v-1zM151 41v-1h-1v1zM152 30v1h1v-1zM153 167h-1v1h1zM154 32v-1h-1v1zM154 155h-1v1h1zM157 165v-1h-1v1zM157 34v1h1v-1zM158 164v-1h-1v1zM158 35v1h1v-1zM159 37h1v-1h-1zM165 54h-1v1h1zM165 142v1h1v-1zM167 57h-1v1h1zM168 46h1v-1h-1zM169 60h-1v1h1zM170 46h-1v1h1zM169 152h1v-1h-1zM171 134h-1v1h1zM171 151v-1h-1v1zM171 133h1v-1h-1zM172 51h1v-1h-1zM172 130v1h1v-1zM174 147v-1h-1v1zM174 54h1v-1h-1zM174 73h1v-1h-1zM176 143h-1v1h1zM176 57h1v-1h-1zM176 121h1v-1h-1zM178 87h1v-1h-1zM179 111h-1v1h1zM178 138v1h1v-1zM180 96v-1h-1v1zM180 97h-1v1h1zM179 99v1h1v-1zM179 102h1v-1h-1zM180 136h-1v1h1zM180 134v1h1v-1zM182 68v1h1v-1zM183 128h1v-1h-1zM185 124h-1v1h1zM185 77v1h1v-1zM187 81h-1v1h1zM187 117h-1v1h1zM188 87v-1h-1v1zM188 111h-1v2h1zM189 94h-1v10h1z" style="fill:#28122b;fill-opacity:1;stroke:none"/><path d="M11 89h-1v3h1zM10 107v2h1v-2zM11 83v1h1v-1zM12 115v-1h-1v1zM12 80h1v-1h-1zM12 119v1h1v-1zM14 75h-1v1h1zM14 122h-1v1h1zM15 72h-1v1h1zM14 126h1v-1h-1zM15 128v1h1v-1zM17 67h-1v1h1zM18 136h1v-1h-1zM19 111v1h1v-1zM20 138v-1h-1v1zM20 116v1h1v-1zM22 58v-1h-1v1zM23 76v-1h-1v1zM22 142v1h1v-1zM24 55v-1h-1v1zM25 146v-1h-1v1zM25 51v1h1v-1zM27 133v-1h-1v1zM26 149h1v-1h-1zM28 49v-1h-1v1zM27 150h1v-1h-1zM29 48v-1h-1v1zM30 154h1v-1h-1zM31 58h1v-1h-1zM32 155v-1h-1v1zM33 155h-1v1h1zM33 157h1v-1h-1zM34 40v1h1v-1zM35 54v-1h-1v1zM35 157h-1v1h1zM35 39v1h1v-1zM36 159v-1h-1v1zM36 160h1v-1h-1zM37 148v1h1v-1zM37 160v1h1v-1zM38 162h1v-1h-1zM42 35v-1h-1v1zM43 33h-1v1h1zM43 155h1v-1h-1zM44 166v-1h-1v1zM44 155v1h1v-1zM46 31h-1v1h1zM48 41v-1h-1v1zM50 29v-1h-1v1zM50 159h-1v1h1zM51 27v1h1v-1zM52 37h-1v1h1zM52 171v1h1v-1zM55 36v-1h-1v1zM56 163h-1v1h1zM56 25h1v-1h-1zM59 23h-1v1h1zM63 176h-1v1h1zM65 178v-1h-1v1zM66 20h-1v1h1zM68 169h-1v1h1zM68 178h-1v1h1zM68 20h1v-1h-1zM69 28h-1v1h1zM71 180v-1h-1v1zM72 19v-1h-1v1zM73 180v1h1v-1zM75 18v-1h-1v1zM78 26v-1h-1v1zM77 182h1v-1h-1zM79 16h-1v1h1zM80 173h-1v1h1zM81 25h1v-1h-1zM82 182v1h1v-1zM83 15v1h2v-1zM85 175h1v-1h-1zM88 23h-1v1h1zM88 183v1h2v-1zM91 14v1h3v-1zM94 176h2v-1h-2zM103 175v1h2v-1zM107 15v-1h-3v1zM110 183h-1v1h1zM110 23v1h1v-1zM113 175h1v-1h-1zM114 16h1v-1h-1zM116 25h1v-1h-1zM116 183h1v-1h-1zM119 174v-1h-1v1zM120 17v-1h-1v1zM122 172v1h1v-1zM124 17h-1v1h1zM124 26v1h1v-1zM125 181v-1h-1v1zM126 172v-1h-1v1zM129 170h-1v1h1zM132 21h1v-1h-1zM133 29h-1v1h1zM133 177v1h1v-1zM135 31v-1h-1v1zM135 167v1h1v-1zM137 31h-1v1h1zM138 23v-1h-1v1zM137 166v1h1v-1zM138 33h1v-1h-1zM139 23v1h1v-1zM139 165v1h1v-1zM141 34v-1h-1v1zM142 24h-1v1h1zM144 26v-1h-1v1zM145 163v-1h-1v1zM145 37h1v-1h-1zM148 161v-1h-1v1zM147 170v1h1v-1zM148 29h1v-1h-1zM151 169v-1h-1v1zM151 30v1h1v-1zM151 158h1v-1h-1zM153 167h1v-1h-1zM154 32v1h1v-1zM155 43h-1v1h1zM155 34h1v-1h-1zM158 162v1h1v-1zM159 48v1h1v-1zM161 38v-1h-1v1zM160 49v1h1v-1zM162 39v-1h-1v1zM161 50v1h1v-1zM163 40v-1h-1v1zM163 40v1h1v-1zM164 145h-1v1h1zM164 41v1h1v-1zM166 42h-1v1h1zM166 43v1h1v-1zM166 142h1v-1h-1zM167 44v1h1v-1zM167 58v1h1v-1zM168 138v1h1v-1zM169 153v-1h-1v1zM170 64h1v-1h-1zM171 50h1v-1h-1zM173 147h-1v1h1zM173 52v1h1v-1zM173 69v1h1v-1zM174 127h1v-1h-1zM175 145v-1h-1v1zM175 55v1h1v-1zM176 141v1h1v-1zM177 58v1h1v-1zM178 139h-1v1h1zM179 60h-1v1h1zM179 114v-1h-1v1zM180 62h-1v1h1zM179 106h1v-1h-1zM180 65h1v-1h-1zM181 66v1h1v-1zM181 132h1v-1h-1zM182 129v1h1v-1zM184 72v-1h-1v1zM183 126v1h1v-1zM184 75h1v-1h-1zM184 123v1h1v-1zM185 121h1v-1h-1zM187 83v-1h-1v1zM187 117v-1h-1v1zM188 87h-1v2h1zM188 110h-1v1h1z" style="fill:#2d1932;fill-opacity:1;stroke:none"/><path d="M10 93h1v-1h-1zM10 107h1v-2h-1zM12 85v-1h-1v1zM12 113h-1v1h1zM12 118v1h1v-1zM14 77v-1h-1v1zM15 71h1v-1h-1zM16 131h1v-1h-1zM18 66v-1h-1v1zM18 64h1v-1h-1zM19 94h-1v10h1zM20 62v-1h-1v1zM20 87v-2h-1v2zM20 112h-1v1h1zM21 59h-1v1h1zM20 81v1h1v-1zM21 118v-1h-1v1zM22 121v-1h-1v1zM21 141h1v-1h-1zM22 123v1h1v-1zM24 73v-1h-1v1zM25 128h-1v1h1zM25 68h1v-1h-1zM26 130h-1v1h1zM27 65h-1v1h1zM28 135v-1h-1v1zM29 136h-1v1h1zM29 47h1v-1h-1zM30 61v-1h-1v1zM31 140v-1h-1v1zM33 143v-1h-1v1zM33 55h1v-1h-1zM35 146v1h1v-1zM36 148h1v-1h-1zM39 48h-1v1h1zM40 47h-1v1h1zM41 35h-1v1h1zM40 46v1h1v-1zM42 45h-1v1h1zM42 45h1v-1h-1zM42 165h1v-1h-1zM44 43h-1v1h1zM45 156v1h1v-1zM46 167v1h1v-1zM48 30h1v-1h-1zM49 40v-1h-1v1zM49 170h1v-1h-1zM51 161v-1h-1v1zM52 36v1h1v-1zM53 27h1v-1h-1zM53 162v1h1v-1zM55 173v-1h-1v1zM57 174v-1h-1v1zM57 33v1h1v-1zM58 175h1v-1h-1zM59 32v1h1v-1zM61 167v-1h-1v1zM61 175h-1v1h1zM62 32v-1h-1v1zM62 168h1v-1h-1zM63 22h1v-1h-1zM63 30v1h1v-1zM65 30h1v-1h-1zM69 171h1v-1h-1zM71 27h-1v1h1zM72 172h1v-1h-1zM73 27h1v-1h-1zM75 18h1v-1h-1zM75 172v1h1v-1zM77 25h-1v1h1zM79 16v1h1v-1zM80 24v1h1v-1zM83 174v1h2v-1zM86 16v-1h-1v1zM87 24v-1h-1v1zM91 184v-1h-1v1zM91 176h3v-1h-3zM94 14v1h10v-1zM107 176v-1h-2v1zM109 184v-1h-2v1zM111 24h1v-1h-1zM114 15h-1v1h1zM115 174h-1v1h1zM116 183v-1h-1v1zM117 24v1h1v-1zM119 16h-1v1h1zM120 174v-1h-1v1zM120 181v1h1v-1zM121 26h1v-1h-1zM126 18v1h1v-1zM128 27h-1v1h1zM127 180h1v-1h-1zM130 19h-1v1h1zM130 29h1v-1h-1zM130 178v1h1v-1zM132 170v-1h-1v1zM133 169h1v-1h-1zM136 177v-1h-1v1zM141 164v1h1v-1zM142 35h1v-1h-1zM145 171v1h1v-1zM147 28v-1h-1v1zM149 38h-1v1h1zM151 158h-1v1h1zM153 41h-1v1h1zM153 43h1v-1h-1zM154 166h1v-1h-1zM159 161v1h1v-1zM163 52v-1h-1v1zM165 145v-1h-1v1zM165 56h1v-1h-1zM167 154h1v-1h-1zM169 61v1h1v-1zM170 48v1h1v-1zM170 135v1h1v-1zM171 134h1v-1h-1zM171 148v1h1v-1zM173 132v-1h-1v1zM174 129h-1v1h1zM175 71h-1v1h1zM175 124v1h1v-1zM176 76v1h1v-1zM178 80v-1h-1v1zM178 119v-1h-1v1zM178 85h1v-2h-1zM179 115v-1h-1v1zM179 138v-1h-1v1zM179 92h1v-2h-1zM179 109h1v-2h-1zM179 136h1v-1h-1zM180 134h1v-1h-1zM183 69h-1v1h1zM186 79v-1h-1v1zM186 120v-1h-1v1zM187 115h-1v1h1zM188 89h-1v1h1zM187 109v1h1v-1z" style="fill:#331d37;fill-opacity:1;stroke:none"/><path d="M11 93h-1v2h1zM11 104h-1v1h1zM11 86h1v-1h-1zM12 81h1v-1h-1zM13 121v1h1v-1zM15 74v-1h-1v1zM15 127v1h1v-1zM18 132h-1v1h1zM18 94h1v-3h-1zM18 107h1v-3h-1zM19 114h1v-1h-1zM20 81h1v-1h-1zM20 139h1v-1h-1zM22 78v-1h-1v1zM22 56v1h1v-1zM22 74v1h1v-1zM23 127h1v-1h-1zM23 143v1h1v-1zM24 69v1h1v-1zM26 147v-1h-1v1zM26 50v1h1v-1zM27 63v1h1v-1zM28 62h1v-1h-1zM29 151v-1h-1v1zM29 138v1h1v-1zM31 46v-1h-1v1zM30 59h1v-1h-1zM31 141v1h1v-1zM32 56h1v-1h-1zM35 145h-1v1h1zM37 50h-1v1h1zM37 49v1h1v-1zM39 37h1v-1h-1zM41 163v1h1v-1zM44 32v1h1v-1zM44 43h1v-1h-1zM46 158h1v-1h-1zM48 158h-1v1h1zM50 39v-1h-1v1zM55 25v1h1v-1zM55 34v1h1v-1zM57 164h-1v1h1zM57 24v1h1v-1zM59 166v-1h-1v1zM59 24h1v-1h-1zM61 23h1v-1h-1zM64 169h1v-1h-1zM66 177h-1v1h1zM67 21v-1h-1v1zM66 170h1v-1h-1zM67 28v1h1v-1zM72 171h-1v1h1zM73 18h-1v1h1zM74 173h1v-1h-1zM75 181v-1h-1v1zM79 173h-1v1h1zM78 181v1h1v-1zM80 25v-1h-1v1zM81 16h-1v1h1zM83 174h-1v1h1zM83 183h1v-1h-1zM86 24v-1h-1v1zM91 176v-1h-2v1zM91 183v1h1v-1zM94 23h10v-1H94zM107 184v-1h-1v1zM109 175h-2v1h2zM112 16h1v-1h-1zM112 24h2v-1h-2zM115 182h-1v1h1zM116 174h-1v1h1zM118 25h1v-1h-1zM120 174h1v-1h-1zM123 18v-1h-1v1zM122 25v1h1v-1zM123 172v1h1v-1zM125 26v1h1v-1zM126 171v1h1v-1zM128 27v1h1v-1zM129 171h1v-1h-1zM135 21h-1v1h1zM135 30v1h1v-1zM138 31h-1v1h1zM137 175v1h1v-1zM140 33v-1h-1v1zM144 164v-1h-1v1zM144 172h-1v1h1zM144 35v1h1v-1zM147 161h-1v1h1zM147 37v1h1v-1zM150 30v-1h-1v1zM150 159h-1v1h1zM151 41h1v-1h-1zM153 32v-1h-1v1zM154 155v1h1v-1zM155 155h1v-1h-1zM157 34h-1v1h1zM157 154v-1h-1v1zM158 152h-1v1h1zM158 151v1h1v-1zM159 151h1v-1h-1zM160 150h1v-1h-1zM161 161v-1h-1v1zM162 159h-1v1h1zM163 53h1v-1h-1zM166 144v-1h-1v1zM166 155h-1v1h1zM167 56h-1v1h1zM167 155v-1h-1v1zM168 141v-1h-1v1zM169 60v-1h-1v1zM170 47h-1v1h1zM169 137v1h1v-1zM171 65h1v-1h-1zM172 52h1v-1h-1zM172 66v1h1v-1zM174 69v-1h-1v1zM173 145v1h1v-1zM175 128v-1h-1v1zM175 73v1h1v-1zM176 142h-1v1h1zM176 57v1h1v-1zM177 122h-1v1h1zM177 119v1h1v-1zM179 116v-1h-1v1zM180 90v-2h-1v2zM180 110v-1h-1v1zM183 129v-1h-1v1zM184 72h-1v1h1zM185 76v-1h-1v1zM187 83h-1v1h1zM187 90v1h1v-1zM188 108h-1v1h1z" style="fill:#37233e;fill-opacity:1;stroke:none"/><path d="M10 104h1v-9h-1zM12 87v-1h-1v1zM11 113h1v-1h-1zM12 117v1h1v-1zM15 125v-1h-1v1zM16 68v1h1v-1zM18 90v1h1v-1zM19 107h-1v2h1zM18 134v1h1v-1zM20 83h-1v2h1zM19 114v1h1v-1zM19 136v1h1v-1zM20 80h1v-1h-1zM20 118v1h1v-1zM22 76h-1v1h1zM21 122h1v-1h-1zM23 125v-1h-1v1zM23 72h1v-1h-1zM25 54v-1h-1v1zM25 129h-1v1h1zM26 131h-1v1h1zM26 134h1v-1h-1zM28 135h-1v1h1zM29 59v1h1v-1zM29 151v1h1v-1zM31 140h-1v1h1zM32 44h-1v1h1zM32 56h-1v1h1zM33 44v-1h-1v1zM33 145h1v-1h-1zM34 52v1h1v-1zM36 51h-1v1h1zM39 38v-1h-1v1zM40 152v-1h-1v1zM41 152h-1v1h1zM42 153h-1v1h1zM42 155h1v-1h-1zM45 41v1h1v-1zM45 166v1h1v-1zM46 40v1h1v-1zM48 31v-1h-1v1zM48 160h1v-1h-1zM49 168h-1v1h1zM51 29v-1h-1v1zM50 37v1h1v-1zM52 161h-1v1h1zM52 171v-1h-1v1zM53 35v1h1v-1zM54 164h1v-1h-1zM58 32v1h1v-1zM60 32h1v-1h-1zM61 167v1h1v-1zM62 30v1h1v-1zM69 171v-1h-1v1zM69 178h-1v1h1zM70 20v-1h-1v1zM69 27v1h1v-1zM71 179v1h1v-1zM73 27v-1h-1v1zM75 25v1h1v-1zM77 17h-1v1h1zM77 174h1v-1h-1zM82 174h-1v1h1zM84 23v1h1v-1zM85 182h-1v1h1zM87 16v-1h-1v1zM89 176v-1h-2v1zM91 23h3v-1h-3zM92 183v1h2v-1zM107 22h-3v1h3zM106 184v-1h-2v1zM111 175h-2v1h2zM111 16h1v-1h-1zM115 24v-1h-1v1zM116 174v1h1v-1zM118 17v-1h-1v1zM119 24v1h1v-1zM119 181v1h1v-1zM124 180h-1v1h1zM124 173h1v-1h-1zM125 19h1v-1h-1zM127 171v1h1v-1zM132 20h-1v1h1zM131 28v1h1v-1zM133 170v-1h-1v1zM133 178v-1h-1v1zM134 30v-1h-1v1zM135 168h-1v1h1zM137 22h-1v1h1zM137 168v-1h-1v1zM138 167h1v-1h-1zM140 175v-1h-1v1zM140 165v1h1v-1zM142 33h-1v1h1zM141 173v1h1v-1zM145 27v-1h-1v1zM145 162v1h1v-1zM146 37h1v-1h-1zM149 161v-1h-1v1zM149 170v-1h-1v1zM151 40v-1h-1v1zM152 168v-1h-1v1zM154 156h-1v1h1zM155 44h1v-1h-1zM155 164v1h1v-1zM156 45h1v-1h-1zM157 36h1v-1h-1zM158 45h-1v1h1zM158 47h1v-1h-1zM159 47v1h1v-1zM162 148h-1v1h1zM163 148v-1h-1v1zM162 159h1v-1h-1zM164 158v-1h-1v1zM164 54h1v-1h-1zM165 157v-1h-1v1zM167 142h-1v1h1zM167 58h1v-1h-1zM169 140v-1h-1v1zM169 61h1v-1h-1zM170 63h1v-1h-1zM170 149v1h1v-1zM175 54h-1v1h1zM175 71v-1h-1v1zM175 125v1h1v-1zM176 76h1v-1h-1zM178 59h-1v1h1zM177 78v1h1v-1zM178 82v1h1v-1zM178 116v1h1v-1zM180 88v-1h-1v1zM180 112v-2h-1v2zM180 65v1h1v-1zM181 68h1v-1h-1zM184 126v-1h-1v1zM185 122h-1v1h1zM185 79v1h1v-1zM187 115v-1h-1v1zM188 91h-1v1h1zM187 108h1v-1h-1z" style="fill:#3c2944;fill-opacity:1;stroke:none"/><path d="M12 87h-1v1h1zM12 117h1v-1h-1zM14 121v-1h-1v1zM14 75h1v-1h-1zM18 69h1v-1h-1zM20 61h1v-1h-1zM23 59h1v-1h-1zM25 141h-1v1h1zM24 144v1h1v-1zM26 144v1h1v-1zM29 148v1h1v-1zM30 49h1v-1h-1zM34 42h1v-1h-1zM35 41h1v-1h-1zM139 172v-1h2v-1h2v-1h1v-1h2v-1h1v-1h2v-1h1v-1h1v-1h1v-1h2v-1h1v-1h1v-1h1v-1h1v-1h1v-1h1v-1h1v-1h1v-2h-3v1h-1v1h-1v1h-1v1h-2v1h-1v1h-1v1h-1v1h-1v1h-2v1h-1v1h-2v1h-2v2h-2v1h-1v1h-2v1h-2v1h-2v1h-2v-1h-1v2h-2v1h-2v1h-3v1h-4v1h-4v1h-6v1H89v-1h-6v-1h-5v-1h-3v-1h-3v-1h-3v-1h-2v-1h-2v-2h-1v1h-1v-1h-2v-1h-2v-2h-1v1h-1v-2h-3v-1h-1v-1h-1v-1h-2v-1h-1v-1h-2v-1h-1v-1h-2v-2h-1v-1h-1v-1h-1v-1h-1v-1h-4v1h1v1h1v1h1v1h1v1h1v1h1v1h1v1h1v1h1v1h1v1h1v1h2v1h1v1h1v1h2v1h1v1h2v1h2v1h1v1h2v1h2v1h3v1h2v1h3v1h3v1h3v1h5v1h2v1h1v-1h3v1h5v1h1v-1h10v1h1v-1h6v-1h2v1h1v-1h3v-1h4v-1h4v-1h1v1h1v-1h1v-1h1v1h1v-2h3v-1h2v-1h2v-1zM58 28h-1v1h-2v1h-1v1h-2v1h-1v1h-2v1h-1v1h-1v1h-1v1h-2v1h-1v1h-1v1h-1v1h-1v1h-1v1h-1v1h-1v2h3v-1h1v-1h1v-1h1v-1h1v-1h2v-1h1v-1h1v-1h1v-1h2v-1h1v-1h2v-1h2v-2h2v-1h2v-1h2v-1h2v-1h1v1h1v-2h2v-1h2v1h1v-2h2v-1h4v-1h3v-1h5v-1h8v-1h12v1h8v1h5v1h4v1h3v1h3v1h2v2h1v-1h2v1h2v1h2v1h2v1h1v1h2v1h2v2h2v1h2v1h1v1h1v1h2v1h1v1h1v1h1v1h1v1h1v1h1v1h2v1h1v-1h1v-1h-1v-1h-1v-1h-1v-1h-1v-1h-1v-1h-1v-1h-1v-1h-1v-1h-1v-1h-1v-1h-1v-1h-2v-1h-1v-1h-2v-1h-1v-1h-2v-1h-1v-1h-2v-1h-2v-1h-2v-1h-2v-1h-2v-1h-3v-1h-3v-2h-1v1h-2v-1h-4v-1h-1v-1h-1v1h-2v-1h-3v-1h-1v1h-4v-1H91v1h-4v-1h-1v1h-2v1h-5v1h-2v-1h-1v1h-1v1h-3v1h-3v1h-2v1h-3v1h-2v1h-2v1h-2zM48 166v-1h-1v1zM53 28v-1h-1v1z" style="fill:#463352;fill-opacity:1;stroke:none"/><path d="M70 171h-1v1h1zM74 19v-1h-1v1zM74 25h-1v1h1zM86 23h1v-1h-1zM96 183v1h7v-1zM107 176h-1v1h1zM114 176h1v-1h-1zM117 16h-1v1h1zM119 181h-1v1h1zM147 171v-1h-1v1zM147 28v1h1v-1zM156 164h1v-1h-1zM168 45h-1v1h1zM170 150h-1v1h1zM172 50h-1v1h1zM171 54h1v-1h-1zM173 144v-1h-1v1zM172 147h1v-1h-1zM174 56h-1v1h1zM176 139v-1h-1v1zM176 62h1v-1h-1zM177 63v1h1v-1zM179 66v-1h-1v1zM179 130v1h1v-1zM183 70h-1v1h1zM185 77v-1h-1v1zM186 113v1h1v-1zM187 93h1v-1h-1zM188 106v-1h-1v1z" style="fill:#463352;fill-opacity:1;stroke:none"/><path d="M11 89h1v-1h-1zM12 83h1v-1h-1zM12 91h1v-2h-1zM12 109h1v-2h-1zM13 83v1h1v-1zM13 114v1h1v-1zM15 80v-1h-1v1zM14 118v1h1v-1zM15 123h-1v1h1zM16 123v-1h-1v1zM15 127h1v-1h-1zM16 125v1h1v-1zM17 131v1h1v-1zM19 68v-1h-1v1zM18 130v1h1v-1zM19 65v1h1v-1zM20 63v1h1v-1zM22 62v-1h-1v1zM21 139v1h1v-1zM23 59h-1v1h1zM24 141v-1h-1v1zM25 143v1h1v-1zM28 147v-1h-1v1zM28 48v1h1v-1zM28 51h1v-1h-1zM32 151h-1v1h1zM31 153v1h1v-1zM32 46h1v-1h-1zM34 45v-1h-1v1zM35 43h-1v1h1zM36 43v-1h-1v1zM36 42h1v-1h-1zM37 41h1v-1h-1zM38 39v1h1v-1zM39 160h-1v1h1zM40 161h1v-1h-1zM42 161h-1v1h1zM42 34v1h1v-1zM44 35h1v-1h-1zM45 164v1h1v-1zM46 32h1v-1h-1zM48 33v-1h-1v1zM50 29h-1v1h1zM51 169h1v-1h-1zM54 28h-1v1h1zM55 26h-1v1h1zM55 27v1h1v-1zM56 173v-1h-1v1zM57 171h-1v1h1zM58 173h-1v1h1zM58 172v1h1v-1zM60 175v-1h-1v1zM61 173h-1v1h1zM61 24v1h1v-1zM63 23v-1h-1v1zM64 23h-1v1h1zM67 177h-1v1h1zM67 20v1h1v-1zM67 176v1h1v-1zM69 22v-1h-1v1zM71 19h-1v1h1zM70 177v1h1v-1zM71 21h1v-1h-1zM72 179v1h1v-1zM75 20h1v-1h-1zM77 179v1h1v-1zM79 18v1h1v-1zM80 181v1h1v-1zM83 16h-1v1h1zM82 180v1h1v-1zM85 17h-1v1h1zM90 181h-2v1h2zM90 15h-1v1h1zM91 16v1h4v-1zM97 17h1v-1h-1zM100 16v1h1v-1zM103 16v1h4v-1zM108 181v1h2v-1zM110 16v-1h-1v1zM112 183h1v-1h-1zM115 17h-2v1h2zM116 180h-1v1h1zM119 19h1v-1h-1zM121 17h-1v1h1zM121 179h-1v1h1zM122 180v1h1v-1zM123 20h1v-1h-1zM125 19v-1h-1v1zM124 179h1v-1h-1zM126 21h1v-1h-1zM128 178v-1h-1v1zM130 21h-1v1h1zM130 177h1v-1h-1zM132 23h1v-1h-1zM134 23v1h1v-1zM136 175v-1h-1v1zM137 173v1h1v-1zM140 173v-1h-1v1zM143 171h1v-1h-1zM147 30v-1h-1v1zM148 168h1v-1h-1zM150 31h-1v1h1zM149 168v1h1v-1zM151 166h1v-1h-1zM153 34v-1h-1v1zM154 33v1h1v-1zM155 163h1v-1h-1zM156 161v1h1v-1zM158 38v-1h-1v1zM158 39h1v-1h-1zM159 37v1h1v-1zM167 44h-1v1h1zM167 47v-1h-1v1zM168 150h-1v1h1zM169 149h-1v1h1zM170 51v1h1v-1zM171 146h1v-1h-1zM174 53h-1v1h1zM173 143h1v-1h-1zM175 57h-1v1h1zM175 143h-1v1h1zM176 57v-1h-1v1zM176 138h1v-1h-1zM178 136v-1h-1v1zM178 133v1h1v-1zM178 136v1h1v-1zM180 132v-1h-1v1zM180 134h-1v1h1zM181 69h-1v1h1zM181 127h1v-1h-1zM183 124v-1h-1v1zM183 128v-1h-1v1zM183 79h1v-1h-1zM184 82v1h1v-1zM185 121h-1v1h1zM185 87v2h1v-2zM185 111h1v-1h-1zM185 118h1v-1h-1zM186 85v1h1v-1zM187 95h1v-1h-1zM188 104h-1v1h1z" style="fill:#4a3956;fill-opacity:1;stroke:none"/><path d="M12 89h-1v2h1zM11 108v1h1v-1zM13 83h-1v1h1zM13 86h-1v2h1zM12 112h1v-2h-1zM12 114v1h1v-1zM13 79v1h1v-1zM13 81v2h1v-2zM14 116h-1v1h1zM13 120h1v-1h-1zM15 75h-1v1h1zM15 120h-1v1h1zM15 73h1v-1h-1zM15 75h1v-1h-1zM16 123h-1v1h1zM17 71h-1v1h1zM17 127v-1h-1v1zM17 129v-1h-1v1zM17 67v1h1v-1zM18 67h1v-1h-1zM19 131h-1v1h1zM20 65v-1h-1v1zM19 134h1v-1h-1zM20 136v-1h-1v1zM20 63h1v-1h-1zM21 61h1v-1h-1zM21 137v1h1v-1zM22 57v1h1v-1zM23 140v-1h-1v1zM25 142h-2v1h2zM25 54h-1v2h1zM27 146v-1h-2v1zM26 53h1v-2h-1zM30 150v-1h-1v1zM31 47h-1v1h1zM35 157v-1h-1v1zM36 158v-1h-1v1zM37 158h-1v1h1zM42 37v-1h-2v1zM44 163h-1v2h1zM47 33v-1h-2v1zM49 31h1v-1h-1zM52 29v-1h-1v1zM54 27v1h1v-1zM57 26h-1v1h1zM59 26v-1h-1v1zM61 24h-1v1h1zM62 23v1h1v-1zM64 177h1v-2h-1zM65 22h1v-1h-1zM67 21v1h1v-1zM69 178h1v-1h-1zM70 21h1v-1h-1zM72 179h1v-1h-1zM73 20h1v-1h-1zM74 18v1h1v-1zM77 180v-1h-1v1zM78 18h-1v1h1zM78 17v1h1v-1zM81 181v-1h-1v1zM83 17h-1v1h1zM83 16v1h1v-1zM87 182v-1h-1v1zM87 182v1h1v-1zM90 17v-1h-2v1zM91 16h1v-1h-1zM106 15v1h2v-1zM110 16h-1v1h1zM111 182h1v-1h-1zM114 16v1h1v-1zM116 17v1h1v-1zM118 180h-1v1h1zM120 19h1v-1h-1zM122 181v-1h-1v1zM125 19h-1v1h1zM125 180h1v-2h-1zM128 21v-1h-1v1zM128 179h1v-2h-1zM130 22h1v-1h-1zM131 178h1v-2h-1zM133 22v1h1v-1zM136 24v-1h-1v1zM137 24h1v-1h-1zM139 173h-1v2h1zM140 172v2h1v-2zM143 171h-1v2h1zM144 26h-1v1h1zM145 29h1v-1h-1zM148 168h-1v1h1zM149 31v-2h-1v2zM150 166v1h1v-1zM152 31h-1v2h1zM154 166v-1h-1v1zM154 163v1h1v-1zM155 36h1v-2h-1zM159 161h-1v1h1zM159 160h1v-1h-1zM160 159h1v-1h-1zM161 157v1h1v-1zM163 41v-1h-1v1zM163 41v1h1v-1zM164 154v1h1v-1zM166 154v-1h-1v1zM168 152h-1v1h1zM169 48h-1v1h1zM169 49v1h1v-1zM172 147h-1v1h1zM172 144v1h1v-1zM176 141h-2v1h2zM177 58h-2v1h2zM181 66h-1v1h1zM180 68v1h1v-1zM183 71h-1v1h1zM183 124h-1v1h1zM185 77h-1v1h1zM185 81v-1h-1v1zM185 118v-1h-1v1zM185 82h1v-1h-1zM186 86v-1h-1v1zM186 112h-1v1h1zM187 93h-1v12h1zM186 112h1v-1h-1z" style="fill:#52445f;fill-opacity:1;stroke:none"/><path d="M11 108h1V91h-1zM12 86h1v-2h-1zM12 114h1v-2h-1zM14 80h-1v1h1zM13 119h1v-2h-1zM14 78h1v-2h-1zM15 122h-1v1h1zM16 73h-1v1h1zM16 124h-1v2h1zM16 71h1v-1h-1zM17 127h-1v1h1zM18 68h-1v1h1zM17 131h1v-2h-1zM18 66h1v-1h-1zM20 64v-1h-1v1zM20 61v1h1v-1zM21 60h1v-1h-1zM22 58v1h1v-1zM23 140h-1v1h1zM23 56v1h1v-1zM24 141h-1v1h1zM25 54h1v-1h-1zM25 145h1v-1h-1zM27 51h1v-1h-1zM29 49h-1v1h1zM29 148h-1v2h1zM30 49v-1h-1v1zM31 46h-1v1h1zM31 46h1v-1h-1zM33 44h-1v1h1zM32 154h1v-1h-1zM33 44h1v-1h-1zM33 155h1v-1h-1zM34 42v1h1v-1zM35 155h-1v1h1zM35 41v1h1v-1zM35 157h1v-1h-1zM37 41v-1h-1v1zM37 158v-1h-1v1zM37 40h1v-1h-1zM37 159h1v-1h-1zM38 38v1h1v-1zM39 160v-1h-1v1zM40 37h-1v1h1zM43 36v-1h-1v1zM42 164h1v-1h-1zM44 35v-1h-1v1zM44 34h1v-1h-1zM44 164v1h1v-1zM48 167v-1h-2v1zM47 31v1h1v-1zM48 30v1h1v-1zM51 168h-2v1h2zM50 29v1h1v-1zM52 28v1h1v-1zM53 171v-1h-1v1zM53 27v1h1v-1zM55 27h1v-1h-1zM56 171h-1v1h1zM57 25v1h1v-1zM58 173v-1h-1v1zM59 25h1v-1h-1zM59 174h1v-1h-1zM62 24v-1h-1v1zM61 174v1h1v-1zM63 22v1h2v-1zM67 22v-1h-1v1zM66 177h1v-1h-1zM68 178v-1h-1v1zM68 20v1h2v-1zM70 178v1h1v-1zM73 19h-2v1h2zM73 179v1h1v-1zM75 18v1h2v-1zM76 180v-1h-1v1zM78 180h-1v1h1zM82 18v-1h-3v1zM79 181h1v-1h-1zM82 181h-1v1h1zM84 16v1h4v-1zM86 182v-1h-1v1zM89 183v-1h-1v1zM92 15v1h14v-1zM95 182v1h8v-1zM110 16v1h2v-1zM111 183v-1h-1v1zM113 181h-1v1h1zM114 16h-1v1h1zM117 182v-1h-1v1zM117 17v1h3v-1zM118 180v1h1v-1zM124 19v-1h-3v1zM123 180v-1h-1v1zM127 20v-1h-2v1zM130 21v-1h-2v1zM133 22v-1h-1v1zM135 176v-1h-1v1zM137 174h-1v1h1zM140 25v-1h-1v1zM140 25v1h2v-1zM144 170v1h1v-1zM147 30h1v-1h-1zM147 170h1v-1h-1zM150 32h1v-1h-1zM150 167v1h1v-1zM153 164v1h1v-1zM155 35v-1h-1v1zM158 160v1h2v-1zM160 40h1v-1h-1zM161 40v1h1v-1zM163 42v-1h-1v1zM163 43h1v-1h-1zM164 44h1v-1h-1zM165 45h1v-1h-1zM167 154v-2h-1v2zM169 49h1v-1h-1zM170 147v1h1v-1zM172 52v2h1v-2zM174 145v-1h-1v1zM175 57v-2h-1v2zM176 138v1h1v-1zM177 61h1v-1h-1zM178 136h-1v1h1zM178 62v1h1v-1zM178 135h1v-1h-1zM179 65h1v-1h-1zM180 132h-1v1h1zM182 71v-1h-1v1zM181 127v1h1v-1zM182 130v-1h-1v1zM182 73v1h1v-1zM184 74h-1v1h1zM183 76v1h1v-1zM183 121v1h1v-1zM185 120h-1v1h1zM185 114h1v-1h-1zM185 116v1h1v-1zM186 88h1v-1h-1zM186 92v1h1v-1zM186 107h1v-2h-1zM187 110h-1v1h1z" style="fill:#564a63;fill-opacity:1;stroke:none"/><path d="M13 110v-1h-2v1zM13 88h-1v1h1zM12 115v1h2v-1zM13 79h2v-1h-2zM14 119v1h1v-1zM15 76h1v-1h-1zM18 69h-2v1h2zM17 72h-1v1h1zM17 128v1h1v-1zM19 133h-1v1h1zM21 135h-1v1h1zM20 137v1h1v-1zM24 58v-1h-1v1zM25 54v1h1v-1zM28 52v-1h-1v1zM28 148h-1v1h1zM30 47h-1v1h1zM31 150h-1v1h1zM32 46h-1v1h1zM32 154v1h1v-1zM34 155h-1v1h1zM37 159v1h1v-1zM40 39v-1h-1v1zM41 37h-1v1h1zM42 35h-1v1h1zM43 162h-1v1h1zM45 34h1v-1h-1zM46 166h1v-1h-1zM48 168v-1h-1v1zM48 32h1v-1h-1zM49 168h1v-1h-1zM50 169v1h1v-1zM52 30v-1h-1v1zM52 169v1h1v-1zM54 171h1v-1h-1zM57 26v-1h-1v1zM59 25v-1h-1v1zM61 23h-1v1h1zM63 174h-1v1h1zM65 22v1h1v-1zM70 178h-1v1h1zM74 179v-1h-1v1zM75 19h-1v1h1zM77 180h-1v1h1zM78 19h1v-1h-1zM81 180v1h1v-1zM83 17v1h1v-1zM87 183v-1h-1v1zM88 182v-1h-1v1zM91 15h-1v2h1zM107 16v1h2v-2h-1v1zM111 181h-1v1h1zM111 182v1h1v-1zM115 18h1v-2h-1zM117 181v-1h-1v1zM117 182h1v-1h-1zM122 179h-1v1h1zM128 20v-1h-1v1zM130 20v1h1v-1zM134 175h-1v1h1zM135 22v1h1v-1zM137 176v-1h-1v1zM138 25v-1h-1v1zM140 26v-1h-1v1zM142 26h-1v1h1zM143 27v1h1v-1zM145 172v-1h-1v1zM146 27h-1v1h1zM145 169v1h1v-1zM156 36v1h1v-1zM158 162h-1v1h1zM160 39h1v-1h-1zM162 40v-1h-1v1zM163 156h-1v1h1zM164 156v-1h-1v1zM165 42h-1v1h1zM165 43v1h1v-1zM168 48v-1h-1v1zM168 151v1h1v-1zM169 149h1v-1h-1zM171 50v-1h-1v1zM172 52h-1v1h1zM173 56h1v-1h-1zM175 140h1v-1h-1zM176 60v1h1v-1zM177 62v1h1v-1zM179 65v-1h-1v1zM179 67h1v-1h-1zM180 129v1h1v-1zM181 68v1h1v-1zM182 71h-1v1h1zM183 75v-1h-1v1zM184 77h-1v1h1zM183 121h1v-1h-1zM184 125v-1h-1v1zM184 81v1h1v-1zM185 117v-1h-1v1zM187 86h-2v1h2zM185 112h1v-1h-1zM186 113h1v-1h-1zM188 95h-1v9h1z" style="fill:#4e3f5a;fill-opacity:1;stroke:none"/><path d="M11 110v1h1v-1zM19 64h-1v1h1zM19 62v1h1v-1zM20 132h-1v1h1zM20 135h1v-1h-1zM21 137h1v-1h-1zM23 138h-1v1h1zM24 55h-1v1h1zM24 57h1v-1h-1zM25 53h1v-1h-1zM28 147v1h1v-1zM33 152h-1v1h1zM34 154v-1h-1v1zM35 155v-1h-1v1zM36 156v-1h-1v1zM36 156v1h1v-1zM37 158h1v-1h-1zM38 159h1v-1h-1zM40 160v-1h-1v1zM39 161v1h1v-1zM42 37h1v-1h-1zM44 35h-1v1h1zM44 158h1v-1h-1zM45 163h-1v1h1zM44 166h1v-1h-1zM47 159v1h1v-1zM48 167h1v-1h-1zM50 31h1v-1h-1zM53 30v-1h-1v1zM53 170h1v-1h-1zM55 164h-1v1h1zM56 33h1v-1h-1zM57 26v1h1v-1zM57 166v1h1v-1zM58 32h1v-1h-1zM60 26v-1h-1v1zM59 167v1h1v-1zM61 31v-1h-1v1zM61 169h1v-1h-1zM61 175v1h1v-1zM62 30h1v-1h-1zM64 170v-1h-1v1zM64 175v-1h-1v1zM64 29h1v-1h-1zM65 171h2v-1h-2zM65 175v1h1v-1zM66 22v1h1v-1zM68 28v-1h-2v1zM69 172v-1h-2v1zM68 26v1h2v-1zM69 176h-1v1h1zM70 21h-1v1h1zM72 172h-3v1h3zM73 26v-1h-2v1zM72 178v-1h-1v1zM73 20h-1v1h1zM72 174h3v-1h-3zM77 25v-1h-4v1zM75 178h-1v1h1zM107 176v1H92v-1h-8v-1h-5v-1h-4v1h3v1h5v1h6v1h21v-1h6v-1h4v-1h4v-1h3v-1h2v-1h-3v1h-3v1h-4v1h-4v1zM77 17v1h1v-1zM93 20v1h-8v1h-5v1h-3v1h4v-1h5v-1h26v1h6v-1h-5v-1h-8v-1zM78 180h1v-1h-1zM81 19v-1h-1v1zM84 180h-1v1h1zM85 17v1h1v-1zM85 182v1h1v-1zM88 15v1h1v-1zM90 181v1h3v-1zM97 17v-1h-2v1zM98 16v1h2v-1zM103 17v-1h-2v1zM105 181v1h3v-1zM113 17h-1v1h1zM115 181v-1h-1v1zM118 19h1v-1h-1zM122 24v-1h-4v1zM120 179h-1v1h1zM122 20h1v-1h-1zM122 24v1h3v-1zM124 178h-1v1h1zM128 26v-1h-3v1zM128 26v1h2v-1zM129 172h2v-1h-2zM131 23h1v-1h-1zM133 27h-2v1h2zM133 24v-1h-1v1zM134 171v-1h-2v1zM133 175h-1v1h1zM133 22h1v-1h-1zM135 29v-1h-2v1zM136 170v-1h-2v1zM135 177v-1h-1v1zM137 30v-1h-2v1zM137 24h-1v1h1zM136 169h2v-1h-2zM137 31h2v-1h-2zM138 25v1h1v-1zM138 168h2v-1h-2zM140 32v-1h-1v1zM141 26h-1v1h1zM141 167v-1h-1v1zM142 32h-1v1h1zM142 171h-1v1h1zM143 28v-1h-1v1zM143 166v-1h-1v1zM144 33h-1v1h1zM144 28v1h1v-1zM146 169h1v-1h-1zM148 31v-1h-1v1zM150 167v-1h-1v1zM151 30h-1v1h1zM150 32v1h1v-1zM153 164h-1v1h1zM153 167v-1h-1v1zM154 34h-1v1h1zM154 35v1h1v-1zM158 160h-1v1h1zM158 159v1h1v-1zM160 39h-1v1h1zM161 40h-1v1h1zM162 42v-1h-1v1zM163 42h-1v1h1zM164 44v-1h-1v1zM165 44h-1v1h1zM166 45h-1v1h1zM169 51h1v-1h-1zM171 146h-1v1h1zM172 54v1h1v-1zM175 140h-1v1h1zM176 60v-1h-1v1zM178 139v-1h-1v1zM180 67h-1v1h1zM180 128v1h1v-1zM181 133v-1h-1v1zM184 74v-1h-1v1zM186 81v-1h-1v1zM187 94h1v-1h-1z" style="fill:#463453;fill-opacity:1;stroke:none"/><path d="M12 112v-1h-1v1zM12 82h1v-1h-1zM14 77h-1v1h1zM15 71v1h1v-1zM17 129h-1v1h1zM17 67h1v-1h-1zM18 88v2h1v-2zM19 110v-1h-1v1zM19 83h1v-1h-1zM20 116v-1h-1v1zM20 120h1v-1h-1zM21 58v1h1v-1zM22 122h-1v1h1zM22 73v1h1v-1zM22 142h1v-1h-1zM24 70h-1v1h1zM23 128h1v-1h-1zM24 69h1v-1h-1zM26 66h-1v1h1zM27 64h-1v1h1zM27 147h-1v1h1zM28 49h-1v1h1zM27 63h1v-1h-1zM28 137v1h1v-1zM30 152v1h1v-1zM32 144h1v-1h-1zM34 43v-1h-1v1zM33 54h1v-1h-1zM36 147h-1v1h1zM36 39v1h1v-1zM36 148v1h1v-1zM37 39h1v-1h-1zM38 150v-1h-1v1zM39 151v-1h-1v1zM40 47v-1h-1v1zM41 46v-1h-1v1zM40 162v1h1v-1zM42 45v-1h-1v1zM43 33v1h1v-1zM43 155v1h1v-1zM45 157v-1h-1v1zM45 157v1h1v-1zM48 39h-1v1h1zM49 38h-1v1h1zM49 160v1h1v-1zM51 36v1h1v-1zM53 163v-1h-1v1zM54 172v-1h-1v1zM55 35v-1h-1v1zM55 165h1v-1h-1zM57 33h-1v1h1zM58 166v-1h-1v1zM59 167h1v-1h-1zM63 168v1h1v-1zM63 176v1h1v-1zM64 21v1h1v-1zM65 29h-1v1h1zM65 169v1h1v-1zM67 29v-1h-1v1zM70 171v1h1v-1zM72 26h-1v1h1zM73 173h1v-1h-1zM75 26v-1h-1v1zM75 180v1h1v-1zM76 173v1h1v-1zM78 24v1h1v-1zM79 181v1h1v-1zM80 174v1h1v-1zM82 17v-1h-1v1zM82 23v1h2v-1zM85 175v1h2v-1zM87 15v1h1v-1zM89 22v1h2v-1zM94 183v1h2v-1zM99 176h-1v1h1zM102 177v-1h-1v1zM104 183h-1v1h1zM107 22v1h3v-1zM111 15h-1v1h1zM113 175h-2v1h2zM114 182h-1v1h1zM115 24h1v-1h-1zM117 174v1h1v-1zM121 24h-1v1h1zM121 18h1v-1h-1zM121 174h1v-1h-1zM123 26h1v-1h-1zM127 26h-1v1h1zM126 179v1h1v-1zM128 20h1v-1h-1zM129 28h1v-1h-1zM129 178v1h1v-1zM131 170h-1v1h1zM137 31v-1h-1v1zM139 24v-1h-1v1zM138 32h1v-1h-1zM140 25h1v-1h-1zM143 26v-1h-1v1zM143 164h-1v1h1zM144 34h-1v1h1zM144 163v1h1v-1zM146 35h-1v1h1zM148 162v-1h-1v1zM148 38h1v-1h-1zM149 38v1h1v-1zM151 159h1v-1h-1zM153 158v-1h-1v1zM154 33v-1h-1v1zM153 42h1v-1h-1zM154 42v1h1v-1zM158 37h1v-1h-1zM160 49h1v-1h-1zM162 49h-1v1h1zM163 50h-1v1h1zM164 146h-1v1h1zM165 145h-1v1h1zM166 55v-1h-1v1zM166 55v1h1v-1zM168 141h-1v1h1zM169 47v-1h-1v1zM168 59h1v-1h-1zM171 137v-1h-1v1zM172 64v-1h-1v1zM172 135v-1h-1v1zM173 65h-1v1h1zM172 132v1h1v-1zM173 67v1h1v-1zM174 130h-1v1h1zM175 70v-1h-1v1zM175 128h-1v1h1zM176 73v-1h-1v1zM176 74v1h1v-1zM176 123v1h1v-1zM176 140v1h1v-1zM177 78h1v-1h-1zM177 120v1h1v-1zM179 62v-1h-1v1zM178 82h1v-1h-1zM179 118v-1h-1v1zM180 64v-1h-1v1zM180 85h-1v2h1zM180 113v-1h-1v1zM181 94h-1v10h1zM182 130h-1v1h1zM185 119h1v-1h-1zM186 85h1v-1h-1zM187 107h1v-1h-1z" style="fill:#412d4b;fill-opacity:1;stroke:none"/><path d="M13 94v-3h-1v3zM12 107h1v-3h-1zM13 84v2h1v-2zM13 113v1h1v-1zM14 80v1h1v-1zM14 108h1v6h1v6h1v3h1v4h1v1h4v-2h-1v-2h-1v-3h-1v-4h-1v-4h-1v-7h-1v-1h1v-2h-1v-8h1v-1h-1v-1h1v-8h1v-4h1v-3h1v-3h1v-3h1v-2h-3v1h-1v1h-1v3h-1v4h-1v4h-1v7h-1zM15 76v1h1v-1zM16 121h-1v1h1zM17 124h-1v1h1zM17 70v1h1v-1zM25 133v1h1v-1zM27 135h-1v1h1zM27 137v1h1v-1zM29 59h-1v1h1zM31 141h-1v1h1zM34 148h1v-1h-1zM168 149h-1v1h1zM176 74h1v3h1v3h1v4h1v7h1v17h-1v7h-1v3h-1v4h-1v3h-1v2h-1v1h6v-1h-1v-2h1v-1h1v-1h-1v-1h1v-4h2v-1h-1v-4h1v-1h-1v-1h1v-1h2v-2h-1v-2h-1v-1h1v-1h-1v-1h1v-3h-1v-1h1v-3h-1v-1h1v-3h-1v-1h2v-2h-1v1h-1v-4h-1v-4h1v-1h-2v-3h1v-1h-2v-4h-1v-1h1v-1h-2v-1h-1v1h-1v-1h-2v1h1z" style="fill:#493054;fill-opacity:1;stroke:none"/><path d="M181 73h1v-1h-1zM181 125v1h1v-1zM182 75v1h1v-1zM182 123h1v-1h-1zM184 79h-1v1h1zM184 120v-1h-1v1zM185 83h-1v1h1zM184 116h1v-2h-1z" style="fill:#493054;fill-opacity:1;stroke:none"/><path d="M15 83h-1v3h-1v8h-1v10h1v9h1v2h2v-1h-1v-6h-1V90h1zM18 93h-1v1h1zM17 103h1v-8h-1zM17 106h1v-1h-1zM19 88v-3h-1v3zM19 110h-1v3h1zM20 81h-1v1h1zM20 116h-1v1h1zM20 78v1h1v-1zM21 120h-1v1h1zM21 75v1h1v-1zM22 123h-1v1h1zM22 73h1v-1h-1zM22 125v1h1v-1zM24 129v-1h-1v1zM25 131h-1v1h1zM31 57h-1v1h1zM31 144h1v-1h-1zM34 145h-1v1h1zM35 52v-1h-1v1zM37 50v-1h-1v1zM37 150v-1h-1v1zM173 134v-1h-1v1zM176 72v-1h-1v1zM176 127v-1h-1v1zM177 125v-1h-1v1zM178 121h-1v1h1zM178 81h1v-1h-1zM180 84h-1v1h1zM179 113v2h1v-2zM181 91h-1v3h1zM180 108h1v-4h-1zM182 121v1h1v-1zM185 90v-6h-2v2h1v4zM184 111h-1v1h1v1h-1v1h2v-4h-1zM186 108V91h-2v1h1v3h-1v1h1v3h-1v1h1v3h-1v1h1v1h-1v1h1v2z" style="fill:#482d53;fill-opacity:1;stroke:none"/><path d="M16 82v-4h1v-4h-1v3h-1v4h-1v2h1v-1zM15 117v-2h-1v2zM15 121h1v-4h-1zM17 121h-1v3h1zM18 71h-1v3h1zM17 124v3h1v-3zM20 68h1v-3h1v-2h1v-2h1v-2h-1v1h-1v2h-1v2h-1v2h-1v3h-1v2h1v-1h1zM20 131v-3h-1v-1h-1v3h1v2h1v2h1v2h1v-3h-1v-2zM23 136h-1v2h1zM24 138h-1v2h1zM24 57v2h1v-2zM24 67v1h1v-1zM24 131h1v-1h-1zM25 141v-1h-1v1zM27 54h-1v1h-1v2h1v-1h1zM25 66h1v-1h-1zM26 132h-1v1h1zM26 141h-1v2h1zM26 63v1h1v-1zM27 135v-1h-1v1zM27 143h-1v1h1zM28 52h-1v2h1v-1h1v-2h-1zM27 137h1v-1h-1zM27 144v2h1v-2zM29 60h-1v1h1zM29 147v-1h-1v1zM30 51v-1h-1v1zM30 57h-1v2h1zM30 140v-1h-1v1zM30 50h1v-1h-1zM30 150h1v-1h-1zM31 48h1v-1h-1zM31 55v1h1v-1zM32 142h-1v1h1zM31 151h1v-1h-1zM32 46v1h1v-1zM33 54h-1v1h1zM33 152v-1h-1v1zM34 45h-1v1h1zM34 48v-1h-1v1zM42 40v-1h1v-1h1v-1h2v-1h1v-1h1v-1h1v-1h2v-1h1v-1h2v-1h1v-1h2v-1h1v-1h-2v1h-2v1h-1v1h-2v1h-2v1h-1v1h-2v1h-1v1h-1v1h-1v1h-2v1h-1v1h-1v1h-1v1h-1v1h-1v1h-1v1h-1v1h1v1h2v-2h1v-1h1v-1h1v-1h1v-1zM35 147v-1h-1v1zM49 164h-2v-1h-1v-1h-1v-1h-1v-1h-1v-1h-1v-1h-1v-1h-1v-1h-1v-1h-1v-1h-1v-1h-1v-1h-1v1h-1v1h1v1h1v1h1v1h1v1h1v1h1v1h1v1h1v1h1v1h2v1h1v1h2v1h1v1h1v1h2v1h2v-1h-1v-1h-2v-1h-1v-1h-1zM36 51v-2h-1v2zM37 46v1h1v-1zM38 48h-1v1h1zM39 48v-1h-1v1zM43 44v-1h-1v1zM43 42v1h1v-1zM44 42h1v-1h-1zM46 158v1h1v-1zM49 37v1h1v-1zM50 161v1h1v-1zM53 36v-1h-1v1zM54 163h-1v1h1zM56 170v-1h-2v1h1v1h2v1h2v-1h-1v-1zM58 33v-1h-1v1zM60 27v-1h-2v1zM59 32h1v-1h-1zM59 172v1h2v-1zM60 25v1h2v-1zM60 167v1h1v-1zM62 31v-1h-1v1zM61 173v1h2v-1zM62 25h2v-1h-2zM62 168v1h1v-1zM64 29h-1v1h1zM67 23h-3v1h3zM66 175v-1h-2v1zM66 175v1h2v-1zM69 23v-1h-2v1zM68 170h-1v1h1zM68 27v1h1v-1zM69 176v1h2v-1zM70 22h2v-1h-2zM72 172v1h1v-1zM72 178h2v-1h-2zM75 20h-2v1h2zM75 174h1v-1h-1zM75 179h2v-1h-2zM79 20v-1h-2v1zM77 24v1h1v-1zM80 175v-1h-1v1zM82 180v-1h-3v1zM84 19v-1h-3v1zM82 23h-1v1h1zM84 176h1v-1h-1zM88 181v-1h-3v1zM91 18v-1h-4v1zM87 22v1h2v-1zM98 177v-1h-6v1zM94 181v1h10v-1zM101 177v-1h-2v1zM102 176v1h4v-1zM107 17v1h4v-1zM110 23h2v-1h-2zM113 181v-1h-2v1zM114 175h-1v1h1zM115 18v1h2v-1zM116 23v1h2v-1zM119 179h-2v1h2zM119 175v-1h-1v1zM122 20v-1h-3v1zM122 25v-1h-1v1zM123 179v-1h-2v1zM123 173h-1v1h1zM123 21h2v-1h-2zM124 26h1v-1h-1zM126 172h-1v1h1zM126 177h-1v1h1zM129 22v-1h-3v1zM127 26v1h1v-1zM129 172v-1h-1v1zM129 177v-1h-1v1zM131 23v-1h-2v1zM132 176v-1h-2v1zM132 29h1v-1h-1zM133 24h1v-1h-1zM133 169v1h1v-1zM135 175v-1h-2v1zM134 24v1h2v-1zM134 30h1v-1h-1zM136 169v-1h-1v1zM137 174v-1h-2v1zM138 26v-1h-2v1zM138 168v-1h-1v1zM139 173v-1h-2v1zM140 26h-2v1h2zM140 167v-1h-1v1zM141 172v-1h-2v1zM140 27v1h2v-1zM140 33h1v-1h-1zM141 166h1v-1h-1zM143 171v-1h-2v1zM150 33v-1h-1v-1h-2v-1h-1v-1h-2v-1h-2v1h1v1h2v1h1v1h2v1h1v1h2v1h1v1h1v1h1v1h1v1h1v1h1v1h1v1h1v1h1v1h1v1h1v1h2v-2h-1v-1h-1v-1h-1v-1h-1v-1h-1v-1h-1v-1h-1v-1h-1v-1h-2v-1h-1v-1h-1v-1zM143 34v-1h-1v1zM145 170v-1h1v-1h-2v1h-1v1zM147 162h-1v1h1zM149 166h-2v1h-1v1h2v-1h1zM148 37v-1h-1v1zM150 161v-1h-1v1zM151 166v-1h1v-1h2v-1h1v-1h1v-1h1v-1h1v-1h2v-1h1v-1h1v-1h1v-1h1v-2h-1v-1h-1v2h-1v1h-1v1h-1v1h-1v1h-1v1h-1v1h-1v1h-1v1h-2v1h-1v1h-1v1h-1v1zM150 159v1h1v-1zM152 39h-1v1h1zM153 40h-1v1h1zM155 155v1h1v-1zM156 155h1v-1h-1zM157 154h1v-1h-1zM159 152h-1v1h1zM160 47v-1h-1v1zM160 152v-1h-1v1zM160 151h1v-1h-1zM162 149h-1v1h1zM163 47h-1v1h1zM163 52h1v-1h-1zM164 47v1h1v-1zM164 53h1v-1h-1zM165 145h1v-1h-1zM166 48h1v-1h-1zM166 144h1v-1h-1zM167 56v1h1v-1zM168 50h1v-1h-1zM169 141v-1h-1v1zM168 149h1v-1h-1zM169 51v1h1v-1zM170 59h-1v1h1zM169 138v1h1v-1zM169 147v1h1v-1zM171 53v-1h-1v1zM170 61v1h1v-1zM171 146v-1h-1v1zM172 54h-1v1h1zM171 136h1v-1h-1zM171 144v1h1v-1zM173 143v-1h-1v1zM173 57v1h1v-1zM173 131v1h1v-1zM174 142v-2h-1v2zM175 58h-1v2h1zM175 130v-1h-1v1zM175 140v-2h-1v2zM176 60h-1v2h1zM175 138h1v-1h-1zM177 62h-1v2h1zM176 137h1v-2h1v-2h1v-1h-2v2h-1zM178 64h-1v2h1zM178 69h1v1h1v-2h-1v-2h-1zM179 131v-1h-1v1zM179 128v1h1v-1zM180 71h1v-1h-1zM180 72v1h1v-1zM181 126h-1v1h1zM181 76h1v-3h-1zM181 122v1h1v-1zM181 125h1v-1h-1zM183 77v-1h-1v1zM182 78v2h1v-2zM182 119v2h1v-2zM184 81v-1h-1v1zM184 82h-1v1h1zM184 116h-1v1h1zM184 119v-1h-1v1z" style="fill:#453152;fill-opacity:1;stroke:none"/><path d="M14 117v1h1v-1zM15 83h1v-1h-1zM16 115h-1v2h1zM17 73h-1v1h1zM17 78h-1v1h1zM17 121v-1h-1v1zM17 74v1h1v-1zM17 123v1h1v-1zM18 127h-1v1h1zM18 72h1v-1h-1zM20 71v-1h-1v1zM23 63h-1v2h-1v3h-1v2h4v-3h1v-2h1v-2h1v-1h1v-3h1v-2h2v-2h1v-1h1v-1h1v-2h1v-2h2v-1h1v-1h-1v-1h-2v-1h-1v1h-1v1h-1v1h-1v2h-1v1h-1v2h-1v1h-1v2h-1v1h-1v2h-1v2h-1zm11-15h-1v-1h1zM34 148v-2h-1v-2h-2v-2h-1v-2h-1v-2h-2v-2h-1v-2h-1v-2h-1v-3h-1v-1h-3v3h1v2h1v3h1v2h1v2h1v1h1v2h1v1h1v2h1v2h1v1h1v1h1v1h1v2h2v-1h4v-1h-1v-1h-2v-2z" style="fill:#473154;fill-opacity:1;stroke:none"/><path d="M27 53h-1v1h1zM29 50h1v-1h-1zM39 47v-1h-1v1zM170 61h1v2h1v2h1v2h1v2h1v1h2v1h1v-1h1v-1h-1v-3h-1v-2h-1v-2h-1v-2h-1v-2h-1v-3h-2v-2h-1v-1h-1v-2h-1v-2h-2v-2h-1v-1h-1v1h-3v1h-1v1h1v1h1v1h1v1h1v1h1v2h1v1h1v1h1v2h1v1h1zm-5-14v1h-1v-1zm-3 1v-1h1v1zM173 134h-1v2h-1v1h-1v2h-1v2h-1v1h-1v2h-1v1h-1v1h-1v1h-1v1h-1v2h-1v1h-1v1h3v1h1v1h1v-1h1v-1h1v-3h1v-1h1v-1h1v-2h1v-1h1v-2h1v-2h1v-2h1v-1h1v-3h1v-2h2v-1h-1v-1h2v-1h-1v-1h-4v2h-1v2h-1zM179 71h1v-1h-1zM181 126v-1h-1v1zM181 76v1h1v-1zM182 80v1h1v-1zM183 118h-1v1h1zM184 84v-1h-1v1zM184 114h-1v2h1z" style="fill:#473154;fill-opacity:1;stroke:none"/><path d="M14 122h1v-1h-1zM18 132v1h1v-1zM19 135h1v-1h-1zM20 137h1v-1h-1zM22 138h-1v1h1zM24 144h1v-1h-1zM26 147h1v-1h-1zM27 147v1h1v-1zM30 150h-1v1h1zM30 152h1v-1h-1zM31 153h1v-1h-1zM39 161h1v-1h-1zM41 162v-1h-1v1zM42 163v-1h-1v1zM46 166v-1h-1v1zM48 167v1h1v-1zM51 169v1h1v-1zM53 170v1h1v-1zM55 172v-1h-1v1zM56 172v1h1v-1zM59 173h-1v1h1zM61 175v-1h-1v1zM64 176v-1h-2v1zM66 177v-1h-1v1zM68 177v1h1v-1zM71 179h1v-1h-1zM75 179h-1v1h1zM79 180h-1v1h1zM85 182v-1h-3v1zM89 182v1h6v-1zM110 183v-1h-7v1zM112 16v1h1v-1zM113 181v1h3v-1zM119 180v1h2v-1zM123 180h2v-1h-2zM126 178v1h2v-1zM129 177v1h2v-1zM132 22v-1h-1v1zM134 176h-2v1h2zM135 22h-1v1h1zM136 176v-1h-1v1zM137 24v-1h-1v1zM138 175v-1h-1v1zM138 25h1v-1h-1zM139 173v1h1v-1zM141 173h1v-1h-1zM142 27h1v-1h-1zM144 171h-1v1h1zM145 28v-1h-1v1zM145 171h1v-1h-1zM147 28h-1v1h1zM147 169h-1v1h1zM148 168v1h1v-1zM150 31v-1h-1v1zM150 168v-1h-1v1zM151 167h1v-1h-1zM153 32h-1v1h1zM153 166v-1h-1v1zM153 33v1h1v-1zM155 165v-1h-1v1zM155 164h1v-1h-1zM156 35v1h1v-1zM157 163v-1h-1v1zM157 36v1h1v-1zM158 162v-1h-1v1zM159 38v-1h-1v1zM160 39v-1h-1v1zM160 159v1h1v-1zM161 158v1h1v-1zM163 157h-1v1h1zM164 156h-1v1h1zM164 155v1h1v-1zM165 155h1v-1h-1zM167 45h-1v1h1zM167 46v1h1v-1zM168 151h-1v1h1zM168 48h1v-1h-1zM168 150v1h1v-1zM169 149v1h1v-1zM170 50v1h1v-1zM171 149v-1h-1v1zM172 52v-1h-1v1zM171 146v1h1v-1zM173 146v-1h-1v1zM173 54v1h1v-1zM173 144h1v-1h-1zM175 142h-1v1h1zM176 58v-1h-1v1zM175 141h1v-1h-1zM176 60h1v-1h-1zM176 140h1v-1h-1zM178 61h-1v1h1zM177 137v1h1v-1zM178 64h1v-1h-1zM178 135v1h1v-1zM180 66v-1h-1v1zM179 134h1v-1h-1zM180 67v1h1v-1zM181 130h-1v2h1zM182 70v-1h-1v1zM182 128h-1v1h1zM182 72v1h1v-1zM182 127h1v-2h-1zM183 76h1v-1h-1zM184 124v-2h-1v2zM185 78h-1v2h1zM185 118h-1v2h1zM185 85h1v-3h-1zM185 116h1v-2h-1zM186 88v4h1v-4zM186 107v3h1v-3z" style="fill:#5a4e66;fill-opacity:1;stroke:none"/><path d="M19 88h1v-1h-1zM21 83v-1h-1v1zM22 119h-1v1h1zM22 123h1v-1h-1zM24 125h-1v1h1zM25 70h-1v1h1zM28 65v-1h-1v1zM29 62h-1v1h1zM30 138v-1h-1v1zM34 143h-1v1h1zM35 53h1v-1h-1zM39 150v-1h-1v1zM42 154h1v-1h-1zM47 42v-1h-1v1zM46 103v1h1v-1zM51 73h-1v27h1zM52 71h-1v1h1zM52 161v1h1v-1zM58 165v-1h-1v1zM60 71v1h1v-1zM62 74h-1v10h1zM61 104h1v-9h-1zM64 167h-1v1h1zM65 169h1v-1h-1zM70 72v1h1v-1zM71 105h-1v1h1zM72 28v-1h-1v1zM71 107h1v-1h-1zM75 26h-1v1h1zM76 173h1v-1h-1zM81 173h-1v1h1zM83 25v-1h-1v1zM82 100v1h1v-1zM83 99h1v-1h-1zM87 92v-1h-1v1zM86 175h1v-1h-1zM89 23h-1v1h1zM89 84v1h1v-1zM92 80v-1h-1v1zM93 78v-1h-1v1zM94 102h-1v1h1zM96 175v1h7v-1zM99 88v2h1v-1h1v-1zM107 76v-1h-1v1zM107 102h-1v1h1zM107 78h1v-1h-1zM109 24h1v-1h-1zM109 83h1v-1h-1zM111 85v-1h-1v1zM113 174h-1v1h1zM113 91v1h1v-1zM116 25v-1h-1v1zM117 73v-1h-1v1zM117 99v-1h-1v1zM116 116h1v-1h-1zM118 72v-1h-1v1zM117 115h1v-2h-1zM118 77v1h1v-1zM118 100h1v-1h-1zM118 115v1h2v-1zM120 25v1h1v-1zM120 81h1v-1h-1zM121 97v-1h-1v1zM121 113h-1v1h1zM122 84h1v-1h-1zM123 94v-1h-1v1zM123 114v-1h-1v1zM125 87v-1h-1v1zM125 90h-1v1h1zM126 89v-1h-1v1zM125 116h1v-1h-1zM127 107v-1h-1v1zM126 114h1v-1h-1zM128 72v-1h-1v1zM128 73h1v-1h-1zM129 105v-1h-1v1zM130 75v1h1v-1zM131 113v-1h-1v1zM130 114v1h1v-1zM131 170v-1h-1v1zM132 100v-1h-1v1zM131 114h1v-1h-1zM133 78h-1v1h1zM133 99v-1h-1v1zM134 78v-1h-1v1zM134 116v-2h-1v2zM135 75h1v-1h-1zM136 103v-1h-1v1zM138 106v-1h-1v1zM139 107v-1h-1v1zM140 114v-2h-1v2zM141 114h-1v1h1zM142 85h-1v1h1zM142 114v-1h-1v1zM144 82h-1v1h1zM144 94h-1v1h1zM145 98h1v-1h-1zM146 113h-1v1h1zM147 100v1h1v-1zM147 116h1v-3h-1zM149 75v-1h-1v1zM150 40v-1h-1v1zM150 113v1h1v-1zM153 157v-1h-1v1zM155 44v1h1v-1zM156 46h1v-1h-1zM158 47v-1h-1v1zM159 48v-1h-1v1zM161 148h1v-1h-1zM162 147h1v-1h-1zM168 139h-1v1h1zM170 137v-1h-1v1zM171 65v1h1v-1zM173 67h-1v1h1zM173 128v1h1v-1zM175 75h1v-1h-1zM176 124v-1h-1v1zM176 77v1h1v-1zM177 80v1h1v-1zM177 118h1v-1h-1zM179 85h-1v1h1zM179 113v-1h-1v1zM180 93h-1v2h1zM179 97h1v-1h-1zM179 99h1v-1h-1zM179 100v1h1v-1zM180 102h-1v3h1z" style="fill:#2f152a;fill-opacity:1;stroke:none"/><path d="M20 89h-1v2h1zM19 109h1v-2h-1zM20 83v1h1v-1zM20 115h1v-1h-1zM21 119h1v-1h-1zM23 77v-1h-1v1zM23 121h-1v1h1zM23 125h1v-1h-1zM25 71h-1v1h1zM25 130h1v-1h-1zM26 131v1h1v-1zM27 134h1v-1h-1zM29 62h1v-1h-1zM30 138v1h1v-1zM35 145v-1h-1v1zM35 145v1h1v-1zM37 50v1h1v-1zM45 43h-1v1h1zM46 103h1v-1h-1zM47 104h-1v2h1zM48 107v-1h-1v1zM48 158v-1h-1v1zM49 40h1v-1h-1zM51 72h-1v1h1zM52 160h-1v1h1zM54 37v-1h-1v1zM54 162v1h1v-1zM61 106h-1v1h1zM61 74h1v-2h-1zM62 104h-1v2h1zM70 95v-1h-8v1zM68 169v1h1v-1zM70 29v-1h-1v1zM76 27v-1h-1v1zM77 172v1h1v-1zM80 71v1h1v-1zM81 99h1V74h-1zM82 100h-1v1h1zM81 173v1h1v-1zM83 98h1v-1h-1zM85 96v-1h-1v1zM85 94h1v-1h-1zM88 88h-1v1h1zM89 175v-1h-2v1zM88 86v1h1v-1zM90 81v1h1v-1zM92 107v-1h-1v1zM94 23h-2v1h2zM93 106v-1h-1v1zM94 75v-1h-1v1zM94 73h1v-1h-1zM95 100h-1v1h1zM96 72v-1h-1v1zM99 185v-1h-1v1zM101 89h-1v1h1zM102 184h-1v1h1zM104 23v1h3v-1zM104 72h1v-1h-1zM106 72h-1v1h1zM105 100v1h1v-1zM106 75h1v-1h-1zM109 79h-1v1h1zM109 107v-1h-1v1zM109 82h1v-1h-1zM110 175h1v-1h-1zM111 87h1v-1h-1zM113 89v-1h-1v1zM115 24h-1v1h1zM114 93v1h1v-1zM115 95v1h1v-1zM116 114h-1v2h1zM116 74v1h1v-1zM117 174v-1h-1v1zM119 113v-1h-1v1zM119 26h1v-1h-1zM119 97v1h1v-1zM121 83h1v-1h-1zM122 95v-1h-1v1zM124 85h-1v1h1zM123 92h1v-1h-1zM125 88v-1h-1v1zM125 171h-1v1h1zM126 114h-1v1h1zM126 113h1v1h1v-3h-2zM128 170h-1v1h1zM129 74h1v-1h-1zM131 111h-2v1h2zM131 102v-1h-1v1zM130 114h1v-1h-1zM132 30v-1h-1v1zM132 168v1h1v-1zM134 30h-1v1h1zM133 100h1v-1h-1zM133 114h1v-1h-1zM135 75h-1v1h1zM134 102h1v-1h-1zM134 167v1h1v-1zM136 32v-1h-1v1zM136 73h1v-1h-1zM137 105v-1h-1v1zM137 166h-1v1h1zM137 32v1h1v-1zM138 71h-1v1h1zM139 114h-1v1h1zM139 166v-1h-1v1zM139 33v1h1v-1zM141 87h-1v1h1zM140 90h1v-1h-1zM140 165h1v-1h-1zM141 34v1h1v-1zM142 116v-1h-1v1zM142 84v1h1v-1zM143 93v-1h-1v1zM143 111h-1v1h1zM144 113v-1h-1v1zM144 95v1h1v-1zM144 115h1v-1h-1zM145 79v1h1v-1zM146 99h1v-1h-1zM147 113v-1h-1v1zM148 76h-1v1h1zM149 71h-1v1h1zM149 158v1h1v-1zM151 42h1v-1h-1zM153 101h-1v1h1zM155 155v-1h-1v1zM156 154v-1h-1v1zM157 152h-1v1h1zM158 151h-1v1h1zM159 151v-1h-1v1zM160 150v-1h-1v1zM161 149v-1h-1v1zM163 53v1h1v-1zM165 143h-1v1h1zM169 63h1v-1h-1zM173 70v1h1v-1zM174 125v1h1v-1zM175 75v1h1v-1zM176 79h1v-1h-1zM178 81h-1v1h1zM178 117v-1h-1v1zM178 88h1v-1h-1z" style="fill:#281023;fill-opacity:1;stroke:none"/><path d="M20 91h-1v4h1zM19 107h1v-3h-1zM20 86h1v-2h-1zM21 112h-1v2h1zM21 81h1v-1h-1zM22 118v-1h-1v1zM22 78h1v-1h-1zM23 120h-1v1h1zM24 74h-1v1h1zM23 124h1v-1h-1zM24 126v1h1v-1zM26 70v-1h-1v1zM26 67v1h1v-1zM28 66v-1h-1v1zM28 63v1h1v-1zM28 135h1v-1h-1zM29 136v1h1v-1zM30 61h1v-1h-1zM32 58h-1v1h1zM32 142h1v-1h-1zM33 55v1h1v-1zM33 142v1h1v-1zM34 55h1v-1h-1zM37 146h-1v1h1zM37 148h1v-1h-1zM38 50h1v-1h-1zM39 49h1v-1h-1zM41 48v-1h-1v1zM42 47v-1h-1v1zM42 46h1v-1h-1zM43 44v1h1v-1zM45 154h-1v1h1zM46 155h-1v1h1zM46 101v1h1v-1zM47 157v-1h-1v1zM48 40v1h1v-1zM48 101h2v-1h-2zM50 107h-1v1h1zM50 160h1v-1h-1zM53 37h-1v1h1zM53 162h1v-1h-1zM56 35h-1v1h1zM57 164v-1h-1v1zM58 35v-1h-1v1zM59 165v-1h-1v1zM61 166v-1h-1v1zM62 166v1h1v-1zM65 167h-1v1h1zM65 30v1h1v-1zM67 168h-1v1h1zM68 30v-1h-1v1zM69 75v1h1v-1zM70 78v-1h-1v1zM69 80h1v-1h-1zM70 82v-1h-1v1zM70 83h-1v1h1zM69 97v1h1v-1zM69 99v1h1v-1zM69 102h1v-1h-1zM70 103h-1v1h1zM71 71h-1v1h1zM70 107h1v-1h-1zM71 171h1v-1h-1zM72 28h1v-1h-1zM75 171h-1v1h1zM78 173h1v-1h-1zM79 25v1h1v-1zM82 72h-1v2h1zM83 100v-1h-2v1zM83 173h-1v1h1zM86 25v-1h-2v1zM86 92h-1v1h1zM87 90h-1v1h1zM88 86h1v-1h-1zM90 84v-1h-1v1zM91 174h-2v1h2zM92 78h-1v1h1zM92 76v1h1v-1zM93 104h1v-1h-1zM104 24v-1H94v1zM94 72h1v-1h-1zM94 101v1h1v-1zM102 101v-1h-6v1zM104 100h-1v1h1zM106 102v-1h-1v1zM107 104v-1h-1v1zM107 76v1h1v-1zM108 106v-1h-1v1zM109 79v-1h-1v1zM108 174v1h2v-1zM111 83h-1v1h1zM112 85h-1v1h1zM114 24h-1v1h1zM114 91v-1h-1v1zM114 93h1v-1h-1zM115 73v1h1v-1zM116 113h-1v1h1zM115 173v1h1v-1zM116 71v1h1v-1zM117 97h-1v1h1zM116 117h1v-1h-1zM118 76h-1v1h1zM118 99h-1v1h1zM118 26h1v-1h-1zM118 98v1h1v-1zM120 80v-1h-1v1zM119 112h1v-1h-1zM119 117h1v-1h-1zM121 96v-1h-1v1zM120 173h1v-1h-1zM122 113v-1h-1v1zM122 27h1v-1h-1zM122 84v1h1v-1zM123 92h-1v1h1zM122 117h2v-1h-2zM124 113v-1h-1v1zM124 172v-1h-1v1zM125 90v-1h-1v1zM126 27h-1v1h1zM125 112v1h1v-1zM126 171h1v-1h-1zM128 106h-1v1h1zM129 28h-1v1h1zM128 72h1v-1h-1zM129 117v-1h-1v1zM130 103h-1v1h1zM130 169h-1v1h1zM130 29v1h1v-1zM131 74h-1v1h1zM132 76h-1v1h1zM132 101v-1h-1v1zM132 77v1h1v-1zM132 113h1v-1h-1zM134 76h-1v1h1zM136 73h-1v1h1zM136 113v-1h-1v1zM137 113h-1v1h1zM138 111v1h2v-1zM138 114h1v-1h-1zM138 115v1h1v-1zM141 117v-1h-2v1zM140 88v1h1v-1zM140 112v1h1v-1zM141 87h1v-1h-1zM141 90v1h1v-1zM144 93h-1v1h1zM144 112v-1h-1v1zM144 163v-1h-1v1zM145 36h-1v1h1zM145 82v-1h-1v1zM144 116v1h3v-1zM146 96h-1v1h1zM147 79v-1h-1v1zM146 161h1v-1h-1zM148 39v-1h-1v1zM147 99v1h1v-1zM148 112h-1v1h1zM148 75v1h1v-1zM152 101v-1h-4v1zM150 74v-2h-1v2zM150 115h-1v1h1zM150 157v1h1v-1zM152 115h-1v1h1zM152 43h1v-1h-1zM152 106v1h1v-1zM153 106h1v-4h-1zM160 51h1v-1h-1zM161 52h1v-1h-1zM163 52h-1v1h1zM164 145v-1h-1v1zM165 57h1v-1h-1zM166 141h-1v1h1zM167 141v-1h-1v1zM168 59h-1v1h1zM169 138v-1h-1v1zM170 135h-1v1h1zM171 64h-1v1h1zM171 134v-1h-1v1zM172 66h-1v1h1zM172 131h-1v1h1zM172 68v1h1v-1zM172 129v1h1v-1zM174 128v-1h-1v1zM174 73v1h1v-1zM175 122v1h1v-1zM176 79v1h1v-1zM177 120v-1h-1v1zM178 82h-1v2h1zM177 116h1v-2h-1zM178 90h1v-2h-1zM178 111h1v-3h-1z" style="fill:#240c1f;fill-opacity:1;stroke:none"/><path d="M71 138v1h2v1h3v1h4v1h4v1h8v1h14v-1h8v-1h4v-1h4v-1h3v-1h2v-1h2v-1h3v-1h2v-1h2v-1h1v-1h2v-1h1v-1h2v-1h1v-1h1v-1h1v-1h2v-1h1v-1h1v-1h1v-1h1v-1h1v-1h1v-1h1v-1h1v-1h2v-1h1v-1h2v-1h1v-1h2v-1h2v-1h2v-1h3v-1h5v-1h3v-1h1V90h-2v-1h-4v-1h-4v-1h-3v-1h-2v-1h-2v-1h-2v-1h-1v-1h-1v-1h-2v-1h-1v-1h-1v-1h-1v-1h-2v-2h-1v-1h-1v2h-1v1h-1v2h-1v1h-1v2h-1v1h-1v2h-1v2h-1v3h1v2h1v1h1v2h1v1h1v2h1v1h1v1h4v1h1v1h1v4h-1v1h-15v-1h-2v-3h-1v-1h-1v-2h-1v-1h-1v2h-1v1h-1v2h-1v1h-1v2h-20v-1h-1v-2h-1v-2h-1v-2h-1v1h-1v-1h-1v2h-5v-1h-1v-1h-1v2h-1v2h-1v2h-1v1H70v-3h-1v-1h1v-1h-1v-1h1v-1h-1v-1h1v-1h-1v-1h1v-2h-8v11h-1v1H50v1h-1v-1h-2v-1h-1v-5h2v-1h2V74h-1v1h-1v1h-1v1h-1v1h-2v1h-1v1h-1v1h-2v1h-1v1h-1v1h-2v1h-2v1h-2v1h-3v1h-4v1h-4v1h-1v5h-1v9h1v5h3v1h5v1h3v1h2v1h3v1h1v1h1v1h2v1h1v1h2v1h1v1h1v1h1v1h1v1h1v1h1v1h1v1h2v1h1v1h1v1h1v1h2v1h1v1h1v1h2v1h2v1h2v1h2v1h2v1zm51-26v1h1v-1h1v1h1v-2h6v2h1v-1h1v1h2v3h-6v1h-1v-1h-4v1h-2v-1h-2v1h-1v-1h-2v1h-1v-1h-1v-3h1v-1h1v1h1v-1h1v-1h1v1zm15 2h-1v-1h-1v-1h3v-1h2v1h1v1h1v-2h2v2h2v-1h2v1h4v1h-1v1h1v1h-5v1h-3v-1h-3v1h-2v-1h-2zM22 82v-1h-1v1zM22 78v1h1v-1zM25 73v-1h-1v1zM25 129h1v-1h-1zM32 140v-1h-1v1zM36 53h-1v1h1zM39 148h-1v1h1zM50 72h1v-1h-1z" style="fill:#22091b;fill-opacity:1;stroke:none"/><path d="M88 88v-3h1v-2h1v-2h1v-1h-1v-1h1v-1h1v-3h1v-1h1v-3h11v1h1v2h1v2h1v2h1v3h1v2h1v2h1v3h1v2h1v2h1v3h1v2h1v2h1v-1h1v-1h1v-2h1v-1h1v-2h1v-1h1v-2h1v-1h-1v-2h-1v-1h-1v-2h-1v-1h-1v-2h-1v-2h-1v-1h-1v-2h-1v-1h-1v-1h1v-2h13v2h1v1h1v2h1v1h1v-1h1v-1h1v-2h1v-1h1v-1h11v-1h-4v-1h-2v-1h-1v-1h-1v-1h-2v-1h-1v-1h-2v-1h-2v-1h-2v-1h-2v-1h-3v-1h-2v-1h-3v-1h-4v-1h-5v-1h-9v-1h-8v1h-8v1h-6v1h-3v1h-3v1h-3v1h-2v1h-3v1h-2v1h-2v1h-1v1h-2v1h-1v1h-2v1h-1v1h-1v1h-3v1h9v1h1v12h7v-1h1v-1h-1v-1h1v-1h-1v-1h1v-1h-1v-1h1v-1h-1v-1h1v-4h11v1h1v27h1v-2h1v-2h1v-3h1v-2h1v-2zM129 112h-1v1h1zM159 49v1h1v-1zM163 146v-1h-1v1zM164 56h1v-1h-1zM168 62h1v-1h-1zM169 63v1h1v-1zM173 72h1v-1h-1zM173 127h1v-1h-1zM175 76v-1h-1v1zM175 125v-1h-1v1zM175 76v2h1v-2zM176 122v-1h-1v1zM176 81v1h1v-1zM176 118v1h1v-1zM178 85v-1h-1v1zM178 112v-1h-1v1zM178 114v-1h-1v1z" style="fill:#22091b;fill-opacity:1;stroke:none"/><path d="M81 57v-1h6v-1h8v-1h8v1h9v1h5v1h4v1h3v1h2v1h3v1h2v1h2v1h2v1h2v1h1v1h2v1h1v1h1v1h2v1h4v1h1v1h1v3h1v2h2v1h1v1h1v1h1v1h2v1h1v1h1v1h2v1h2v1h2v1h3v1h4v1h4v1h1v-5h-1v-2h-3v-1h-3v-1h-2v-1h-3v-1h-2v-1h-1v-1h-2v-1h-2v-1h-1v-1h-1v-1h-2v-1h-1v-1h-1v-1h-1v-1h-2v-1h-1v-1h-1v-1h-1v-1h-2v-1h-1v-1h-2v-1h-1v-1h-2v-1h-2v-1h-1v-1h-2v-1h-2v-1h-3v-1h-2v-1h-3v-1h-3v-1h-4v-1h-5v-1h-8v-1h-8v1h-9v1h-5v1h-5v1h-3v1h-3v1h-2v1h-2v1h-3v1h-1v1h-2v1h-2v1h-2v1h-1v1h-2v1h-1v1h-1v1h-1v1h-2v1h-1v1h-1v1h-1v1h-2v1h-1v1h-1v1h-2v1h-1v1h-1v1h-2v1h-2v1h-2v1h-2v1h-2v1h-4v1h-2v1h-1v2h-1v4h1v-1h4v-1h4v-1h3v-1h2v-1h2v-1h2v-1h1v-1h1v-1h2v-1h1v-1h1v-1h2v-1h1v-1h1v-1h1v-1h1v-3h2v-1h3v-1h1v-1h1v-1h2v-1h1v-1h2v-1h1v-1h2v-1h2v-1h3v-1h2v-1h3v-1h3v-1zM163 113v1h-2v1h-1v1h-2v1h-1v1h-2v1h-1v1h-1v1h-1v1h-1v1h-1v1h-1v1h-1v1h-1v1h-2v1h-1v1h-1v1h-1v1h-2v1h-1v1h-2v1h-1v1h-2v1h-2v1h-3v1h-2v1h-2v1h-3v1h-4v1h-4v1h-8v1H92v-1h-8v-1h-4v-1h-4v-1h-3v-1h-2v-1h-2v-1h-2v-1h-2v-1h-2v-1h-2v-1h-2v-1h-1v-1h-1v-1h-2v-1h-1v-1h-1v-1h-1v-1h-2v-1h-1v-1h-1v-1h-1v-1h-1v-1h-1v-1h-1v-1h-1v-1h-2v-1h-1v-1h-2v-1h-1v-1h-1v-1h-3v-1h-2v-1h-3v-1h-5v-1h-3v3h1v3h2v1h4v1h2v1h2v1h2v1h2v1h2v1h1v1h2v1h1v1h1v1h2v1h1v1h1v1h2v1h1v1h1v1h1v1h2v1h1v1h1v1h2v1h2v1h1v1h2v1h2v1h2v1h2v1h3v1h2v1h3v1h4v1h4v1h6v1h18v-1h6v-1h4v-1h4v-1h3v-1h3v-1h2v-1h3v-1h2v-1h1v-1h2v-1h2v-1h1v-1h2v-1h1v-1h2v-1h1v-1h1v-1h1v-1h2v-1h1v-1h1v-1h1v-1h2v-1h1v-1h2v-1h1v-1h1v-1h2v-1h2v-1h2v-1h2v-1h3v-1h4v-1h1v-2h1v-1h-1v-1h1v-2h-3v1h-5v1h-3v1h-2v1zM23 76h1v-1h-1zM34 143v1h1v-1z" style="fill:#21091b;fill-opacity:1;stroke:none"/><path d="M121 82v-1h-1v1zM128 112h1v-1h-1zM170 65v1h1v-1z" style="fill:#21091b;fill-opacity:1;stroke:none"/><path d="M21 79h1v-1h-1zM48 102v-1h-1v1zM60 107v-1H48v1zM51 100h-1v1h1zM62 94h-1v1h1zM62 84v1h8v-1zM72 71h-1v1h1zM91 106H72v1h19zM79 72h1v-1h-1zM84 97h1v-1h-1zM87 89v1h1v-1zM91 83v-1h-1v1zM93 104h-1v1h1zM94 75h-1v1h1zM95 74v-1h-1v1zM106 74v-1h-1v1zM108 104h-1v1h1zM108 80v1h1v-1zM126 107v-1h-17v1zM112 90h1v-1h-1zM116 96h-1v1h1zM117 73h-1v1h1zM117 112h-1v1h1zM117 76h1v-1h-1zM117 100v1h1v-1zM120 78h-1v1h1zM120 112h-1v3h1zM121 115v1h1v-1zM122 115h1v-1h-1zM123 113v1h3v-1zM125 115h-2v1h2zM126 114v2h3v-3h-1v1zM128 106v-1h-1v1zM130 102h-1v1h1zM130 112h-1v1h1zM131 115h-1v1h1zM132 77h-1v1h1zM135 101v-1h-1v1zM136 104h1v-1h-1zM136 112v1h1v-1zM138 115h-1v1h1zM152 107v-1h-13v1zM141 92h1v-1h-1zM141 114v1h1v-1zM143 84v-1h-1v1zM145 113h-2v-1h-1v2h3zM142 116h3v-1h-3zM144 80v1h1v-1zM147 78v-1h-1v1zM146 116h1v-2h-1zM147 72h1v-1h-1zM149 115h1v1h1v-2h-1v-1h-2v1h1zM176 121v1h1v-1zM180 93v-1h-1v1zM180 107v-1h-1v1z" style="fill:#351b2f;fill-opacity:1;stroke:none"/><path d="M126 47v-1h-3v-1h-3v-1h-6v-1h-5v-1H89v1h-5v1h-5v1h-4v1h-3v1h-3v1h-2v1h-3v1h-2v1h-1v1h-3v1h-1v1h-2v1h-2v1h-1v1h-2v1h-1v1h-2v1h-1v1h-2v1h-2v1h-1v1h-2v1h-2v1h-1v1h-2v1h-2v1h-4v1h-3v3h-1v3h-1v3h-1v3h-1v2h1v-1h2v-1h4v-1h2v-1h2v-1h2v-1h2v-1h2v-1h1v-1h1v-1h2v-1h1v-1h1v-1h2v-1h1v-1h1v-1h1v-1h2v-1h1v-1h1v-1h1v-1h2v-1h1v-1h2v-1h2v-1h2v-1h1v-1h3v-1h2v-1h2v-1h3v-1h3v-1h5v-1h5v-1h9v-1h8v1h8v1h5v1h4v1h3v1h3v1h2v1h3v1h2v1h2v1h1v1h2v1h2v1h1v1h2v1h1v1h2v1h1v1h1v1h1v1h2v1h1v1h1v1h1v1h2v1h1v1h1v1h2v1h2v1h1v1h2v1h3v1h2v1h3v1h3v-1h-1v-1h1v-1h-1v-2h-1v-2h-1v-1h1v-1h-1v-2h-1v-1h-1v-1h-2v-1h-3v-1h-2v-1h-2v-1h-2v-1h-2v-1h-1v-1h-2v-1h-2v-1h-1v-1h-2v-1h-1v-1h-2v-1h-1v-1h-2v-1h-2v-1h-1v-1h-2v-1h-2v-1h-2v-1h-2v-1h-3v-1h-2v-1zM90 149v-1h-6v-1h-4v-1h-4v-1h-3v-1h-2v-1h-3v-1h-2v-1h-2v-1h-2v-1h-2v-1h-1v-1h-2v-1h-2v-1h-1v-1h-1v-1h-2v-1h-1v-1h-1v-1h-1v-1h-2v-1h-1v-1h-1v-1h-2v-1h-1v-1h-1v-1h-2v-1h-1v-1h-2v-1h-2v-1h-2v-1h-2v-1h-2v-1h-4v-1h-2v2h1v3h1v3h1v3h1v2h3v1h2v1h3v1h2v1h2v1h1v1h2v1h2v1h2v1h1v1h2v1h1v1h1v1h2v1h2v1h1v1h2v1h2v1h2v1h2v1h1v1h3v1h2v1h3v1h4v1h3v1h4v1h4v1h26v-1h4v-1h4v-1h4v-1h3v-1h3v-1h2v-1h3v-1h2v-1h1v-1h2v-1h2v-1h2v-1h2v-1h1v-1h2v-1h1v-1h2v-1h1v-1h2v-1h1v-1h2v-1h2v-1h2v-1h2v-1h1v-1h3v-1h3v-1h2v-2h1v-3h1v-2h1v-3h1v-3h-1v1h-4v1h-3v1h-2v1h-2v1h-2v1h-2v1h-1v1h-1v1h-2v1h-1v1h-2v1h-1v1h-1v1h-1v1h-2v1h-1v1h-1v1h-1v1h-2v1h-1v1h-2v1h-1v1h-2v1h-2v1h-1v1h-2v1h-3v1h-2v1h-3v1h-3v1h-4v1h-4v1h-6v1z" style="fill:#210a1a;fill-opacity:1;stroke:none"/><path d="M91 79h-1v1h1zM93 75h-1v1h1zM97 102h5v-1h-5zM120 112v1h1v-1zM125 112h1v-1h-1zM135 113h-1v3h1zM137 105h-1v1h1zM152 113h-1v1h1zM166 57h-1v1h1z" style="fill:#210a1a;fill-opacity:1;stroke:none"/><path d="M67 49v-1h2v-1h3v-1h3v-1h4v-1h5v-1h5v-1h20v1h5v1h6v1h3v1h3v1h3v1h2v1h3v1h2v1h2v1h2v1h2v1h1v1h2v1h2v1h1v1h2v1h1v1h2v1h1v1h2v1h2v1h1v1h2v1h2v1h2v1h2v1h3v1h2v-2h-1v-2h-1v-2h-1v-2h-1v-2h-1v-1h-1v-1h-1v-2h-1v-2h-1v-1h-1v-1h-1v-1h-1v-1h-1v-1h-1v-1h-2v-2h-2v-1h-3v-1h-3v-1h-2v-1h-3v-1h-2v-1h-3v-1h-2v-1h-4v-1h-3v-1h-4v-1h-3v-1h-6v-1h-9v-1H91v1h-9v1h-6v1h-3v1h-4v1h-3v1h-3v1h-3v1h-2v1h-3v1h-2v1h-3v1h-3v1h-2v1h-3v1h-1v1h-1v1h-1v1h-1v1h-1v2h-1v1h-1v1h-1v1h-1v2h-1v1h-1v2h-1v2h-1v1h-1v2h-1v2h-1v2h2v-1h4v-1h2v-1h2v-1h1v-1h2v-1h2v-1h1v-1h2v-1h2v-1h1v-1h2v-1h1v-1h2v-1h1v-1h2v-1h2v-1h1v-1h3v-1h1v-1h2v-1zM160 133v1h-2v1h-2v1h-1v1h-2v1h-1v1h-2v1h-1v1h-2v1h-1v1h-2v1h-2v1h-2v1h-2v1h-1v1h-2v1h-3v1h-2v1h-3v1h-3v1h-4v1h-4v1h-4v1H86v-1h-4v-1h-4v-1h-3v-1h-4v-1h-3v-1h-2v-1h-3v-1h-1v-1h-2v-1h-2v-1h-2v-1h-2v-1h-1v-1h-2v-1h-2v-1h-1v-1h-1v-1h-2v-1h-1v-1h-2v-1h-2v-1h-2v-1h-1v-1h-2v-1h-2v-1h-3v-1h-2v-1h-2v2h1v2h1v2h1v2h1v1h1v2h1v2h1v1h1v1h1v2h1v1h1v1h1v1h1v1h1v1h1v1h1v1h2v1h3v1h2v1h3v1h2v1h3v1h2v1h3v1h3v1h3v1h4v1h3v1h5v1h7v1h24v-1h7v-1h6v-1h3v-1h3v-1h3v-1h3v-1h3v-1h3v-1h2v-1h3v-1h2v-1h3v-1h2v-1h2v-1h2v-1h1v-1h1v-1h1v-2h1v-1h1v-1h1v-1h1v-2h1v-1h1v-2h1v-1h1v-2h1v-2h1v-2h1v-2h1v-1h-2v1h-3v1h-3v1h-1v1h-2v1zM67 168v1h1v-1zM68 30h1v-1h-1zM88 24h-1v1h1zM105 175v-1h-1v1zM117 115v1h1v-1zM172 71h1v-1h-1zM175 123h-1v1h1z" style="fill:#200a1a;fill-opacity:1;stroke:none"/><path d="M27 130h-1v1h1zM28 133v-1h-1v1zM29 62v1h1v-1zM30 137v1h1v-1zM33 57h-1v1h1zM36 53h1v-1h-1zM40 150v-1h-1v1zM41 151v-1h-1v1zM41 152h1v-1h-1zM42 153h1v-1h-1zM44 154v-1h-1v1zM46 42v1h1v-1zM47 41v1h1v-1zM50 159v-1h-1v1zM52 39v-1h-1v1zM53 161v-1h-1v1zM54 37h1v-1h-1zM55 162v1h1v-1zM60 34v-1h-1v1zM61 33h1v-1h-1zM63 32h1v-1h-1zM70 169h-1v1h1zM70 28v1h1v-1zM73 170h-1v1h1zM73 28h1v-1h-1zM76 172v-1h-1v1zM76 26v1h1v-1zM80 173v-1h-1v1zM82 25h-2v1h2zM85 174v-1h-2v1zM86 25h1v-1h-1zM94 175v-1h-3v1zM108 174h-3v1h3zM113 24h-2v1h2zM115 174v-1h-2v1zM118 25h-1v1h1zM120 173v-1h-1v1zM121 27h1v-1h-1zM124 28h1v-1h-1zM127 28v1h1v-1zM128 169v1h1v-1zM132 168h-1v1h1zM133 31v-1h-1v1zM133 167v1h1v-1zM135 32v-1h-1v1zM136 167v-1h-1v1zM136 33h1v-1h-1zM137 166h1v-1h-1zM138 34h1v-1h-1zM140 164h-1v1h1zM140 34v1h1v-1zM141 164h1v-1h-1zM143 36v-1h-1v1zM144 161v1h1v-1zM146 37h-1v1h1zM148 159h-1v1h1zM149 39h-1v1h1zM149 40v1h1v-1zM151 156v1h1v-1zM153 155h-1v1h1zM154 43h-1v1h1zM155 45v-1h-1v1zM155 46h1v-1h-1zM157 46h-1v2h2v-1h-1zM158 48v1h1v-1zM161 146v1h1v-1zM167 58h-1v1h1zM168 139v-1h-1v1zM172 67h-1v1h1zM173 70v-1h-1v1z" style="fill:#200b1b;fill-opacity:1;stroke:none"/><path d="M62 33h-2v1h-2v1h-2v1h-1v1h-2v1h-1v1h-2v1h-1v1h-1v1h-1v1h-2v1h-1v1h-1v1h2v-1h2v-1h3v-1h3v-1h2v-1h3v-1h2v-1h3v-1h3v-1h3v-1h4v-1h3v-1h6v-1h9v-1h16v1h9v1h6v1h3v1h4v1h3v1h4v1h2v1h3v1h2v1h3v1h2v1h3v1h3v-1h-1v-1h-1v-1h-1v-1h-2v-1h-1v-1h-1v-1h-2v-1h-1v-1h-2v-1h-2v-1h-2v-1h-2v-1h-2v-1h-2v-1h-2v-1h-3v-1h-3v-1h-3v-1h-4v-1h-6v-1H88v1h-6v1h-5v1h-3v1h-3v1h-2v1h-3v1h-2v1h-2zM43 153h1v-1h-1zM59 164v1h2v1h2v1h2v1h3v1h2v1h3v1h3v1h4v1h5v1h9v1h10v-1h9v-1h6v-1h4v-1h3v-1h2v-1h3v-1h2v-1h2v-1h2v-1h2v-1h2v-1h2v-1h1v-1h2v-1h1v-1h2v-1h1v-1h1v-1h1v-1h2v-1h1v-1h1v-1h-2v1h-2v1h-3v1h-2v1h-3v1h-2v1h-3v1h-3v1h-3v1h-3v1h-3v1h-3v1h-6v1h-7v1H87v-1h-7v-1h-5v-1h-3v-1h-4v-1h-3v-1h-3v-1h-3v-1h-2v-1h-3v-1h-2v-1h-3v-1h-2v-1h-3v1h1v1h1v1h1v1h1v1h2v1h1v1h2v1h1v1h2v1h1v1zM155 46v-1h-1v1zM157 151h-1v1h1z" style="fill:#1f0b19;fill-opacity:1;stroke:none"/><path d="M47 102v1h1v-1zM47 106h1v-1h-1zM48 101v1h3v-1zM60 72v1h1v-1zM60 106h1v-1h-1zM70 94v-1h-8v1zM70 84v1h1v-1zM70 95h1v-1h-1zM81 73h-1v28h1zM81 102h2v-1h-2zM85 97h-1v1h1zM85 96h1v-1h-1zM88 91v-1h-1v1zM88 88v1h1v-1zM89 87h1v-1h-1zM90 83v1h1v-1zM92 82v-1h-1v1zM91 106h1v-1h-1zM92 80h1v-1h-1zM93 104v-1h-1v1zM94 77v-1h-1v1zM94 75h1v-1h-1zM94 99v1h1v-1zM96 73v-1h-1v1zM98 89v1h1v-1zM99 87v1h2v-1zM99 90v1h2v-1zM101 89v1h1v-1zM105 72h-1v1h1zM106 74h-1v1h1zM106 99h-1v1h1zM106 77h1v-1h-1zM108 79h-1v1h1zM108 104v-1h-1v1zM109 81h-1v1h1zM108 105v1h1v-1zM109 83v1h1v-1zM110 87h1v-1h-1zM111 89h1v-1h-1zM112 90v1h1v-1zM115 95h-1v1h1zM115 97v1h1v-1zM118 74h-1v1h1zM119 101v-1h-1v1zM119 78h1v-1h-1zM120 79v1h1v-1zM121 97h-1v1h1zM123 82h-1v1h1zM122 94v1h1v-1zM124 85v1h1v-1zM125 92v-1h-1v1zM124 114v1h1v-1zM128 73v1h1v-1zM128 103v1h1v-1zM130 102v-1h-1v1zM130 113h-1v2h1zM131 77v-1h-1v1zM132 78h-1v1h1zM131 99h1v-1h-1zM132 97v1h1v-1zM134 79v-1h-1v1zM134 100h1v-1h-1zM136 75h-1v1h1zM137 72v1h1v-1zM138 105v-1h-1v1zM138 105v1h1v-1zM139 87v1h1v-1zM140 90v-1h-1v1zM141 85h1v-1h-1zM141 92v1h1v-1zM142 83h1v-1h-1zM144 81h-1v1h1zM143 95v1h1v-1zM143 114v1h1v-1zM145 79h-1v1h1zM146 98h-1v1h1zM146 114h-1v1h1zM146 77h1v-1h-1zM146 113v1h1v-1zM148 102h3v-1h-3zM149 114h-1v1h1zM153 103h-1v2h1z" style="fill:#432a3c;fill-opacity:1;stroke:none"/><path d="M48 103h-1v2h1zM51 73h1v-1h-1zM60 85h1V73h-1zM60 105h1V94h-1zM61 94h1v-1h-1zM71 93h-1v1h1zM72 72h-1v1h1zM71 106h1v-1h-1zM80 102h1v-1h-1zM83 100v1h1v-1zM85 98h-1v1h1zM87 93h-1v1h1zM87 92h1v-1h-1zM91 84h-1v1h1zM92 103h1v-1h-1zM93 77v1h1v-1zM94 100h-1v1h1zM95 75h-1v1h1zM98 89h1v-1h-1zM98 91h1v-1h-1zM99 86v1h2v-1zM102 89v-1h-1v1zM102 91v-1h-1v1zM105 75v1h1v-1zM107 77h-1v1h1zM107 101v-1h-1v1zM108 103v-1h-1v1zM110 85v-1h-1v1zM112 92h1v-1h-1zM114 94v-1h-1v1zM116 98h-1v1h1zM117 101v-1h-1v1zM117 72v1h1v-1zM118 101h-1v1h1zM119 76v-1h-1v1zM120 100v-1h-1v1zM122 80h-1v1h1zM122 96h-1v1h1zM123 84h1v-1h-1zM123 93v1h1v-1zM125 87h1v-1h-1zM125 91h1v-1h-1zM127 88h-1v1h1zM127 105h-1v1h1zM127 72v1h1v-1zM127 104v1h1v-1zM129 102h-1v1h1zM130 76v-1h-1v1zM130 99v1h1v-1zM132 79v1h1v-1zM134 98v-1h-1v1zM135 78v-1h-1v1zM136 101v-1h-1v1zM137 75v-1h-1v1zM137 103v-1h-1v1zM141 85h-1v1h1zM141 91h-1v1h1zM142 94v1h1v-1zM144 81v-1h-1v1zM144 97v1h1v-1zM146 77h-1v1h1zM147 101v-1h-1v1zM147 75h1v-1h-1zM148 102v-1h-1v1zM152 106v-1h-1v1z" style="fill:#4b3244;fill-opacity:1;stroke:none"/><path d="M48 103h1v-1h-1zM53 72v1h6v-1zM72 86v-1h-1v1zM79 73v-1h-7v1zM84 99v1h1v-1zM89 90h-1v1h1zM92 84v-1h-1v1zM92 103h-1v1h1zM94 77h1v-1h-1zM106 98H94v1h12zM97 72v1h6v-1zM99 87h-1v1h1zM102 87h-1v1h1zM103 90v-1h-1v1zM105 76v1h1v-1zM109 84v-1h-1v1zM109 104v-1h-1v1zM112 91v-1h-1v1zM115 98v-1h-1v1zM126 73v-1h-8v1zM120 101v-1h-1v1zM121 98h1v-1h-1zM123 82v1h1v-1zM124 95v-1h-1v1zM125 85v1h1v-1zM126 92v-1h-1v1zM127 73v1h1v-1zM130 76h-1v1h1zM135 79v-1h-1v1zM137 75h-1v1h1zM139 87h-1v1h1zM138 105h1v-1h-1zM139 72v1h8v-1zM141 85v-1h-1v1zM143 96v-1h-1v1zM145 99v-1h-1v1zM146 102h1v-1h-1zM148 73h-1v1h1z" style="fill:#634e5e;fill-opacity:1;stroke:none"/><path d="M49 104v-1h-1v1zM53 73h-1v1h1zM60 74h-1v12h1zM60 93h-1v11h1zM85 98v1h1v-1zM89 92v-1h-1v1zM89 90h1v-1h-1zM91 104h-1v1h1zM92 85v-1h-1v1zM91 102v1h1v-1zM92 83h1v-1h-1zM96 75h-1v1h1zM97 73h-1v1h1zM96 91v1h1v-1zM97 88v1h1v-1zM102 88v1h1v-1zM104 91h-1v1h1zM105 75h-1v1h1zM107 83h1v-1h-1zM108 102v1h1v-1zM109 105h1v-1h-1zM111 90v-1h-1v1zM111 91v1h1v-1zM115 99v-1h-1v1zM119 74v-1h-1v1zM120 102v-1h-1v1zM122 78h-1v1h1zM121 98v1h1v-1zM123 82h1v-1h-1zM124 95h-1v1h1zM127 74v1h1v-1zM127 103h1v-1h-1zM130 78v-1h-1v1zM135 80v-1h-1v1zM137 101v-1h-1v1zM138 89v-1h-1v1zM138 86v1h1v-1zM139 103h-1v1h1zM140 83v1h1v-1zM143 80h-1v1h1z" style="fill:#9d929a;fill-opacity:1;stroke:none"/><path d="M49 104h-1v1h1zM60 74v-1h-1v1zM60 104h-1v1h1zM60 92v1h12v-1zM80 103v-1h-1v1zM84 102h-1v1h1zM85 101v-1h-1v1zM88 93h-1v1h1zM90 86v1h1v-1zM94 77v1h1v-1zM97 91v1h6v-1zM99 87v-1h-1v1zM102 87v-1h-1v1zM106 77h-1v1h1zM108 101v-1h-1v1zM109 85v-1h-1v1zM113 93h-1v1h1zM115 100v1h1v-1zM117 103v-1h-1v1zM119 103v-1h-1v1zM119 75v1h1v-1zM124 94h1v-1h-1zM127 86h-1v1h1zM126 90v1h1v-1zM130 100v-1h-1v1zM132 81v-1h-1v1zM131 96v1h1v-1zM134 98h1v-1h-1zM137 75h1v-1h-1zM140 92v-1h-1v1zM142 94h-1v1h1zM143 97v1h1v-1zM144 78h1v-1h-1zM145 100v1h1v-1zM147 75v-1h-1v1z" style="fill:#8a7c86;fill-opacity:1;stroke:none"/><path d="M49 106v-1h-1v1zM51 102h1V73h-1zM60 106v-1h-1v1zM60 94h1v-1h-1zM61 85v1h10v-1zM79 72v1h1v-1zM86 96h-1v1h1zM89 89h-1v1h1zM89 88h1v-1h-1zM90 106h1v-1h-1zM92 82h-1v1h1zM92 105v-1h-1v1zM92 81h1v-1h-1zM95 74h1v-1h-1zM97 91h1v-1h-1zM102 90v1h1v-1zM105 74v-1h-1v1zM108 81v-1h-1v1zM108 83h1v-1h-1zM108 105h1v-1h-1zM110 105h-1v1h1zM111 87h-1v1h1zM111 90h1v-1h-1zM115 96h-1v1h1zM117 73v1h1v-1zM118 102h1v-1h-1zM120 78v1h1v-1zM121 99v-1h-1v1zM122 81v1h1v-1zM123 95h-1v1h1zM125 85v-1h-1v1zM125 93v-1h-1v1zM126 90h1v-1h-1zM129 74h-1v1h1zM131 78v-1h-1v1zM132 80v1h1v-1zM133 97v-1h-1v1zM134 80v-1h-1v1zM135 76v1h1v-1zM138 104v-1h-1v1zM138 88v1h1v-1zM139 86v1h1v-1zM140 105h-1v1h1zM142 83h-1v1h1zM143 97h1v-1h-1zM145 100h1v-1h-1zM148 73v-1h-1v1z" style="fill:#513a4b;fill-opacity:1;stroke:none"/><path d="M49 102v1h3v-1zM80 74v-1h-1v1zM80 102v1h3v-1zM86 97h-1v1h1zM90 88h-1v1h1zM93 81h-1v1h1zM96 74h-1v1h1zM98 90v-1h-1v1zM101 84h-1v1h1zM104 74v1h1v-1zM108 81h-1v1h1zM111 88h-1v1h1zM114 96v-1h-1v1zM117 102v1h1v-1zM118 75h1v-1h-1zM121 77h-1v1h1zM127 105v-1h-1v1zM128 101v1h1v-1zM130 78v1h1v-1zM131 99v-1h-1v1zM133 96v-1h-1v1zM134 96h-1v1h1zM136 100v-1h-1v1zM139 90v-1h-1v1zM141 92h-1v1h1zM142 83v-1h-1v1zM143 80h1v-1h-1zM146 76h-1v1h1zM147 102v1h4v-1zM151 104v1h1v-1z" style="fill:#73616e;fill-opacity:1;stroke:none"/><path d="M49 104h1v-1h-1zM53 103h-1v1h1zM58 103V93h1v-1h14v1h1v10h5v-1h-1V92h-1v-1h1v-1h-1v-1h1v-1h-1v-1h1V75h-4v11h-1v1h-1v1H60v-1h-1v-1h-1V75h-4v28zM79 75v-1h-1v1zM80 103h-1v1h1zM84 103h-1v1h1zM103 75h-6v2h-2v1h1v1h-1v2h-1v2h-1v1h-1v1h1v1h-1v2h-1v2h-1v1h-1v1h1v1h-2v1h1v1h-1v2h-1v1h1v1h-1v1h-2v1h1v1h-1v1h6v-1h-1v-1h1v-1h1v-2h1v-1h14v1h1v1h1v2h1v1h-1v1h6v-1h-1v-1h1v-1h-2v-3h-1v-2h-1v-1h1v-1h-2v-1h1v-1h-1v-1h-1v-1h-1v-3h-1v-1h1v-1h-2v-1h1v-1h-1v-1h-1v-2h-1v-2h-1zm1 17h-8v-1h-1v-2h2v-2h1v-1h-1v-1h1v-2h1v-1h2v1h1v2h1v1h-1v1h2v1h-1v1h1v1h1v1h-1z" style="fill:#e3e3e3;fill-opacity:1;stroke:none"/><path d="M87 98h-1v1h1zM116 104h1v-1h-1zM118 103v1h1v-1zM139 75v1h-1v1h-1v2h-2v3h-2v2h-1v-2h-2v-1h1v-1h-3v-1h1v-2h-2v-2h-7v1h2v3h2v3h2v3h1v1h1v2h1v1h-1v2h-1v2h-1v2h-2v3h-2v3h-2v2h7v-1h-1v-1h1v-1h2v-1h-1v-1h1v-1h1v-1h1v-1h1v-1h2v1h1v3h2v3h2v2h6v-1h-1v-3h-2v-2h-1v-3h-2v-1h-1v-1h1v-1h-2v-1h-1v-3h2v-3h2v-3h2v-1h-1v-1h1v-1h2v-1h-1v-1h1v-1zm-5 13v1h-1v-1zm-2-1h-1v-1h1zm2 4v1h-1v-1zm-3-2v1h-1v-1zM146 74h-1v1h1zM146 104h1v-1h-1z" style="fill:#e3e3e3;fill-opacity:1;stroke:none"/><path d="M49 105h10v-1H49zM73 104v1h17v-1zM89 93v-1h-1v1zM92 85h-1v1h1zM91 102h1v-1h-1zM95 78h-1v1h1zM103 87h-1v1h1zM105 78v1h1v-1zM108 86h1v-1h-1zM109 102v-1h-1v1zM126 105v-1h-16v1zM112 92h-1v1h1zM115 100v-1h-1v1zM120 100v1h1v-1zM123 79h-1v1h1zM122 98h1v-1h-1zM125 83v-1h-1v1zM124 94v1h1v-1zM128 77h1v-1h-1zM133 95v-1h-1v1zM135 79h1v-1h-1zM137 88h1v-1h-1zM140 85v-1h-1v1zM140 104v1h11v-1zM145 101v1h1v-1z" style="fill:#c4bfc2;fill-opacity:1;stroke:none"/><path d="M49 105v1h10v-1zM52 73h1v-1h-1zM59 73h1v-1h-1zM60 86h1v-1h-1zM71 85h1V73h-1zM72 93h-1v12h1zM72 105v1h18v-1zM84 102v-1h-1v1zM87 95v-1h-1v1zM88 92h-1v1h1zM90 85v1h1v-1zM93 102v-1h-1v1zM93 79h1v-1h-1zM94 100v-1h-1v1zM96 72v1h1v-1zM101 85h-2v1h2zM103 72v1h1v-1zM107 78h-1v1h1zM107 100v-1h-1v1zM108 101h-1v1h1zM109 86h1v-1h-1zM126 106v-1h-16v1zM112 92v1h1v-1zM113 94v1h1v-1zM115 99v1h1v-1zM116 101v1h1v-1zM120 76h-1v1h1zM122 80v-1h-1v1zM127 73v-1h-1v1zM127 88v-1h-1v1zM128 104v-1h-1v1zM130 100h-1v1h1zM131 80h1v-1h-1zM132 98v-1h-1v1zM134 99h1v-1h-1zM136 102h1v-1h-1zM138 74v-1h-1v1zM139 73v-1h-1v1zM140 90h-1v1h1zM140 105v1h11v-1zM141 94h1v-1h-1zM143 82v-1h-1v1zM144 78v1h1v-1zM146 76h1v-1h-1zM152 102h-1v1h1z" style="fill:#5a4354;fill-opacity:1;stroke:none"/><path d="M52 103h-2v1h2zM73 86h-1v1h1zM79 75h-1v27h1zM80 104h3v-1h-3zM85 103v-1h-1v1zM88 96v-1h-1v1zM90 88v1h1v-1zM92 87v-1h-1v1zM92 101v-1h-1v1zM93 98h-1v1h1zM93 82h1v-1h-1zM94 97h-1v1h1zM94 80h1v-1h-1zM96 74v1h1v-1zM99 85v-1h-1v1zM101 83v-1h-2v1zM101 84v1h1v-1zM104 75v-1h-1v1zM106 80v-1h-1v1zM106 81v1h1v-1zM107 97h-1v1h1zM107 98v1h1v-1zM109 86h-1v1h1zM109 101v-1h-1v1zM110 88h-1v1h1zM112 95v1h1v-1zM115 102v1h1v-1zM118 104v-1h-1v1zM120 103v-1h-1v1zM121 99v1h1v-1zM124 81v-1h-1v1zM123 97h1v-1h-1zM126 84v-1h-1v1zM126 94v-1h-1v1zM127 75v1h1v-1zM128 87v-1h-1v1zM127 90v1h1v-1zM128 88v1h1v-1zM130 89v1h1v-1zM131 96h-1v1h1zM132 86h-1v1h1zM133 89h1v-1h-1zM134 92v-1h-1v1zM134 94h-1v1h1zM135 80h-1v1h1zM136 78h1v-1h-1zM138 74v1h1v-1zM139 85h-1v1h1zM138 103h1v-1h-1zM141 83v-1h-1v1zM142 98h1v-1h-1zM145 100h-1v1h1zM151 104v-1h-4v1z" style="fill:#dddcdd;fill-opacity:1;stroke:none"/><path d="M52 71v1h8v-1zM62 85v-1h-1v1zM70 84h1V73h-1zM71 95h-1v10h1zM79 72v-1h-7v1zM81 72h-1v1h1zM84 99h-1v1h1zM86 94h-1v1h1zM87 92h-1v1h1zM89 87h-1v1h1zM90 86v-1h-1v1zM92 80h-1v1h1zM93 79v-1h-1v1zM94 102v-1h-1v1zM95 99v1h10v-1zM104 72v-1h-8v1zM106 101v1h1v-1zM107 78v1h1v-1zM110 86h1v-1h-1zM112 88v-1h-1v1zM114 93v-1h-1v1zM115 95v-1h-1v1zM116 100h1v-1h-1zM117 113h-1v2h1zM127 72v-1h-9v1zM118 77h1v-1h-1zM118 113v2h1v-2zM120 99v-1h-1v1zM121 113v1h-1v2h1v-1h1v-2zM121 82h1v-1h-1zM122 95h-1v1h1zM122 116h1v-1h-1zM124 84h-1v1h1zM124 93v-1h-1v1zM124 114h-1v1h1zM125 87v1h1v-1zM126 89h-1v1h1zM129 74v1h1v-1zM130 115h-1v1h1zM130 100v1h1v-1zM132 114h-1v2h2v-3h-1zM133 98v1h1v-1zM135 77v-1h-1v1zM136 102v-1h-1v1zM136 73v1h1v-1zM137 115h1v-2h1v-1h-2zM147 72v-1h-9v1zM140 89v-1h-1v1zM139 114v2h2v-1h-1v-1zM140 87h1v-1h-1zM141 91v-1h-1v1zM140 113v1h1v-1zM143 93h-1v1h1zM142 115h1v-1h-1zM145 97v-1h-1v1zM146 78h-1v1h1zM145 116h1v-1h-1zM146 100h1v-1h-1zM148 75h-1v1h1zM148 72v2h1v-2zM149 115h-1v1h1zM151 102h1v-1h-1zM152 103h1v-1h-1zM152 105v1h1v-1z" style="fill:#3a2034;fill-opacity:1;stroke:none"/><path d="M53 74h-1v28h1zM73 104h-1v1h1zM86 96v1h1v-1zM97 90h-1v1h1zM101 83h-2v1h2zM103 74h1v-1h-1zM103 91h1v-1h-1zM107 81v-1h-1v1zM110 88v-1h-1v1zM113 97h1v-1h-1zM125 84v1h1v-1zM125 92v1h1v-1zM127 87v1h1v-1zM128 90v-1h-1v1zM131 98v-1h-1v1zM134 96v-1h-1v1zM137 76h-1v1h1zM139 73h-1v1h1zM140 104h-1v1h1zM140 94h1v-1h-1zM142 96v1h1v-1zM144 100h1v-1h-1zM146 76v-1h-1v1zM147 103v-1h-1v1z" style="fill:#ada5ab;fill-opacity:1;stroke:none"/><path d="M52 103h1v-1h-1zM60 92h-1v1h1zM72 87v-1H60v1zM73 74v-1h-1v1zM84 101v1h1v-1zM87 95h1v-1h-1zM91 88v-1h-1v1zM92 100h1v-1h-1zM94 80h-1v1h1zM98 86h1v-1h-1zM102 85h-1v1h1zM107 100h1v-1h-1zM112 95h1v-1h-1zM116 101h-1v1h1zM121 76h-1v1h1zM126 73v1h1v-1zM127 103h-1v1h1zM129 100h-1v1h1zM131 79h-1v1h1zM134 81h-1v1h1zM135 99h1v-1h-1zM138 102v-1h-1v1zM139 90h-1v1h1zM141 82h1v-1h-1zM143 79h1v-1h-1zM147 74v-1h-1v1z" style="fill:#b8b2b6;fill-opacity:1;stroke:none"/><path d="M59 74v-1h-6v1zM59 87h1v-1h-1zM73 86V74h-1v12zM73 92h-1v12h1zM73 73v1h6v-1zM86 99h-1v1h1zM86 97v1h1v-1zM90 91v-1h-1v1zM90 103v1h1v-1zM92 84h1v-1h-1zM94 97v1h12v-1zM95 76v1h1v-1zM96 89v1h1v-1zM97 74h6v-1h-6zM98 87h-1v1h1zM103 89v1h1v-1zM104 77h1v-1h-1zM108 83h-1v1h1zM109 103v1h1v-1zM110 91h1v-1h-1zM114 98v-1h-1v1zM119 73v2h1v-1h6v-1zM121 78h1v-1h-1zM127 85h-1v1h1zM126 91v1h1v-1zM128 102v-1h-1v1zM130 78h-1v1h1zM130 99v-1h-1v1zM131 82h1v-1h-1zM132 95h-1v1h1zM132 83h1v-1h-1zM135 97v-1h-1v1zM137 99h-1v1h1zM137 76h1v-1h-1zM137 89v1h1v-1zM139 74h7v-1h-7zM139 93h1v-1h-1zM141 95v1h1v-1zM142 80h1v-1h-1zM144 98h-1v1h1zM145 76h-1v1h1z" style="fill:#cecbcd;fill-opacity:1;stroke:none"/><path d="M53 104h6V93h-1v10h-4V75h4v11h1V74h-6zM72 88v-1H60v1zM73 86h1V75h4v-1h-5zM73 104h6v-1h-5V93h-1zM78 87h-1v1h1zM78 89h-1v1h1zM77 91v1h1v-1zM84 103v1h6v-1zM86 102v-1h-1v1zM87 100v-1h-1v1zM87 96v1h1v-1zM88 99v-1h-1v1zM89 94h-1v1h1zM90 92h-1v1h1zM91 89h-1v1h1zM90 102h1v-1h-1zM92 87h-1v1h1zM92 86h1v-1h-1zM94 83v-1h-1v1zM95 81v-1h-1v1zM95 78v1h1v-1zM96 89h-1v2h1zM97 75h-1v2h1zM97 74v1h6v-1zM97 86h1v-1h-1zM98 84h1v-1h-1zM102 84v-1h-1v1zM102 85v1h1v-1zM104 75h-1v2h1zM104 87h-1v1h1zM104 77v2h1v-2zM105 90h-1v1h1zM105 81h1v-1h-1zM107 84v-1h-1v1zM107 85v1h1v-1zM109 89v-2h-1v2zM109 100v-1h-1v1zM109 90h1v-1h-1zM109 101v1h1v-1zM111 92h-1v1h1zM116 104v-1h-6v1zM111 94v1h1v-1zM113 97v-1h-1v1zM114 98h-1v2h1zM115 101h-1v1h1zM119 103v1h7v-1zM120 74v1h7v-1zM121 76v1h1v-1zM122 101v-1h-1v1zM123 80h1v-1h-1zM124 98v-1h-1v1zM125 83h1v-1h-1zM125 94v1h1v-1zM127 92h-1v1h1zM127 101h-1v1h1zM127 77h1v-1h-1zM128 100h-1v1h1zM128 79v1h2v-1zM128 99h1v-1h-1zM130 98v-1h-1v1zM131 81h-1v1h1zM133 84v-1h-1v1zM135 81h-1v1h1zM134 95v1h1v-1zM136 78v1h1v-1zM136 90h1v-3h-1zM136 98v1h1v-1zM138 76h-1v1h1zM137 90v1h1v-1zM139 76v-1h-1v1zM139 85v-1h-1v1zM139 93v-1h-1v1zM138 102h1v-1h-1zM139 74v1h5v1h1v-2zM140 93h-1v1h1zM145 103h-6v1h7v-2h-1zM140 81v1h1v-1zM142 80v-1h-1v1zM141 97h1v-1h-1zM143 79v-1h-1v1zM143 98h-1v1h1zM144 76h-1v1h1zM145 101h-1v1h1z" style="fill:#e5e6e5;fill-opacity:1;stroke:none"/><path d="M79 102h1V74h-1zM86 96h1v-1h-1zM93 101v-1h-1v1zM94 80v-1h-1v1zM94 98h-1v1h1zM99 85h1v-1h-1zM106 79v1h1v-1zM106 99h1v-1h-1zM109 87h1v-1h-1zM120 100h1v-1h-1zM123 81v-1h-1v1zM123 97v-1h-1v1zM125 83h-1v1h1zM127 89h1v-1h-1zM129 75h-1v1h1zM133 82v-1h-1v1zM134 81v-1h-1v1zM135 77v1h1v-1zM137 102v1h1v-1zM140 85h-1v1h1zM152 103h-1v1h1z" style="fill:#7d6c78;fill-opacity:1;stroke:none"/></svg>