<svg width="100" height="100" xmlns="http://www.w3.org/2000/svg"><path d="M2 39H1v1h1zM1 56v1h1v-1zM2 59H1v1h1zM3 34v1h1v-1zM7 26h1v-1H7zM12 18v1h1v-1zM15 83h-1v1h1zM16 84h-1v1h1zM16 86h1v-1h-1zM18 13h1v-1h-1zM19 89v1h3v-1zM22 10h1V9h-1zM23 92h2v-1h-2zM34 96v1h1v-1zM45 1v1h1V1zM51 99v-1h-2v1zM54 98h-1v1h1zM60 3h1V2h-1zM60 97v1h2v-1zM70 95h1v-1h-1zM71 6v1h1V6zM81 87h1v-1h-1zM86 82h1v-1h-1zM88 19h-1v1h1zM89 78h1v-1h-1zM92 75v-1h-1v1zM95 69v-1h-1v1zM96 63h1v-1h-1z" style="fill:#220925;fill-opacity:.012;stroke:none"/><path d="M2 44v-1H1v1zM3 61H2v1h1zM5 29v1h1v-1zM7 28v-1H6v1zM9 23h1v-1H9zM13 17v1h1v-1zM18 13h-1v1h1zM27 92h-1v1h1zM29 93h-1v1h1zM31 94h-1v1h1zM33 5V4h-1v1zM36 4V3h-1v1zM40 97v1h1v-1zM46 1v1h1V1zM52 1v1h2V1zM58 98h1v-1h-1zM68 95h1v-1h-1zM74 92h1v-1h-1zM77 10V9h-1v1zM78 89h-1v1h1zM80 12v1h1v-1zM83 86v-1h-1v1zM83 85h1v-1h-1zM85 84v-1h-1v1zM86 83v-1h-1v1zM86 18v1h1v-1zM92 26v-1h-1v1zM92 72v1h1v-1zM93 70v1h1v-1zM95 32v-1h-1v1zM96 66v-1h-1v1zM96 38h1v-1h-1zM98 42h-1v1h1zM98 57h-1v1h1z" style="fill:#220925;fill-opacity:.035;stroke:none"/><path d="M2 44H1v1h1zM1 55v1h1v-1zM3 39v-1H2v1zM4 64H3v1h1zM5 67H4v1h1zM9 76v-1H8v1zM10 78v1h1v-1zM14 16v1h1v-1zM15 15v1h1v-1zM16 15h1v-1h-1zM20 88v1h1v-1zM22 11v-1h-1v1zM25 8h-1v1h1zM33 95v1h1v-1zM36 96v1h1v-1zM39 2v1h1V2zM47 1v1h5V1zM60 3V2h-1v1zM63 97v-1h-1v1zM63 3v1h1V3zM66 5h1V4h-1zM71 93h-1v1h1zM72 93h1v-1h-1zM81 13v1h1v-1zM85 17v1h1v-1zM90 23v-1h-1v1zM93 27h-1v1h1zM93 30h1v-1h-1zM95 35h1v-1h-1zM97 44h1v-1h-1zM97 57h1v-1h-1z" style="fill:#220925;fill-opacity:.071;stroke:none"/><path d="M2 46v-1H1v1zM2 53H1v2h1zM3 40v-1H2v1zM2 60v1h1v-1zM4 36v-1H3v1zM4 32v1h1v-1zM5 69v1h1v-1zM8 73H7v1h1zM8 24v1h1v-1zM11 22v-1h-1v1zM12 80v-1h-1v1zM23 90v1h1v-1zM27 7h-1v1h1zM28 7h1V6h-1zM31 6V5h-1v1zM41 2h-1v1h1zM42 97h-1v1h1zM57 97v1h1v-1zM65 96h1v-1h-1zM69 5h-1v1h1zM74 8v1h1V8zM77 10v1h1v-1zM78 89h1v-1h-1zM83 14h-1v1h1zM84 16v-1h-1v1zM85 17v-1h-1v1zM88 78v1h1v-1zM90 75v1h1v-1zM94 67v1h1v-1zM97 39v-1h-1v1zM97 62v-1h-1v1zM97 44v1h1v-1zM98 56v-1h-1v1z" style="fill:#220925;fill-opacity:.133;stroke:none"/><path d="M2 46H1v3h1zM2 51H1v2h1zM6 30H5v1h1zM7 71H6v1h1zM8 26H7v1h1zM19 88h1v-1h-1zM21 12v-1h-1v1zM31 94v1h1v-1zM33 5h1V4h-1zM36 3v1h1V3zM37 96v1h1v-1zM42 98h1v-1h-1zM57 97h-1v1h1zM58 3h1V2h-1zM61 97h1v-1h-1zM62 4h1V3h-1zM71 7V6h-1v1zM72 7v1h1V7zM75 91h1v-1h-1zM88 22h1v-1h-1zM90 24v1h1v-1zM95 32h-1v1h1zM96 64h-1v1h1zM98 45h-1v1h1zM97 54v1h1v-1z" style="fill:#220925;fill-opacity:.208;stroke:none"/><path d="M1 49v2h1v-2zM3 60v-1H2v1zM3 63v1h1v-1zM4 67h1v-1H4zM6 28v1h1v-1zM10 77v-1H9v1zM12 21v-1h-1v1zM12 81h1v-1h-1zM23 9v1h1V9zM25 91v1h1v-1zM35 95h-1v1h1zM42 3V2h-1v1zM57 2v1h1V2zM65 5h1V4h-1zM67 94v1h1v-1zM80 87h-1v1h1zM87 79v1h1v-1zM91 74h1v-1h-1zM92 71v1h1v-1zM93 70h1v-1h-1zM96 36v-1h-1v1zM97 40v-1h-1v1zM96 60v1h1v-1zM97 47h1v-1h-1zM98 54v-1h-1v1z" style="fill:#220925;fill-opacity:.267;stroke:none"/><path d="M3 41v-1H2v1zM3 37h1v-1H3zM4 33v1h1v-1zM10 23H9v1h1zM13 81v1h1v-1zM18 86v1h1v-1zM20 12h-1v1h1zM23 89h-1v1h1zM27 93h1v-1h-1zM30 93h-1v1h1zM43 98h1v-1h-1zM55 97v1h1v-1zM64 95v1h1v-1zM70 93h-1v1h1zM73 92h1v-1h-1zM76 9h-1v1h1zM78 11v1h1v-1zM86 80v1h1v-1zM90 76h-1v1h1zM91 27h1v-1h-1zM93 30v1h1v-1zM97 49h1v-2h-1zM97 51v2h1v-2z" style="fill:#220925;fill-opacity:.341;stroke:none"/><path d="M3 41H2v1h1zM6 68H5v1h1zM10 78h1v-1h-1zM15 83v1h1v-1zM19 14v-1h-1v1zM26 8h-1v1h1zM35 4h-1v1h1zM45 97v1h1v-1zM54 98v-1h-1v1zM68 5h-1v1h1zM80 13v-1h-1v1zM82 85h-1v1h1zM85 81v1h1v-1zM89 24h1v-1h-1zM94 33v1h1v-1zM95 36v1h1v-1zM96 40v1h1v-1z" style="fill:#220925;fill-opacity:.475;stroke:none"/><path d="M3 42H2v1h1zM3 58v-1H2v1zM3 37v1h1v-1zM4 66h1v-1H4zM6 30h1v-1H6zM7 28h1v-1H7zM10 22v1h1v-1zM15 18v-1h-1v1zM16 17v-1h-1v1zM17 15h-1v1h1zM39 4V3h-1v1zM40 96h-1v1h1zM45 2h-1v1h1zM47 97v1h5v-1zM54 3h1V2h-1zM60 97v-1h-1v1zM60 3v1h1V3zM63 96h1v-1h-1zM67 95v-1h-1v1zM70 7V6h-1v1zM71 8h1V7h-1zM77 11v-1h-1v1zM81 14v-1h-1v1zM86 18h-1v1h1zM88 78h1v-1h-1zM94 68h-1v1h1zM97 42v-1h-1v1zM97 59v-1h-1v1z" style="fill:#220925;fill-opacity:.608;stroke:none"/><path d="M3 44v-1H2v1zM4 62v-1H3v1zM10 75H9v1h1zM20 88h1v-1h-1zM21 11v1h1v-1zM25 10V9h-1v1zM29 92h-1v1h1zM32 6h1V5h-1zM35 5h1V4h-1zM41 96h-1v1h1zM46 3h1V2h-1zM54 3V2h-2v1zM58 96v1h1v-1zM67 6V5h-1v1zM68 94h1v-1h-1zM72 91v1h1v-1zM83 16v1h1v-1zM89 23v-1h-1v1zM91 27v1h1v-1zM92 30h1v-1h-1zM95 65h-1v1h1zM96 38v-1h-1v1zM96 43h1v-1h-1zM96 57v1h1v-1z" style="fill:#220925;fill-opacity:.745;stroke:none"/><path d="M3 45v-1H2v1zM2 55v1h1v-1zM3 39h1v-1H3zM4 65h1v-1H4zM5 67v1h1v-1zM10 25v-1H9v1zM12 21h-1v1h1zM12 80h1v-1h-1zM24 90v-1h-1v1zM34 94h-1v1h1zM36 96h1v-1h-1zM40 4V3h-1v1zM52 3V2h-5v1zM60 4V3h-1v1zM62 95v1h1v-1zM64 5V4h-1v1zM70 92v1h1v-1zM75 9h-1v1h1zM77 12h1v-1h-1zM79 88v-1h-1v1zM88 78h-1v1h1zM90 75h-1v1h1zM95 35v-1h-1v1zM97 56h-1v1h1z" style="fill:#220925;fill-opacity:.808;stroke:none"/><path d="M2 45v1h1v-1zM2 54v1h1v-1zM4 60H3v1h1zM4 36h1v-1H4zM5 32v1h1v-1zM6 70h1v-1H6zM8 71H7v1h1zM9 73H8v1h1zM14 80h-1v1h1zM19 87h1v-1h-1zM21 12h-1v1h1zM26 8v1h1V8zM28 8h1V7h-1zM30 6v1h1V6zM41 96v1h1v-1zM57 96v1h1v-1zM66 94h-1v1h1zM69 6h-1v1h1zM75 89v1h1v-1zM86 79v1h1v-1zM88 21h-1v1h1zM93 67v1h1v-1zM96 38h-1v1h1zM95 62h1v-1h-1zM96 43v1h1v-1zM96 55v1h1v-1z" style="fill:#220925;fill-opacity:.875;stroke:none"/><path d="M3 46H2v1h1zM3 54v-2H2v2zM4 40v-1H3v1zM7 31v-1H6v1zM8 27h1v-1H8zM10 76v1h1v-1zM12 21h1v-1h-1zM19 86v-1h-1v1zM24 11v-1h-1v1zM25 91h1v-1h-1zM32 93h-1v1h1zM34 5h-1v1h1zM36 5h1V4h-1zM38 96v-1h-1v1zM41 3h-1v1h1zM58 3v1h1V3zM71 8V7h-1v1zM72 8v1h1V8zM78 12v1h1v-1zM80 86h-1v1h1zM90 24h-1v1h1zM91 74v-1h-1v1zM94 33v-1h-1v1zM94 64v1h1v-1zM96 45h1v-1h-1z" style="fill:#220925;fill-opacity:.922;stroke:none"/><path d="M3 47H2v5h1zM4 59H3v1h1zM5 64v-1H4v1zM6 67v-1H5v1zM7 28v1h1v-1zM11 23h-1v1h1zM13 19v1h1v-1zM14 82h1v-1h-1zM15 83h1v-1h-1zM17 83h-1v1h1zM18 84h-1v1h1zM19 14h1v-1h-1zM23 89v-1h-1v1zM27 92h1v-1h-1zM29 92v1h1v-1zM35 94h-1v1h1zM43 97v-1h-1v1zM56 96v1h1v-1zM61 96h1v-1h-1zM62 4v1h1V4zM65 5v1h1V5zM68 94v-1h-1v1zM73 91h1v-1h-1zM76 10h-1v1h1zM80 86h1v-1h-1zM86 80h-1v1h1zM87 21v-1h-1v1zM88 76v1h1v-1zM91 72h1v-1h-1zM93 70v-1h-1v1zM94 36h1v-1h-1zM95 61h1v-1h-1zM96 45v1h1v-1zM96 55h1v-1h-1z" style="fill:#220925;fill-opacity:.957;stroke:none"/><path d="M3 56H2v1h1zM4 34v1h1v-1zM11 78v1h1v-1zM26 92h1v-1h-1zM30 93v1h1v-1zM45 2v1h1V2zM75 90h-1v1h1zM78 89v-1h-1v1zM81 14v1h1v-1zM82 15v1h1v-1zM85 17h-1v1h1zM91 26v-1h-1v1zM91 72v1h1v-1zM93 71v-1h-1v1zM94 31h-1v1h1zM96 63v-1h-1v1z" style="fill:#220925;fill-opacity:.678;stroke:none"/><path d="M2 58v1h1v-1zM9 74H8v1h1zM13 19h-1v1h1zM14 83h1v-1h-1zM17 84h-1v1h1zM17 85v1h1v-1zM31 6h1V5h-1zM38 4V3h-1v1zM39 96h-1v1h1zM43 2h-1v1h1zM45 97h-1v1h1zM55 97h-1v1h1zM56 2v1h1V2zM61 96h-1v1h1zM62 3h-1v1h1zM72 92h-1v1h1zM76 89v1h1v-1zM80 87h1v-1h-1zM87 21h1v-1h-1zM93 29v-1h-1v1zM94 67h1v-1h-1zM95 63v1h1v-1zM97 59h-1v1h1zM98 51v-2h-1v2z" style="fill:#220925;fill-opacity:.408;stroke:none"/><path d="M4 41v-1H3v1zM4 36v1h1v-1zM6 33H5v1h1zM9 75h1v-1H9zM15 18h-1v1h1zM18 14v1h1v-1zM30 7v1h1V7zM40 5h1V4h-1zM42 3h-1v1h1zM43 97h1v-1h-1zM55 96v1h1v-1zM58 3h-1v1h1zM65 94h-1v1h1zM69 92v1h1v-1zM72 92v-1h-1v1zM77 89v-1h-1v1zM79 14h1v-1h-1zM82 85v-1h-1v1zM83 83h-1v1h1zM84 83v-1h-1v1zM84 82h1v-1h-1zM90 27h1v-1h-1zM91 28v1h1v-1zM92 31h1v-1h-1zM95 39v1h1v-1zM97 46h-1v2h1zM97 54v-2h-1v2z" style="fill:#220925;fill-opacity:.984;stroke:none"/><path d="M55 96h6v-1h3v-1h3v-1h2v-1h2v-1h2v-1h2v-1h1v-1h2v-1h1v-1h1v-1h1v-1h1v-1h1v-1h1v-1h1v-1h1v-1h1v-1h1v-2h1v-1h1v-2h1v-2h1v-2h1v-2h1v-3h1v-2h-1v-1h-1v3h-1v3h-1v2h-1v2h-1v1h-1v2h-1v1h-1v2h-1v1h-1v1h-1v1h-1v1h-1v1h-1v1h-2v1h-1v1h-1v1h-2v1h-2v1h-2v1h-2v1h-3v1h-4v1h-5v1H43v-1h-6v-1h-3v-1h-3v-1h-2v-1h-2v-1h-2v-1h-2v-1h-1v-1h-2v-1h-1v-1h-1v-1h-1v-1h-1v-1h-1v-1h-1v-1h-1v-1h-1v-2h-1v-1h-1v-2H9v-2H8v-2H7v-2H6v-3H5v-6H4V42h1v-5H4v4H3v18h1v4h1v3h1v3h1v2h1v2h1v1h1v2h1v1h1v2h1v1h1v1h1v1h1v1h1v1h1v1h1v1h1v1h1v1h2v1h1v1h2v1h2v1h2v1h2v1h3v1h3v1h6v1h11zM5 37h1v-3H5zM89 28h1v2h1v2h1v3h1v3h1v5h1v13h-1v5h1v-1h1v-8h1v-4h-1v-8h-1v-4h-1v-3h-1v-2h-1v-2h-1v-2h-1v-2h-1v-2h-1v-1h-1v-1h-1v-1h-1v-2h-1v-1h-1v-1h-1v-1h-1v-1h-2v-1h-1v-1h-1v-1h-2v-1h-1V9h-1v1h-1V8h-3V7h-1V6h-3V5h-2v1h-1V4h-5V3H42v1h-1v1h-2V4h-2v1h-3v1h-3v2h-1V7h-1v1h-2v1h-2v1h-1v1h-2v1h-1v1h-1v1h-1v1h-2v1h-1v1h-1v2h-1v1h-1v1h-1v1h-1v2h-1v1H9v2H8v2H7v2H6v3h1v-2h1v-2h1v-2h1v-2h1v-1h1v-1h1v-2h1v-1h1v-1h1v-1h1v-1h1v-1h1v-1h2v-1h1v-1h1v-1h2v-1h2v-1h2v-1h2V9h2V8h4V7h4V6h17v1h4v1h3v1h3v1h2v1h2v1h2v1h2v1h1v1h2v1h1v1h1v1h1v1h1v1h1v1h1v1h1v2h1v1h1v1h1z" style="fill:#220925;fill-opacity:1;stroke:none"/><path d="M3 63h1v-1H3zM6 31H5v1h1zM6 70v1h1v-1zM8 72H7v1h1zM8 25v1h1v-1zM14 18h-1v1h1zM18 14h-1v1h1zM22 88h-1v1h1zM22 10v1h1v-1zM24 91h1v-1h-1zM27 7v1h1V7zM30 6h-1v1h1zM33 95v-1h-1v1zM35 95v1h1v-1zM43 3h1V2h-1zM47 97h-1v1h1zM52 98h1v-1h-1zM56 2h-1v1h1zM64 5h1V4h-1zM74 9V8h-1v1zM82 84v1h1v-1zM83 83v1h1v-1zM84 82v1h1v-1zM86 20h1v-1h-1zM91 75v-1h-1v1z" style="fill:#220925;fill-opacity:.545;stroke:none"/><path d="M4 47h1v-5H4zM5 52H4v4h1zM6 37H5v3h1zM6 62v-3H5v3zM6 34v2h1v-2zM6 63v2h1v-2zM7 34h1v-2H7zM8 67v-2H7v2zM9 30H8v1h1zM8 68v1h1v-1zM9 29h1v-1H9zM9 71h1v-1H9zM11 28v-2h-1v2zM10 73h1v-2h-1zM12 25h-1v1h1zM12 74v-1h-1v1zM12 77h-1v1h1zM13 25v-1h-1v1zM12 76h1v-2h-1zM13 22v1h1v-1zM14 77v-1h-1v1zM14 22h1v-1h-1zM14 78h1v-1h-1zM15 20v1h1v-1zM15 78v1h1v-1zM16 19v1h1v-1zM17 79h-1v1h1zM18 19v-1h-1v1zM18 81v-1h-1v1zM18 17v1h1v-1zM18 81v1h1v-1zM19 17h1v-1h-1zM19 83h1v-1h-1zM20 84h2v-1h-2zM22 16v-1h-1v1zM23 15v-1h-1v1zM23 84h-1v1h1zM25 14v-1h-2v1zM23 86h2v-1h-2zM25 12v1h1v-1zM26 87v-1h-1v1zM27 12h1v-1h-1zM29 11h1v-1h-1zM29 89h1v-1h-1zM33 9h-2v1h2zM31 89v1h2v-1zM36 8h-3v1h3zM34 91h1v-1h-1zM37 7v1h3V7zM37 91v1h2v-1zM40 5V4h-1v1zM41 7h6V6h-6zM43 92v1h3v-1zM52 6v1h6V6zM56 92h-2v1h2zM62 7h-2v1h2zM60 91v1h1v-1zM62 6h1V5h-1zM65 9V8h-2v1zM65 91v-1h-1v1zM68 10V9h-2v1zM67 90h1v-1h-1zM70 7h-1v1h1zM70 11v-1h-1v1zM69 89h1v-1h-1zM72 11h-1v1h1zM71 88h1v-1h-1zM72 10h1V9h-1zM73 13h1v-1h-1zM73 86v1h1v-1zM76 13h-2v1h2zM75 86h1v-1h-1zM76 14v1h1v-1zM77 85v-1h-1v1zM79 16v-1h-2v1zM78 84v-1h-1v1zM79 16v1h1v-1zM79 82v1h1v-1zM80 17v1h1v-1zM80 81v1h1v-1zM82 19v-1h-1v1zM82 80h-1v1h1zM82 20h1v-1h-1zM82 80h1v-1h-1zM84 20h-1v1h1zM83 78v1h1v-1zM85 22v-1h-1v1zM84 77v1h1v-1zM85 19v1h1v-1zM86 23v-1h-1v1zM86 77v-1h-1v1zM86 25h1v-1h-1zM86 75h1v-1h-1zM87 26h1v-1h-1zM88 74v-1h-1v1zM89 26h-1v2h1zM89 72v-1h-1v1zM90 28h-1v1h1zM89 71h1v-1h-1zM91 31v-1h-1v1zM91 68h-1v1h1zM91 33h1v-1h-1zM91 67h1v-1h-1zM93 36v-1h-1v1zM93 64v-1h-1v1zM94 38h-1v1h1zM94 60h-1v1h1zM95 45v-2h-1v2zM94 56h1v-2h-1zM95 62v-1h-1v1z" style="fill:#220a27;fill-opacity:1;stroke:none"/><path d="M4 52h1v-5H4zM5 40v1h1v-1zM6 59v-1H5v1zM7 36H6v1h1zM7 63v-1H6v1zM8 32h1v-1H8zM8 68h1v-1H8zM10 30v-1H9v1zM10 69H9v1h1zM12 26h-1v1h1zM12 72h-1v1h1zM14 23h-1v1h1zM14 75h-1v1h1zM15 23v-1h-1v1zM14 77h1v-1h-1zM16 22v-1h-1v1zM19 19v-1h-1v1zM20 17h-1v1h1zM20 81h-1v1h1zM20 16v1h1v-1zM21 83v-1h-1v1zM23 14v1h1v-1zM27 12h-1v1h1zM27 86h-1v1h1zM27 88h2v-1h-2zM28 11v1h1v-1zM30 10v1h1v-1zM31 89v-1h-1v1zM34 9h-1v1h1zM35 90v1h1v-1zM36 8v1h1V8zM40 91h-1v1h1zM41 8V7h-1v1zM46 92v1h8v-1zM47 6v1h5V6zM58 7v1h2V7zM59 92h1v-1h-1zM63 91h1v-1h-1zM67 90v-1h-1v1zM68 10v1h1v-1zM68 88v1h1v-1zM70 12h1v-1h-1zM73 13v-1h-1v1zM73 86h-1v1h1zM74 85v1h1v-1zM76 15v-1h-1v1zM79 16h-1v1h1zM79 83v-1h-1v1zM80 18v-1h-1v1zM85 22h-1v1h1zM86 24v-1h-1v1zM86 76v-1h-1v1zM88 26h-1v1h1zM90 29h-1v1h1zM90 69h-1v1h1zM90 32h1v-1h-1zM90 67v1h1v-1zM91 33v1h1v-1zM92 66v-1h-1v1zM93 37v-1h-1v1zM93 63v-1h-1v1zM93 40h1v-1h-1zM94 60v-1h-1v1zM95 45h-1v2h1zM95 52h-1v2h1z" style="fill:#250e2a;fill-opacity:1;stroke:none"/><path d="M6 42v-1H5v1zM7 38v-1H6v1zM8 34H7v1h1zM8 64H7v1h1zM10 48v-1H9v1zM9 49v1h1v-1zM11 29v-1h-1v1zM11 59v-1h-1v1zM11 37v1h1v-1zM13 25h-1v1h1zM16 30v-1h-1v1zM15 78h1v-1h-1zM16 20v1h1v-1zM17 78h-1v1h1zM18 20v-1h-1v1zM17 72v1h1v-1zM17 79v1h1v-1zM19 25h-1v1h1zM18 80v1h1v-1zM23 15h-1v1h1zM23 22v-1h-1v1zM23 78v1h1v-1zM24 85v-1h-1v1zM26 14v-1h-1v1zM28 81h-1v1h1zM30 83v-1h-1v1zM32 83h-1v1h1zM34 85v-1h-1v1zM33 90h1v-1h-1zM37 90h-1v1h1zM40 86h-1v1h1zM41 12h-1v1h1zM41 92v-1h-1v1zM42 7h-1v1h1zM45 88h2v-1h-2zM52 87v1h2v-1zM57 8h1V7h-1zM59 13v-1h-1v1zM58 91v1h1v-1zM59 87h1v-1h-1zM63 9V8h-1v1zM62 13v1h1v-1zM65 10h1V9h-1zM66 84h-1v1h1zM67 16h1v-1h-1zM70 16h-1v1h1zM70 87v1h1v-1zM72 82v-1h-1v1zM74 79v1h1v-1zM75 21h1v-1h-1zM75 84v1h1v-1zM79 82h1v-1h-1zM81 19v-1h-1v1zM81 20h1v-1h-1zM81 26v1h1v-1zM82 21h1v-1h-1zM83 72v-1h-1v1zM84 22v-1h-1v1zM85 68h-1v1h1zM85 76h-1v1h1zM85 33h1v-1h-1zM87 35v-1h-1v1zM87 65v-1h-1v1zM88 73v-1h-1v1zM89 45v1h1v-1zM89 54h1v-1h-1zM94 41v-1h-1v1zM94 59v-1h-1v1zM94 47v5h1v-5z" style="fill:#2a142d;fill-opacity:1;stroke:none"/><path d="M6 42H5v1h1zM5 57v1h1v-1zM7 62v-1H6v1zM9 32H8v1h1zM9 66H8v1h1zM10 30H9v1h1zM9 47h1v-2H9zM9 54h1v-2H9zM10 69v-1H9v1zM10 71h1v-1h-1zM13 34h-1v1h1zM13 65v-1h-1v1zM13 74v-1h-1v1zM13 32v1h1v-1zM13 66v1h1v-1zM15 69v-1h-1v1zM17 71h-1v1h1zM18 27v-1h-1v1zM23 84v-1h-1v1zM24 20h-1v1h1zM24 79v1h1v-1zM26 86v-1h-1v1zM28 12h-1v1h1zM29 11v1h1v-1zM30 16h-1v1h1zM31 11h1v-1h-1zM31 16h1v-1h-1zM35 9h-1v1h1zM37 13h-1v1h1zM37 8v1h1V8zM41 92h1v-1h-1zM42 7v1h1V7zM45 88v-1h-1v1zM53 12v-1h-7v1zM55 88v-1h-1v1zM56 7v1h1V7zM59 13h1v-1h-1zM62 9V8h-1v1zM63 90h-1v1h1zM63 86h1v-1h-1zM66 15v-1h-1v1zM66 90v-1h-1v1zM67 11h1v-1h-1zM72 18v-1h-1v1zM73 14h1v-1h-1zM75 19h-1v1h1zM76 15v1h1v-1zM81 81v-1h-1v1zM81 79v1h1v-1zM82 28h1v-1h-1zM83 79v-1h-1v1zM83 78h1v-1h-1zM85 30h-1v1h1zM87 25h-1v1h1zM88 37v-1h-1v1zM87 62v1h1v-1zM89 28h-1v1h1zM88 39v1h1v-1zM90 45v-1h-1v1zM90 54h-1v2h1zM92 35v-1h-1v1zM92 65v-1h-1v1zM92 37v1h1v-1zM93 61h-1v1h1zM93 42h1v-1h-1zM94 58v-1h-1v1z" style="fill:#2f1933;fill-opacity:1;stroke:none"/><path d="M6 43H5v1h1zM6 56v-1H5v1zM6 60v1h1v-1zM7 63v1h1v-1zM9 44h1v-1H9zM9 55v1h1v-1zM11 40v-1h-1v1zM11 37h1v-1h-1zM13 74v1h1v-1zM14 24h1v-1h-1zM15 71h1v-1h-1zM20 17v1h1v-1zM22 82h-1v1h1zM25 15v-1h-1v1zM25 37h1v-1h-1zM26 81v-1h-1v1zM29 87v1h1v-1zM30 83v1h1v-1zM34 89v1h1v-1zM36 14v-1h-1v1zM39 9V8h-1v1zM43 88v-1h-1v1zM42 91v1h1v-1zM45 12v-1h-1v1zM56 8V7h-1v1zM57 88v-1h-1v1zM56 91v1h1v-1zM61 8h-1v1h1zM61 13v-1h-1v1zM62 90h-1v1h1zM63 13v1h1v-1zM67 85v-1h-1v1zM68 89v-1h-1v1zM71 82h-1v1h1zM71 87h1v-1h-1zM74 19v-1h-1v1zM77 17h1v-1h-1zM77 77v1h1v-1zM80 75h-1v1h1zM80 74v1h1v-1zM84 29v-1h-1v1zM85 24v1h1v-1zM86 68v-1h-1v1zM87 65h-1v1h1zM88 61h1v-1h-1zM89 43h1v-1h-1zM90 57v-1h-1v1zM90 68h-1v1h1zM93 42v1h1v-1zM94 56h-1v1h1z" style="fill:#37233e;fill-opacity:1;stroke:none"/><path d="M5 45h1v-1H5zM5 55h1v-1H5zM6 40h1v-1H6zM9 66v-1H8v1zM9 32h1v-1H9zM10 43v-1H9v1zM9 56v1h1v-1zM11 29h-1v1h1zM11 39v-1h-1v1zM11 61v-1h-1v1zM12 33v1h1v-1zM12 66h1v-1h-1zM14 31h-1v1h1zM14 68v-1h-1v1zM15 75h-1v1h1zM15 22v1h1v-1zM15 29h1v-1h-1zM18 73h-1v1h1zM18 24v1h1v-1zM19 19h1v-1h-1zM19 24h1v-1h-1zM21 22h-1v1h1zM20 81v1h1v-1zM22 21h-1v1h1zM22 78v1h1v-1zM25 85v-1h-1v1zM26 13v1h1v-1zM27 81h-1v1h1zM28 17h1v-1h-1zM31 15h-1v1h1zM33 14h-1v1h1zM34 85v1h1v-1zM35 9v1h1V9zM37 86v1h1v-1zM38 90v1h1v-1zM42 87h-1v1h1zM43 11h-1v1h1zM43 91v1h1v-1zM46 7h-1v1h1zM54 8V7h-1v1zM56 91h-1v1h1zM57 12v-1h-1v1zM57 87v1h1v-1zM67 11v-1h-1v1zM67 15v-1h-1v1zM76 79h-1v1h1zM77 20h-1v1h1zM78 83v-1h-1v1zM78 17v1h1v-1zM81 26h1v-1h-1zM82 73h1v-1h-1zM84 23v1h1v-1zM85 30v-1h-1v1zM84 70h1v-1h-1zM86 74h-1v1h1zM87 35v1h1v-1zM90 42v-1h-1v1zM89 57v1h1v-1zM92 63h-1v1h1zM92 61h1v-1h-1zM94 43h-1v1h1zM93 55v1h1v-1z" style="fill:#3e2a46;fill-opacity:1;stroke:none"/><path d="M5 46h1v-1H5zM6 53H5v1h1zM6 60h1v-1H6zM8 37v-1H7v1zM10 67H9v1h1zM11 69h-1v1h1zM12 27h1v-1h-1zM17 22v-1h-1v1zM17 20v1h1v-1zM18 20h1v-1h-1zM24 16v-1h-1v1zM23 79v1h1v-1zM28 13h1v-1h-1zM30 11v1h1v-1zM33 89v-1h-1v1zM37 12v1h1v-1zM40 8h-1v1h1zM41 87h-1v1h1zM44 92h1v-1h-1zM46 8h2V7h-2zM53 8V7h-1v1zM55 92v-1h-1v1zM57 11v1h1v-1zM59 87h-1v1h1zM60 9V8h-1v1zM60 91h1v-1h-1zM61 12v1h1v-1zM63 10h1V9h-1zM65 13h-1v1h1zM67 85h1v-1h-1zM70 83h-1v1h1zM73 13h-1v1h1zM73 18v-1h-1v1zM74 85h1v-1h-1zM75 20h1v-1h-1zM79 18v1h1v-1zM88 71h-1v1h1z" style="fill:#40304a;fill-opacity:1;stroke:none"/><path d="M6 46H5v1h1zM5 52v1h1v-1zM7 41v-1H6v1zM7 63h1v-1H7zM12 72v1h1v-1zM15 76v1h1v-1zM16 78h1v-1h-1zM19 81h1v-1h-1zM23 20h1v-1h-1zM24 80v1h1v-1zM26 86h1v-1h-1zM30 84v-1h-1v1zM31 85h1v-1h-1zM33 85v1h1v-1zM36 90v-1h-1v1zM37 86h-1v1h1zM40 12h1v-1h-1zM46 92v-1h-1v1zM53 89v-1h-6v1zM52 7h-4v1h4zM59 11h-1v1h1zM60 88v-1h-1v1zM66 85h-1v1h1zM66 88v1h1v-1zM67 15h1v-1h-1zM69 12v-1h-1v1zM69 16h1v-1h-1zM71 12h-1v1h1zM71 83h1v-1h-1zM76 16v-1h-1v1zM79 81h-1v1h1zM80 19v1h1v-1zM83 21h-1v1h1zM83 22v1h1v-1zM84 75v1h1v-1zM88 29v1h1v-1zM90 31h-1v1h1zM91 33h-1v1h1zM93 40v-1h-1v1zM94 44h-1v1h1zM94 55v-1h-1v1z" style="fill:#43334e;fill-opacity:1;stroke:none"/><path d="M6 47H5v5h1zM11 34v-1h-1v1zM11 65h-1v2h1zM11 32h1v-1h-1zM13 29h-1v1h1zM13 67v-1h-1v1zM15 71v1h1v-1zM17 24v-1h-1v1zM62 13h3v1h3v1h2v1h1v1h2v1h1v1h2v1h1v1h1v1h1v1h3v-1h-1v-1h-1v-1h-1v-1h-1v-1h-2v-1h-1v-1h-2v-1h-1v-1h-2v-1h-2v-1h-3v-1h-3v-1h-4V9H41v1h-4v1h-3v1h-3v1h-2v1h-2v1h-1v1h-2v1h-1v1h-2v1h-1v1h-1v1h-1v1h-1v1h3v-1h1v-1h1v-1h1v-1h2v-1h1v-1h2v-1h2v-1h2v-1h2v-1h3v-1h3v-1h19v1h3zM68 87v-1h2v-1h2v-1h2v-1h1v-1h2v-1h1v-1h1v-1h1v-1h1v-1h1v-1h-3v1h-1v1h-1v1h-1v1h-1v1h-2v1h-1v1h-2v1h-2v1h-2v1h-3v1h-3v1h-7v1h-6v-1h-7v-1h-4v-1h-3v-1h-2v-1h-2v-1h-1v-1h-2v-1h-2v-1h-1v-1h-1v-1h-1v-1h-1v-1h-3v1h1v1h1v1h1v1h1v1h2v1h1v1h1v1h2v1h2v1h2v1h3v1h2v1h5v1h18v-1h4v-1h3v-1zM86 30h-1v1h1zM88 68h-1v1h1zM89 33v-1h-1v1zM88 66v1h1v-1z" style="fill:#463252;fill-opacity:1;stroke:none"/><path d="M5 56v1h1v-1zM6 38v1h1v-1zM7 35v1h1v-1zM9 45h1v-1H9zM10 55v-1H9v1zM11 60v-1h-1v1zM11 27v1h1v-1zM12 63v-1h-1v1zM13 24v1h1v-1zM14 30v1h1v-1zM16 27v1h1v-1zM21 16v1h1v-1zM23 53h1v-2h-1zM25 20v-1h-1v1zM28 17h-1v1h1zM27 86v1h1v-1zM30 36v1h1v-1zM30 53h1v-1h-1zM31 89h1v-1h-1zM33 14v1h1v-1zM35 86h1v-1h-1zM38 91v-1h-1v1zM38 87h1v-1h-1zM40 12h-1v1h1zM43 8h1V7h-1zM44 45h-1v1h1zM44 88v-1h-1v1zM45 11v1h1v-1zM47 39v-1h-1v1zM47 51h-1v1h1zM49 44v1h2v-1zM53 11v1h2v-1zM53 52h1v-1h-1zM56 87h-1v1h1zM57 45h-1v1h1zM58 92v-1h-1v1zM61 87v-1h-1v1zM64 10h1V9h-1zM65 51h-1v1h1zM65 39h1v-1h-1zM68 50h-1v1h1zM68 83v1h1v-1zM69 11v1h1v-1zM70 45v1h1v-1zM71 13h1v-1h-1zM74 81v-1h-1v1zM73 85v1h1v-1zM77 84v-1h-1v1zM78 76v1h1v-1zM83 70v1h1v-1zM87 73h-1v1h1zM88 70v1h1v-1zM90 31v-1h-1v1zM90 44v-1h-1v1zM91 32h-1v1h1zM91 66h-1v1h1z" style="fill:#352037;fill-opacity:1;stroke:none"/><path d="M7 42v-1H6v1zM7 43H6v4h1zM6 56h1v-3H6zM6 58h1v-1H6zM8 38v-1H7v1zM8 39H7v1h1zM8 60v-1H7v1zM8 36v1h1v-1zM9 62H8v1h1zM10 33H9v1h1zM10 65H9v1h1zM10 31v1h1v-1zM10 68h1v-1h-1zM11 30h1v-1h-1zM12 70v-1h-1v1zM13 27h1v-1h-1zM14 73v-1h-1v1zM14 25v1h1v-1zM23 16v1h1v-1zM24 83v-1h-1v1zM26 84v1h1v-1zM28 14h1v-1h-1zM28 86h1v-1h-1zM31 13v-1h-1v1zM31 87v-1h-1v1zM33 88v-1h-1v1zM36 11v-1h-1v1zM36 89v-1h-1v1zM39 9v1h1V9zM46 91v-1h-2v1zM45 9h4V8h-4zM53 8h-3v1h3zM53 91h2v-1h-2zM60 9h-1v1h1zM60 89v1h1v-1zM64 11v-1h-1v1zM64 89v-1h-1v1zM67 87h-1v1h1zM68 12v1h1v-1zM70 13v1h1v-1zM73 15v-1h-1v1zM73 84h-1v1h1zM75 17h1v-1h-1zM79 79v1h1v-1zM80 78v1h1v-1zM81 77v1h1v-1zM83 76h-1v1h1zM86 27v-1h-1v1zM86 73v-1h-1v1zM87 30h1v-1h-1zM87 70h1v-1h-1zM88 31v1h1v-1zM89 67h-1v1h1zM90 34v-1h-1v1zM89 66h1v-1h-1zM91 40h1v-1h-1zM92 60v-1h-1v1zM92 43v2h1v-2zM92 56h1v-2h-1zM93 46v2h1v-2zM93 53h1v-1h-1z" style="fill:#4b3757;fill-opacity:1;stroke:none"/><path d="M7 43v-1H6v1zM6 56v1h1v-1zM7 60v1h1v-1zM13 72v-1h-1v1zM14 75h1v-1h-1zM16 23h-1v1h1zM15 76h1v-1h-1zM17 22h-1v1h1zM16 76v1h1v-1zM20 81h1v-1h-1zM22 82v-1h-1v1zM25 84v-1h-1v1zM25 84v1h1v-1zM27 86h1v-1h-1zM30 86h-1v1h1zM31 88h1v-1h-1zM34 89h1v-1h-1zM37 89v1h1v-1zM43 90h-2v1h2zM56 90v1h3v-1zM61 89v1h2v-1zM66 89v-1h-2v1zM67 87v1h1v-1zM69 13h1v-1h-1zM69 87h1v-1h-1zM72 14v-1h-1v1zM72 86v-1h-1v1zM74 84h-1v1h1zM75 16v-1h-1v1zM75 83h-1v1h1zM77 82h-1v1h1zM77 17v1h1v-1zM77 81v1h1v-1zM78 19h1v-1h-1zM79 81v-1h-1v1zM82 23h1v-1h-1zM83 24h1v-1h-1zM83 75v1h1v-1zM84 25h1v-1h-1zM85 74h-1v1h1zM86 73h-1v1h1zM86 28h1v-1h-1zM86 72h1v-1h-1zM88 71v-1h-1v1zM89 31v-1h-1v1zM89 68h-1v1h1zM89 32v1h1v-1zM90 67v-1h-1v1zM91 36v-1h-1v1zM90 65h1v-2h-1zM91 39h1v-2h-1zM91 62h1v-2h-1zM92 43h1v-2h-1zM92 58h1v-2h-1z" style="fill:#4e3d5a;fill-opacity:1;stroke:none"/><path d="M7 53v2h1v2H7v1h1v2h1v1H8v1h1v1h1v1h1v-2h-1v-3H9V40H8v1H7v1h1v2H7v3H6v6zM10 37h1v-2h-1v1H9v1H8v1h1v2h1zM85 74v-1h-1v1zM92 44h-1v-3h1v-1h-1v-1h-1v-1h1v-1h-1v-1h-1v-1h-1v2h1v3h1v6h1v8h-1v6h1v-1h1v-1h-1v-2h1v-2h1v-9h-1zM88 64h1v-1h1v-1h1v-1h-1v-1h-1v2h-1z" style="fill:#493054;fill-opacity:1;stroke:none"/><path d="M6 58v1h1v-1zM8 34v1h1v-1zM12 29v-1h-1v1zM14 26v-1h-1v1zM18 79v-1h-1v1zM19 79h-1v1h1zM22 17h1v-1h-1zM23 83v1h1v-1zM25 15h1v-1h-1zM29 86h-1v1h1zM31 88v-1h-1v1zM34 11v-1h-1v1zM37 10V9h-1v1zM40 90h-1v1h1zM41 8h-1v1h1zM48 91h-2v1h2zM52 92h2v-1h-2zM59 8h-1v1h1zM60 90h-1v1h1zM63 9h-1v1h1zM64 90v-1h-1v1zM65 10v1h1v-1zM73 86v-1h-1v1zM80 80h-1v1h1zM81 20v1h1v-1zM84 77v-1h-1v1zM87 26h-1v1h1zM89 70v-1h-1v1zM90 68v-1h-1v1zM91 66v-1h-1v1zM92 36h-1v1h1zM92 59v1h1v-1zM94 46v-1h-1v1z" style="fill:#473851;fill-opacity:1;stroke:none"/><path d="M8 38H7v1h1zM8 61H7v1h1zM9 36v-1H8v1zM9 65v-2H8v2zM10 32H9v1h1zM9 67h1v-1H9zM10 31h1v-1h-1zM11 69v-1h-1v1zM12 70h-1v1h1zM12 28h1v-1h-1zM13 74h1v-1h-1zM14 24v1h1v-1zM17 22h1v-1h-1zM17 77v1h1v-1zM19 21v-1h-1v1zM18 79h1v-1h-1zM20 19h-1v1h1zM19 79v1h1v-1zM21 19v-1h-1v1zM21 17v1h1v-1zM23 82h-1v1h1zM25 16v-1h-1v1zM27 15v-1h-1v1zM27 14h1v-1h-1zM30 12h-1v1h1zM33 12v-1h-2v1zM33 88v1h1v-1zM35 10h-1v1h1zM37 89h-1v1h1zM39 9h-2v1h2zM39 90v-1h-1v1zM40 91h1v-1h-1zM41 8v1h4V8zM43 91h1v-1h-1zM52 92v-1h-4v1zM53 8v1h5V8zM55 91h1v-1h-1zM60 9v1h2V9zM65 10h-1v1h1zM66 11v1h2v-1zM69 87h-1v1h1zM71 87v-1h-1v1zM73 15h1v-1h-1zM76 84v-1h-1v1zM76 16v1h1v-1zM79 20h1v-1h-1zM81 21v-1h-1v1zM81 80v-1h-1v1zM82 21h-1v1h1zM82 78h-1v1h1zM83 77h-1v1h1zM86 25h-1v1h1zM86 72v1h1v-1zM87 28v1h1v-1zM90 35h1v-1h-1zM92 63v-1h-1v1zM93 40h-1v1h1zM93 59v-1h-1v1zM93 52h1v-4h-1z" style="fill:#4c3c57;fill-opacity:1;stroke:none"/><path d="M7 41h1v-1H7zM7 59h1v-1H7zM9 35h1v-1H9zM13 28h-1v1h1zM12 70v1h1v-1zM15 74v-1h-1v1zM16 25v-1h-1v1zM22 17v1h1v-1zM22 81v1h1v-1zM26 16v-1h-1v1zM33 11v1h1v-1zM33 88h1v-1h-1zM36 10v1h1v-1zM41 89h-2v1h2zM40 9v1h1V9zM46 90v1h7v-1zM49 8v1h1V8zM59 10V9h-1v1zM59 90h1v-1h-1zM62 11h1v-1h-1zM66 11h-1v1h1zM68 86v1h1v-1zM71 86v-1h-1v1zM73 15v1h1v-1zM76 82h-1v1h1zM77 17h-1v1h1zM84 25v1h1v-1zM86 28v1h1v-1zM91 36h-1v1h1zM90 62v1h1v-1zM93 53v1h1v-1z" style="fill:#483454;fill-opacity:1;stroke:none"/><path d="M7 44h1v-2H7zM8 57v-2H7v2zM8 40h1v-2H8zM8 61h1v-1H8zM9 36h1v-1H9zM9 41h1v-1H9zM10 58H9v1h1zM13 72h1v1h1v2h1v1h3v-1h-1v-1h-1v-1h-1v-1h-1v-2h-1v-2h-1v-1h-1v-3h-2v-1H9v2h2v4h1v1h1zM14 26v1h-1v3h-2v1h1v1h-2v1h1v1h-1v1h2v-2h1v-2h1v-2h1v-1h1v-2h1v-1h1v-1h1v-1h-2v1h-1v1h-1v1zM10 37v1h1v-1zM80 23v1h1v1h1v1h1v1h1v2h1v1h1v2h1v2h1v1h1v1h1v-2h-1v-1h-1v-3h-1v-1h-1v-2h-1v-1h-1v-2h-1v-1zM81 75h-1v1h3v-1h1v-2h1v-1h1v-1h1v-3h1v-2h1v-1h1v-2h-1v1h-1v1h-1v2h-1v2h-1v1h-1v2h-1v1h-1v1h-1zM90 59h-1v1h1zM90 39h1v-1h-1zM91 54v-1h-1v1zM91 60h-1v1h1zM91 41v3h1v-3zM91 58h1v-2h-1z" style="fill:#473054;fill-opacity:1;stroke:none"/><path d="M8 34h1v-1H8zM11 72h1v-1h-1zM19 75v-1h-1v1zM20 76v-1h-1v1zM21 76h-1v1h1zM22 78v-1h-1v1zM25 18v1h1v-1zM29 83v-1h-1v1zM33 10h-1v1h1zM32 85h1v-1h-1zM39 13v-1h-1v1zM44 11h-1v1h1zM45 8V7h-1v1zM55 8V7h-1v1zM56 12v-1h-1v1zM61 86v1h1v-1zM64 85v1h1v-1zM65 90v-1h-1v1zM68 15v1h1v-1zM69 87v1h1v-1zM71 16h-1v1h1zM72 81v1h1v-1zM74 15h1v-1h-1zM77 79v-1h-1v1zM77 22h1v-1h-1zM78 22v1h1v-1zM80 24v-1h-1v1zM80 24v1h1v-1zM81 74h1v-1h-1zM85 32h1v-1h-1zM86 33v1h1v-1zM87 28h1v-1h-1zM88 64v-1h-1v1zM88 39h1v-1h-1zM92 36v-1h-1v1zM93 38h-1v1h1z" style="fill:#3a2742;fill-opacity:1;stroke:none"/><path d="M9 42h1v-1H9zM10 57H9v1h1zM10 61v1h1v-1zM12 36v-1h-1v1zM11 63v1h1v-1zM15 29h-1v1h1zM14 70h1v-1h-1zM16 26v1h1v-1zM17 72h-1v1h1zM18 25h-1v1h1zM23 20h-1v1h1zM26 18h1v-1h-1zM34 13v1h1v-1zM42 11h-1v1h1zM62 87h1v-1h-1zM74 80v1h1v-1zM83 27v-1h-1v1zM84 27h-1v1h1zM84 72v-1h-1v1zM85 69h1v-1h-1zM86 33h1v-1h-1zM86 67h1v-1h-1zM88 34h-1v1h1zM87 65h1v-1h-1zM89 37h-1v1h1zM88 61v1h1v-1zM89 41h1v-1h-1zM89 59h1v-1h-1zM91 53v-7h-1v7z" style="fill:#442c4e;fill-opacity:1;stroke:none"/><path d="M10 48H9v1h1zM9 52h1v-2H9zM11 40h-1v1h1zM26 35v1h4v-1zM40 36v-1h-4v1zM41 37v-1h-1v1zM43 48v-1h-1v1zM45 40v1h1v-1zM52 35h-4v1h4zM54 41h1v-1h-1zM58 48v-1h-1v1zM58 37v1h1v-1zM60 58v-2h-2v2zM59 36h4v-1h-4zM64 58v-1h-1v1zM64 37h1v-1h-1zM65 57v-1h-1v1zM66 49v1h1v-1zM67 58v-1h-1v1zM67 38h1v-1h-1zM69 53v-1h-1v1zM71 58v-1h1v-1h-4v1h1v1zM69 35v1h5v-1zM74 38h-1v1h1zM75 36h-1v1h1zM75 50v1h1v-1zM76 53h1v-1h-1zM89 60v-1h-1v1z" style="fill:#31152a;fill-opacity:1;stroke:none"/><path d="M11 42v-1h-1v1zM11 57h-1v1h1zM12 36h1v-1h-1zM15 32v-1h-1v1zM19 75h1v-1h-1zM22 76h-1v1h1zM22 78h1v-1h-1zM24 50h-1v1h1zM27 81v-1h-1v1zM29 18v-1h-1v1zM35 15v-1h-1v1zM36 35h-1v1h1zM36 53h-1v1h1zM38 14v-1h-1v1zM41 87v-1h-1v1zM41 13h1v-1h-1zM43 44v1h1v-1zM45 53v1h1v-1zM46 53h1v-1h-1zM54 37h-1v1h1zM53 52v1h1v-1zM55 53h-1v1h1zM56 44v1h1v-1zM58 13v-1h-1v1zM59 35h-1v1h1zM58 86v1h1v-1zM62 13h-1v1h1zM63 85h-1v1h1zM64 54v-1h-1v1zM65 15v-1h-1v1zM70 53h-1v1h1zM70 83v-1h-1v1zM73 18h-1v1h1zM73 40h-1v1h1zM75 38v-1h-1v1zM76 79v-1h-1v1zM76 21v1h1v-1zM77 22v1h1v-1zM80 25v-1h-1v1zM82 73v-1h-1v1zM83 29v1h1v-1zM87 37v1h1v-1zM88 58v1h1v-1zM89 48v1h1v-1zM89 50v1h1v-1z" style="fill:#271023;fill-opacity:1;stroke:none"/><path d="M11 42h-1v1h1zM11 57v-1h-1v1zM12 39v-1h-1v1zM12 60h-1v1h1zM13 63h-1v1h1zM13 34h1v-1h-1zM13 66h1v-1h-1zM14 67v1h1v-1zM17 29v-1h-1v1zM16 71h1v-1h-1zM21 75h-1v1h1zM23 54h1v-1h-1zM26 20v-1h-1v1zM26 36v-1h-1v1zM31 16h-1v1h1zM31 36v-1h-1v1zM30 53v1h1v-1zM31 47v1h4v-1zM33 15h-1v1h1zM34 37v1h1v-1zM34 40h1v-1h-1zM35 52v-1h-1v1zM34 84v1h1v-1zM38 86v-1h-1v1zM41 35h-1v1h1zM41 86v1h1v-1zM43 12h-1v1h1zM43 46h-1v1h1zM45 39v1h1v-1zM46 37v1h1v-1zM48 36v-1h-1v1zM48 50h-1v1h1zM53 36v-1h-1v1zM52 50v1h1v-1zM55 39h-1v1h1zM56 12v1h1v-1zM58 46h-1v1h1zM57 56v2h1v-2zM60 48h-1v1h1zM62 59v-1h-3v1zM61 46h1v-1h-1zM63 55v1h3v-1zM67 59v-1h-4v1zM65 52h-1v1h1zM66 37h-1v1h1zM67 16v-1h-1v1zM67 38h-1v1h1zM68 52v-1h-1v1zM69 16h-1v1h1zM69 35h-1v1h1zM68 56h2v-1h-2zM71 59v-1h-2v1zM70 17v1h1v-1zM71 44h-1v1h1zM71 43h1v-1h-1zM72 56v-1h-1v1zM73 47h-1v1h1zM72 58v1h2v-1zM72 81h1v-1h-1zM75 36v-1h-1v1zM76 57v-1h-1v1zM76 51h1v-1h-1zM76 54h1v-1h-1zM76 78h1v-1h-1zM77 76v1h1v-1zM79 24v-1h-1v1zM80 74h-1v1h1zM80 73v1h1v-1zM82 29h1v-1h-1zM84 70v-1h-1v1zM84 31v1h1v-1zM86 33h-1v1h1zM86 35v1h1v-1zM86 64h1v-1h-1zM88 62v-1h-1v1zM89 41h-1v1h1zM88 58h1v-1h-1z" style="fill:#240c1f;fill-opacity:1;stroke:none"/><path d="M10 44h1v-1h-1zM80 57h2v-1h2v-1h4v-1h1v-2h-1v-1h1v-1h-1v-1h1v-3h-1v-1h-1v-1h-3v-1h-2v-1h-2v-1h-1v-1h-2v-1h-1v-1h-2v1h-1v2h-1v2h-1v3h1v1h1v2h3v1h1v1h1v1h-1v2h-2v1h-3v1h4v2h-2v1h-2v-1h-1v1h-2v-1h-1v-3h1v-2h-1v-1h-1v-2h-1v1h-1v2h-1v1h-1v1h-8v-1h-1v-1h-1v-2h-1v-1h-4v1h-1v2h-1v1h-1v1h-9v-1h-1v-2h-1v-1h1v-3h-3v1h-1v5h-1v1h-6v-1h-1v-4h1v-1h1V37h-1v1h-1v1h-1v1h-1v1h-2v1h-1v1h-3v1h-3v1h-2v9h1v1h4v1h2v1h2v1h1v1h2v1h1v1h1v1h1v1h1v1h1v1h2v1h1v1h2v1h2v1h2v1h3v1h5v1h11v-1h5v-1h3v-1h2v-1h2v-1h2v-1h2v-1h1v-1h1v-1h1v-1h1v-1h1v-1h1v-1h2v-1h1zm-13 2h-1v1h-1v-1h-2v-1h-1v1h-2v1h-1v-2h-2v-2h6v-1h3v1h1zM10 56h1v-1h-1zM11 39v1h1v-1zM13 36h-1v1h1z" style="fill:#22091b;fill-opacity:1;stroke:none"/><path d="M61 44h1v-1h-1v-2h-1v-1h-1v-2h-1v-3h1v-1h4v1h1v1h1v1h3v-2h1v-1h1v-1h-1v-1h-2v-1h-2v-1h-2v-1h-4v-1h-5v-1h-9v1h-5v1h-3v1h-3v1h-2v1h-2v1h-1v1h1v1h1v7h4v-2h-1v-1h1v-1h-1v-1h1v-2h1v-1h4v1h1v7h1v1h-1v2h1v1h1v-2h1v-2h1v-3h1v-2h1v-2h1v-1h4v1h1v2h1v2h1v3h1v2h1v2h1v3h1v-1h1v-1h1zM42 48h-1v1h1zM70 55v1h1v-1zM88 39v-1h-1v1zM87 61h1v-1h-1zM89 42h-1v1h1zM88 56v1h1v-1z" style="fill:#22091b;fill-opacity:1;stroke:none"/><path d="M25 28v1h-1v1h-2v1h-1v1h-2v1h-2v1h-2v1h-2v2h-1v3h-1v4h-1v1h2v-1h3v-1h3v-1h1v-1h2v-1h1v-1h1v-1h1v-1h1v-2h1v-1h3v-1h1v-1h2v-1h2v-1h3v-1h3v-1h5v-1h9v1h5v1h4v1h2v1h2v1h2v1h1v1h4v1h1v3h1v1h1v1h2v1h1v1h2v1h2v1h3v1h2v-1h-1v-5h-1v-3h-1v-1h-2v-1h-2v-1h-2v-1h-2v-1h-1v-1h-2v-1h-1v-1h-2v-1h-2v-1h-2v-1h-2v-1h-2v-1h-3v-1h-5v-1H43v1h-4v1h-4v1h-2v1h-2v1h-2v1h-2v1zM10 54v1h1v-1zM42 77v1h15v-1h4v-1h3v-1h3v-1h2v-1h2v-1h1v-1h2v-1h1v-1h2v-1h2v-1h1v-1h2v-1h3v-1h1v-1h1v-4h1v-3h1v-2h-1v1h-4v1h-2v1h-2v1h-1v1h-2v1h-1v1h-1v1h-1v1h-1v1h-1v1h-1v1h-2v1h-2v1h-2v1h-2v1h-3v1h-5v1H44v-1h-5v-1h-3v-1h-2v-1h-2v-1h-2v-1h-1v-1h-2v-1h-1v-1h-1v-1h-1v-1h-1v-1h-1v-1h-2v-1h-1v-1h-2v-1h-2v-1h-4v5h1v3h1v1h2v1h2v1h2v1h2v1h1v1h2v1h1v1h2v1h1v1h2v1h2v1h3v1h3v1z" style="fill:#21091a;fill-opacity:1;stroke:none"/><path d="M11 61v1h1v-1zM16 70v-1h-1v1zM18 73v1h1v-1zM20 25v-1h-1v1zM21 24v-1h-1v1zM22 22h-1v1h1zM24 53v1h6v-1zM26 19h1v-1h-1zM45 53h-9v1h9zM37 85h-1v1h1zM41 50h1v-1h-1zM44 43h1v-1h-1zM47 88h5v-1h-5zM55 42v1h1v-1zM55 53v1h8v-1zM58 50h1v-1h-1zM60 40v-1h-1v1zM61 48v-1h-1v1zM60 56v1h4v-1zM62 42h-1v1h1zM62 45h1v-1h-1zM64 36v-1h-1v1zM65 51h1v-1h-1zM65 56v1h2v-1zM68 84v-1h-1v1zM69 58v-1h-1v1zM70 43v1h1v-1zM70 53v1h6v-1zM72 46h-1v1h1zM75 57v-1h-3v1zM73 49v1h1v-1zM75 57v1h1v-1zM81 25h-1v1h1zM86 66h-1v1h1zM89 41v-1h-1v1zM89 48h1v-2h-1zM89 49v1h1v-1zM90 51h-1v2h1z" style="fill:#2b1225;fill-opacity:1;stroke:none"/><path d="M59 18v-1H40v1h-4v1h-4v1h-2v1h-3v1h-2v1h-2v1h-2v1h-2v1h-1v2h-1v1h-1v2h-1v1h-1v2h-1v1h2v-1h2v-1h2v-1h2v-1h1v-1h2v-1h1v-1h2v-1h2v-1h2v-1h2v-1h2v-1h4v-1h4v-1h13v1h5v1h3v1h2v1h2v1h2v1h2v1h2v1h1v1h2v1h1v1h2v1h2v1h2v1h2v-1h-1v-2h-1v-2h-1v-1h-1v-2h-1v-1h-1v-1h-2v-1h-2v-1h-2v-1h-2v-1h-3v-1h-2v-1h-3v-1zM79 75v-1h1v-1h1v-1h1v-2h1v-1h1v-2h1v-2h-3v1h-2v1h-1v1h-2v1h-2v1h-1v1h-2v1h-1v1h-2v1h-2v1h-3v1h-3v1h-4v1H42v-1h-4v-1h-3v-1h-3v-1h-2v-1h-2v-1h-1v-1h-2v-1h-1v-1h-2v-1h-1v-1h-2v-1h-2v-1h-2v-1h-2v1h1v2h1v2h1v1h1v2h1v1h1v1h1v1h2v1h3v1h2v1h2v1h3v1h3v1h4v1h7v1h8v-1h6v-1h4v-1h3v-1h3v-1h2v-1h2v-1h3v-1zM27 19h1v-1h-1zM85 65h1v-1h-1z" style="fill:#200a1a;fill-opacity:1;stroke:none"/><path d="M16 31v-1h-1v1zM17 28h1v-1h-1zM25 21v-1h-1v1zM25 80h1v-1h-1zM29 82v-1h-1v1zM30 83h1v-1h-1zM33 84v-1h-1v1zM35 15h1v-1h-1zM39 13h-1v1h1zM43 87v-1h-1v1zM44 13v-1h-1v1zM50 17v-1h-1v1zM51 17h1v-1h-1zM56 13v-1h-1v1zM56 87h2v-1h-2zM61 14v-1h-1v1zM62 85h-1v1h1zM64 14h-1v1h1zM64 85h1v-1h-1zM66 83v1h1v-1zM67 16v1h1v-1zM69 83v-1h-1v1zM70 18v-1h-1v1zM70 82h1v-1h-1zM73 20h1v-1h-1zM74 80v-1h-1v1zM78 75v1h1v-1zM83 71v-1h-1v1zM84 68h1v-1h-1zM86 66v-1h-1v1zM88 60v-1h-1v1z" style="fill:#200c1b;fill-opacity:1;stroke:none"/><path d="M20 24v1h1v-1zM72 18h-3v-1h-2v-1h-1v-1h-3v-1h-3v-1h-5v-1H44v1h-5v1h-3v1h-3v1h-2v1h-2v1h-1v1h-2v1h-1v1h-2v1h-1v1h-1v1h2v-1h2v-1h2v-1h3v-1h2v-1h4v-1h4v-1h9v-1h1v1h1v-1h1v1h7v1h5v1h3v1h2v1h3v1h2v1h2v1h2v-1h-1v-1h-1v-1h-1v-1h-2v-1h-1zM21 75v1h1v-1zM46 82h-7v-1h-4v-1h-3v-1h-3v-1h-2v-1h-2v-1h-3v1h1v1h1v1h2v1h1v1h2v1h2v1h2v1h2v1h3v1h5v1h13v-1h5v-1h3v-1h2v-1h2v-1h2v-1h2v-1h1v-1h2v-1h1v-1h1v-1h-3v1h-2v1h-2v1h-3v1h-3v1h-4v1h-6v1h-8zM77 76h1v-1h-1zM78 24v1h1v-1z" style="fill:#1f0a19;fill-opacity:1;stroke:none"/><path d="M25 50v-1h-1v1zM24 54v1h6v-1zM30 35v-1h-4v1zM32 49v-1h-1v1zM40 35v-1h-4v1zM45 54h-9v1h9zM42 43v-1h-1v1zM42 45h-1v3h1zM48 34v1h4v-1zM55 54v1h8v-1zM59 34v1h4v-1zM59 60h1v-1h-1zM61 45h1v-1h-1zM65 59v1h1v-1zM67 37h-1v1h1zM69 34v1h5v-1zM69 54v1h6v-1zM74 49v1h2v-1zM77 52h1v-1h-1zM88 43v1h1v-1zM88 46h1v-1h-1zM89 50v-1h-1v1zM89 51h-1v1h1z" style="fill:#21071a;fill-opacity:1;stroke:none"/><path d="M25 51v-1h-1v1zM40 50h1V37h-1zM53 39h1v-1h-1zM59 50h1v-1h-1zM61 40h-1v1h1zM63 58v-1h-3v1zM62 47v-1h-1v1zM62 43v1h1v-1zM64 57v1h2v-1zM72 41h-1v1h1zM75 58v-1h-4v1zM72 49h1v-1h-1zM75 51v-1h-1v1zM77 51h-1v1h1z" style="fill:#361c30;fill-opacity:1;stroke:none"/><path d="M24 52h1v-1h-1zM29 53v-1h-4v1zM37 36h-1v1h1zM37 52v1h8v-1zM53 40v1h1v-1zM63 53v-1h-8v1zM59 38h1v-1h-1zM61 49h-1v1h1zM62 41v-1h-1v1zM67 41v-1h-1v1zM71 42v-1h-1v1zM70 52v1h5v-1z" style="fill:#90848d;fill-opacity:1;stroke:none"/><path d="M24 52v1h1v-1zM27 36h-1v1h1zM29 37h1v-1h-1zM29 52v1h1v-1zM35 46v1h1v-1zM36 53h1v-1h-1zM42 49v1h1v-1zM46 43v-1h-1v1zM48 37h1v-1h-1zM51 36v1h1v-1zM55 43v-1h-1v1zM58 49h-1v1h1zM59 37h1v-1h-1zM68 38h1v-1h-1zM70 36h-1v1h1zM73 38h-1v1h1zM76 51h-1v1h1z" style="fill:#857781;fill-opacity:1;stroke:none"/><path d="M26 37h-1v13h1zM30 42h1v-5h-1zM31 47h-1v5h1zM31 42v1h1v-1zM35 42h-2v1h2zM35 36v1h1v-1zM35 53h1v-1h-1zM40 51h1v-1h-1zM45 43h-1v1h1zM47 36v1h1v-1zM52 36v1h1v-1zM55 44h1v-1h-1zM58 37h1v-1h-1zM59 39h1v-1h-1zM66 39v1h1v-1zM69 36h-1v1h1zM70 42v1h1v-1zM73 40v-1h-1v1z" style="fill:#442d3e;fill-opacity:1;stroke:none"/><path d="M26 50h-1v1h1zM32 42v1h1v-1zM36 37h-1v5h1zM35 52h1v-5h-1zM41 50v1h1v-1zM43 48h-1v1h1zM45 41v1h1v-1zM54 42h1v-1h-1zM57 48v1h1v-1zM59 50h-1v1h1zM61 48h-1v1h1zM61 41v1h1v-1zM63 46v-1h-1v1zM64 52h-1v1h1zM65 49v1h1v-1zM71 48h1v-1h-1zM74 50h-1v1h1z" style="fill:#513b4b;fill-opacity:1;stroke:none"/><path d="M25 51v1h1v-1zM40 37h-1v14h1zM42 52v-1h-2v1zM45 45h-1v1h1zM45 52h1v-1h-1zM49 44h-1v1h1zM51 44v1h1v-1zM52 39h1v-1h-1zM55 52v-1h-1v1zM55 45v1h1v-1zM59 52v-1h-1v1zM67 40h1v-1h-1zM75 52v-1h-1v1z" style="fill:#aaa1a8;fill-opacity:1;stroke:none"/><path d="M27 37h-1v14h1zM29 47h1v-1h-1zM30 44h6v-1h-6zM43 49h1v-1h-1zM47 42v-1h-1v1zM54 41h-1v1h1zM57 49v-1h-1v1zM60 52v-1h-1v1zM64 37h-1v1h1zM64 50h1v-1h-1zM66 41v-1h-1v1zM67 48v1h1v-1zM68 39h1v-1h-1zM68 44v1h1v-1zM69 52h1v-1h-1zM71 47h-1v1h1z" style="fill:#c5c0c4;fill-opacity:1;stroke:none"/><path d="M27 52v-1h-1v1zM36 43h1v-6h-1zM36 46v6h1v-6zM40 51h-1v1h1zM44 47h1v-1h-1zM46 50h-1v1h1zM48 39h-1v1h1zM53 49v-1h-6v1zM48 44h1v-1h-1zM51 42v-1h-2v1zM51 44h1v-1h-1zM53 40v-1h-1v1zM54 51h1v-1h-1zM56 47v-1h-1v1zM60 51h1v-1h-1zM61 39v1h1v-1zM62 48h1v-1h-1zM66 47h-1v1h1zM69 43h-1v1h1zM70 41h1v-1h-1zM72 37v1h1v-1z" style="fill:#d2cfd1;fill-opacity:1;stroke:none"/><path d="M29 37v-1h-2v1zM39 37v-1h-2v1zM43 47v1h1v-1zM46 40v1h1v-1zM49 45h-1v1h1zM51 36h-2v1h2zM52 46v-1h-1v1zM56 48h1v-1h-1zM60 37h3v-1h-3zM62 47h1v-1h-1zM73 37v-1h-3v1z" style="fill:#988c95;fill-opacity:1;stroke:none"/><path d="M29 38v-1h-2v1zM29 52v-1h-1v1zM34 44v1h2v-1zM37 37v1h1v13h1V37zM38 51h-1v1h1zM44 51v1h1v-1zM55 52h1v-1h-1zM62 38h1v-1h-1zM71 52v-1h-1v1zM71 38h1v-1h-1z" style="fill:#e6e7e6;fill-opacity:1;stroke:none"/><path d="M27 52h1v-1h1v-5h-1v-3h1v-5h-2zM34 45v-1h-4v1zM37 42h1v-4h-1zM37 51h1v-4h-1zM39 52v-1h-1v1zM44 52v-2h-1v2zM45 49v-1h-1v1zM46 45h-1v1h1zM48 43h-2v1h1v1h1zM47 41v1h1v-1zM49 38h-1v1h1zM48 47v1h4v-1zM49 37v1h2v-1zM52 39v-1h-1v1zM52 41v1h1v-1zM53 45v-1h-1v1zM53 43v1h1v-1zM55 46v-1h-1v1zM55 49h1v-1h-1zM56 52h1v-2h-1zM60 51v1h1v-1zM61 37v2h1v-2zM63 48h-1v1h1zM63 51h-1v1h1zM64 42v-1h-1v1zM64 50v-1h-1v1zM65 40h-1v1h1zM68 40h1v-1h-1zM68 42v1h1v-1zM69 48h-1v1h1zM69 38v1h1v-1zM69 48h1v-1h-1zM70 37v1h1v-1zM71 40v-1h-1v1zM72 50h-1v2h1z" style="fill:#e5e5e5;fill-opacity:1;stroke:none"/><path d="M28 43v3h1v-1h1v-1h-1v-1zM37 42v2h-1v2h1v1h1v-5zM46 46h-1v1h-1v1h1v1h-2v1h1v1h1v-1h1v-2h2v-2h-1v-2h-1zM49 38v1h-1v1h-1v1h1v1h-1v1h2v-2h2v2h1v1h1v-2h-1v-1h1v-1h-1v-1h-1v-1zM52 48h2v2h1v1h1v-2h-1v-1h1v-1h-1v-1h-1v-2h-1v2h-1zM60 37v1h1v-1zM63 51v-2h-2v3h1v-1zM64 41v-3h-2v3zM69 41h1v-2h-1v1h-1v1h-1v1h-2v-1h-1v2h1v2h-1v1h-1v3h2v-2h2v1h2v-3h-1v-3h1zM71 48h-2v3h2zM70 38v1h1v-1zM73 52v-1h-1v1z" style="fill:#e3e3e3;fill-opacity:1;stroke:none"/><path d="M29 37v6h1v-6zM29 47v5h1v-5zM42 51h1v-1h-1zM45 43v1h1v-1zM55 44v-1h-1v1zM57 50v1h1v-1zM61 39v-1h-1v1zM62 49v-1h-1v1zM62 41v1h1v-1zM63 46h1v-1h-1zM67 47h-1v1h1zM69 43h1v-1h-1zM72 40v-1h-1v1zM72 50v1h1v-1zM73 52h1v-1h-1z" style="fill:#bbb4b9;fill-opacity:1;stroke:none"/><path d="M30 44v-1h-1v1zM36 46v-1h-6v1zM46 44h-1v1h1zM47 49v-1h-1v1zM48 37v1h1v-1zM52 46h-4v1h4zM52 37h-1v1h1zM53 49h1v-1h-1zM54 45h1v-1h-1zM58 52v-1h-1v1zM63 43h1v-1h-1zM64 51v-1h-1v1zM65 40v-1h-1v1zM65 44h-1v1h1zM67 41h-1v1h1zM67 40v1h1v-1zM68 49v1h1v-1zM70 46h-1v1h1zM72 49h-1v1h1z" style="fill:#dcdbdc;fill-opacity:1;stroke:none"/><path d="M29 45v1h1v-1zM37 43h-1v1h1zM43 51h-1v1h1zM46 42v1h1v-1zM47 46h1v-1h-1zM52 45v1h1v-1zM54 42h-1v1h1zM56 49v1h1v-1zM64 44h1v-1h-1zM66 42v-1h-1v1zM70 38v-1h-1v1zM70 41h-1v1h1zM72 39v-1h-1v1z" style="fill:#e1e0e1;fill-opacity:1;stroke:none"/><path d="M31 42h-1v1h1zM53 50v-1h-6v1zM65 38v-1h-1v1zM67 38v1h1v-1zM68 51v1h1v-1zM70 44h-1v1h1z" style="fill:#584352;fill-opacity:1;stroke:none"/><path d="M30 46v1h5v-1zM39 37h1v-1h-1zM44 45h1v-1h-1zM48 38v-1h-1v1zM49 45v1h2v-1zM53 37h-1v1h1zM55 44v1h1v-1zM60 50h-1v1h1zM61 47v1h1v-1zM63 43v-1h-1v1zM64 37v-1h-1v1zM63 45h1v-1h-1zM64 50v1h1v-1zM65 39v1h1v-1zM68 49h-1v1h1zM70 43h-1v1h1zM70 53v-1h-1v1zM71 47v-1h-1v1zM72 50h1v-1h-1zM73 37h1v-1h-1zM76 53v-1h-1v1z" style="fill:#71606d;fill-opacity:1;stroke:none"/><path d="M36 43v-1h-1v1zM43 47h1v-1h-1zM46 53v-1h-1v1zM46 40h1v-1h-1zM46 50v1h1v-1zM51 44v-1h-2v1zM53 39v1h1v-1zM54 50h-1v1h1zM54 53h1v-1h-1zM56 47h1v-1h-1zM61 40v-1h-1v1zM67 48h-1v1h1zM72 40h-1v1h1zM73 37v1h1v-1z" style="fill:#624f5d;fill-opacity:1;stroke:none"/><path d="M46 50h1v-1h-1zM49 43h2v-1h-2zM53 49v1h1v-1zM64 43h-1v1h1zM65 49h1v-1h-1zM71 49h1v-1h-1z" style="fill:#9b9098;fill-opacity:1;stroke:none"/><path d="M47 38v1h1v-1zM63 52h1v-1h-1zM64 38v1h1v-1zM69 51v-1h-1v1zM70 46v-1h-1v1z" style="fill:#a399a0;fill-opacity:1;stroke:none"/></svg>