<svg width="96" height="96" xmlns="http://www.w3.org/2000/svg"><path d="M1 42h1v-1H1zM2 36v1h1v-1zM4 31h1v-1H4zM8 71H7v1h1zM9 75h1v-1H9zM12 18h-1v1h1zM13 79v1h1v-1zM14 80v1h1v-1zM15 81v1h1v-1zM17 83v-1h-1v1zM25 8V7h-1v1zM29 5h-1v1h1zM32 91h-1v1h1zM35 93v-1h-1v1zM37 3h1V2h-1zM38 94h1v-1h-1zM45 2V1h-1v1zM52 2V1h-2v1zM56 94h1v-1h-1zM62 3h-1v1h1zM64 5h1V4h-1zM73 86v1h1v-1zM78 84v-1h-1v1zM83 78h1v-1h-1zM85 20v-1h-1v1zM91 33h1v-1h-1zM94 41v-1h-1v1zM93 55v1h1v-1z" style="fill:#220925;fill-opacity:.063;stroke:none"/><path d="M1 43h1v-1H1zM2 54v-1H1v1zM3 34h1v-1H3zM3 63h1v-1H3zM5 67v1h1v-1zM6 70h1v-1H6zM8 25v-1H7v1zM13 17h-1v1h1zM18 12h-1v1h1zM21 9v1h1V9zM24 87h-1v1h1zM26 6v1h1V6zM45 1v1h5V1zM57 2v1h1V2zM60 93h1v-1h-1zM64 91h-1v1h1zM67 6V5h-1v1zM71 8V7h-1v1zM76 11v1h1v-1zM79 83v-1h-1v1zM83 79v-1h-1v1zM83 19h1v-1h-1zM86 23h1v-1h-1z" style="fill:#220925;fill-opacity:.098;stroke:none"/><path d="M2 44v-1H1v1zM2 53v-1H1v1zM2 58v1h1v-1zM6 29v-1H5v1zM7 26H6v1h1zM10 21H9v1h1zM14 16h-1v1h1zM14 16h1v-1h-1zM15 14v1h1v-1zM17 14v-1h-1v1zM21 86v-1h-1v1zM30 91v-1h-1v1zM39 93v1h1v-1zM56 93h-1v1h1zM69 6h-1v1h1zM74 10V9h-1v1zM77 12v1h1v-1zM79 82h1v-1h-1zM81 81v-1h-1v1zM81 79v1h1v-1zM86 74h-1v1h1zM88 71h-1v1h1zM91 66v-1h-1v1zM93 37v-1h-1v1zM92 59v1h1v-1zM93 42h1v-1h-1zM94 55v-1h-1v1z" style="fill:#220925;fill-opacity:.145;stroke:none"/><path d="M2 44H1v1h1zM2 52v-1H1v1zM2 37v1h1v-1zM10 76h1v-1h-1zM26 88h-1v1h1zM28 89h-1v1h1zM32 5V4h-1v1zM34 3v1h1V3zM35 92v1h1v-1zM39 3V2h-1v1zM56 2v1h1V2zM60 3v1h1V3zM65 91h1v-1h-1zM71 88h1v-1h-1zM74 85v1h1v-1zM79 13h-1v1h1zM83 17h-1v1h1zM88 24h-1v1h1zM89 70v-1h-1v1zM90 68v-1h-1v1zM91 31v-1h-1v1zM92 63v-1h-1v1zM93 42v1h1v-1zM93 53v1h1v-1z" style="fill:#220925;fill-opacity:.204;stroke:none"/><path d="M1 51h1v-6H1zM3 58v-1H2v1zM4 62v-1H3v1zM4 65h1v-1H4zM9 73v-1H8v1zM20 84h-1v1h1zM21 10h-1v1h1zM24 8h-1v1h1zM33 91h-1v1h1zM40 94h1v-1h-1zM55 93h-1v1h1zM60 92h-1v1h1zM64 5V4h-1v1zM67 90h1v-1h-1zM69 89h1v-1h-1zM80 15v-1h-1v1zM81 16v-1h-1v1zM82 17v-1h-1v1zM85 21v1h1v-1zM89 26h-1v1h1zM90 28h-1v1h1zM91 33v1h1v-1zM93 59v-1h-1v1zM94 43h-1v1h1zM93 53h1v-1h-1z" style="fill:#220925;fill-opacity:.271;stroke:none"/><path d="M1 55h1v-1H1zM3 60v-1H2v1zM4 66h1v-1H4zM9 22H8v1h1zM12 77h-1v1h1zM13 79v-1h-1v1zM18 84v-1h-1v1zM19 12v-1h-1v1zM21 86v1h1v-1zM26 89v1h1v-1zM30 4v1h1V4zM34 3h-1v1h1zM42 2h2V1h-2zM46 95h4v-1h-4zM52 1v1h1V1zM58 3h1V2h-1zM67 90h-1v1h1zM69 90v-1h-1v1zM70 89h1v-1h-1zM72 8v1h1V8zM76 10h-1v1h1zM77 85v-1h-1v1zM87 73h-1v1h1zM89 25h-1v1h1zM89 27v1h1v-1zM90 29v1h1v-1zM92 63h-1v1h1zM93 36v-1h-1v1zM92 61h1v-1h-1zM93 40h1v-1h-1z" style="fill:#220925;fill-opacity:.027;stroke:none"/><path d="M3 39v-1H2v1zM3 34v1h1v-1zM5 32v-1H4v1zM9 24v-1H8v1zM11 20h-1v1h1zM11 77h1v-1h-1zM22 87h1v-1h-1zM29 5v1h1V5zM39 2v1h1V2zM56 2h-1v1h1zM63 92v-1h-1v1zM71 9h1V8h-1zM75 10h-1v1h1zM84 75v1h1v-1zM92 37v1h1v-1zM94 52v-1h-1v1z" style="fill:#220925;fill-opacity:.341;stroke:none"/><path d="M3 40v-1H2v1zM3 56H2v1h1zM5 29v1h1v-1zM7 26h1v-1H7zM9 73v1h1v-1zM12 19h-1v1h1zM12 78h1v-1h-1zM19 12h1v-1h-1zM30 90v1h1v-1zM33 5V4h-1v1zM41 2h-1v1h1zM42 93v1h1v-1zM53 94v-1h-1v1zM54 3h1V2h-1zM58 93h1v-1h-1zM60 4V3h-1v1zM67 7h1V6h-1zM70 7h-1v1h1zM73 86h-1v1h1zM84 77v-1h-1v1zM84 21h1v-1h-1zM87 24v-1h-1v1zM90 32h1v-1h-1zM92 35v-1h-1v1zM92 61h-1v1h1zM92 58h1v-1h-1zM93 46v4h1v-4z" style="fill:#220925;fill-opacity:.478;stroke:none"/><path d="M3 41v-1H2v1zM2 55v1h1v-1zM4 32v1h1v-1zM9 23h1v-1H9zM12 18v1h1v-1zM15 80v-1h-1v1zM15 81h1v-1h-1zM17 82v-1h-1v1zM18 13h1v-1h-1zM21 85v1h1v-1zM26 89h1v-1h-1zM29 90v-1h-1v1zM36 3v1h1V3zM38 93v-1h-1v1zM45 93h-1v1h1zM50 93v1h1v-1zM54 3V2h-1v1zM57 93h1v-1h-1zM62 91h-1v1h1zM70 87v1h1v-1zM72 10h1V9h-1zM78 83v-1h-1v1zM83 77h-1v1h1zM83 20h1v-1h-1zM86 73h-1v1h1zM87 26h1v-1h-1zM90 29h-1v1h1zM93 56h-1v1h1z" style="fill:#220925;fill-opacity:.631;stroke:none"/><path d="M3 41H2v1h1zM2 54v1h1v-1zM3 37h1v-1H3zM4 59H3v1h1zM5 62H4v1h1zM6 30H5v1h1zM7 68v-1H6v1zM8 69H7v1h1zM8 24v1h1v-1zM14 16v1h1v-1zM15 15v1h1v-1zM16 15h1v-1h-1zM21 85v-1h-1v1zM22 11v-1h-1v1zM27 7h-1v1h1zM28 7h1V6h-1zM32 91v-1h-1v1zM35 91h-1v1h1zM38 4V3h-1v1zM39 92h-1v1h1zM45 3V2h-2v1zM51 2v1h1V2zM57 92h-1v1h1zM61 4v1h1V4zM70 9h1V8h-1zM78 13h-1v1h1zM80 80h-1v1h1zM81 80v-1h-1v1zM82 18v1h1v-1zM86 23v-1h-1v1zM91 32h-1v1h1zM92 36v-1h-1v1zM93 40h-1v1h1zM92 55v1h1v-1z" style="fill:#220925;fill-opacity:.788;stroke:none"/><path d="M3 42H2v1h1zM3 53H2v1h1zM4 33v1h1v-1zM6 28v1h1v-1zM8 26H7v1h1zM11 22v-1h-1v1zM11 76h1v-1h-1zM23 86v1h1v-1zM51 3V2h-6v1zM58 3h-1v1h1zM60 91v1h1v-1zM63 91h1v-1h-1zM67 7V6h-1v1zM68 8h1V7h-1zM73 10v1h1v-1zM79 15v-1h-1v1zM79 16h1v-1h-1zM81 16h-1v1h1zM81 18h1v-1h-1zM85 74h-1v1h1zM86 72h1v-1h-1zM89 66h1v-1h-1zM92 60v-1h-1v1zM92 54v1h1v-1z" style="fill:#220925;fill-opacity:.855;stroke:none"/><path d="M3 44v-1H2v1zM2 53h1v-1H2zM3 37v1h1v-1zM4 59v-1H3v1zM10 73v-1H9v1zM20 84v-1h-1v1zM21 12v-1h-1v1zM25 88h1v-1h-1zM27 88v1h1v-1zM29 89v1h1v-1zM31 6h1V5h-1zM35 4h-1v1h1zM39 4V3h-1v1zM39 93h1v-1h-1zM56 92h-1v1h1zM66 90v-1h-1v1zM71 87h1v-1h-1zM74 85h1v-1h-1zM85 22v-1h-1v1zM86 25h1v-1h-1zM87 70h1v-1h-1zM89 67h-1v1h1zM90 31v-1h-1v1zM90 62v1h1v-1zM92 36h-1v1h1zM93 42v-1h-1v1z" style="fill:#220925;fill-opacity:.914;stroke:none"/><path d="M3 46v-2H2v2zM3 50H2v2h1zM4 62h1v-1H4zM5 65h1v-1H5zM10 23H9v1h1zM12 21v-1h-1v1zM13 77v-1h-1v1zM19 82h-1v1h1zM23 86v-1h-1v1zM23 9v1h1V9zM33 91v-1h-1v1zM35 91v1h1v-1zM40 92v1h1v-1zM55 93v-1h-1v1zM57 4V3h-1v1zM59 92h1v-1h-1zM61 5V4h-1v1zM64 6V5h-1v1zM68 89v-1h-1v1zM69 87v1h1v-1zM76 84v-1h-1v1zM83 75v1h1v-1zM88 26h-1v1h1zM89 28h-1v1h1zM91 33h-1v1h1zM92 58h-1v1h1zM92 43h1v-1h-1zM93 53h-1v1h1z" style="fill:#220925;fill-opacity:.957;stroke:none"/><path d="M3 46H2v4h1zM3 39h1v-1H3zM4 57H3v1h1zM4 34v1h1v-1zM4 41v3h1v-3zM5 54v-2H4v2zM6 31H5v1h1zM5 38h1v-2H5zM5 59h1v-2H5zM7 34v-1H6v1zM7 62v-1H6v1zM6 66v1h1v-1zM8 32v-1H7v1zM7 63v1h1v-1zM9 29H8v1h1zM9 66v-1H8v1zM8 71h1v-1H8zM10 27H9v1h1zM10 67H9v1h1zM11 25h-1v1h1zM11 69h-1v1h1zM11 25h1v-1h-1zM12 70h-1v1h1zM13 19h-1v1h1zM12 23h1v-1h-1zM12 72v1h1v-1zM13 22h1v-1h-1zM13 74h1v-1h-1zM14 77h-1v1h1zM15 20h-1v1h1zM14 75h1v-1h-1zM15 19v1h1v-1zM15 76h1v-1h-1zM17 19v-1h-1v1zM16 76v1h1v-1zM17 18h1v-1h-1zM17 77v1h1v-1zM18 81h-1v1h1zM19 16h-1v1h1zM18 79h1v-1h-1zM20 12h-1v1h1zM19 15v1h1v-1zM19 79v1h1v-1zM22 14h-1v1h1zM23 13h-1v1h1zM22 81v1h1v-1zM24 13h1v-1h-1zM26 8h-1v1h1zM25 11v1h2v-1zM26 83h-1v1h1zM27 7v1h1V7zM29 11v-1h-2v1zM27 85h1v-1h-1zM30 6h-1v1h1zM31 9h-1v1h1zM32 9h2V8h-2zM33 86h-1v1h1zM37 8V7h-2v1zM35 87v1h2v-1zM40 4V3h-1v1zM39 88v1h3v-1zM40 6v1h3V6zM52 4V3h-2v1zM52 6v1h3V6zM53 89h2v-1h-2zM56 3h-1v1h1zM57 4v1h2V4zM58 7v1h2V7zM60 88v-1h-1v1zM62 6h1V5h-1zM63 9V8h-1v1zM62 87h1v-1h-1zM63 90h-1v1h1zM64 10h1V9h-1zM66 85h-1v1h1zM67 11h1v-1h-1zM67 85h1v-1h-1zM69 11v1h1v-1zM70 83h-1v1h1zM71 12h-1v1h1zM71 9v1h1V9zM73 13h-1v1h1zM72 81v1h1v-1zM73 86v-1h-1v1zM73 15h1v-1h-1zM75 12v-1h-1v1zM76 16v-1h-1v1zM76 79h-1v1h1zM76 16v1h1v-1zM77 79v-1h-1v1zM77 17v1h1v-1zM77 77v1h1v-1zM78 19h1v-1h-1zM78 76v1h1v-1zM79 20h1v-1h-1zM80 75h-1v1h1zM79 79v1h1v-1zM81 21v-1h-1v1zM80 74v1h1v-1zM82 21h-1v1h1zM81 74h1v-1h-1zM82 23h1v-1h-1zM82 73h1v-1h-1zM83 76h-1v1h1zM84 20h-1v1h1zM83 24v1h1v-1zM84 25v1h1v-1zM84 70h1v-1h-1zM85 28h1v-1h-1zM86 73v-1h-1v1zM88 32v-1h-1v1zM88 34h1v-1h-1zM88 61v1h1v-1zM90 37v-1h-1v1zM89 59h1v-1h-1zM91 40h-1v2h1zM90 53v2h1v-2zM91 38h1v-1h-1zM91 40h1v-1h-1zM93 43h-1v1h1zM92 52v1h1v-1z" style="fill:#230b28;fill-opacity:.996;stroke:none"/><path d="M4 36v-1H3v1zM4 60H3v1h1zM5 64v-1H4v1zM7 28v-1H6v1zM13 79h1v-1h-1zM17 83h1v-1h-1zM22 10h1V9h-1zM25 87h-1v1h1zM34 92v-1h-1v1zM42 3V2h-1v1zM44 94v-1h-1v1zM52 94v-1h-1v1zM62 4v1h1V4zM65 91v-1h-1v1zM75 12h1v-1h-1zM77 84v-1h-1v1zM88 71v-1h-1v1zM89 68h-1v1h1zM90 67v-1h-1v1zM93 38h-1v1h1z" style="fill:#220925;fill-opacity:.553;stroke:none"/><path d="M11 22h-1v2H9v1H8v2H7v2H6v3H5v3H4v4H3v18h1v4h1v3h1v2h1v3h1v1h1v2h1v2h1v1h1v1h1v1h1v2h1v1h1v1h2v1h1v1h1v1h1v1h2v1h1v1h2v1h2v1h2v1h3v1h3v1h5v1h13v-1h5v-1h3v-1h3v-1h2v-1h2v-1h2v-1h1v-1h2v-1h1v-1h2v-1h1v-1h1v-2h2v-1h1v-2h1v-1h1v-1h1v-2h1v-1h1v-2h1v-2h1v-2h1v-3h1v-4h1v-6h1v-8h-1v-4h-1v-1h1v-1h-1v-4h-1v-3h-1v-2h-1v-2h-1v-2h-1v-2h-1v-1h-1v-1h-1v-2h-1v-1h-1v-1h-1v-1h-1v-1h-1v-1h-1v-1h-1v-1h-2v-1h-1v-1h-2V9h-1V8h-2V7h-2V6h-4V5h-2V4h-1v1h-2V4h-2V3h-3v1h-2V3H40v1h-5v1h-3v1h-2v1h-2v1h-2v1h-2v1h-2v1h-1v1h-1v1h-2v1h-1v1h-1v1h-1v1h-1v1h-1v2h-1v1h-1zm-3 9v-2h1v-2h1v-2h1v-1h1v-2h1v-1h1v-1h1v-1h1v-1h1v-1h1v-1h1v-1h2v-1h1v-1h2v-1h1v-1h2v-1h3V9h2V8h3V7h5V6h15v1h5v1h3v1h2v1h3v1h2v1h1v1h2v1h1v1h2v1h1v1h1v1h1v1h1v1h1v1h1v1h1v2h1v1h1v2h1v2h1v2h1v2h1v3h1v4h1v15h-1v4h-1v3h-1v2h-1v2h-1v2h-1v2h-1v1h-1v2h-1v1h-1v1h-1v1h-1v1h-1v1h-1v1h-1v1h-2v1h-1v1h-2v1h-1v1h-2v1h-2v1h-3v1h-3v1h-5v1H39v-1h-4v-1h-3v-1h-2v-1h-3v-1h-2v-1h-1v-1h-2v-1h-1v-1h-2v-1h-1v-1h-1v-1h-1v-1h-1v-1h-1v-1h-1v-1h-1v-2h-1v-1h-1v-2H9v-2H8v-2H7v-2H6v-3H5v-5H4V41h1v-5h1v-3h1v-2z" style="fill:#220925;fill-opacity:1;stroke:none"/><path d="M4 44v3h1v-3zM4 52h1v-3H4zM6 38H5v1h1zM7 34H6v1h1zM6 60v1h1v-1zM10 43v-1H9v1zM11 26h-1v1h1zM12 24h1v-1h-1zM12 63h1v-1h-1zM13 72v-1h-1v1zM14 65v-1h-1v1zM18 72h1v-1h-1zM20 16h1v-1h-1zM21 81h1v-1h-1zM24 13h-1v1h1zM25 82h-1v1h1zM26 78v-1h-1v1zM27 84v-1h-1v1zM28 17v-1h-1v1zM29 84h-1v1h1zM30 85v1h1v-1zM32 15v-1h-1v1zM34 87v-1h-1v1zM37 7v1h1V7zM40 83v1h1v-1zM43 11h-1v1h1zM43 89v-1h-1v1zM43 6v1h9V6zM52 88v1h1v-1zM55 84v-1h-1v1zM57 8h1V7h-1zM59 87h-1v1h1zM62 9V8h-1v1zM64 85v1h1v-1zM67 11v-1h-1v1zM69 12v-1h-1v1zM71 82h-1v1h1zM73 75h-1v1h1zM74 81v-1h-1v1zM75 16v-1h-1v1zM75 21h-1v1h1zM75 23h1v-1h-1zM76 24h1v-1h-1zM78 69v1h1v-1zM83 34v1h1v-1zM83 70v1h1v-1zM86 68v-1h-1v1zM87 30v-1h-1v1zM87 65h-1v1h1zM88 64v-1h-1v1zM88 34v1h1v-1zM90 38v-1h-1v1zM89 57v1h1v-1zM91 42h-1v1h1zM91 53v-1h-1v1z" style="fill:#28122b;fill-opacity:1;stroke:none"/><path d="M4 49h1v-2H4zM5 56v1h1v-1zM8 33v-1H7v1zM7 63h1v-1H7zM9 29h1v-1H9zM9 42h1v-1H9zM10 53H9v1h1zM11 57h-1v1h1zM11 69v-1h-1v1zM12 60h-1v1h1zM13 32h-1v1h1zM13 22v1h1v-1zM14 31v-1h-1v1zM15 67v-1h-1v1zM17 70v1h1v-1zM19 24v-1h-1v1zM19 17h1v-1h-1zM20 22h-1v1h1zM20 21v1h1v-1zM20 80h1v-1h-1zM22 74h-1v1h1zM23 76v-1h-1v1zM32 10V9h-1v1zM33 14h1v-1h-1zM35 8h-1v1h1zM37 13v-1h-1v1zM38 88v-1h-1v1zM38 7v1h1V7zM42 11h-1v1h1zM43 89h2v-1h-2zM51 88v1h1v-1zM53 12h1v-1h-1zM55 83v1h1v-1zM59 13v-1h-1v1zM60 83v-1h-1v1zM62 13h-1v1h1zM61 86v1h1v-1zM63 10h1V9h-1zM64 81h1v-1h-1zM66 79v1h1v-1zM67 85v-1h-1v1zM68 83v1h1v-1zM70 18v-1h-1v1zM72 14v-1h-1v1zM73 21h1v-1h-1zM77 24v1h1v-1zM81 28h-1v1h1zM82 24h1v-1h-1zM84 26v1h1v-1zM85 58h-1v1h1zM86 40h-1v1h1zM85 55h1v-1h-1zM88 61h1v-1h-1zM90 44h1v-1h-1zM90 51v1h1v-1z" style="fill:#2c162f;fill-opacity:1;stroke:none"/><path d="M5 39v1h1v-1zM6 35v1h1v-1zM6 60h1v-1H6zM9 30H8v1h1zM9 64H8v1h1zM9 67h1v-1H9zM12 25h-1v1h1zM11 34v1h1v-1zM14 73v-1h-1v1zM14 22h1v-1h-1zM17 70v-1h-1v1zM18 17v1h1v-1zM20 79v-1h-1v1zM21 20v1h1v-1zM24 81h-1v1h1zM25 12v1h1v-1zM26 18v-1h-1v1zM29 79h-1v1h1zM29 11h1v-1h-1zM30 80v1h1v-1zM36 82h-1v1h1zM40 84v-1h-1v1zM51 89v-1h-6v1zM55 12v-1h-1v1zM56 7v1h1V7zM57 87v1h1v-1zM61 8h-1v1h1zM62 82h1v-1h-1zM68 78v1h1v-1zM72 77v-1h-1v1zM73 20v-1h-1v1zM74 79v1h1v-1zM75 17h1v-1h-1zM78 25v1h1v-1zM80 68h-1v1h1zM81 23h1v-1h-1zM83 64v-1h-1v1zM83 72v-1h-1v1zM84 36v1h1v-1zM85 68h-1v1h1zM86 56v-1h-1v1zM87 33h1v-1h-1zM89 38v1h1v-1zM90 57v-1h-1v1zM90 44v7h1v-7z" style="fill:#2f1b34;fill-opacity:1;stroke:none"/><path d="M5 40v1h1v-1zM7 36H6v1h1zM7 34h1v-1H7zM9 55v1h1v-1zM10 37h1v-1h-1zM11 61v1h1v-1zM12 70v-1h-1v1zM13 63h-1v1h1zM15 69h1v-1h-1zM15 75h1v-1h-1zM17 26v-1h-1v1zM18 78h1v-1h-1zM26 83v-1h-1v1zM29 16v-1h-1v1zM29 40v1h1v-1zM29 84v1h1v-1zM30 14v1h1v-1zM33 9h-1v1h1zM36 8h-1v1h1zM36 12h-1v1h1zM38 84h1v-1h-1zM40 12v-1h-1v1zM39 49h1v-1h-1zM45 85h5v-1h-5zM56 12v-1h-1v1zM57 88v-1h-1v1zM60 9V8h-1v1zM59 13h1v-1h-1zM60 82v1h1v-1zM61 87v-1h-1v1zM62 13v1h1v-1zM67 11v1h1v-1zM69 16h-1v1h1zM70 46h-1v1h1zM70 77v1h1v-1zM72 19v-1h-1v1zM73 15v-1h-1v1zM76 79v-1h-1v1zM77 17h-1v1h1zM78 18h-1v1h1zM79 21h1v-1h-1zM80 27v-1h-1v1zM81 21h-1v1h1zM82 29h-1v1h1zM82 73v-1h-1v1zM84 26v-1h-1v1zM84 60h1v-1h-1zM86 66h-1v1h1zM86 49h1v-2h-1zM87 65v-1h-1v1zM89 60v-1h-1v1zM90 39h-1v1h1z" style="fill:#37233d;fill-opacity:1;stroke:none"/><path d="M6 42v-1H5v1zM6 53H5v1h1zM8 32h1v-1H8zM8 46v3h1v-3zM10 30v-1H9v1zM9 56v1h1v-1zM11 60v-1h-1v1zM10 68h1v-1h-1zM13 29v1h1v-1zM14 67v1h1v-1zM19 72h-1v1h1zM20 74v-1h-1v1zM20 75h1v-1h-1zM24 13v1h1v-1zM27 80h1v-1h-1zM30 81v-1h-1v1zM30 10v1h1v-1zM31 82h1v-1h-1zM36 87v-1h-1v1zM36 8v1h1V8zM38 84v-1h-1v1zM39 12v-1h-1v1zM42 7h-1v1h1zM43 84v1h1v-1zM46 10v1h4v-1zM51 84v1h2v-1zM56 87h-1v1h1zM61 13v-1h-1v1zM64 82v-1h-1v1zM68 84v-1h-1v1zM70 17v1h1v-1zM74 76v-1h-1v1zM75 22h1v-1h-1zM77 23v-1h-1v1zM76 78h1v-1h-1zM77 76v1h1v-1zM79 71v-1h-1v1zM80 74h-1v1h1zM80 28h1v-1h-1zM82 64v1h1v-1zM84 63v-1h-1v1zM84 70v-1h-1v1zM87 43h-1v1h1zM87 51h-1v1h1z" style="fill:#3f2a47;fill-opacity:1;stroke:none"/><path d="M6 42H5v1h1zM5 52v1h1v-1zM7 38v-1H6v1zM8 34H7v1h1zM9 64v-1H8v1zM10 65H9v1h1zM12 70v1h1v-1zM14 23h-1v1h1zM20 16v1h1v-1zM21 20h-1v1h1zM21 80h1v-1h-1zM25 82v-1h-1v1zM27 12h-1v1h1zM27 15v1h1v-1zM28 11v1h1v-1zM32 85v1h1v-1zM34 9h-1v1h1zM34 83v-1h-1v1zM37 84v-1h-1v1zM41 87h-1v1h1zM42 7v1h1V7zM54 8V7h-2v1zM55 88v-1h-1v1zM59 8h-1v1h1zM59 87h1v-1h-1zM63 85h-1v1h1zM65 10h-1v1h1zM70 13v1h1v-1zM72 81h1v-1h-1zM73 15v1h1v-1zM78 75v1h1v-1zM83 25v-1h-1v1zM85 27h-1v1h1zM88 62v-1h-1v1zM89 36h-1v1h1zM88 58v1h1v-1zM90 54h-1v1h1z" style="fill:#42324c;fill-opacity:1;stroke:none"/><path d="M6 43H5v1h1zM7 60v1h1v-1zM12 26h-1v1h1zM13 71v1h1v-1zM15 23v-1h-1v1zM20 17h-1v1h1zM23 14v1h1v-1zM31 84h-1v1h1zM37 86h-1v1h1zM37 8v1h1V8zM42 87h-1v1h1zM43 8h2V7h-2zM52 7h-1v1h1zM53 87v1h1v-1zM57 9h1V8h-1zM61 9v1h1V9zM67 12v-1h-1v1zM68 12v1h1v-1zM75 16h-1v1h1zM83 71v-1h-1v1zM84 68h1v-1h-1zM85 29v1h1v-1zM87 31h-1v1h1zM90 42v-1h-1v1zM89 54h1v-1h-1z" style="fill:#463751;fill-opacity:1;stroke:none"/><path d="M5 47h1v-3H5zM6 51v-1H5v1zM6 38v1h1v-1zM7 42v-1H6v1zM6 53v1h1v-1zM8 38v-1H7v1zM8 58v-1H7v1zM8 34v1h1v-1zM8 61h1v-1H8zM9 32h1v-1H9zM10 64v-1H9v1zM10 66h1v-1h-1zM12 27h1v-1h-1zM13 69v-1h-1v1zM14 24h1v-1h-1zM15 71h-1v1h1zM15 22v1h1v-1zM19 19h1v-1h-1zM20 78h1v-1h-1zM24 16v-1h-1v1zM26 13v1h1v-1zM27 81h-1v1h1zM28 13h1v-1h-1zM30 83v1h1v-1zM34 11v-1h-1v1zM37 10V9h-1v1zM37 85h-1v1h1zM41 86v1h1v-1zM43 8h-1v1h1zM51 8V7h-1v1zM52 8v1h2V8zM55 87v-1h-2v1zM59 10V9h-1v1zM58 86h1v-1h-1zM61 10v1h1v-1zM64 11v1h1v-1zM64 84h1v-1h-1zM66 12v1h1v-1zM69 14v-1h-1v1zM71 80h-1v1h1zM74 79v-1h-1v1zM75 18v-1h-1v1zM80 23v1h2v-1zM80 71v1h1v-1zM82 70h-1v1h1zM84 67h-1v1h1zM85 30v-1h-1v1zM84 65v1h1v-1zM85 32h1v-1h-1zM85 63v1h2v-1zM87 61h-1v1h1zM87 36v2h1v-2zM88 59v-1h-1v1zM89 41v-1h-1v1zM88 54v1h1v-1zM89 43h1v-1h-1z" style="fill:#4a3655;fill-opacity:1;stroke:none"/><path d="M5 50h1v-3H5zM7 41v-2H6v2zM7 54H6v3h1zM7 35v2h1v-2zM7 59h1v-1H7zM9 32H8v2h1zM8 63h1v-2H8zM10 30H9v1h1zM11 28h-1v2h1zM11 27v1h1v-1zM12 67h-1v2h1zM13 25h-1v1h1zM13 24v1h1v-1zM13 71h1v-1h-1zM15 72h-1v1h1zM16 22v-1h-1v1zM16 20v1h1v-1zM18 20v-1h-1v1zM19 19v-1h-1v1zM20 17v1h1v-1zM22 78h-2v1h2zM21 16v1h1v-1zM25 15v-1h-1v1zM24 80v1h1v-1zM26 14v-1h-1v1zM26 83h1v-1h-1zM28 12h-1v1h1zM28 84h1v-1h-1zM30 11v1h1v-1zM31 11h1v-1h-1zM32 85h1v-1h-1zM33 85v1h1v-1zM35 9h-1v1h1zM35 86h1v-1h-1zM42 8h-4v1h4zM39 86v1h2v-1zM43 88v-1h-1v1zM45 7v1h5V7zM53 88v-1h-1v1zM54 8v1h1V8zM55 86v1h1v-1zM57 9V8h-1v1zM58 86v1h1v-1zM60 85h-1v1h1zM62 11h1v-1h-1zM62 84v1h1v-1zM64 85h1v-1h-1zM72 15v-1h-2v1zM70 82h1v-1h-1zM74 16h-1v1h1zM74 80v-1h-1v1zM75 18h1v-1h-1zM81 25h1v-1h-1zM83 26v2h1v-2zM86 66v-1h-1v1zM86 33v1h1v-1zM88 34h-1v1h1zM89 37h-1v1h1zM88 58h1v-1h-1zM90 44v-1h-1v1zM89 52v1h1v-1z" style="fill:#4b3a56;fill-opacity:1;stroke:none"/><path d="M5 52h1v-1H5zM10 32H9v1h1zM10 62H9v1h1zM10 31h1v-1h-1zM12 29v-1h-1v1zM11 66v1h1v-1zM14 26v-1h-1v1zM15 73h1v-1h-1zM17 22v-1h-1v1zM17 73h-1v1h1zM17 20v1h1v-1zM17 74v1h1v-1zM18 20h1v-1h-1zM18 21v1h1v-1zM18 73v1h1v-1zM18 76h1v-1h-1zM19 21h1v-1h-1zM19 75h1v-1h-1zM19 77h1v-1h-1zM21 20v-1h-1v1zM21 75h-1v1h1zM22 19v-1h-1v1zM22 76h-1v1h1zM24 18v-1h1v-1h-3v2zM22 78h1v-1h-1zM26 80v1h2v-1h-1v-1h-2v-1h-2v2zM62 13h2v1h2v1h2v1h2v-2h-2v-1h-2v-1h-2v-1h-3v-1h-3V9h-6V8h-9v1h-6v1h-3v1h-3v1h-2v1h-2v1h-2v2h2v-1h2v-1h2v-1h2v-1h3v-1h5v-1h13v1h5v1h3zM40 85v-1h-4v-1h-3v-1h-3v-1h-2v2h3v1h2v1h4v1h5v1h11v-1h5v-1h4v-1h2v-1h3v-2h-2v1h-3v1h-2v1h-4v1zM67 81h1v1h1v-2h-2zM70 78v1h-1v1h3v-2zM71 15v1h-1v1h1v1h2v-1h-1v-2zM73 77h-1v1h1zM74 19v-1h-1v1zM76 75h1v-1h2v-1h-3v1h-1v1h-1v1h-1v1h1v1h1v-1h1zM75 19h-1v1h1zM76 19v-1h-1v1zM75 21h1v-1h-1zM76 19v1h1v-1zM76 21v1h1v-1zM78 20h-1v1h1zM77 22v1h1v-1zM79 21h-1v1h1zM80 22h-1v1h1zM79 72v1h1v-1zM83 68h-1v1h1z" style="fill:#463353;fill-opacity:1;stroke:none"/><path d="M5 55h1v-1H5zM6 58v1h1v-1zM8 61H7v1h1zM9 39v1h1v-1zM10 27v1h1v-1zM12 34v-1h-1v1zM13 25v-1h-1v1zM12 32h1v-1h-1zM13 66h1v-1h-1zM16 27v-1h-1v1zM16 75v1h1v-1zM18 76h-1v1h1zM22 16v-1h-1v1zM23 81v-1h-1v1zM24 19v-1h-1v1zM24 77v1h1v-1zM26 17h1v-1h-1zM27 83v1h1v-1zM33 14v-1h-1v1zM35 34h-1v1h1zM34 82v1h1v-1zM39 88h1v-1h-1zM41 8V7h-1v1zM42 45v-1h-1v1zM44 37v1h1v-1zM45 84h-1v1h1zM51 84h-1v1h1zM52 37h-1v1h1zM55 8V7h-1v1zM54 45h1v-1h-1zM57 12v-1h-1v1zM57 34h-1v1h1zM58 83h-1v1h1zM63 9h-1v1h1zM63 48h-1v1h1zM65 49v1h1v-1zM65 81h1v-1h-1zM66 84h-1v1h1zM67 43v1h1v-1zM68 79h-1v1h1zM70 83v-1h-1v1zM75 75v-1h-1v1zM75 74h1v-1h-1zM76 72v1h1v-1zM78 71h-1v1h1zM78 19v1h1v-1zM80 68h1v-1h-1zM80 73v1h1v-1zM85 35h-1v1h1zM85 39h1v-1h-1zM85 56v1h1v-1zM87 44h-1v3h1zM86 51h1v-2h-1zM89 55v1h1v-1z" style="fill:#3b2740;fill-opacity:1;stroke:none"/><path d="M6 56v-1H5v1zM9 41h1v-1H9zM10 55v-1H9v1zM11 59v-1h-1v1zM14 28v1h1v-1zM15 74v-1h-1v1zM15 20v1h1v-1zM16 19v1h1v-1zM18 19v-1h-1v1zM17 25h1v-1h-1zM23 15v-1h-1v1zM22 19v1h1v-1zM22 49v1h1v-1zM23 48v1h1v-1zM23 77h1v-1h-1zM27 78h-1v1h1zM27 12h1v-1h-1zM32 86v-1h-1v1zM32 81v1h1v-1zM34 41v-1h-1v1zM35 86h-1v1h1zM39 34h-1v1h1zM39 87h-1v1h1zM40 7h-1v1h1zM40 12h1v-1h-1zM40 46v1h1v-1zM44 40v-1h-1v1zM53 40v-1h-1v1zM56 8V7h-1v1zM56 47v-1h-1v1zM56 83v1h1v-1zM59 40v-1h-1v1zM59 45h-1v1h1zM63 86h1v-1h-1zM65 15v-1h-1v1zM65 10v1h1v-1zM67 16v-1h-1v1zM68 42v-1h-1v1zM69 13h1v-1h-1zM71 49h1v-1h-1zM72 82v-1h-1v1zM82 65h-1v1h1zM82 32h1v-1h-1zM84 34v-1h-1v1zM83 61v1h1v-1zM86 28h-1v1h1zM85 40h1v-1h-1zM87 30h-1v1h1zM87 62v1h1v-1zM89 36v-1h-1v1z" style="fill:#341f36;fill-opacity:1;stroke:none"/><path d="M6 66v-1H5v1zM9 71H8v1h1zM11 74h-1v1h1zM13 17v1h1v-1zM18 13h-1v1h1zM25 8h-1v1h1zM31 6V5h-1v1zM33 5h1V4h-1zM43 2h-1v1h1zM45 93v1h5v-1zM52 3h1V2h-1zM58 3v1h1V3zM65 5h-1v1h1zM67 90v-1h-1v1zM68 88v1h1v-1zM73 85v1h1v-1zM77 12h-1v1h1zM79 81h-1v1h1zM82 78h-1v1h1zM89 28v-1h-1v1zM91 63h-1v1h1zM92 60h-1v1h1zM93 40v-1h-1v1z" style="fill:#220925;fill-opacity:.706;stroke:none"/><path d="M6 67v-1H5v1zM6 68v1h1v-1zM7 70v1h1v-1zM18 83v1h1v-1zM26 7h-1v1h1zM27 7h1V6h-1zM36 4V3h-1v1zM37 93v-1h-1v1zM42 94v-1h-1v1zM54 94v-1h-1v1zM65 5v1h1V5zM75 84v1h1v-1zM86 72v1h1v-1zM91 64h-1v1h1zM94 44h-1v2h1zM93 50v1h1v-1z" style="fill:#220925;fill-opacity:.4;stroke:none"/><path d="M7 53v1h1V42h1v-5H8v1H7v1h1v2H7v1H6v11zM9 54H8v2H7v1h1v1h1zM9 35H8v1h1v1h1v-2h1v-2h-1v1H9zM9 59H8v1h1v1h1v-3H9zM10 61v1h1v-1zM11 32h1v-1h-1zM13 29h-1v1h1zM14 68v-1h-1v1zM83 27v-1h-1v1zM84 65v-1h-1v1zM85 62h-1v1h1zM85 37h1v3h1v-1h1v-1h-1v-2h-1v-1h1v-1h-2zM85 59v2h2v-1h-1v-1zM86 55v4h1v-1h1v-1h-1v-2zM89 41h-1v-1h-1v15h1v-1h1z" style="fill:#493055;fill-opacity:1;stroke:none"/><path d="M6 58h1v-1H6zM17 22h1v-1h-1zM18 73h-1v1h1zM19 21v-1h-1v1zM19 75v-1h-1v1zM20 19h-1v1h1zM20 76v-1h-1v1zM21 19v-1h-1v1zM21 76h-1v1h1zM21 17v1h1v-1zM21 20h1v-1h-1zM22 78v-1h-1v1zM22 19h1v-1h-1zM23 77v-1h-1v1zM22 78v1h1v-1zM24 78v-1h-1v1zM25 16v-1h-1v1zM25 17h1v-1h-1zM26 81v-1h-1v1zM28 81h-1v1h1zM28 80v1h1v-1zM31 81h-1v1h1zM31 14h1v-1h-1zM33 12v1h1v-1zM37 12v-1h-1v1zM41 84h-1v1h1zM41 10v1h2v-1zM52 10v1h2v-1zM54 85h2v-1h-2zM59 11h-1v1h1zM59 83v1h1v-1zM61 12v1h1v-1zM65 81h-1v1h1zM67 81v-1h-1v1zM67 82h1v-1h-1zM68 79v1h1v-1zM70 16h-1v1h1zM69 80v1h1v-1zM71 15h-1v1h1zM72 77h-1v1h1zM73 16h-1v1h1zM73 18h-1v1h1zM72 79h1v-1h-1zM73 18h1v-1h-1zM74 78v-1h-1v1zM74 18v1h1v-1zM75 20h1v-1h-1zM77 20h-1v1h1zM76 76h1v-1h-1zM77 22h1v-1h-1zM78 74h-1v1h1z" style="fill:#453251;fill-opacity:1;stroke:none"/><path d="M7 39v2h1v-2zM8 54H7v2h1zM8 36v1h1v-1zM9 42H8v1h1zM8 54h1v-2H8zM9 59v-1H8v1zM10 33H9v1h1zM10 38v-1H9v1zM10 57H9v1h1zM9 61v1h1v-1zM11 32v-1h-1v2h2v-1zM11 61v-1h-1v1zM12 68h1v-1h1v-1h-1v-1h-1v-2h-1v-1h-1v3h1v1h1zM12 29h-1v2h2v-1h-1zM14 29v-2h1v-1h1v-1h1v-1h1v-2h-2v1h-1v1h-1v2h-1v1h-1v2zM15 69v-1h-2v2h1v1h1v1h1v1h2v-1h-1v-1h-1v-2zM79 72h1v-1h1v-1h1v-2h1v-1h1v-2h-2v2h-1v1h-1v2h-1v1h-1v1h-1v1h2zM84 34h2v-2h-1v-2h-1v-2h-1v-1h-1v-2h-1v-1h-1v-1h-1v-1h-1v2h1v2h1v1h1v2h1v1h1v2h1zM83 63v1h1v1h1v-2zM84 61v1h1v1h1v-2zM86 59v-1h-1v1zM86 35v1h1v-1zM87 41v-1h-1v1zM86 55h1v-1h-1zM87 60v-1h-1v1zM88 40v-1h-1v1zM87 57h1v-2h-1z" style="fill:#463053;fill-opacity:1;stroke:none"/><path d="M8 60v-1H7v1zM10 65v-1H9v1zM11 66h-1v1h1zM12 69v1h1v-1zM16 73h-1v1h1zM17 75v-1h-1v1zM18 76v-1h-1v1zM18 77h1v-1h-1zM19 77v1h1v-1zM23 15h-1v1h1zM23 79h-1v1h1zM24 80h-1v1h1zM26 82v-1h-1v1zM28 83v-1h-1v1zM29 11v1h1v-1zM30 84v-1h-1v1zM31 85h1v-1h-1zM33 10h-1v1h1zM34 85v1h1v-1zM35 9v1h1V9zM37 86v1h2v-1zM43 88h9v-1h-9zM56 8h-1v1h1zM56 87h2v-1h-2zM61 10V9h-2v1zM60 85v1h2v-1zM64 11v-1h-1v1zM64 85v-1h-1v1zM66 11h-1v1h1zM65 84h2v-1h-2zM68 12h-1v1h1zM69 83v-1h-2v1zM69 13v1h1v-1zM70 82v-1h-1v1zM72 80h-1v1h1zM73 15h-1v1h1zM73 79h-1v1h1zM74 79h1v-1h-1zM76 78v-1h-1v1zM77 19v-1h-1v1zM77 77v-1h-1v1zM78 20v-1h-1v1zM77 76h1v-1h-1zM79 20h-1v1h1zM79 75v-1h-1v1zM79 21v1h1v-1zM80 74v-1h-1v1zM80 22v1h1v-1zM81 72h-1v1h1zM82 71h-1v1h1zM82 25v1h1v-1zM82 69v1h1v-1zM83 69h1v-1h-1zM85 28h-1v1h1zM85 66h-1v1h1zM86 30h-1v1h1zM85 65h1v-1h-1zM86 33h1v-1h-1zM87 63v-1h-1v1zM87 35v1h1v-1zM87 61h1v-2h-1zM89 38h-1v2h1zM88 57h1v-2h-1zM89 52h1v-8h-1z" style="fill:#4d3d59;fill-opacity:1;stroke:none"/><path d="M9 43H8v3h1zM9 49H8v3h1zM9 38v1h1v-1zM10 35v1h1v-1zM12 63v-1h-1v1zM13 65v-1h-1v1zM15 27h-1v1h1zM16 71h1v-1h-1zM18 72v-1h-1v1zM18 23h1v-1h-1zM19 21v1h1v-1zM21 75v1h1v-1zM24 18h1v-1h-1zM25 78v1h1v-1zM30 15v-1h-1v1zM34 13h1v-1h-1zM38 12v-1h-1v1zM43 85v-1h-2v1zM46 11v-1h-3v1zM52 11v-1h-2v1zM54 85v-1h-1v1zM57 11v1h1v-1zM58 84h1v-1h-1zM61 83h1v-1h-1zM63 13v1h1v-1zM66 15v-1h-1v1zM67 16h1v-1h-1zM70 78h-1v1h1zM73 76h-1v1h1zM73 20h1v-1h-1zM74 21h1v-1h-1zM77 24h1v-1h-1zM78 24v1h1v-1zM79 70h1v-1h-1zM81 67h1v-1h-1zM82 30v1h1v-1zM83 33h1v-1h-1zM85 35v-1h-1v1zM84 60v1h1v-1zM86 37h-1v1h1zM86 57h-1v1h1zM86 43h1v-2h-1zM86 54h1v-2h-1zM88 33h-1v1h1zM89 41h1v-1h-1z" style="fill:#422c4c;fill-opacity:1;stroke:none"/><path d="M9 44h1v-1H9zM9 53h1v-1H9zM16 27h-1v1h1zM19 72v1h1v-1zM21 74v-1h-1v1zM24 18v1h1v-1zM30 15h-1v1h1zM29 35h1v-1h-1zM33 40h1v-5h-1zM33 50h1v-4h-1zM34 81h-1v1h1zM37 82h-1v1h1zM37 12v1h1v-1zM39 52v-1h-1v1zM41 44h1v-1h-1zM41 84h1v-1h-1zM44 11h-1v1h1zM45 37v-1h-1v1zM45 51v-1h-1v1zM46 35v-1h-1v1zM50 35h1v-1h-1zM51 36v1h1v-1zM51 51h1v-1h-1zM52 12h1v-1h-1zM55 44v-1h-1v1zM55 54v1h1v-1zM57 56v-1h-1v1zM58 46h-1v1h1zM59 42h1v-1h-1zM64 14h-1v1h1zM65 49v-1h-1v1zM66 55v-1h-1v1zM67 53h-1v1h1zM67 56v-1h-1v1zM67 16v1h1v-1zM69 41v-1h-1v1zM68 44v1h1v-1zM71 47h-1v1h1zM72 34h-1v1h1zM77 71h1v-1h-1zM81 67v-1h-1v1zM81 31h1v-1h-1zM82 33h1v-1h-1zM84 61v-1h-1v1zM84 38h1v-1h-1zM85 42h1v-1h-1zM85 54h1v-1h-1z" style="fill:#2a1125;fill-opacity:1;stroke:none"/><path d="M9 45h1v-1H9zM9 52h1v-2H9zM11 39v-1h-1v1zM11 57v-1h-1v1zM12 36v-1h-1v1zM15 68h1v-1h-1zM23 49v-1h-1v1zM29 52v-1h-7v1zM33 46v-1h-3v1zM34 35v-1h-1v1zM34 50h-1v1h1zM38 52v-1h-4v1zM39 51v1h5v-1zM41 46v-1h-1v1zM44 38h-1v1h1zM45 48v1h1v-1zM50 48v1h1v-1zM52 12v-1h-1v1zM52 39h1v-1h-1zM61 52v-1h-9v1zM53 84h1v-1h-1zM55 45v1h1v-1zM56 55h-1v1h1zM56 48h1v-1h-1zM58 13v-1h-1v1zM57 38v1h1v-1zM59 83v-1h-1v1zM61 81v1h1v-1zM63 36v-1h-1v1zM62 53v1h1v-1zM66 15h-1v1h1zM65 34v1h1v-1zM65 51h1v-1h-1zM66 54v-1h-1v1zM73 52v-1h-7v1zM67 43h1v-1h-1zM69 53h-1v1h1zM70 78v-1h-1v1zM70 37v1h1v-1zM73 54h-1v2h1zM74 49v-1h-1v1zM74 75v-1h-1v1zM77 71h-1v1h1zM79 28h1v-1h-1zM85 57h-1v1h1zM86 43v-1h-1v1zM86 52h-1v1h1z" style="fill:#270e21;fill-opacity:1;stroke:none"/><path d="M9 50h1v-5H9zM12 33v1h1v-1zM16 68v1h1v-1zM18 25h-1v1h1zM33 51v1h1v-1zM40 47h-1v1h1zM42 41h1v-1h-1zM45 35h-1v1h1zM53 40v1h1v-1zM55 36h1v-2h-1zM55 53v1h3v-1zM59 40h-1v1h1zM58 44v1h1v-1zM62 53h-2v1h2zM62 50h1v-1h-1zM64 54v2h2v-1h-1v-1zM68 53h-1v1h1zM69 40h1v-1h-1zM70 46v-1h-1v1zM79 67v1h1v-1zM84 35h-1v1h1zM85 46h1v-3h-1zM85 48h1v-1h-1zM85 52h1v-2h-1z" style="fill:#240b1e;fill-opacity:1;stroke:none"/><path d="M10 37v1h1v-1zM23 50h-1v1h1zM24 35h1v-1h-1zM29 40h1v-5h-1zM29 45v6h1v-6zM30 40v1h3v-1zM34 45h-1v1h1zM43 41h-1v1h1zM54 41h-1v1h1zM56 37h1v-1h-1zM64 54h-8v1h1v1h7zM60 44v-1h-1v1zM61 35h1v-1h-1zM62 50h-1v1h1zM64 37h-1v1h1zM64 47h-1v1h1zM64 37h1v-1h-1zM66 55h1v1h5v-2h-6zM69 38v1h1v-1zM72 35h-1v1h1zM72 49h1v-1h-1zM74 49h-1v2h1z" style="fill:#32162b;fill-opacity:1;stroke:none"/><path d="M11 40v-1h-1v1zM67 64v-1h1v-1h1v-1h2v-1h1v-1h1v-1h1v-1h1v-1h2v-1h1v-1h2v-1h4v-2h1v-1h1v-2h-1v-1h1v-1h-2v-1h1v-2h-2v-1h-3v-1h-2v-1h-2v-1h-1v-1h-1v-1h-2v-1h-1v2h-1v2h-1v1h-1v3h1v1h1v2h3v1h1v1h1v1h-1v1h-1v1h-4v2h4v2h-1v1h-2v-1h-7v1h-4v-1h-4v-4h-3v-1h-1v-1h-1v-2h-4v1h-1v2h-1v1H33v-2h-1v-4h-1v4h-1v1h-1v1h-7v-4h1v-1h1V36h-1v1h-1v1h-2v1h-1v1h-2v1h-2v1h-3v1h-2v9h1v1h4v1h2v1h2v1h1v1h1v1h1v1h1v1h2v1h1v1h1v1h1v1h2v1h2v1h2v1h3v1h4v1h13v-1h4v-1h3v-1h2v-1h2v-1zM10 56h1v-1h-1zM11 37h1v-1h-1zM13 62v-1h-1v1z" style="fill:#22091b;fill-opacity:1;stroke:none"/><path d="M52 36v2h1v2h1v3h1v2h1v1h2v-2h1v-1h1v-1h-1v-1h-1v-2h-1v-2h-1v-1h-1v-2h7v1h1v2h1v-1h1v-2h5v-1h-2v-1h-2v-1h-1v-1h-2v-1h-3v-1h-3v-1h-4v-1H42v1h-4v1h-3v1h-3v1h-2v1h-1v1h-2v1h-1v1h4v1h1v4h1v-4h1v-1h6v13h1v-2h1v-1h-1v-1h2v-3h1v-3h1v-2h1v-1h6v2zM62 50v1h-1v1h-3v2h2v-1h3v1h2v-1h1v-2h-1v-2h-1v-1h-1v2zM83 60h1v-1h-1zM85 39v-1h-1v1zM84 57h1v-2h-1z" style="fill:#22091b;fill-opacity:1;stroke:none"/><path d="M60 28v1h3v1h2v1h1v1h2v1h2v1h2v3h2v1h1v1h1v1h2v1h2v1h3v1h2v-1h-1v-2h-1v-1h-2v-1h-2v-1h-2v-1h-1v-1h-2v-1h-1v-1h-1v-1h-2v-1h-1v-1h-1v-1h-2v-1h-2v-1h-2v-1h-3v-1h-4v-1H40v1h-4v1h-3v1h-2v1h-2v1h-1v1h-2v1h-1v1h-1v1h-2v1h-1v1h-1v1h-2v1h-1v1h-2v1h-3v1h-2v1h1v2h1v-1h3v-1h2v-1h2v-1h1v-1h2v-1h1v-1h1v-2h2v-1h1v-1h2v-1h1v-1h2v-1h3v-1h3v-1h4v-1h11v1h4v1zM81 57v-1h3v-3h-4v1h-2v1h-1v1h-2v1h-1v1h-1v1h-1v1h-1v1h-2v1h-1v1h-1v1h-2v1h-2v1h-2v1h-3v1h-4v1H41v-1h-4v-1h-3v-1h-2v-1h-2v-1h-2v-1h-1v-1h-1v-1h-1v-1h-2v-1h-1v-1h-1v-1h-1v-1h-1v-1h-2v-1h-2v-1h-4v1h-1v1h1v1h3v1h2v1h2v1h1v1h2v1h1v1h1v1h1v1h2v1h1v1h2v1h2v1h2v1h3v1h3v1h7v1h3v-1h7v-1h4v-1h2v-1h2v-1h2v-1h2v-1h1v-1h2v-1h1v-1h1v-1h1v-1h2v-1h1v-1h2v-1zM24 48v-1h-1v1z" style="fill:#21081b;fill-opacity:1;stroke:none"/><path d="M30 40h3v-5h-1v4h-1v-4h-1zM31 46h-1v4h1zM33 46h-1v4h1zM40 43v1h1v-1zM51 50v-1h-1v1zM58 53v-1h-3v1zM56 47h1v-1h-1zM63 56h-4v1h4zM66 52v1h3v-1zM72 57v-1h-2v1zM73 47h-2v1h2zM74 50h1v-1h-1zM85 46v-1h-1v1zM85 53v-2h-1v2z" style="fill:#21081b;fill-opacity:1;stroke:none"/><path d="M11 41h-1v2h1zM10 54h1v-2h-1zM19 30v1h-1v1h-2v1h-2v1h-2v3h-1v3h1v-1h3v-1h2v-1h1v-1h2v-1h1v-1h1v-1h2v-1h1v-1h1v-1h2v-1h1v-1h2v-1h2v-1h3v-1h4v-1h15v1h4v1h3v1h2v1h2v1h2v1h1v1h1v1h2v1h1v1h1v1h2v1h1v1h2v1h2v1h2v1h1v2h1v-3h-1v-3h-1v-3h-4v-1h-2v-1h-1v-1h-2v-1h-2v-1h-1v-1h-2v-1h-1v-1h-2v-1h-2v-1h-3v-1h-3v-1h-5v-1H42v1h-5v1h-3v1h-2v1h-3v1h-2v1h-1v1h-2v1h-1v1h-2v1zM21 61v-1h-2v-1h-1v-1h-2v-1h-2v-1h-3v3h1v2h1v1h2v1h2v1h2v1h2v1h1v1h2v1h1v1h2v1h2v1h2v1h3v1h3v1h4v1h13v-1h4v-1h4v-1h2v-1h2v-1h2v-1h2v-1h1v-1h2v-1h1v-1h2v-1h2v-1h2v-1h3v-3h1v-3h-3v1h-2v1h-2v1h-1v1h-2v1h-1v1h-1v1h-1v1h-2v1h-1v1h-2v1h-2v1h-2v1h-2v1h-4v1h-7v1h-3v-1h-7v-1h-3v-1h-3v-1h-2v-1h-2v-1h-2v-1h-1v-1h-2v-1h-1v-1h-1v-1zM13 64h1v-1h-1zM18 24v1h1v-1zM23 20h-1v1h1zM33 14h-1v1h1zM34 81v1h1v-1z" style="fill:#210a1a;fill-opacity:1;stroke:none"/><path d="M43 38h1v-1h-1zM51 83v1h1v-1zM56 12v1h1v-1zM58 82h-1v1h1zM70 77h1v-1h-1zM71 20h1v-1h-1zM78 26v-1h-1v1zM78 27h1v-1h-1zM81 29h-1v1h1zM85 53h-1v2h1z" style="fill:#210a1a;fill-opacity:1;stroke:none"/><path d="M11 60h1v-1h-1zM14 31h-1v1h1zM15 29h-1v1h1zM14 65v1h1v-1zM16 26v1h1v-1zM23 20h1v-1h-1zM24 77h1v-1h-1zM26 18h1v-1h-1zM27 79h1v-1h-1zM29 79v1h1v-1zM32 80h-1v1h1zM34 13v1h1v-1zM38 83v-1h-1v1zM39 13v-1h-1v1zM44 83h-2v1h2zM44 12h7v-1h-7zM53 84v-1h-1v1zM61 14v-1h-1v1zM63 81h1v-1h-1zM65 79v1h1v-1zM68 79v-1h-1v1zM70 18v1h1v-1zM75 73h-1v1h1zM75 72v1h1v-1zM82 65v-1h-1v1zM82 62v1h1v-1z" style="fill:#230e1f;fill-opacity:1;stroke:none"/><path d="M60 18v-1h-5v-1H40v1h-5v1h-3v1h-3v1h-2v1h-3v1h-2v1h-3v2h-1v1h-1v1h-1v1h-1v2h-1v2h-1v2h1v-1h2v-1h2v-1h1v-1h2v-1h2v-1h1v-1h2v-1h1v-1h2v-1h3v-1h2v-1h3v-1h5v-1h11v1h5v1h3v1h3v1h2v1h2v1h1v1h2v1h1v1h2v1h2v1h1v1h2v1h3v-2h-1v-1h-1v-2h-1v-1h-1v-1h-1v-2h-1v-1h-3v-1h-2v-1h-2v-1h-3v-1h-3v-1zM57 79v-1h4v-1h3v-1h3v-1h2v-1h2v-1h3v-1h2v-1h1v-1h1v-1h1v-2h1v-1h1v-2h1v-2h-2v1h-2v1h-2v1h-2v1h-1v1h-2v1h-1v1h-2v1h-2v1h-2v1h-2v1h-4v1h-4v1H41v-1h-4v-1h-3v-1h-3v-1h-2v-1h-2v-1h-2v-1h-1v-1h-2v-1h-1v-1h-2v-1h-2v-1h-2v-1h-2v1h1v2h1v2h1v1h1v2h1v1h1v1h3v1h2v1h2v1h3v1h2v1h3v1h4v1z" style="fill:#200a1a;fill-opacity:1;stroke:none"/><path d="M22 21h-1v1h1zM23 76h1v-1h-1zM28 17h1v-1h-1zM31 15h-1v1h1zM45 84v-1h-1v1zM49 84v-1h-3v1zM50 84h1v-1h-1z" style="fill:#200a1a;fill-opacity:1;stroke:none"/><path d="M22 23v-1h-2v1zM20 72v1h2v-1zM22 74h2v-1h-2zM24 21h-1v1h1zM26 75v-1h-2v1zM25 20v1h2v-1zM26 77v1h1v-1zM27 19v1h2v-1zM27 75v1h2v-1zM30 19h2v-1h-2zM30 76v1h1v-1zM35 17h-2v1h2zM33 78h1v-1h-1zM36 78v1h2v-1zM40 17v-1h-3v1zM39 82h-1v1h1zM42 79v1h11v-1zM50 15h-5v1h5zM56 13v-1h-1v1zM55 16v1h3v-1zM59 78h-2v1h2zM59 14h1v-1h-1zM62 18v-1h-2v1zM63 78v-1h-2v1zM63 19h2v-1h-2zM64 76v1h2v-1zM66 19v1h2v-1zM67 75v1h1v-1zM70 21v-1h-1v1zM69 75h2v-1h-2zM72 21h-1v1h1zM71 73v1h2v-1zM73 20h-1v1h1zM73 22v1h2v-1z" style="fill:#1f0a1a;fill-opacity:1;stroke:none"/><path d="M21 73v1h1v-1zM23 22v-1h-1v1zM24 74h-2v1h2zM45 16v-1h5v1h8v1h4v1h3v1h3v1h2v1h2v-1h-1v-1h-1v-1h-1v-1h-2v-1h-2v-1h-2v-1h-4v-1h-4v-1H39v1h-4v1h-2v1h-2v1h-2v1h-2v1h-2v1h-1v1h-1v1h2v-1h2v-1h3v-1h3v-1h4v-1zM36 79v-1h-3v-1h-3v-1h-3v-1h-3v1h1v1h2v1h1v1h2v1h2v1h3v1h4v1h6v1h1v-1h3v1h1v-1h7v-1h4v-1h2v-1h2v-1h2v-1h2v-1h1v-1h2v-1h1v-1h-2v1h-3v1h-2v1h-3v1h-4v1h-6v1H42v-1zM72 22h2v-1h-2zM74 74v-1h-1v1zM74 72v1h1v-1z" style="fill:#1f0b19;fill-opacity:1;stroke:none"/><path d="M24 50v-1h-1v1zM29 36v-1h-1v1zM43 42h1v-1h-1zM47 44v-1h-1v1zM50 43h-1v1h1zM52 41v1h1v-1zM55 49h1v-1h-1zM58 36h-1v1h1zM68 39h1v-1h-1z" style="fill:#958992;fill-opacity:1;stroke:none"/><path d="M24 50h-1v1h1zM42 45h-1v1h1zM45 38h-1v1h1zM45 49v-1h-1v1zM49 41h-2v1h2zM52 39v-1h-1v1zM51 49h1v-1h-1zM55 46v-1h-1v1zM58 39h1v-1h-1zM59 47v-1h-1v1zM60 42h1v-1h-1zM61 43h-1v1h1zM64 38h-1v1h1zM66 43h1v-1h-1zM67 40v1h1v-1zM70 38v-1h-1v1zM72 50v1h1v-1z" style="fill:#71606c;fill-opacity:1;stroke:none"/><path d="M25 35h-1v13h1zM29 35v-1h-1v1zM44 49v1h1v-1zM46 36v-1h-1v1zM47 34h-1v1h1zM47 42v1h2v-1zM49 35h1v-1h-1zM51 36v-1h-1v1zM52 49h-1v1h1zM57 49v-1h-1v1zM58 37h-1v1h1zM60 42v1h1v-1zM62 36v1h1v-1zM65 35v1h1v-1zM66 34v1h1v-1zM71 34h-1v1h1zM70 36v1h1v-1z" style="fill:#483142;fill-opacity:1;stroke:none"/><path d="M25 48h-1v1h1zM28 35v-1h-3v1zM38 35v-1h-3v1zM42 43h1v-1h-1zM49 34h-2v1h2zM54 42h-1v1h1zM61 35v-1h-4v1zM58 48v-1h-1v1zM60 41v-1h-1v1zM59 45h1v-1h-1zM67 51v-1h-1v1zM67 35h3v-1h-3zM68 40h1v-1h-1z" style="fill:#503b4a;fill-opacity:1;stroke:none"/><path d="M25 50v-1h-1v1zM38 50h2v-1h-2zM44 48h1v-1h-1zM49 40h-2v1h2zM50 37v1h1v-1zM52 47h-1v1h1zM56 49v1h1v-1zM62 37v-1h-1v1zM67 35h-1v1h1zM72 49h-1v1h1z" style="fill:#b0a8ae;fill-opacity:1;stroke:none"/><path d="M28 51v-1h-4v1zM34 45v-1h-5v1zM35 35h-1v1h1zM43 51v-1h-8v1zM43 44v-1h-1v1zM45 36v1h1v-1zM51 37v-1h-1v1zM53 43v1h1v-1zM60 51v-1h-7v1zM62 48h1v-1h-1zM65 49h1v-1h-1zM67 45h1v-1h-1zM72 50h-5v1h5zM69 48h1v-1h-1zM70 35v1h1v-1zM72 50h1v-1h-1z" style="fill:#82737e;fill-opacity:1;stroke:none"/><path d="M26 36v-1h-1v1zM28 45h1v-1h-1zM34 42h1v-1h-1zM42 45h1v-1h-1zM43 50h1v-1h-1zM46 38v-1h-1v1zM47 36v-1h-1v1zM46 42v1h1v-1zM50 35h-1v1h1zM49 43h1v-1h-1zM53 50v-1h-1v1zM54 45v-1h-1v1zM58 35h-1v1h1zM58 37v1h1v-1zM62 42h-1v1h1zM63 46h1v-1h-1zM67 40h1v-1h-1zM70 36h-1v1h1zM71 49h-1v1h1z" style="fill:#bbb4b9;fill-opacity:1;stroke:none"/><path d="M26 36h-1v13h1zM28 41v1h1v-1zM38 36v-1h-1v1zM43 42v1h1v-1zM53 43v-1h-1v1zM59 47h-1v1h1zM61 35h-1v1h1zM61 40h-1v1h1zM61 44h-1v1h1zM62 47h1v-1h-1zM63 40h1v-1h-1zM66 47h-1v1h1zM67 45v1h1v-1zM69 48v1h1v-1z" style="fill:#c7c2c6;fill-opacity:1;stroke:none"/><path d="M25 50h1v-1h-1zM38 36h-1v13h1zM41 49h-1v1h1zM42 47h-1v1h1zM45 41v-1h-1v1zM45 46v1h6v-1zM46 45h1v-1h-1zM49 45h1v-1h-1zM55 47h-1v1h1zM58 49h-1v1h1zM59 39h1v-1h-1zM61 41v1h1v-1zM61 44h1v-1h-1zM67 41v-1h-1v1zM68 38h1v-1h-1z" style="fill:#d6d3d5;fill-opacity:1;stroke:none"/><path d="M28 35h-2v1h2zM37 36v-1h-2v1zM47 36h2v-1h-2zM49 45v-1h-2v1zM52 41v-1h-1v1zM55 49v1h1v-1zM60 36v-1h-2v1zM61 49h-1v1h1zM63 38h-1v1h1zM66 37h-1v1h1zM67 35v1h3v-1z" style="fill:#cfccce;fill-opacity:1;stroke:none"/><path d="M28 36h-2v14h2v-6h7v6h2V36h-2v6h-7zM47 36v1h-1v2h-1v2h-1v2h-1v3h-1v2h-1v2h2v-2h1v-2h8v2h1v2h2v-2h-1v-2h-1v-2h-1v-3h-1v-2h-1v-3zm2 3v2h1v4h-4v-4h1v-2zM68 48v-2h-1v-1h-1v-2h-1v-1h1v-2h1v-1h1v-2h1v-1h-3v2h-1v2h-2v-1h-1v-1h-1v-2h-3v1h1v1h1v2h1v1h1v3h-1v1h-1v2h-1v1h-1v2h2v-1h1v-2h1v-1h1v-1h2v2h1v1h1v2h3v-1h-1v-1zm-4-5v1h-1v-1z" style="fill:#e4e4e4;fill-opacity:1;stroke:none"/><path d="M29 36h-1v5h1zM29 45h-1v5h1zM51 39v1h1v-1z" style="fill:#a399a0;fill-opacity:1;stroke:none"/><path d="M28 51h1v-1h-1zM39 48h-1v1h1zM41 48v-1h-1v1zM43 50v1h1v-1zM52 50v1h1v-1zM60 51h1v-1h-1zM62 36v-1h-1v1zM64 47v-1h-1v1zM65 38v-1h-1v1z" style="fill:#655160;fill-opacity:1;stroke:none"/><path d="M34 42v-1h-5v1zM44 39v1h1v-1zM55 46h-1v1h1zM65 46h-1v1h1zM68 46v1h1v-1z" style="fill:#a69da4;fill-opacity:1;stroke:none"/><path d="M34 41h1v-5h-1zM34 50h1v-5h-1zM62 38h1v-1h-1zM66 36h-1v1h1z" style="fill:#8c7e88;fill-opacity:1;stroke:none"/><path d="M34 44v1h1v-1zM42 47v-1h-1v1zM62 49v-1h-1v1zM64 38v1h1v-1zM67 43h-1v1h1zM66 49v1h1v-1z" style="fill:#aba2a9;fill-opacity:1;stroke:none"/><path d="M35 51v-1h-1v1zM38 48h1V35h-1zM43 40v1h1v-1zM45 47v1h6v-1zM47 43v1h2v-1zM52 41h1v-1h-1zM56 48v-1h-1v1zM57 36v-1h-1v1zM61 50h1v-1h-1zM64 48h1v-1h-1zM69 46v-1h-1v1zM70 48v1h1v-1z" style="fill:#5b4755;fill-opacity:1;stroke:none"/><path d="M37 49v1h1v-1zM42 46h1v-1h-1zM43 49h1v-1h-1zM44 47h1v-1h-1zM46 38h-1v1h1zM47 36h-1v1h1zM47 42v-1h-1v1zM49 40v-1h-2v1zM49 42h1v-1h-1zM50 38v1h1v-1zM52 46h-1v1h1zM52 43v1h1v-1zM52 48v1h1v-1zM54 45h-1v1h1zM59 47h1v-1h-1zM61 37v1h1v-1zM61 47v1h1v-1zM64 43h-1v1h1zM65 40v-1h-1v1zM64 46h1v-1h-1zM65 42v1h1v-1zM66 44v1h1v-1zM67 48h-1v1h1zM68 48h1v-1h-1z" style="fill:#dddcdd;fill-opacity:1;stroke:none"/><path d="M40 49h1v-1h-1zM57 48v1h1v-1zM60 40v-1h-1v1zM60 45h-1v1h1zM67 41h-1v1h1z" style="fill:#9c9199;fill-opacity:1;stroke:none"/></svg>