<?xml version="1.0" standalone="no"?>
<!DOCTYPE svg PUBLIC "-//W3C//DTD SVG 20010904//EN"
 "http://www.w3.org/TR/2001/REC-SVG-20010904/DTD/svg10.dtd">
<svg version="1.0" xmlns="http://www.w3.org/2000/svg"
 width="1200.000000pt" height="1200.000000pt" viewBox="0 0 1200.000000 1200.000000"
 preserveAspectRatio="xMidYMid meet">

<g transform="translate(0.000000,1200.000000) scale(0.100000,-0.100000)"
fill="#000000" stroke="none">
<path d="M5530 11470 c-893 -72 -1704 -307 -2445 -707 -1560 -842 -2624 -2306
-2899 -3988 -51 -313 -61 -453 -61 -855 0 -402 10 -542 61 -855 346 -2120
1942 -3862 4101 -4475 761 -216 1560 -282 2363 -194 723 79 1455 301 2109 640
1596 828 2700 2324 2975 4034 54 331 61 428 61 850 0 422 -7 519 -61 850 -278
1730 -1407 3243 -3029 4060 -683 344 -1355 540 -2150 626 -173 18 -853 28
-1025 14z m-2190 -4260 l0 -440 415 0 415 0 0 440 0 440 235 0 235 0 0 -985 0
-986 147 3 147 3 425 983 425 982 230 -2 230 -3 41 -95 c23 -52 214 -495 425
-983 l383 -888 76 3 76 3 308 468 308 469 -19 31 c-10 18 -157 247 -325 509
-169 263 -307 480 -307 483 0 3 127 5 283 5 l282 -1 195 -304 c107 -168 197
-305 200 -305 3 0 93 138 200 305 l195 305 284 0 c222 0 282 -3 278 -12 -2 -7
-147 -233 -321 -502 -174 -268 -318 -492 -319 -496 -1 -4 138 -222 308 -484
l310 -476 148 0 147 0 0 -65 0 -65 -394 0 -394 0 -217 335 c-120 184 -220 337
-224 339 -3 2 -103 -147 -222 -332 l-216 -337 -545 -3 -545 -2 -95 222 -95
223 -439 2 -439 3 -95 -225 -95 -225 -607 0 -608 0 0 410 0 410 -415 0 -415 0
0 -410 0 -410 -365 0 -365 0 0 65 0 65 130 0 130 0 0 985 0 985 235 0 235 0 0
-440z"/>
<path d="M5887 6718 c-70 -160 -125 -293 -123 -295 1 -2 116 -2 253 -1 l250 3
-124 290 c-68 159 -125 291 -127 292 -1 2 -60 -128 -129 -289z"/>
</g>
</svg>
