<svg width="32" height="32" xmlns="http://www.w3.org/2000/svg"><path d="M0 11v1h1v-1zM1 20H0v1h1zM12 1V0h-1v1zM23 30h-1v1h1zM25 3V2h-1v1zM24 30h1v-1h-1zM29 8h1V7h-1zM31 9h-1v1h1zM31 23v-1h-1v1zM31 13h1v-1h-1zM32 19h-1v1h1z" style="fill:#210724;fill-opacity:.024;stroke:none"/><path d="M1 13v-1H0v1zM0 20h1v-1H0zM19 32v-1h-1v1zM26 28h1v-1h-1zM27 27h1v-1h-1z" style="fill:#210724;fill-opacity:.157;stroke:none"/><path d="M1 14v-1H0v1zM0 18v1h1v-1zM5 26H4v1h1zM5 28h1v-1H5zM10 31h1v-1h-1zM17 31h-2v1h2zM17 0v1h1V0zM22 2V1h-1v1z" style="fill:#210824;fill-opacity:.31;stroke:none"/><path d="M1 15v-1H0v1zM1 17H0v1h1zM1 21v1h1v-1zM9 29H8v1h1zM10 1v1h1V1zM17 1V0h-2v1z" style="fill:#210724;fill-opacity:.4;stroke:none"/><path d="M0 15v2h1v-2zM2 8v1h1V8zM30 11v1h1v-1zM30 21h1v-1h-1z" style="fill:#200623;fill-opacity:.486;stroke:none"/><path d="M1 10h1V9H1zM2 23v-1H1v1zM9 2h1V1H9zM13 1V0h-1v1zM26 4V3h-1v1zM28 7h1V6h-1zM31 14h1v-1h-1zM31 19h1v-1h-1z" style="fill:#210724;fill-opacity:.118;stroke:none"/><path d="M1 11h1v-1H1zM2 23v1h1v-1zM9 2H8v1h1z" style="fill:#210724;fill-opacity:.451;stroke:none"/><path d="M1 11v1h1v-1zM27 26h1v-1h-1zM31 13v-1h-1v1z" style="fill:#220926;fill-opacity:.722;stroke:none"/><path d="M1 13h1v-1H1zM2 19H1v1h1zM5 25H4v1h1z" style="fill:#240c28;fill-opacity:.882;stroke:none"/><path d="M1 13v1h1v-1zM2 19v-1H1v1zM31 17v-2h-1v2z" style="fill:#2b1331;fill-opacity:.949;stroke:none"/><path d="M2 14H1v3h1zM5 7H4v1h1zM7 6V5H6v1zM7 7h1V6H7zM9 27h1v-1H9zM15 29h-1v1h1zM18 29h-1v1h1zM21 28v1h1v-1zM23 28h1v-1h-1zM28 10h-1v1h1zM28 19h1v-1h-1zM29 11v1h1v-1z" style="fill:#331d38;fill-opacity:1;stroke:none"/><path d="M2 17H1v1h1zM4 12H3v1h1zM4 21v1h1v-1zM6 7v1h1V7zM9 4h1V3H9zM12 3h1V2h-1zM20 4v1h1V4zM28 14h1v-1h-1zM29 23v-1h-1v1zM29 21h1v-1h-1z" style="fill:#311a35;fill-opacity:1;stroke:none"/><path d="M2 21v-1H1v1zM7 28v1h1v-1zM23 30v-1h-1v1zM30 10V9h-1v1zM30 19v1h1v-1z" style="fill:#220925;fill-opacity:.698;stroke:none"/><path d="M3 7H2v1h1zM3 25v-1H2v1zM7 3h1V2H7zM10 30H9v1h1zM12 32h1v-1h-1zM20 0h-1v1h1zM26 29v-1h-1v1zM29 26v-1h-1v1z" style="fill:#220925;fill-opacity:.082;stroke:none"/><path d="M3 10V9H2v1zM7 28v-1H6v1zM12 1v1h1V1z" style="fill:#220925;fill-opacity:.859;stroke:none"/><path d="M3 10H2v1h1zM4 25h1v-1H4zM6 25H5v1h1zM13 29v1h1v-1zM18 29v1h1v-1zM20 3V2h-1v1zM19 28h1v-1h-1zM22 5v1h1V5zM25 5v1h1V5zM26 6v1h1V6zM29 18v-1h-1v1z" style="fill:#2d1833;fill-opacity:1;stroke:none"/><path d="M2 12h1v-1H2zM4 22H3v1h1zM5 24h1v-1H5zM14 4h1V3h-1zM21 27h-1v1h1zM22 3h-1v1h1zM23 4v1h1V4zM25 6h-1v1h1zM28 13h1v-1h-1zM29 19v1h1v-1z" style="fill:#3a2642;fill-opacity:1;stroke:none"/><path d="M3 12H2v1h1zM3 14H2v4h1zM5 24v-1H4v1zM29 11v-1h-1v1zM29 13v1h1v-1zM29 18v1h1v-1z" style="fill:#442c4e;fill-opacity:1;stroke:none"/><path d="M2 14h1v-1H2zM3 19v-1H2v1zM3 10v1h1v-1zM4 22v-1H3v1zM5 8H4v1h1zM6 7H5v1h1zM6 24H5v1h1zM27 7h-1v1h1zM28 9h-1v1h1zM28 22h-1v1h1zM28 11v1h1v-1zM29 21v-1h-1v1zM30 14h-1v4h1z" style="fill:#452f50;fill-opacity:1;stroke:none"/><path d="M2 20h1v-1H2zM3 20v1h1v-1zM4 22v1h1v-1zM8 26H7v1h1zM10 27v1h1v-1zM12 29v-1h-1v1zM17 29v-1h-3v1zM19 4V3h-1v1zM24 5h-1v1h1zM24 26h2v-1h-2zM27 23h-1v2h1zM28 9V8h-1v1zM28 21v1h1v-1z" style="fill:#412c4b;fill-opacity:1;stroke:none"/><path d="M2 21h1v-1H2zM7 24H6v1h1zM13 2v1h1V2zM15 3v1h2V3zM26 7h-1v1h1zM27 22h1v-1h-1z" style="fill:#38233f;fill-opacity:1;stroke:none"/><path d="M3 21H2v1h1zM3 9h1V8H3zM7 26H6v1h1zM7 5h1V4H7zM22 4h1V3h-1zM27 7v1h1V7z" style="fill:#2b1431;fill-opacity:1;stroke:none"/><path d="M2 23h1v-1H2zM10 3V2H9v1zM27 5h-1v1h1zM31 14v-1h-1v1zM31 19v-1h-1v1z" style="fill:#230a27;fill-opacity:.839;stroke:none"/><path d="M3 7h1V6H3zM6 4h1V3H6zM13 0v1h1V0zM18 32v-1h-1v1zM21 31h1v-1h-1zM29 23v1h1v-1zM32 17v-2h-1v2z" style="fill:#210724;fill-opacity:.243;stroke:none"/><path d="M3 8h1V7H3zM10 30v-1H9v1zM12 31h1v-1h-1zM19 1v1h1V1zM26 5V4h-1v1zM27 27v-1h-1v1z" style="fill:#210724;fill-opacity:.792;stroke:none"/><path d="M3 9v1h2V9zM3 12h1v-1H3zM8 5h1V4H8zM11 3h-1v1h1zM14 4V3h-1v1zM15 2v1h2V2zM21 29v-1h-1v1zM21 4v1h1V4zM26 25v-1h-1v1zM29 19h-1v1h1zM30 12h-1v1h1z" style="fill:#3e2946;fill-opacity:1;stroke:none"/><path d="M3 14h1v-1H3zM3 19h1v-1H3zM4 11h1v-1H4zM27 23v-1h-1v1zM28 14v3h1v-3z" style="fill:#2c132b;fill-opacity:1;stroke:none"/><path d="M4 14H3v4h1zM8 17H7v1h1zM9 18h1v-1H9zM12 17h-1v1h1zM15 18v-1h-1v1zM17 18h1v-1h-1zM18 13h1v-1h-1zM19 19h1v-1h-1zM20 17v1h1v-1zM24 19v-1h-3v1zM24 18h1v-1h-1z" style="fill:#280e22;fill-opacity:1;stroke:none"/><path d="M4 20v-1H3v1zM5 8v1h1V8zM28 10h1V9h-1z" style="fill:#35203c;fill-opacity:1;stroke:none"/><path d="M3 24h1v-1H3zM7 28h1v-1H7zM9 29h1v-1H9zM11 2v1h1V2zM13 29h-1v1h1zM20 29h-1v1h1zM20 2v1h1V2zM23 29v-1h-1v1zM25 5V4h-1v1zM26 27v-1h-1v1zM26 26h1v-1h-1zM28 25v-1h-1v1z" style="fill:#27102c;fill-opacity:1;stroke:none"/><path d="M3 24v1h1v-1zM8 3H7v1h1zM19 30v1h1v-1zM23 2h-1v1h1zM25 27v1h1v-1zM27 7h1V6h-1z" style="fill:#210724;fill-opacity:.757;stroke:none"/><path d="M4 25H3v1h1zM19 1V0h-1v1zM27 5V4h-1v1zM30 10v1h1v-1zM30 22h1v-1h-1z" style="fill:#210824;fill-opacity:.212;stroke:none"/><path d="M4 5v1h1V5zM5 4v1h1V4zM15 0h-1v1h1zM23 3h1V2h-1z" style="fill:#220825;fill-opacity:.349;stroke:none"/><path d="M5 7V6H4v1zM6 27v-1H5v1zM14 31v-1h-1v1zM30 14v1h1v-1zM30 17v1h1v-1z" style="fill:#240c28;fill-opacity:.91;stroke:none"/><path d="M5 12v-1H4v1zM11 18v-1h-1v1H9v1H8v-1H7v-1H6v-1h1v-3H6v1H4v3h1v1h1v1h1v1h2v1h1v1h2v1h7v-1h3v-1h1v-1h1v-1h-6v-1h-1v-1h-2v1h-1v1h-2v-1zM7 12h1v-1H7zM10 10v1h1v-1zM20 9h-8v1h1v1h1v1h1v-2h2v2h1v-1h1v-1h1z" style="fill:#22091b;fill-opacity:1;stroke:none"/><path d="M21 17v1h1v-1zM23 13v1h1v2h2v1h-1v1h2v-4h-1v-1zM24 18v1h1v-1zM28 12h-1v1h1zM28 20v-1h-1v1z" style="fill:#22091b;fill-opacity:1;stroke:none"/><path d="M7 12v-1h1v-1H6v1H5v1H4v2h1v-1h1v-1zM7 20H6v-1H4v1h1v1h1v1h2v1h2v-1H9v-1H7zM20 7h-9v1H9v1H8v1h2V9h2V8h8zM19 25v-1h-6v-1h-3v1h2v1zM22 24v-1h2v-1h1v-1h1v-1h-2v1h-1v1h-2v1h-2v1zM20 8v1h2v1h2V9h-1V8zM27 13v-2h-1v-1h-2v2h2v1zM27 19h-1v1h1zM27 14h1v-1h-1zM27 19h1v-1h-1z" style="fill:#21091a;fill-opacity:1;stroke:none"/><path d="M4 18h1v-1H4zM6 14v-1H5v1zM6 19v-1H5v1zM7 9V8H6v1zM6 13h1v-1H6zM7 19H6v1h1zM7 20v1h2v-1zM10 21H9v1h1zM10 9v1h2V9zM10 22v1h2v-1zM12 9h8V8h-8zM13 23v1h6v-1zM21 23v-1h-2v1zM22 10V9h-2v1zM23 22v-1h-1v1zM24 20h-1v1h1zM24 19v1h2v-1h1v-1h-2v1zM25 12v1h1v-1zM26 13v1h1v-1zM27 22v-1h-1v1z" style="fill:#21091b;fill-opacity:1;stroke:none"/><path d="M5 19v-1H4v1zM5 10v1h1v-1zM6 22v-1H5v1zM8 7v1H7v1H6v1h2V9h1V8h2V7h9v1h3V7h-1V6h-4V5h-3V4h-1v1h-1v1h-3v1zM12 25v-1h-2v-1H8v-1H6v1h1v1h2v1h2v1h9v1h1v-2h1v1h1v-2h1v-1h-2v1h-3v1zM26 9h-1V8h-2v1h1v1h2zM24 23h2v-2h-1v1h-1zM26 11h1v-1h-1zM26 20v1h1v-1z" style="fill:#200a1a;fill-opacity:1;stroke:none"/><path d="M5 20H4v1h1zM8 12H7v4h1zM14 11h-1v3h1zM19 19v-1h-1v1z" style="fill:#250b1f;fill-opacity:1;stroke:none"/><path d="M5 5v1h1V5zM13 2h1V1h-1zM18 2h1V1h-1zM28 9h1V8h-1zM28 23v1h1v-1zM29 11h1v-1h-1zM29 21v1h1v-1z" style="fill:#240b28;fill-opacity:.933;stroke:none"/><path d="M6 7V6H5v1zM8 27v1h1v-1zM11 29v-1h-1v1zM11 27v1h1v-1zM15 30h2v-1h-2zM18 2v1h1V2zM23 27v-1h-1v1z" style="fill:#36223d;fill-opacity:1;stroke:none"/><path d="M5 9v1h1V9zM6 23v1h1v-1zM8 25v-1H7v1zM9 7V6H8v1zM14 27v1h3v-1zM22 5h-1v1h1zM25 8V7h-1v1zM26 8h-1v1h1z" style="fill:#220c1e;fill-opacity:1;stroke:none"/><path d="M5 23h1v-1H5zM8 25v1h1v-1zM13 27v1h1v-1zM19 28v-1h-1v1zM20 5V4h-1v1zM22 27v-1h-1v1zM24 25h1v-1h-1zM26 23h-1v1h1zM27 10V9h-1v1zM27 12h1v-1h-1z" style="fill:#271124;fill-opacity:1;stroke:none"/><path d="M6 4v1h1V4zM19 31v-1h-1v1z" style="fill:#210824;fill-opacity:.89;stroke:none"/><path d="M7 6H6v1h1zM7 26v-1H6v1zM8 5H7v1h1zM8 27h1v-1H8zM9 4v1h1V4zM10 27H9v1h1zM13 4V3h-2v1zM14 29v-1h-2v1zM20 29v-1h-3v1zM19 4h2V3h-2zM23 28v-1h-2v1zM22 5h1V4h-1zM23 26v1h1v-1zM25 6V5h-1v1zM26 6h-1v1h1z" style="fill:#43314e;fill-opacity:1;stroke:none"/><path d="M6 16v1h1v-1zM8 19h1v-1H8zM11 12v-1h-1v1zM14 18h-2v1h2zM22 11v-1h-1v1zM25 17h1v-1h-1zM27 18h1v-4h-1z" style="fill:#21071a;fill-opacity:1;stroke:none"/><path d="M6 28v1h1v-1zM14 31h-1v1h1zM28 5h-1v1h1zM32 15v-1h-1v1zM31 18h1v-1h-1z" style="fill:#210724;fill-opacity:.192;stroke:none"/><path d="M8 8V7H7v1zM11 5h-1v1h1zM13 4v1h1V4zM17 4v1h2V4z" style="fill:#200c1b;fill-opacity:1;stroke:none"/><path d="M8 16H7v1h1zM15 13v-1h-1v1zM18 12h-1v1h1zM21 16v1h1v-1zM24 16v-1h-1v1z" style="fill:#3d2737;fill-opacity:1;stroke:none"/><path d="M7 26h1v-1H7zM8 5v1h1V5zM11 5V4h-1v1zM15 2h-1v1h1zM18 2h-1v2h1zM25 26h-1v1h1zM26 8v1h1V8zM27 24h1v-1h-1z" style="fill:#3c2844;fill-opacity:1;stroke:none"/><path d="M8 30v-1H7v1zM20 32v-1h-1v1zM22 2h1V1h-1z" style="fill:#220925;fill-opacity:.055;stroke:none"/><path d="M8 3v1h1V3zM9 29v-1H8v1zM11 2h-1v1h1zM11 30h1v-1h-1zM21 29h-1v1h1zM25 27h-1v1h1z" style="fill:#230a27;fill-opacity:1;stroke:none"/><path d="M8 10v1h2v-1zM11 17v-1h-1v1zM11 11h2v-1h-2zM17 10h-2v1h2zM21 10h-2v1h2zM24 11v-1h-2v1zM23 14v1h1v-1zM24 13h1v-1h-1z" style="fill:#200619;fill-opacity:1;stroke:none"/><path d="M8 12h1v-1H8zM15 11v1h2v-1z" style="fill:#594654;fill-opacity:1;stroke:none"/><path d="M9 12H8v4h1zM12 13h-1v1h1zM19 17h1v-1h-1zM22 17h1v-1h-1z" style="fill:#a69ea4;fill-opacity:1;stroke:none"/><path d="M8 17h1v-1H8zM9 16h1v-1H9zM13 17v-1h-1v1zM19 16h-1v1h1zM20 12h-1v1h1z" style="fill:#9d939b;fill-opacity:1;stroke:none"/><path d="M8 17v1h1v-1zM9 6h1V5H9zM13 17h-1v1h1zM12 28h1v-1h-1zM18 14v1h1v-1zM21 11v1h1v-1zM22 17v1h1v-1zM24 26v-1h-1v1z" style="fill:#2c1629;fill-opacity:1;stroke:none"/><path d="M8 24v1h1v-1zM10 7V6H9v1zM9 25v1h2v-1zM13 6V5h-2v1zM20 27v-1h-9v1zM15 5h2V4h-2zM21 5h-3v1h3zM22 26v-1h-1v1zM23 7V6h-1v1zM23 8h1V7h-1zM23 24v1h1v-1zM25 23h-1v1h1z" style="fill:#1f0a18;fill-opacity:1;stroke:none"/><path d="M10 12v-1H9v1zM23 13h1v-1h-1z" style="fill:#513e4c;fill-opacity:1;stroke:none"/><path d="M10 12H9v1h1zM12 16v-1h-1v1zM14 16h-1v1h1z" style="fill:#948a91;fill-opacity:1;stroke:none"/><path d="M10 13H9v1h1zM13 12h-1v2h1zM12 16h1v-1h-1zM17 16v-1h-2v1z" style="fill:#ada6ab;fill-opacity:1;stroke:none"/><path d="M10 15v-1H9v1zM14 16h1v-1h-1zM17 15v1h1v-1z" style="fill:#d2cfd1;fill-opacity:1;stroke:none"/><path d="M9 16v1h1v-1zM12 17v-1h-1v1zM14 14h1v-1h-1zM18 13h-1v1h1z" style="fill:#786974;fill-opacity:1;stroke:none"/><path d="M11 13v-1h-1v1zM19 14v-1h-1v1z" style="fill:#1d0416;fill-opacity:1;stroke:none"/><path d="M10 14h1v-1h-1zM13 11h-1v1h1z" style="fill:#5d4b58;fill-opacity:1;stroke:none"/><path d="M10 14v1h1v-1zM21 12h-1v1h1z" style="fill:#b4adb2;fill-opacity:1;stroke:none"/><path d="M10 15v1h1v-1zM17 17v-1h-2v1zM21 19v-1h-1v1zM28 20h-1v1h1z" style="fill:#2b1225;fill-opacity:1;stroke:none"/><path d="M11 26h-1v1h1zM13 4h-1v1h1zM17 28h1v-1h-1zM23 7h1V6h-1z" style="fill:#231021;fill-opacity:1;stroke:none"/><path d="M11 29h-1v1h1zM14 1v1h4V1zM15 30v1h2v-1zM22 3V2h-1v1zM24 4V3h-1v1z" style="fill:#220925;fill-opacity:.976;stroke:none"/><path d="M12 1h-1v1h1zM29 22v1h1v-1z" style="fill:#210724;fill-opacity:.663;stroke:none"/><path d="M11 4v1h1V4zM13 17v1h1v-1zM19 12v-1h-1v1zM18 17v1h2v-1zM19 15h1v-1h-1zM24 18v-1h-1v1z" style="fill:#30182b;fill-opacity:1;stroke:none"/><path d="M12 11h-1v1h1zM23 11v1h1v-1z" style="fill:#4c3847;fill-opacity:1;stroke:none"/><path d="M11 13h1v-1h-1zM14 16v1h1v-1zM18 17v-1h-1v1z" style="fill:#8c8089;fill-opacity:1;stroke:none"/><path d="M11 14v1h1v-1zM17 14v-1h-2v1zM23 13v-1h-1v1z" style="fill:#cbc7ca;fill-opacity:1;stroke:none"/><path d="M12 31v-1h-1v1zM20 2h1V1h-1zM25 28h-1v1h1zM28 8h1V7h-1z" style="fill:#210824;fill-opacity:.588;stroke:none"/><path d="M13 15v-1h-1v1zM22 16v-1h-1v1z" style="fill:#aba3a9;fill-opacity:1;stroke:none"/><path d="M13 15h1v-1h-1zM25 16h-1v1h1z" style="fill:#372031;fill-opacity:1;stroke:none"/><path d="M13 15v1h1v-1zM20 16v1h1v-1zM23 15v-1h-1v1z" style="fill:#6c5d68;fill-opacity:1;stroke:none"/><path d="M14 14v1h4v-1zM21 15v-1h-1v1zM23 15h-1v1h1z" style="fill:#bbb5b9;fill-opacity:1;stroke:none"/><path d="M14 30v1h1v-1zM17 31h1v-1h-1zM22 30v-1h-1v1zM23 29h1v-1h-1z" style="fill:#210724;fill-opacity:.949;stroke:none"/><path d="M15 32v-1h-1v1zM23 29v1h1v-1zM29 8v1h1V8z" style="fill:#210824;fill-opacity:.278;stroke:none"/><path d="M17 13v-1h-2v1zM20 16h1v-1h-1z" style="fill:#c7c3c6;fill-opacity:1;stroke:none"/><path d="M19 16v-1h-1v1zM19 12h1v-1h-1zM22 12h1v-1h-1z" style="fill:#685864;fill-opacity:1;stroke:none"/><path d="M19 14h1v-1h-1zM21 12v-1h-1v1z" style="fill:#473241;fill-opacity:1;stroke:none"/><path d="M19 15v1h1v-1zM23 13h-1v1h1zM23 16v1h1v-1z" style="fill:#83767f;fill-opacity:1;stroke:none"/><path d="M21 13h-1v1h1z" style="fill:#c5c1c4;fill-opacity:1;stroke:none"/><path d="M21 30h-1v1h1zM28 24v1h1v-1z" style="fill:#210824;fill-opacity:.537;stroke:none"/><path d="M21 12v1h1v-1z" style="fill:#897d86;fill-opacity:1;stroke:none"/><path d="M21 15h1v-2h-1z" style="fill:#dfdede;fill-opacity:1;stroke:none"/><path d="M24 3v1h1V3z" style="fill:#220724;fill-opacity:.631;stroke:none"/></svg>