<?xml version="1.0" standalone="no"?>
<!DOCTYPE svg PUBLIC "-//W3C//DTD SVG 20010904//EN"
 "http://www.w3.org/TR/2001/REC-SVG-20010904/DTD/svg10.dtd">
<svg version="1.0" xmlns="http://www.w3.org/2000/svg"
 width="200.000000pt" height="200.000000pt" viewBox="0 0 200.000000 200.000000"
 preserveAspectRatio="xMidYMid meet">
<metadata>
Created by potrace 1.16, written by Peter Selinger 2001-2019
</metadata>
<g transform="translate(0.000000,200.000000) scale(0.100000,-0.100000)"
fill="#000000" stroke="none">
<path d="M879 1960 c-352 -44 -650 -272 -781 -598 -94 -235 -91 -514 8 -739
12 -29 21 -53 18 -53 -3 0 0 -6 6 -13 15 -18 80 -118 80 -124 0 -15 155 -167
220 -215 76 -57 247 -135 335 -154 150 -32 338 -29 470 6 292 78 533 288 646
564 53 128 71 227 71 376 -1 101 -6 144 -26 225 -94 362 -375 634 -736 710
-88 18 -230 25 -311 15z m-279 -755 l0 -65 60 0 60 0 0 65 0 65 35 0 34 0 3
-147 c3 -140 4 -148 23 -148 16 0 32 29 84 148 l65 147 36 0 36 0 64 -147 c36
-81 70 -147 75 -147 6 0 31 31 56 70 l46 69 -35 55 c-19 30 -42 65 -50 78 -14
22 -14 22 31 22 42 0 46 -3 75 -46 l30 -46 27 46 c26 44 29 46 71 46 24 0 44
-2 44 -6 0 -3 -18 -32 -40 -64 -22 -33 -43 -66 -46 -74 -8 -21 85 -156 107
-156 11 0 19 -4 19 -10 0 -6 -26 -10 -59 -10 l-59 0 -32 50 -33 51 -34 -51
-34 -50 -84 0 -84 0 -12 35 -13 35 -67 0 -67 0 -12 -35 -12 -35 -94 0 -94 0 0
60 0 60 -60 0 -60 0 0 -60 0 -60 -60 0 c-33 0 -60 4 -60 10 0 6 9 10 20 10 19
0 20 7 20 150 l0 150 40 0 40 0 0 -65z"/>
</g>
</svg>
