<svg width="92" height="92" xmlns="http://www.w3.org/2000/svg"><path d="M1 38v1h1v-1zM3 58v-1H2v1zM4 28v1h1v-1zM5 64v-1H4v1zM6 66v-1H5v1zM7 68v-1H6v1zM7 22v1h1v-1zM9 19v1h1v-1zM10 74h1v-1h-1zM21 84h1v-1h-1zM25 6h-1v1h1zM27 5h-1v1h1zM31 3v1h1V3zM40 1v1h1V1zM42 90v1h3v-1zM49 91v-1h-3v1zM50 2h1V1h-1zM55 89v1h1v-1zM56 2v1h1V2zM62 4v1h1V4zM68 8h1V7h-1zM71 9v1h1V9zM82 73v-1h-1v1zM84 70v-1h-1v1zM88 62v-1h-1v1zM88 58v1h1v-1zM90 38v-1h-1v1zM90 54h-1v1h1z" style="fill:#220925;fill-opacity:.031;stroke:none"/><path d="M2 39H1v1h1zM2 53v-1H1v1zM3 34H2v1h1zM4 60H3v1h1zM6 27v-1H5v1zM7 24H6v1h1zM18 81v-1h-1v1zM19 11v-1h-1v1zM29 87v1h1v-1zM33 89v-1h-1v1zM35 3h1V2h-1zM37 89h-1v1h1zM41 1v1h1V1zM45 90v1h1v-1zM50 2V1h-1v1zM60 4V3h-1v1zM65 5h-1v1h1zM67 7V6h-1v1zM70 83h-1v1h1zM72 81v1h1v-1zM87 31h1v-1h-1zM88 34h1v-1h-1z" style="fill:#220925;fill-opacity:.067;stroke:none"/><path d="M2 41v-1H1v1zM3 56H2v1h1zM8 22h1v-1H8zM12 75v1h1v-1zM15 78v1h1v-1zM17 11v1h1v-1zM21 83v-1h-1v1zM26 86v-1h-1v1zM30 4h-1v1h1zM48 2V1h-5v1zM72 10v1h1v-1zM74 81v-1h-1v1zM86 66v-1h-1v1zM86 28v1h1v-1zM88 58h1v-1h-1z" style="fill:#220925;fill-opacity:.149;stroke:none"/><path d="M1 42h1v-1H1zM1 50v1h1v-1zM3 36v-1H2v1zM5 62H4v1h1zM8 69v-1H7v1zM12 17h-1v1h1zM14 77v-1h-1v1zM14 78h1v-1h-1zM32 3v1h1V3zM36 3h1V2h-1zM37 89v1h1v-1zM53 89v1h1v-1zM61 4v1h1V4zM64 87v-1h-1v1zM66 85h-1v1h1zM67 85h1v-1h-1zM70 9V8h-1v1zM74 79v1h1v-1zM80 74h-1v1h1zM81 19v-1h-1v1zM83 71v-1h-1v1zM84 25h1v-1h-1zM86 27v-1h-1v1zM87 61h1v-1h-1zM88 34v1h1v-1zM90 39h-1v1h1zM89 52v1h1v-1z" style="fill:#220925;fill-opacity:.192;stroke:none"/><path d="M1 43h1v-1H1zM1 50h1v-1H1zM4 59H3v1h1zM4 29v1h1v-1zM10 72v-1H9v1zM13 17v-1h-1v1zM16 12v1h1v-1zM23 8h1V7h-1zM28 5h-1v1h1zM31 88v-1h-1v1zM33 88v1h1v-1zM54 3h1V2h-1zM58 3v1h1V3zM71 82h-1v1h1zM74 12v-1h-1v1zM78 75v1h1v-1zM88 32v-1h-1v1zM90 51h-1v1h1z" style="fill:#220925;fill-opacity:.251;stroke:none"/><path d="M2 44v-1H1v1zM2 49v-1H1v1zM2 55v1h1v-1zM3 32v1h1v-1zM5 65h1v-1H5zM6 66v1h1v-1zM7 24h1v-1H7zM13 15v1h1v-1zM15 14h-1v1h1zM15 14h1v-1h-1zM21 10V9h-1v1zM26 6h-1v1h1zM39 90v-1h-1v1zM57 88v1h1v-1zM61 88v-1h-1v1zM68 8V7h-1v1zM76 79v-1h-1v1zM76 78h1v-1h-1zM77 76v1h1v-1zM80 18v-1h-1v1zM83 21h-1v1h1zM88 56v1h1v-1zM89 41h1v-1h-1z" style="fill:#220925;fill-opacity:.306;stroke:none"/><path d="M1 44v4h1v-4zM2 36v1h1v-1zM5 28h1v-1H5zM7 26v-1H6v1zM10 21v-1H9v1zM20 81h-1v1h1zM23 84v-1h-1v1zM37 3h1V2h-1zM53 89h-1v1h1zM54 3V2h-1v1zM64 6V5h-1v1zM66 7V6h-1v1zM75 12h-1v1h1zM83 69h1v-1h-1zM87 63v-1h-1v1zM89 36v-1h-1v1zM90 42v-1h-1v1zM89 50v1h1v-1z" style="fill:#220925;fill-opacity:.365;stroke:none"/><path d="M2 52v-1H1v1zM3 32h1v-1H3zM8 71h1v-1H8zM11 18h-1v1h1zM12 75v-1h-1v1zM17 79h-1v1h1zM21 9h1V8h-1zM24 85v-1h-1v1zM27 86v1h1v-1zM43 2V1h-1v1zM49 1h-1v1h1zM55 90v-1h-1v1zM56 2h-1v1h1zM58 89h1v-1h-1zM62 88v-1h-1v1zM80 73v1h1v-1zM81 20h1v-1h-1zM83 22v1h1v-1zM84 68h1v-1h-1zM86 64h1v-1h-1zM89 38v1h1v-1zM89 54h1v-1h-1z" style="fill:#220925;fill-opacity:.102;stroke:none"/><path d="M2 37v1h1v-1zM2 54v1h1v-1zM4 59v-1H3v1zM4 62h1v-1H4zM9 69H8v1h1zM18 80v1h1v-1zM19 11h1v-1h-1zM23 8h-1v1h1zM25 85v-1h-1v1zM26 86h1v-1h-1zM31 88h1v-1h-1zM39 3V2h-1v1zM40 89v1h1v-1zM52 3h1V2h-1zM56 89h1v-1h-1zM61 5V4h-1v1zM62 87h1v-1h-1zM81 20v1h1v-1zM83 24h1v-1h-1zM87 33h1v-1h-1zM88 56h1v-1h-1zM90 43h-1v2h1zM90 47h-1v2h1z" style="fill:#220925;fill-opacity:.522;stroke:none"/><path d="M3 39v-1H2v1zM4 57H3v1h1zM6 29v-1H5v1zM6 65v1h1v-1zM8 25v-1H7v1zM12 18h-1v1h1zM12 74v1h1v-1zM17 78h-1v1h1zM30 86h-1v1h1zM32 5V4h-1v1zM41 2h-1v1h1zM44 89h-2v1h2zM47 89v1h2v-1zM51 3V2h-1v1zM55 89h1v-1h-1zM70 83v-1h-1v1zM80 74v-1h-1v1zM80 19v1h1v-1zM87 61h-1v1h1zM88 59v-1h-1v1zM89 37h-1v1h1zM88 54v1h1v-1z" style="fill:#220925;fill-opacity:.733;stroke:none"/><path d="M3 40v-1H2v1zM2 53h1v-1H2zM3 34v1h1v-1zM5 60H4v1h1zM7 26H6v1h1zM9 71h1v-1H9zM14 75h-1v1h1zM14 77h1v-1h-1zM15 78h1v-1h-1zM18 12h-1v1h1zM21 9v1h1V9zM23 83v1h1v-1zM33 88v-1h-1v1zM42 3V2h-1v1zM44 89v1h3v-1zM59 4v1h1V4zM61 86v1h1v-1zM64 6v1h1V6zM66 7v1h1V7zM72 12h1v-1h-1zM74 80v-1h-1v1zM82 23h1v-1h-1zM87 30h-1v1h1zM88 33h-1v1h1z" style="fill:#220925;fill-opacity:.788;stroke:none"/><path d="M3 41v-1H2v1zM4 57v-1H3v1zM5 63h1v-1H5zM8 68v1h1v-1zM10 71v1h1v-1zM14 16h-1v1h1zM14 16h1v-1h-1zM15 14v1h1v-1zM24 8h-1v1h1zM29 5v1h1V5zM33 5V4h-1v1zM37 88v1h1v-1zM48 3V2h-5v1zM63 86h1v-1h-1zM66 84h-1v1h1zM68 84v-1h-1v1zM73 13h1v-1h-1zM76 78v-1h-1v1zM77 77v-1h-1v1zM77 76h1v-1h-1zM78 17v1h1v-1zM82 70h-1v1h1zM83 24v1h1v-1zM84 26v1h1v-1zM86 28h-1v1h1zM87 60h-1v1h1zM88 34h-1v1h1zM87 57v1h1v-1zM88 53h1v-1h-1z" style="fill:#220925;fill-opacity:.906;stroke:none"/><path d="M3 41H2v1h1zM3 49H2v2h1zM4 36v-1H3v1zM4 60h1v-1H4zM5 29v1h1v-1zM6 65h1v-1H6zM8 66H7v1h1zM9 24v-1H8v1zM19 81h1v-1h-1zM21 10h-1v1h1zM26 7h-1v1h1zM27 7h1V6h-1zM31 87v-1h-1v1zM33 88h1v-1h-1zM36 3v1h1V3zM54 89v-1h-1v1zM54 4h1V3h-1zM59 5V4h-1v1zM62 6V5h-1v1zM70 82h1v-1h-1zM75 14v-1h-1v1zM77 17h1v-1h-1zM82 21h-1v1h1zM87 31h-1v1h1zM88 39v1h1v-1z" style="fill:#220925;fill-opacity:.949;stroke:none"/><path d="M3 42H2v2h1zM2 48v1h1v-1zM3 56h1v-1H3zM4 32v1h1v-1zM7 28v-1H6v1zM7 26h1v-1H7zM11 20h-1v1h1zM12 72h-1v1h1zM23 82h-1v1h1zM35 5h1V4h-1zM38 89h1v-1h-1zM57 87v1h1v-1zM61 87v-1h-1v1zM63 6v1h1V6zM65 8h1V7h-1zM68 9V8h-1v1zM70 11h1v-1h-1zM76 15v-1h-1v1zM76 15v1h1v-1zM80 71v1h1v-1zM83 68h-1v1h1zM86 62h-1v1h1zM88 57v-1h-1v1zM89 41v-1h-1v1zM89 51h-1v1h1z" style="fill:#220925;fill-opacity:.98;stroke:none"/><path d="M3 45v-1H2v1zM2 48h1v-1H2zM5 40v-3H4v3zM5 54v-2H4v2zM5 35h1v-2H5zM6 58v-2H5v2zM7 30H6v2h1zM7 61v-2H6v2zM7 28v2h1v-2zM7 63h1v-2H7zM8 28h1v-2H8zM9 64H8v1h1zM10 26v-1H9v1zM10 65H9v1h1zM11 23h-1v1h1zM10 68h1v-1h-1zM12 22h-1v1h1zM11 69h1v-1h-1zM12 22h1v-2h-1zM12 70v1h1v-1zM13 19v1h1v-1zM13 71v1h1v-1zM15 18h-1v1h1zM15 72h-1v1h1zM16 17h-1v1h1zM16 73h-1v1h1zM16 17h1v-1h-1zM17 75v-1h-1v1zM17 15v1h2v-1zM18 76v-1h-1v1zM20 76h-2v1h2zM19 15h1v-1h-1zM21 13h-1v1h1zM20 78h1v-1h-1zM21 12v1h2v-1zM21 79h1v-1h-1zM23 11v1h1v-1zM23 79v1h1v-1zM25 10v1h1v-1zM26 81v-1h-1v1zM28 9h-1v1h1zM28 81h-1v1h1zM31 9V8h-2v1zM30 83v-1h-1v1zM34 8V7h-2v1zM33 84v-1h-1v1zM35 4h-1v1h1zM39 6h-3v1h3zM36 84v1h2v-1zM38 4V3h-1v1zM48 86v-1h-5v1zM52 6v1h3V6zM52 88v1h1v-1zM54 85h1v-1h-1zM57 84h-1v1h1zM59 8V7h-2v1zM58 84h1v-1h-1zM62 9V8h-2v1zM61 83h1v-1h-1zM63 10h1V9h-1zM64 82v-1h-1v1zM65 10v1h1v-1zM65 81h1v-1h-1zM66 83v1h1v-1zM67 11v1h1v-1zM68 79h-1v1h1zM70 13v-1h-2v1zM70 78h-1v1h1zM70 82v-1h-1v1zM70 13v1h1v-1zM70 77v1h1v-1zM71 14v1h1v-1zM72 80h-1v1h1zM73 15v1h1v-1zM74 76v-1h-1v1zM75 16h-1v1h1zM75 75v-1h-1v1zM75 18h1v-1h-1zM75 74h1v-1h-1zM77 19v-1h-1v1zM76 72v1h1v-1zM78 20v-1h-1v1zM78 71h-1v1h1zM79 20h-1v1h1zM80 22h-1v1h1zM81 24v-1h-1v1zM80 68h1v-1h-1zM81 26h1v-1h-1zM83 27v-1h-1v1zM82 64v1h1v-1zM84 29v-1h-1v1zM84 63v-1h-1v1zM84 31v1h1v-1zM84 60v1h1v-1zM86 33h-1v1h1zM86 57h-1v1h1zM87 38v-1h-1v1zM86 53v1h1v-1z" style="fill:#220a27;fill-opacity:1;stroke:none"/><path d="M29 83v-1h-2v-1h-2v-1h-2v-1h-2v-1h-1v-1h-2v-1h-1v-1h-1v-1h-1v-1h-1v-1h-1v-1h-1v-2h-1v-1h-1v-2H9v-1H8v-2H7v-2H6v-3H5v-4H4V37h1v-4H4v3H3v9H2v2h1v8h1v4h1v3h1v2h1v2h1v2h1v2h1v1h1v1h1v2h1v1h1v1h1v1h1v1h1v1h1v1h2v1h1v1h2v1h1v1h2v1h2v1h3v1h3v1h5v1h13v-1h5v-1h3v-1h3v-1h2v-1h1v-1h3v-2h2v-1h2v-1h1v-1h1v-1h1v-1h1v-1h1v-1h1v-1h1v-2h1v-1h1v-2h1v-1h1v-2h1v-3h1v-2h1v-4h1v-5h1V41h-1v-6h-1v-3h-1v-3h-1v-2h-1v-2h-1v-2h-1v-1h-1v-2h-1v-1h-1v-1h-1v-1h-1v-1h-1v-1h-1v-1h-1v-1h-1v-1h-1v-1h-2v-1h-1V9h-2V8h-2V7h-2V6h-2V5h-3V4h-4V3H38v1h-2v1h-2V4h-1v1h-3v1h-2v1h-2v1h-2v1h-2v1h-1v1h-2v1h-1v1h-1v1h-1v1h-1v1h-1v1h-1v1h-1v1h-1v2h-1v1H9v2H8v2h1v-1h1v-2h1v-1h1v-2h1v-1h1v-1h1v-1h1v-1h1v-1h2v-1h1v-1h1v-1h2v-1h2v-1h2V9h2V8h3V7h4V6h19v1h4v1h3v1h2v1h2v1h2v1h2v1h1v1h1v1h2v1h1v1h1v1h1v1h1v1h1v2h1v1h1v2h1v1h1v2h1v3h1v2h1v4h1v17h-1v4h-1v3h-1v2h-1v2h-1v1h-1v2h-1v1h-1v1h-1v2h-1v1h-1v1h-1v1h-1v1h-2v1h-1v1h-1v1h-2v1h-2v1h-2v1h-2v1h-3v1h-2v1h-1v-1h-1v1h-7v1h-5v-1h-7v-1h-4v-1z" style="fill:#220925;fill-opacity:1;stroke:none"/><path d="M5 33h1v-3H5zM7 28H6v2h1zM8 26H7v2h1z" style="fill:#220925;fill-opacity:1;stroke:none"/><path d="M3 51H2v1h1zM5 32v-1H4v1zM10 21H9v1h1zM13 17h-1v1h1zM17 14v-1h-1v1zM20 81v1h1v-1zM25 84v1h1v-1zM27 86h1v-1h-1zM36 4V3h-1v1zM37 89v-1h-1v1zM43 2h-1v1h1zM48 3h2V2h-2zM55 88h-1v1h1zM56 3h-1v1h1zM59 87h-1v1h1zM70 9h-1v1h1zM74 79h1v-1h-1zM79 75v-1h-1v1zM79 18v1h1v-1zM84 67h-1v1h1zM84 65v1h1v-1zM85 64h1v-1h-1zM88 39h1v-1h-1zM88 53v1h1v-1z" style="fill:#220925;fill-opacity:.847;stroke:none"/><path d="M3 53H2v1h1zM6 64v-1H5v1zM7 67v1h1v-1zM17 79v1h1v-1zM19 12v-1h-1v1zM22 82h-1v1h1zM25 8V7h-1v1zM26 6v1h1V6zM34 3v1h1V3zM36 89v-1h-1v1zM39 2v1h1V2zM42 89h-1v1h1zM50 89h-1v1h1zM51 2v1h1V2zM57 4V3h-1v1zM62 6h1V5h-1zM69 8h-1v1h1zM72 11v-1h-1v1zM72 81h1v-1h-1zM81 72h-1v1h1zM82 69v1h1v-1z" style="fill:#220925;fill-opacity:.663;stroke:none"/><path d="M3 34h1v-1H3zM4 31h1v-1H4zM9 22H8v1h1zM11 20v-1h-1v1zM12 74v-1h-1v1zM29 5h-1v1h1zM51 90v-1h-1v1zM60 88v-1h-1v1zM64 85v1h1v-1zM67 85v-1h-1v1zM84 25v1h1v-1zM85 28h1v-1h-1zM89 36h-1v1h1zM89 47h1v-2h-1z" style="fill:#220925;fill-opacity:.584;stroke:none"/><path d="M5 41v-1H4v1zM4 50v2h1v-2zM6 36v-1H5v1zM6 56v-1H5v1zM7 33v-1H6v1zM6 58v1h1v-1zM9 64v-1H8v1zM9 53h1v-1H9zM11 25v-1h-1v1zM11 66h-1v1h1zM11 32v1h1v-1zM12 69v1h1v-1zM14 21v-1h-1v1zM13 29h1v-1h-1zM13 71h1v-1h-1zM15 19h-1v1h1zM16 18h-1v1h1zM16 26v-1h-1v1zM16 18h1v-1h-1zM18 17v-1h-1v1zM17 74v1h1v-1zM18 76h1v-1h-1zM21 14h1v-1h-1zM22 78v1h1v-1zM25 12v-1h-1v1zM24 79v1h1v-1zM26 11h1v-1h-1zM27 75h-1v1h1zM28 10h1V9h-1zM29 77v-1h-1v1zM29 82v-1h-1v1zM30 83h1v-1h-1zM31 8v1h1V8zM33 84h1v-1h-1zM35 7h-1v1h1zM37 79h-1v1h1zM39 85v-1h-1v1zM41 7V6h-2v1zM44 80v1h4v-1zM52 7V6h-1v1zM52 85h2v-1h-2zM53 12h1v-1h-1zM56 7v1h1V7zM58 83h-1v1h1zM60 9V8h-1v1zM60 82v1h1v-1zM63 9h-1v1h1zM65 10h-1v1h1zM67 12v-1h-1v1zM67 18h1v-1h-1zM68 78v1h1v-1zM72 70h-1v1h1zM72 77v-1h-1v1zM73 15h-1v1h1zM72 69v1h1v-1zM74 16h-1v1h1zM73 68v1h1v-1zM76 26v1h1v-1zM78 20h-1v1h1zM79 21h-1v1h1zM78 69v1h1v-1zM80 68h-1v1h1zM82 65h-1v1h1zM82 28h1v-1h-1zM83 64v-1h-1v1zM83 29v1h1v-1zM83 61v1h1v-1zM84 60h1v-1h-1zM85 34v1h1v-1zM85 56v1h1v-1zM86 40h1v-2h-1zM86 53h1v-1h-1z" style="fill:#27112b;fill-opacity:1;stroke:none"/><path d="M4 41v2h1v-2zM4 48v2h1v-2zM6 36H5v1h1zM7 30v1h1v-1zM7 60v1h1v-1zM9 29v-1H8v1zM9 27h1v-1H9zM10 53H9v1h1zM10 65v-1H9v1zM11 35v-1h-1v1zM11 24h1v-1h-1zM15 26h-1v1h1zM15 71h-1v1h1zM15 73h1v-1h-1zM17 73h-1v1h1zM18 68h-1v1h1zM19 69h-1v1h1zM20 71v-1h-1v1zM21 15v-1h-1v1zM20 72h1v-1h-1zM22 78v-1h-1v1zM23 13h1v-1h-1zM24 18v-1h-1v1zM24 74v1h1v-1zM27 81v-1h-1v1zM28 14v1h1v-1zM30 10V9h-1v1zM32 82h-1v1h1zM32 78v1h1v-1zM33 12v1h1v-1zM34 84h1v-1h-1zM35 8h1V7h-1zM40 85v-1h-1v1zM41 7h1V6h-1zM42 81v-1h-1v1zM49 6v1h2V6zM49 81h1v-1h-1zM52 84h-1v1h1zM55 12v-1h-1v1zM56 8V7h-1v1zM56 79h-1v1h1zM56 83v1h1v-1zM58 79h1v-1h-1zM61 14v-1h-1v1zM62 82h1v-1h-1zM64 16h1v-1h-1zM64 81h1v-1h-1zM66 79v1h1v-1zM69 13v1h1v-1zM69 72v1h1v-1zM71 21h1v-1h-1zM72 22h1v-1h-1zM73 75h-1v1h1zM73 22v1h1v-1zM75 18v-1h-1v1zM76 19v-1h-1v1zM76 66h-1v1h1zM76 19v1h1v-1zM77 64h1v-1h-1zM77 71h1v-1h-1zM78 29v1h1v-1zM79 31v1h1v-1zM80 24v1h1v-1zM81 57h-1v1h1zM81 67v-1h-1v1zM81 55h1v-1h-1zM82 43h1v-1h-1zM83 49v-1h-1v1zM85 32h-1v1h1zM86 36v-1h-1v1zM86 56v-1h-1v1zM87 41v-1h-1v1zM86 50v2h1v-2z" style="fill:#2d1831;fill-opacity:1;stroke:none"/><path d="M4 48h1v-5H4zM5 55h1v-1H5zM7 34v-1H6v1zM9 43H8v5h1zM9 62H8v1h1zM10 38v-1H9v1zM11 60h1v-1h-1zM12 67h-1v1h1zM13 62v-1h-1v1zM17 67h-1v1h1zM18 21v1h1v-1zM19 21h1v-1h-1zM21 73h1v-1h-1zM26 12v-1h-1v1zM27 15h-1v1h1zM28 10h-1v1h1zM31 14v-1h-1v1zM32 9h1V8h-1zM36 80v-1h-1v1zM37 12v-1h-1v1zM40 81h1v-1h-1zM41 84h-1v1h1zM49 7V6h-7v1zM49 11v-1h-6v1zM51 81v-1h-1v1zM51 84h-1v1h1zM60 83v-1h-1v1zM61 9v1h1V9zM62 78v-1h-1v1zM63 77h1v-1h-1zM67 17v-1h-1v1zM68 12h-1v1h1zM70 78v-1h-1v1zM71 19h-1v1h1zM74 75v-1h-1v1zM75 23h-1v1h1zM75 73h-1v1h1zM75 72v1h1v-1zM77 71h-1v1h1zM77 27v1h1v-1zM80 24v-1h-1v1zM80 34h1v-1h-1zM81 26v1h1v-1zM81 36v1h1v-1zM83 41h-1v1h1zM83 50v-1h-1v1zM84 31v-1h-1v1zM85 58h-1v1h1zM86 42h1v-1h-1zM86 50h1v-1h-1z" style="fill:#321d36;fill-opacity:1;stroke:none"/><path d="M5 38h1v-1H5zM6 53H5v1h1zM6 58h1v-1H6zM9 42H8v1h1zM8 49h1v-1H8zM10 55v-1H9v1zM11 25h-1v1h1zM11 57h-1v1h1zM11 32h1v-1h-1zM12 23h1v-1h-1zM13 29h-1v1h1zM13 64h1v-1h-1zM15 66v1h1v-1zM17 24v-1h-1v1zM18 22h-1v1h1zM19 15v1h1v-1zM21 20v-1h-1v1zM21 76h-1v1h1zM23 78v1h1v-1zM25 16h-1v1h1zM27 76v1h1v-1zM30 78v-1h-1v1zM30 81h-1v1h1zM32 12v1h1v-1zM32 34h1v-1h-1zM35 83v1h1v-1zM36 8h1V7h-1zM40 81v-1h-1v1zM41 10v1h2v-1zM41 84v1h1v-1zM49 10v1h1v-1zM49 84v1h1v-1zM52 81v-1h-1v1zM55 8V7h-1v1zM56 12v-1h-1v1zM55 44v1h1v-1zM55 83v1h1v-1zM56 79v1h1v-1zM59 8h-1v1h1zM59 13v-1h-1v1zM60 79v-1h-1v1zM64 11v-1h-1v1zM66 11h-1v1h1zM66 76v-1h-1v1zM69 73h-1v1h1zM69 18v1h1v-1zM71 15v-1h-1v1zM76 24h-1v1h1zM76 66h1v-1h-1zM79 60v1h1v-1zM81 55v1h1v-1zM82 65v-1h-1v1zM82 29h1v-1h-1zM82 40v1h1v-1zM83 51v-1h-1v1zM84 61v-1h-1v1zM85 36v1h1v-1zM87 43v-1h-1v1zM86 48v1h1v-1z" style="fill:#36223c;fill-opacity:1;stroke:none"/><path d="M6 38H5v1h1zM5 52v1h1v-1zM7 34H6v1h1zM6 56v1h1v-1zM8 60v-1H7v1zM9 29H8v1h1zM8 41h1v-1H8zM10 27H9v1h1zM9 55v1h1v-1zM10 66h1v-1h-1zM12 60h-1v1h1zM15 20h-1v1h1zM14 65v1h1v-1zM17 18h1v-1h-1zM20 76v-1h-1v1zM22 17v1h1v-1zM25 80h1v-1h-1zM27 15h1v-1h-1zM27 80v1h1v-1zM29 13v1h1v-1zM31 9h-1v1h1zM34 8h-1v1h1zM37 84v-1h-1v1zM37 7v1h1V7zM40 10h-1v1h1zM43 85h5v-1h-5zM52 10h-1v1h1zM54 8V7h-1v1zM54 80h-1v1h1zM57 12v-1h-1v1zM59 83v-1h-1v1zM59 13h1v-1h-1zM61 81v1h1v-1zM66 15h-1v1h1zM67 75h1v-1h-1zM68 79v-1h-1v1zM70 77h1v-1h-1zM72 71h-1v1h1zM73 70h-1v1h1zM73 69v1h1v-1zM78 65v-1h-1v1zM78 22v1h1v-1zM79 29v-1h-1v1zM80 32v1h1v-1zM82 52v1h1v-1zM85 57h-1v1h1zM86 37h-1v1h1z" style="fill:#3e2b46;fill-opacity:1;stroke:none"/><path d="M5 39v1h1v-1zM8 61v1h1v-1zM10 64v-1H9v1zM11 25h1v-1h-1zM14 70v-1h-1v1zM15 19v1h1v-1zM17 19v-1h-1v1zM19 75v-1h-1v1zM20 72v-1h-1v1zM22 14h-1v1h1zM22 78h1v-1h-1zM24 13h1v-1h-1zM26 12h1v-1h-1zM27 76h-1v1h1zM29 11v-1h-1v1zM30 79h1v-1h-1zM38 7v1h1V7zM44 81v1h1v-1zM47 81h-1v1h1zM53 8V7h-1v1zM54 81h1v-1h-1zM55 84v-1h-1v1zM57 9h1V8h-1zM60 10h1V9h-1zM63 81h1v-1h-1zM65 79v1h1v-1zM66 76h1v-1h-1zM69 14v-1h-1v1zM71 20h1v-1h-1zM71 76h1v-1h-1zM73 16h-1v1h1zM77 22h1v-1h-1zM78 68v1h1v-1zM81 25h-1v1h1zM83 32h1v-1h-1zM85 54h1v-1h-1z" style="fill:#42324c;fill-opacity:1;stroke:none"/><path d="M5 40v1h1v-1zM5 52h1v-1H5zM6 35v1h1v-1zM8 33v-1H7v1zM11 66v1h1v-1zM14 71h1v-1h-1zM15 71v1h1v-1zM18 73h-1v1h1zM20 16v1h1v-1zM21 75v1h1v-1zM24 77v1h1v-1zM27 78h-1v1h1zM29 79h-1v1h1zM31 81h-1v1h1zM32 9h-1v2h1zM31 80h1v-1h-1zM32 12h1v-1h-1zM34 83v-1h-1v1zM35 8h-1v2h1zM35 81v-1h-1v1zM36 11v-1h-1v1zM38 84v-1h-1v1zM40 81h-2v2h1v-1h1zM39 10h5V9h-4V7h-1zM52 7h-1v2h-4v1h5zM51 81v1h3v-1zM53 84h1v-1h-1zM56 10h-1v1h1zM56 8v2h1V8zM57 80h-1v1h1zM58 82v-1h-1v1zM60 80v-1h-1v1zM61 80h-1v1h1zM61 12v1h1v-1zM62 11h1v-1h-1zM64 11v2h1v-2zM66 12v1h1v-1zM69 16h1v-1h-1zM73 18h1v-1h-1zM74 18v1h1v-1zM74 72h1v-1h-1zM75 20h1v-1h-1zM77 20h-1v1h1zM80 65v1h1v-1zM81 28h1v-1h-1zM83 29h-1v1h1zM83 60h1v-1h-1zM85 35v-1h-1v1zM85 39h1v-1h-1z" style="fill:#463552;fill-opacity:1;stroke:none"/><path d="M6 42v-1H5v1zM5 47h1v-3H5zM5 51h1v-2H5zM6 38v1h1v-1zM6 53h1v-1H6zM8 34H7v1h1zM8 57v-1H7v1zM8 32h1v-1H8zM9 59H8v1h1zM10 30v-1H9v1zM9 61v1h1v-1zM10 27v1h1v-1zM11 64v-1h-1v1zM13 25v-1h-1v1zM13 67v-1h-1v1zM15 71h1v-1h-1zM17 71h-1v1h1zM17 72v1h1v-1zM22 16v-1h-1v1zM23 77v-1h-1v1zM24 13v1h1v-1zM27 12h-1v1h1zM28 11v1h1v-1zM30 10v1h1v-1zM30 80v1h1v-1zM34 9h-1v1h1zM34 81h-1v1h1zM37 9h2V8h-2zM38 83v-1h-1v1zM52 8v1h2V8zM53 82v1h2v-1zM57 10h1V9h-1zM60 10v1h1v-1zM62 11v1h1v-1zM67 14v-1h-1v1zM69 76h-1v1h1zM73 74v-1h-1v1zM74 19v-1h-1v1zM74 73v-1h-1v1zM75 19h-1v1h1zM75 21h1v-1h-1zM75 71h1v-1h-1zM76 70h1v-1h-1zM78 24v1h1v-1zM79 25v1h1v-1zM79 65v1h1v-1zM80 28h1v-1h-1zM81 63h-1v1h1zM82 29h-1v1h1zM82 32h1v-1h-1zM83 60v-1h-1v1zM83 34v1h1v-1zM83 56v1h1v-1zM84 38h1v-1h-1zM85 54v-1h-1v1z" style="fill:#4a3656;fill-opacity:1;stroke:none"/><path d="M6 44v-2H5v2zM6 49v-2H5v2zM6 38h1v-2H6zM6 53v2h1v-2zM7 34h1v-1H7zM8 58v-1H7v1zM8 61h1v-1H8zM10 62H9v1h1zM11 64h-1v1h1zM12 25h-1v1h1zM12 65h-1v1h1zM12 68h1v-1h-1zM13 22v1h1v-1zM13 69h1v-1h-1zM14 22h1v-1h-1zM14 70h1v-1h-1zM15 20v1h1v-1zM16 19v1h1v-1zM18 19v-1h-1v1zM18 17v1h1v-1zM18 73v1h1v-1zM19 17h1v-1h-1zM19 75h1v-1h-1zM21 75h-1v1h1zM22 76h-1v1h1zM23 15v-1h-1v1zM24 13h-1v1h1zM24 78v-1h-1v1zM25 12v1h1v-1zM25 78v1h1v-1zM26 79v1h2v-1zM27 12h1v-1h-1zM29 11h1v-1h-1zM30 81v-1h-1v1zM31 82h2v-1h-2zM33 9h-1v1h1zM34 82v1h3v-1zM36 8v1h1V8zM39 83v1h14v-1zM41 7v1h9V7zM56 8h-2v1h2zM57 82h-2v1h2zM59 10V9h-1v1zM60 81h-2v1h2zM61 10v1h1v-1zM63 80h-2v1h2zM64 12v-1h-1v1zM65 80v-1h-2v1zM66 13v-1h-1v1zM67 79v-1h-2v1zM67 13v1h1v-1zM67 77v1h1v-1zM69 14h-1v1h1zM70 76h-1v1h1zM71 15h-1v1h1zM70 76h1v-1h-1zM72 16h-1v1h1zM71 75h1v-1h-1zM73 18v-1h-1v1zM74 74v-1h-1v1zM74 72v1h1v-1zM76 71h-1v1h1zM76 21v1h1v-1zM76 71h1v-1h-1zM77 22v1h1v-1zM77 69h1v-1h-1zM79 24v-1h-1v1zM78 67v1h1v-1zM80 66h-1v1h1zM80 27h1v-1h-1zM80 64v1h1v-1zM82 28h-1v1h1zM82 63v-1h-1v1zM82 30v1h1v-1zM82 60v1h1v-1zM84 34v-2h-1v2zM84 59v-2h-1v2zM84 37h1v-2h-1zM84 56h1v-2h-1zM85 52h1V39h-1z" style="fill:#4c3b58;fill-opacity:1;stroke:none"/><path d="M6 52h1v4h1v3h2v-3H9v-3H8V38H7v1H6zM7 35v2h1v1h1v-3h1v-3H8v3zM12 26h-1v1h1zM14 23h-1v1h1zM78 67h1v-1h-1zM83 33h-1v-1h-1v2h1v3h1v-1h1v-1h-1zM85 38h-1v-1h-1v17h-1v3h-1v2h1v-1h1v-2h1v-3h1zM82 62v-1h-1v1z" style="fill:#493054;fill-opacity:1;stroke:none"/><path d="M6 55v1h1v-1zM7 59h1v-1H7zM9 30H8v1h1zM9 29h1v-1H9zM11 26h-1v1h1zM12 24h1v-1h-1zM17 72h-1v1h1zM20 16h1v-1h-1zM25 79v-1h-1v1zM28 80v1h1v-1zM36 8h-1v1h1zM38 84h1v-1h-1zM41 8V7h-1v1zM51 8V7h-1v1zM58 82h-1v1h1zM60 9h-1v1h1zM61 82v-1h-1v1zM69 78v-1h-1v1zM69 14v1h1v-1zM73 74h-1v1h1zM77 69v1h1v-1zM80 25v-1h-1v1zM82 63h-1v1h1zM82 62h1v-1h-1zM85 57v-1h-1v1zM86 52h-1v1h1z" style="fill:#4a3a54;fill-opacity:1;stroke:none"/><path d="M8 32v-1H7v1zM8 41v1h1v-1zM9 51v-2H8v2zM10 36H9v1h1zM11 34v-1h-1v1zM13 69v-1h-1v1zM13 22h1v-1h-1zM13 27v1h1v-1zM16 25v-1h-1v1zM19 16h-1v1h1zM22 19v-1h-1v1zM23 13h-1v1h1zM22 73v1h1v-1zM26 76v-1h-1v1zM32 79v-1h-1v1zM33 83v-1h-1v1zM35 79h-1v1h1zM35 12h1v-1h-1zM39 80h-1v1h1zM41 10h-1v1h1zM42 84v1h1v-1zM48 84v1h1v-1zM51 11v-1h-1v1zM52 81h1v-1h-1zM62 13h-1v1h1zM64 14h-1v1h1zM68 17v1h1v-1zM71 16h1v-1h-1zM77 25h-1v1h1zM79 63v-1h-1v1zM79 31h1v-1h-1zM79 67v1h1v-1zM80 59h1v-1h-1zM81 36h1v-1h-1zM82 39v1h1v-1zM82 52h1v-1h-1zM82 62v1h1v-1zM84 33v1h1v-1zM85 55h1v-1h-1zM86 43v5h1v-5z" style="fill:#3a2642;fill-opacity:1;stroke:none"/><path d="M8 38v-1H7v1zM8 39h1v-1H8zM13 25h-1v2h-1v1h-1v2H9v2h2v-2h1v-2h1v-2h1v-1h1v-1h1v-1h1v-2h-2v1h-1v2h-1zM12 63v-2h-1v-2H9v2h1v2h1v2h1v1h1v2h1v1h1v1h2v-1h-1v-1h-1v-2h-1v-1h-1v-2zM52 83h1v-1h-1zM59 11h1v-1h-1zM81 31v1h1v-2h-1v-2h-1v-2h-1v-1h-1v-2h-1v-1h-1v-1h-2v1h1v2h1v1h1v1h1v2h1v2h1v1zM76 66v2h-1v1h-1v1h2v-1h1v-1h1v-2h1v-1h1v-2h1v-2h1v-2h-1v1h-1v2h-1v2h-1v1h-1v1zM82 33h1v-1h-1zM83 59v-1h-1v1zM83 37h1v-1h-1z" style="fill:#463154;fill-opacity:1;stroke:none"/><path d="M8 39v1h1v-1zM9 51H8v2h1zM9 36h1v-1H9zM11 32h-1v1h1zM11 59v-1h-1v1zM12 31v-1h-1v1zM13 28h-1v1h1zM12 63h1v-1h-1zM14 65v-1h-1v1zM14 25v1h1v-1zM16 68v1h1v-1zM17 70h1v-1h-1zM19 71v-1h-1v1zM24 74h-1v1h1zM26 16v-1h-1v1zM29 77h-1v1h1zM31 13h1v-1h-1zM34 80v-1h-1v1zM35 12v-1h-1v1zM38 81v-1h-1v1zM39 10h-1v1h1zM53 11v-1h-1v1zM58 79h-1v1h1zM61 79v-1h-1v1zM62 78h1v-1h-1zM65 77v-1h-1v1zM67 16v1h1v-1zM70 72v1h1v-1zM73 20h-1v1h1zM74 22v-1h-1v1zM75 23v-1h-1v1zM75 68h-1v1h1zM75 67v1h1v-1zM77 27h1v-1h-1zM79 62h1v-1h-1zM81 60v-1h-1v1zM81 35h1v-1h-1zM81 56v1h1v-1zM82 39h1v-2h-1zM83 54v-1h-1v1z" style="fill:#422c4d;fill-opacity:1;stroke:none"/><path d="M9 38v1h1v-1zM11 57v-1h-1v1zM14 65h1v-1h-1zM21 48v1h1v-1zM29 43h-1v1h1zM30 44h1v-1h-1zM30 78h1v-1h-1zM38 12v-1h-1v1zM40 42h-1v1h1zM43 36v-1h-1v1zM43 48h-1v1h1zM42 81h2v-1h-2zM49 80h-1v1h1zM50 35h-1v1h1zM49 49h1v-1h-1zM53 43v-1h-1v1zM53 34h1v-1h-1zM53 52v1h1v-1zM58 13v-1h-1v1zM58 40h-1v1h1zM59 52h-1v1h1zM59 47v1h1v-1zM63 14h-1v1h1zM62 48h1v-1h-1zM63 51v2h1v-2zM65 40h-1v1h1zM65 42v1h1v-1zM66 74v1h1v-1zM67 45v1h1v-1zM69 33h-1v1h1zM71 47h-1v1h1zM71 71h-1v1h1zM75 68v-1h-1v1zM78 61v1h1v-1zM79 60h1v-1h-1zM82 43v5h1v-5z" style="fill:#2e152a;fill-opacity:1;stroke:none"/><path d="M9 39v1h1v-1zM10 35v1h1v-1zM11 59h1v-1h-1zM12 31h1v-1h-1zM14 63v-1h-1v1zM21 47h1v-1h-1zM22 19h1v-1h-1zM23 73v1h1v-1zM28 33v-1h-4v1zM29 33h-1v6h1zM29 44h-1v4h1zM30 44v-1h-1v1zM32 44v-1h-1v1zM33 33h4v-1h-4zM38 33h-1v13h1v-1h1v-1h-1zM42 38v-1h-1v1zM43 47h1v-1h-1zM48 33v-1h-4v1zM48 47h1v-1h-1zM50 37v1h1v-1zM53 34v1h1v-1zM54 45v-1h-1v1zM58 33v-1h-4v1zM55 46v-1h-1v1zM55 52v-1h-1v1zM54 80h1v-1h-1zM55 37v1h1v-1zM55 53v1h6v-1zM56 42v1h1v-1zM60 34v-1h-1v1zM60 52v-1h-1v1zM61 77h-1v1h1zM61 53h1v-1h-1zM62 33v1h1v-1zM68 33v-1h-4v1zM64 51v1h2v-1zM64 53v1h5v-1zM67 37h-1v1h1zM68 34v1h1v-1zM70 53v-1h-1v1zM70 48v1h1v-1zM80 35h1v-1h-1zM82 37h-1v1h1zM82 53h-1v1h1z" style="fill:#2a1023;fill-opacity:1;stroke:none"/><path d="M9 41h1v-1H9zM10 50H9v1h1zM17 23v1h1v-1zM27 50v-1h-5v1zM24 33v-1h-1v1zM28 48v1h1v-1zM29 38v1h3v-1zM31 36h1v-1h-1zM31 48h1v-1h-1zM33 32h-1v1h1zM42 50v-1H32v1zM39 41v1h1v-1zM41 39h-1v1h1zM48 46h-3v1h3zM49 48v-1h-1v1zM50 49v1h7v-1zM51 39v1h1v-1zM53 32v1h1v-1zM53 52h1v-1h-1zM55 53h-2v1h1v1h1zM55 44h1v-1h-1zM59 52v-1h-4v1zM58 32v1h1v-1zM62 47v-1h-2v1zM60 51v1h1v-1zM62 53h-1v2h1zM63 51h-1v2h1zM64 32h-1v1h1zM64 54v-1h-1v1zM65 39v1h1v-1zM65 49v1h5v-1zM67 43h-1v1h1zM66 51v1h3v-1zM68 37v-1h-1v1zM68 32v1h1v-1zM70 53h-1v1h1zM71 47v-1h-1v1zM79 30h-1v1h1zM79 58v1h1v-1zM82 53v-1h-1v1z" style="fill:#250b1e;fill-opacity:1;stroke:none"/><path d="M82 48h-1v-1h1v-1h-1v-1h1v-3h-1v-1h-2v-1h-3v-1h-2v-1h-1v-1h-2v-1h-1v-1h-2v2h-1v1h-1v3h-1v1h1v1h1v2h3v1h1v1h1v1h-1v1h-1v1h-5v-1h-2v-1h-1v-1h-2v1h-1v1h-2v1h-7v-1h-1v-1h-1v-1h-3v-1h-1v1h-1v2h-1v1H32v-2h-1v-1h1v-2h-3v4h-2v1h-5v-1h-1v-1h-1v-1h1v-1h1v-1h1V35h-2v1h-1v1h-1v1h-2v1h-2v1h-2v1H9v9h3v1h3v1h2v1h1v1h2v1h1v1h1v1h1v1h1v1h1v1h2v1h1v1h2v1h2v1h3v1h3v1h15v-1h3v-1h3v-1h2v-1h2v-1h2v-1h1v-1h1v-1h1v-1h1v-1h1v-1h2v-1h1v-1h1v-1h2v-1h4v-1h2zm-21 3v1h1v-1h7v1h1v2h-1v1h-2v-1h-1v1h-1v-1h-2v-1h-1v2h-1v-1h-6v1h-1v-1h-1v-3zM10 54v1h1v-1zM12 34v-1h-1v1zM12 57h-1v1h1z" style="fill:#22091b;fill-opacity:1;stroke:none"/><path d="M58 32h1v1h1v2h2v-2h1v-1h1v-2h-1v-1h-2v-1h-3v-1h-2v-1h-5v-1H40v1h-4v1h-3v1h-2v1h-2v1h-2v2h1v1h1v4h1v1h1v-1h1v-1h-1v-1h1v-3h2v-1h2v1h1v1h1v1h1v7h1v-2h1v-2h1v-1h-1v-1h2v-2h1v-1h1v-1h2v1h1v1h1v2h1v2h1v2h1v3h2v1h-1v1h1v1h1v-2h1v-3h1v-1h-1v-1h-1v-2h-2v-4h2v-1h3zM38 43v1h1v-1zM79 33v1h1v-1zM79 58h1v-1h-1zM81 55h-1v1h1zM81 40h1v-1h-1zM82 51h-1v1h1z" style="fill:#22091b;fill-opacity:1;stroke:none"/><path d="M10 52v-1H9v1zM10 56h1v-1h-1zM12 60v1h1v-1zM16 66v-1h-1v1zM16 25h1v-1h-1zM21 20h1v-1h-1zM25 17h1v-1h-1zM27 15v1h1v-1zM30 15v-1h-1v1zM31 14h1v-1h-1zM33 78v1h1v-1zM34 13h1v-1h-1zM37 79v1h1v-1zM39 12v-1h-1v1zM52 12h1v-1h-1zM54 79h-1v1h1zM56 12v1h1v-1zM57 78v1h1v-1zM59 14h1v-1h-1zM62 76v1h1v-1zM64 76h1v-1h-1zM65 16v1h1v-1zM68 73h-1v1h1zM69 18h-1v1h1zM75 25v1h1v-1zM77 64h-1v1h1zM78 28h-1v1h1zM80 32h-1v1h1zM80 56v1h1v-1zM82 38h-1v1h1z" style="fill:#240f21;fill-opacity:1;stroke:none"/><path d="M10 37h1v-1h-1zM15 27h-1v1h1zM16 66v1h1v-1zM18 23h1v-1h-1zM19 21v1h1v-1zM21 20h-1v1h1zM22 73h1v-1h-1zM25 75h1v-1h-1zM31 77v1h1v-1zM40 12v-1h-1v1zM52 12v-1h-1v1zM62 14h-1v1h1zM75 24h-1v1h1zM76 66v-1h-1v1zM78 62h-1v1h1zM79 60h-1v1h1zM81 36v-1h-1v1z" style="fill:#210b1d;fill-opacity:1;stroke:none"/><path d="M35 25v-1h3v-1h15v1h4v1h2v1h3v1h1v1h2v1h2v1h1v1h1v1h1v1h2v1h1v1h2v1h1v1h3v1h2v-2h-1v-2h-1v-2h-2v-1h-2v-1h-2v-1h-2v-1h-1v-1h-2v-1h-1v-1h-2v-1h-2v-1h-2v-1h-3v-1h-3v-1h-6v-1h-7v1h-6v1h-3v1h-3v1h-2v1h-2v1h-1v1h-2v1h-1v1h-2v1h-2v1h-1v1h-3v1h-1v1h-1v1h-1v3h-1v2h1v-1h2v-1h2v-1h2v-1h1v-1h2v-1h1v-1h1v-1h1v-1h2v-1h1v-1h2v-1h2v-1h2v-1zM35 71h5v1h12v-1h4v-1h3v-1h3v-1h2v-1h1v-1h2v-1h2v-1h1v-1h2v-1h1v-1h2v-1h2v-1h2v-2h1v-2h1v-2h-2v1h-2v1h-2v1h-2v1h-1v1h-1v1h-2v1h-1v1h-1v1h-2v1h-1v1h-2v1h-2v1h-3v1h-3v1h-6v1h-4v-1h-7v-1h-3v-1h-3v-1h-2v-1h-2v-1h-1v-1h-2v-1h-1v-1h-1v-1h-1v-1h-2v-1h-1v-1h-2v-1h-2v-1h-2v-1h-1v-1h-1v2h1v3h1v2h2v1h2v1h2v1h2v1h1v1h2v1h1v1h2v1h2v1h2v1h2v1h3z" style="fill:#210a1a;fill-opacity:1;stroke:none"/><path d="M12 32h1v-1h-1zM13 29v1h1v-1zM14 63v1h1v-1zM17 67v1h1v-1zM74 23h-1v1h1zM77 29v1h1v-1z" style="fill:#210a1a;fill-opacity:1;stroke:none"/><path d="M61 28v1h2v1h1v2h5v-1h-1v-1h-1v-1h-2v-1h-2v-1h-1v-1h-3v-1h-2v-1h-4v-1H38v1h-3v1h-3v1h-2v1h-2v1h-2v1h-1v1h-2v1h-1v1h-1v1h-1v1h-2v1h-1v1h-2v1h-2v1h-2v1h-1v2h3v-1h2v-1h2v-1h2v-1h1v-1h1v-1h2v-3h4v-2h2v-1h2v-1h2v-1h3v-1h4v-1h11v1h5v1h2v1zM32 63h-2v-1h-2v-1h-1v-1h-2v-1h-1v-1h-1v-1h-1v-1h-1v-1h-1v-1h-2v-1h-1v-1h-2v-1h-3v-1h-2v2h1v1h1v1h2v1h2v1h2v1h1v1h2v1h1v1h1v1h1v1h2v1h1v1h2v1h2v1h3v1h3v1h7v1h4v-1h6v-1h3v-1h3v-1h2v-1h2v-1h1v-1h2v-1h1v-1h1v-1h2v-1h1v-1h1v-1h2v-1h2v-1h2v-1h2v-2h1v-1h-2v1h-4v1h-2v1h-1v1h-1v1h-2v1h-1v1h-1v1h-1v1h-1v1h-1v1h-2v1h-2v1h-2v1h-3v1h-3v1H38v-1h-3v-1h-3zM21 48v-1h-1v1zM22 46h1v-1h-1z" style="fill:#21081b;fill-opacity:1;stroke:none"/><path d="M29 37v1h1v-1zM32 45v-1h-3v1zM31 38h1v-1h-1zM36 32v-1h-2v1zM39 34h-1v9h1zM42 35h-1v1h1zM45 31v1h2v-1zM54 42h-1v1h1zM55 32h3v-1h-3zM57 40h-1v2h1zM66 41v-1h-1v1zM66 55v-1h-1v1zM67 54v1h2v-1zM68 46h2v-1h-2zM76 37v-1h-1v-1h-2v-1h-1v-1h-2v-1h-1v3h1v1h1v1h2v1h1v1h2v1h3v1h2v1h1v-2h-1v-2h-2v-1zM71 48h1v-1h-1zM81 45v1h1v-1zM81 48h1v-1h-1z" style="fill:#21081b;fill-opacity:1;stroke:none"/><path d="M10 73h1v-1h-1zM29 86h-1v1h1zM30 4v1h1V4zM34 3h-1v1h1zM34 89h1v-1h-1zM39 90h1v-1h-1zM52 89h-1v1h1zM58 3h-1v1h1zM68 83v1h1v-1zM71 9h-1v1h1zM72 82v-1h-1v1zM75 14h1v-1h-1zM76 14v1h1v-1zM78 15h-1v1h1zM79 16h-1v1h1zM82 71h-1v1h1zM85 66h-1v1h1zM85 65h1v-1h-1zM87 30v-1h-1v1zM88 60v-1h-1v1zM89 43h1v-1h-1zM89 49v1h1v-1z" style="fill:#220925;fill-opacity:.447;stroke:none"/><path d="M13 32h-1v1h1zM14 60v-1h-2v1h1v2h1v1h1v2h1v1h1v1h1v2h3v1h2v1h2v1h3v1h3v1h3v1h5v1h14v-1h4v-1h4v-1h3v-1h2v-1h2v-1h3v-1h2v-1h1v-1h1v-2h1v-1h1v-2h1v-2h1v-1h-2v1h-2v1h-2v1h-1v1h-2v1h-1v1h-2v1h-2v1h-1v1h-2v1h-3v1h-3v1h-4v1H40v-1h-5v-1h-3v-1h-2v-1h-2v-1h-2v-1h-2v-1h-1v-1h-2v-1h-1v-1h-2v-1h-2v-1zM30 22h3v-1h3v-1h6v-1h7v1h6v1h3v1h3v1h2v1h2v1h2v1h1v1h2v1h1v1h2v1h2v1h2v1h2v-1h-1v-1h-1v-3h-1v-1h-1v-1h-1v-1h-1v-2h-3v-1h-2v-1h-3v-1h-2v-1h-3v-1h-4v-1h-5v-1H41v1h-6v1h-4v1h-3v1h-2v1h-2v1h-3v1h-2v1h-1v1h-1v1h-1v1h-1v2h-1v2h-1v2h1v-1h3v-1h1v-1h2v-1h2v-1h1v-1h2v-1h1v-1h2v-1h2zM53 35v1h1v-1z" style="fill:#200a1a;fill-opacity:1;stroke:none"/><path d="M13 27h1v-1h-1zM15 68h1v-1h-1zM27 14h2v-1h2v-1h1v-1h-3v1h-2v1h-2v1h-2v1h-1v1h-1v1h-2v1h-1v1h-1v1h-1v1h1v1h1v-1h1v-1h1v-1h1v-1h1v-1h2v-1h1v-1h2zM23 76v1h2v1h2v1h2v1h2v-1h-1v-1h-2v-1h-2v-1h-1v-1h-2v-1h-1v-1h-1v-1h-2v-1h-1v-1h-2v1h1v1h1v1h1v1h1v1h2v1zM34 81v-1h-1v-1h-1v1h-1v1zM32 10v1h1v1h1v-1h1v-1zM35 80v1h-1v1h4v-1h-1v-1zM35 10h1v1h2v-1h1V9h-4zM47 82h-1v-1h-1v1h-1v-1h-4v1h-1v1h13v-1h-1v-1h-4zM40 8v1h4v1h3V9h4V8zM52 9v1h1v1h2v-1h1V9zM56 80h-1v1h-1v1h3v-1h-1zM56 10v1h1v1h3v1h1v-1h1v-1h-3v-1zM60 80h-1v-1h-1v1h-1v1h3zM68 77v-1h2v-1h1v-1h1v-1h1v-1h1v-1h1v-1h-2v1h-1v1h-1v1h-2v1h-1v1h-1v1h-2v1h-2v1h-2v1h-1v1h3v-1h2v-1h2v-1zM66 13h-2v-1h-2v2h2v1h2v1h2v1h1v1h1v1h2v1h1v1h2v-1h-1v-1h-1v-1h-1v-1h-1v-1h-2v-1h-1v-1h-2zM78 63v1h1v-1zM80 32h1v-1h-1z" style="fill:#453252;fill-opacity:1;stroke:none"/><path d="M21 69h-2v1h1v1h1zM20 21v1h1v-1zM24 20h-2v1h2zM22 71h1v-1h-1zM24 19v1h2v-1zM25 71h-1v1h1zM26 73h2v-1h-2zM27 19h1v-1h-1zM31 18v-1h-2v1zM31 74v-1h-2v1zM32 74v1h2v-1zM33 16v1h2v-1zM39 76v-1h-3v1zM37 15v1h4v-1zM40 79h-1v1h1zM42 11h-1v1h1zM46 77v-1h-1v1zM51 16h3v-1h-3zM55 75h-2v1h2zM56 16v1h2v-1zM59 74h-2v1h2zM62 18v-1h-2v1zM62 74v-1h-1v1zM64 19v-1h-1v1zM64 72v1h1v-1zM65 19v1h2v-1zM66 71v1h2v-1zM68 21h1v-1h-1zM68 70v1h2v-1zM70 22h2v-1h-1v-1h-1z" style="fill:#1f0a1a;fill-opacity:1;stroke:none"/><path d="M21 20v1h1v-1zM21 70v1h1v-1zM67 18h-1v-1h-1v-1h-2v-1h-3v-1h-1v-1h-1v1h-1v-1h-4v-1h-3v-1h-8v1h-4v1h-1v-1h-1v1h-2v1h-2v1h-1v-1h-1v1h-2v1h-2v1h-1v1h-2v1h-1v1h2v-1h3v-1h2v-1h4v-1h4v-1h17v1h4v1h4v1h2v1h3zM40 79v1h1v-1h9v1h2v-1h2v-1h4v-1h2v-1h1v1h1v-1h2v-1h1v-1h2v-1h1v-1h-3v1h-3v1h-3v1h-4v1h-9v1h-1v-1h-9v-1h-4v-1h-3v-1h-3v-1h-2v-1h-2v1h1v1h1v1h3v1h2v1h2v1h1v1h3v1h1v-1h1v1zM69 19h-2v1h2zM70 72v-1h-2v1zM70 21v-1h-1v1zM71 70h-1v1h1zM71 70h1v-1h-1z" style="fill:#1f0b19;fill-opacity:1;stroke:none"/><path d="M22 48v-1h-1v1zM23 47v-1h-1v1zM33 49v-1h-1v1zM41 41v-1h-1v1zM43 33v1h1v-1zM49 33h-1v1h1zM52 41v-1h-1v1zM55 36v-1h-1v1zM58 53v-1h-4v1zM57 38h-1v1h1zM59 53h2v-1h-2zM62 36v-1h-2v1zM64 52v1h5v-1zM65 39h1v-1h-1zM67 35v1h1v-1zM68 46v1h2v-1z" style="fill:#361b2f;fill-opacity:1;stroke:none"/><path d="M22 72v-1h-1v1zM24 18h1v-1h-1zM27 76h1v-1h-1zM29 76v1h1v-1zM33 14v-1h-1v1zM35 78h-1v1h1zM36 12h-1v1h1zM38 80h1v-1h-1zM40 12h1v-1h-1zM51 11h-1v1h1zM53 79h-1v1h1zM56 13v-1h-1v1zM56 78v1h1v-1zM59 78h1v-1h-1zM64 16v-1h-1v1zM66 75v-1h-1v1zM69 73v-1h-1v1zM70 20v-1h-1v1z" style="fill:#200b1a;fill-opacity:1;stroke:none"/><path d="M23 47h-1v1h1zM27 34v-1h-2v1zM34 34h2v-1h-2zM36 46h1V34h-1zM41 42h-1v1h1zM44 35h-1v1h1zM47 33h-2v1h2zM48 35v1h1v-1zM51 42v1h1v-1zM58 34v-1h-3v1zM59 47h-1v1h1zM64 41v-1h-1v1zM64 33v1h3v-1zM65 43v-1h-1v1z" style="fill:#90838c;fill-opacity:1;stroke:none"/><path d="M23 49v-1h-1v1zM28 34v-1h-1v1zM33 49h1v-1h-1zM37 33h-1v1h1zM41 39v1h1v-1zM42 48h-1v1h1zM44 45h-1v1h1zM49 45h-1v1h1zM50 39v1h1v-1zM50 48v1h1v-1zM59 34v-1h-1v1zM59 47h1v-1h-1zM60 37h2v-1h-2zM64 34v-1h-1v1zM65 43v1h1v-1zM68 47v-1h-1v1z" style="fill:#665361;fill-opacity:1;stroke:none"/><path d="M24 33h-1v1h1zM32 39h1v-5h-1zM33 44h-1v4h1zM37 46v1h1v-1zM38 46h1v-1h-1zM41 39h1v-1h-1zM50 38v1h1v-1zM54 45h-1v1h1zM57 41v1h1v-1zM58 49h1v-1h-1zM60 45v1h2v-1zM64 48h-1v1h1zM64 42h1v-1h-1zM66 44v1h1v-1z" style="fill:#422b3c;fill-opacity:1;stroke:none"/><path d="M23 46h1V34h-1zM33 44v-1h-1v1zM40 44v-1h-1v1zM42 37h1v-1h-1zM43 48v-1h-1v1zM47 42v-2h-2v2zM50 36h-1v1h1zM49 48h1v-1h-1zM52 43v1h1v-1zM56 37v-1h-1v1zM60 34h-1v1h1zM63 34h-1v1h1zM66 37h1v-1h-1z" style="fill:#4d3747;fill-opacity:1;stroke:none"/><path d="M23 47h1v-1h-1zM28 49v-1h-1v1zM40 42h1v-1h-1zM44 35v-1h-1v1zM44 45v1h4v-1zM48 35h1v-1h-1zM51 41v1h1v-1zM55 46h-1v1h1zM57 44v-1h-1v1zM58 40v-1h-1v1zM62 47h1v-1h-1zM65 40v-1h-1v1zM69 48v1h1v-1z" style="fill:#5a4655;fill-opacity:1;stroke:none"/><path d="M24 48v-1h-1v1zM28 42h-1v1h1zM38 47h-1v1h1zM43 39v-1h-1v1zM50 39v-1h-1v1zM52 45v1h1v-1zM60 45h-1v1h1zM63 46v-1h-1v1zM64 42v-1h-1v1zM66 45v-1h-1v1zM68 48h1v-1h-1z" style="fill:#b4acb1;fill-opacity:1;stroke:none"/><path d="M23 48v1h4v-1zM34 49h7v-1h-7zM39 47v-1h-1v1zM44 34h1v-1h-1zM48 34v-1h-1v1zM51 48v1h7v-1zM54 47v-1h-1v1zM55 35v-2h-1v2zM57 38v-1h-1v1zM64 48v1h5v-1zM66 37h-1v1h1zM68 33h-1v2h1z" style="fill:#74636f;fill-opacity:1;stroke:none"/><path d="M25 34v-1h-1v1zM28 40h4v-1h-4zM33 33v1h1v-1zM40 45v-1h-1v1zM42 38h1v-1h-1zM49 37v1h1v-1zM53 45v-1h-1v1zM55 45v1h1v-1zM58 43v-1h-1v1z" style="fill:#7f707b;fill-opacity:1;stroke:none"/><path d="M25 34h-1v13h1zM34 40v-1h-1v1zM45 41v-1h-1v1zM44 43h1v-1h-1zM48 41v-1h-1v1zM48 43v-1h-1v1zM57 43v1h1v-1zM66 46v1h1v-1z" style="fill:#ccc8cb;fill-opacity:1;stroke:none"/><path d="M24 48h1v-1h-1zM40 47v-1h-1v1zM43 39h-1v1h1zM43 44v1h6v-1zM49 40h1v-1h-1zM53 47v-1h-1v1zM55 34v1h1v-1zM57 45h-1v1h1zM58 37h-1v1h1zM65 38v-1h-1v1zM64 48h1v-1h-1zM66 34v1h1v-1z" style="fill:#d9d8d9;fill-opacity:1;stroke:none"/><path d="M25 34v13h1V34zM33 42v-1h-5v1zM36 34h-2v5h1v4h-1v4h2zM42 45h-2v1h2zM41 44h1v-1h-1zM42 41h1v-1h-1zM43 38v1h2v-1zM45 37v-1h-1v1zM48 44v-1h-4v1zM45 34v1h2v-1zM47 36v1h1v-1zM49 38h-2v1h2zM48 40v1h2v-1zM50 44h1v-1h-1zM52 46v-1h-2v1zM58 35v-1h-2v1zM56 47h1v-1h-1zM58 36h-1v1h1zM58 44h1v-1h-1zM59 45h-1v1h1zM59 38h1v-1h-1zM62 38h1v-1h-1zM63 46h1v-1h-1zM64 34v1h2v-1zM64 37h1v-1h-1zM65 44h-1v1h1zM66 47v-1h-2v1z" style="fill:#e5e6e5;fill-opacity:1;stroke:none"/><path d="M25 48h2v-1h-2zM33 41v-1h-6v1zM36 48v-1h-2v1zM39 47v1h2v-1zM41 45v-1h-1v1zM42 47v-1h-1v1zM42 45h1v-1h-1zM43 38h1v-1h-1zM44 39v1h1v-1zM47 38v-1h-2v1zM48 39h-1v1h1zM48 37v1h1v-1zM48 42v1h1v-1zM49 45h1v-1h-1zM50 46v1h1v-1zM51 44v1h1v-1zM53 48v-1h-2v1zM58 48v-1h-3v1zM58 42v1h1v-1zM62 42v-4h-1v1h-1v1h-1v1h1v1zM59 45h1v-1h-1zM62 45h1v-1h-1zM64 36v-1h-1v1zM63 43h1v-1h-1zM66 45h-1v1h1zM67 47h-2v1h2z" style="fill:#e1e1e1;fill-opacity:1;stroke:none"/><path d="M26 34v13h1v-5h1v-1h-1v-7zM34 40h-1v2h1v1h1v-4h-1zM40 46v1h1v-1zM42 44h2v-5h-1v2h-1v1h-1v1h1zM42 45v-1h-1v1zM44 36h1v1h2v-1h1v-1h-4zM44 37v1h1v-1zM48 38v-1h-1v1zM49 40v-1h-1v1zM48 44h2v-1h1v-1h-1v-1h-2v1h1v1h-1zM51 45v-1h-1v1zM52 46h-1v1h1zM56 35v1h2v3h1v1h1v-1h1v-1h-2v-3zM57 47h1v-2h1v-1h-2z" style="fill:#e4e4e4;fill-opacity:1;stroke:none"/><path d="M64 36h-1v2h-1v4h-2v-1h-1v3h1v-1h2v1h1v1h1v-2h-1v-4h1zM64 35v1h2v-1zM64 46h1v-1h-1z" style="fill:#e4e4e4;fill-opacity:1;stroke:none"/><path d="M26 75h1v-1h-1zM28 75v1h1v-1zM30 76v1h1v-1zM32 15v-1h-1v1zM33 14h1v-1h-1zM37 78h-1v1h1zM37 12v1h1v-1zM50 80v-1h-9v1zM55 12h-2v1h2zM56 79v-1h-2v1zM57 13v1h1v-1zM59 77h-1v1h1zM60 15h1v-1h-1zM60 76v1h1v-1zM66 17v1h1v-1zM67 18v1h1v-1z" style="fill:#1f0b18;fill-opacity:1;stroke:none"/><path d="M28 39v-5h-1v5zM27 48h1v-5h-1zM32 40h1v-1h-1zM43 46h-1v1h1zM47 40v-1h-2v1zM50 47v-1h-1v1zM59 40h-1v1h1zM62 44h-2v1h2zM64 47h-1v1h1zM67 45h-1v1h1zM69 48h1v-1h-1z" style="fill:#887a84;fill-opacity:1;stroke:none"/><path d="M28 39h-1v1h1zM41 40v1h1v-1zM44 42h1v-1h-1zM47 41v1h1v-1zM51 41v-1h-1v1zM56 44v1h1v-1zM57 38v1h1v-1zM58 42h1v-1h-1zM64 38v1h1v-1z" style="fill:#a49ba2;fill-opacity:1;stroke:none"/><path d="M33 42h-5v1h5zM37 47v-1h-1v1zM56 35h-1v1h1zM59 36h1v-1h-1zM63 36v-1h-1v1zM67 35h-1v1h1z" style="fill:#988c95;fill-opacity:1;stroke:none"/><path d="M34 34h-1v5h1zM34 43h-1v5h1zM37 47h-1v1h1zM39 48v-1h-1v1zM40 43v1h1v-1zM42 47h-1v1h1zM44 36h-1v1h1zM47 39v-1h-2v1zM47 42h-2v1h2zM48 37h1v-1h-1zM50 48h1v-1h-1zM51 44h1v-1h-1zM53 47v1h1v-1zM56 47v-1h-1v1zM56 37h1v-1h-1zM59 40v-1h-1v1zM63 40h1v-1h-1zM66 36h-1v1h1zM68 47h-1v1h1z" style="fill:#c5c0c3;fill-opacity:1;stroke:none"/><path d="M34 43v-1h-1v1zM42 41h-1v1h1zM44 35h1v-1h-1zM47 34v1h1v-1zM51 42v-1h-1v1zM59 47v-1h-1v1zM59 37h1v-1h-1zM62 44v-1h-2v1zM62 36v1h1v-1zM64 47v-1h-1v1zM64 44h1v-1h-1z" style="fill:#d2cfd1;fill-opacity:1;stroke:none"/><path d="M40 46v-1h-1v1zM42 46h1v-1h-1zM50 46v-1h-1v1zM55 47h-1v1h1zM59 35v-1h-1v1zM62 38v-1h-2v1zM64 35v-1h-1v1z" style="fill:#bdb7bc;fill-opacity:1;stroke:none"/></svg>