<svg width="16" height="16" xmlns="http://www.w3.org/2000/svg"><path d="M1 5V4H0v1zM0 11v1h1v-1zM4 1h1V0H4z" style="fill:#1b031e;fill-opacity:.082;stroke:none"/><path d="M1 6V5H0v1zM0 11h1v-1H0zM5 0v1h1V0zM13 2v1h1V2z" style="fill:#230a28;fill-opacity:.353;stroke:none"/><path d="M0 6v1h1V6zM0 10h1V9H0zM6 1h1V0H6zM15 9h1V7h-1z" style="fill:#2b1431;fill-opacity:.62;stroke:none"/><path d="M0 7v2h1V7z" style="fill:#311937;fill-opacity:.757;stroke:none"/><path d="M1 2v1h1V2zM1 13v1h1v-1zM2 2h1V1H2zM3 14H2v1h1z" style="fill:#0b0009;fill-opacity:.004;stroke:none"/><path d="M2 4V3H1v1zM5 15v1h1v-1zM11 0h-1v1h1zM14 14v-1h-1v1z" style="fill:#210824;fill-opacity:.31;stroke:none"/><path d="M1 4v1h1V4z" style="fill:#311a37;fill-opacity:.776;stroke:none"/><path d="M1 6h1V5H1zM1 11h1v-1H1zM6 2V1H5v1z" style="fill:#36203d;fill-opacity:.973;stroke:none"/><path d="M2 7V6H1v1zM3 5V4H2v1zM4 12H3v1h1zM13 3h-1v1h1zM14 9h1V7h-1z" style="fill:#351f39;fill-opacity:1;stroke:none"/><path d="M2 7H1v2h1zM3 3v1h1V3zM6 14v-1H5v1zM10 14h1v-1h-1z" style="fill:#321c34;fill-opacity:1;stroke:none"/><path d="M1 10h1V9H1zM2 12h1v-1H2zM4 3h1V2H4zM5 13H4v1h1zM6 1v1h4V1zM10 14H6v1h4zM11 2v1h1V2zM12 13h-1v1h1zM13 12h-1v1h1zM13 4v1h1V4zM13 12h1v-1h-1zM15 6h-1v1h1zM14 10h1V9h-1z" style="fill:#36213d;fill-opacity:1;stroke:none"/><path d="M1 11v1h1v-1z" style="fill:#2e1835;fill-opacity:.765;stroke:none"/><path d="M1 13h1v-1H1zM4 2V1H3v1z" style="fill:#220925;fill-opacity:.298;stroke:none"/><path d="M3 3V2H2v1zM2 14h1v-1H2z" style="fill:#230b28;fill-opacity:.412;stroke:none"/><path d="M2 3v1h1V3zM3 12H2v1h1zM3 2v1h1V2zM3 14h1v-1H3zM6 15v-1H5v1zM10 1v1h1V1zM10 14v1h1v-1z" style="fill:#311b37;fill-opacity:.945;stroke:none"/><path d="M3 6V5H2v1zM3 10H2v1h1zM6 13v1h1v-1zM10 13H9v1h1zM12 9h1V8h-1zM13 5v1h1V5z" style="fill:#281224;fill-opacity:1;stroke:none"/><path d="M2 9h1V6H2zM4 9H3v1h1zM12 11v-1h1V9H9v1H6V9H5v1H4v1h2v1h4v-1zM6 4v1h3V4zM14 7h-2v1h1v1h1z" style="fill:#21081a;fill-opacity:1;stroke:none"/><path d="M3 10V9H2v1zM3 6h1V5H3zM3 12h1v-1H3zM5 3H4v1h1zM9 2H7v1h2zM12 4V3h-1v1zM13 4h-1v1h1zM14 6h-1v1h1zM13 10h1V9h-1z" style="fill:#220c1e;fill-opacity:1;stroke:none"/><path d="M4 5V4H3v1zM3 10v1h1v-1zM4 12h2v-1H4zM6 4h4V3H6zM6 12v1h4v-1zM11 12v-1h-1v1zM13 6V5h-1v1z" style="fill:#200a1a;fill-opacity:1;stroke:none"/><path d="M3 7h1V6H3zM3 9h1V8H3zM5 3h1V2H5zM11 2h-1v1h1zM13 10v1h1v-1z" style="fill:#2d172a;fill-opacity:1;stroke:none"/><path d="M3 8h1V7H3zM5 6h2V5H5z" style="fill:#321a2b;fill-opacity:1;stroke:none"/><path d="M3 15h1v-1H3zM10 15v1h1v-1z" style="fill:#200623;fill-opacity:.271;stroke:none"/><path d="M4 2h1V1H4z" style="fill:#2a1330;fill-opacity:.761;stroke:none"/><path d="M4 5h2V4H4zM5 10V9H4v1zM9 10V9H6v1zM12 5V4H9v1zM13 6h-1v1h1z" style="fill:#200619;fill-opacity:1;stroke:none"/><path d="M4 5v1h1V5zM5 8v1h1V8zM12 5h-2v1h2z" style="fill:#3c2736;fill-opacity:1;stroke:none"/><path d="M5 7V6H4v1zM6 7v1h1V7zM9 7V6H7v1z" style="fill:#8d8189;fill-opacity:1;stroke:none"/><path d="M5 7H4v1h1z" style="fill:#9b9299;fill-opacity:1;stroke:none"/><path d="M5 8H4v1h1z" style="fill:#54414f;fill-opacity:1;stroke:none"/><path d="M4 13h1v-1H4zM7 2H6v1h1zM7 13v1h2v-1zM10 3V2H9v1zM11 13h1v-1h-1zM13 11h-1v1h1z" style="fill:#230f20;fill-opacity:1;stroke:none"/><path d="M5 15v-1H4v1z" style="fill:#28102c;fill-opacity:.733;stroke:none"/><path d="M5 16v-1H4v1zM12 1V0h-1v1z" style="fill:#1d031f;fill-opacity:.059;stroke:none"/><path d="M5 3v1h1V3zM5 12v1h1v-1zM11 3h-1v1h1zM11 13v-1h-1v1zM12 11h-1v1h1zM12 10v1h1v-1z" style="fill:#1f0919;fill-opacity:1;stroke:none"/><path d="M6 7V6H5v1z" style="fill:#7f737c;fill-opacity:1;stroke:none"/><path d="M6 7H5v1h1z" style="fill:#958a92;fill-opacity:1;stroke:none"/><path d="M7 6H6v1h1zM12 6h-1v1h1z" style="fill:#6a5b66;fill-opacity:1;stroke:none"/><path d="M7 9V8H6v1zM10 8H9v1h1z" style="fill:#665561;fill-opacity:1;stroke:none"/><path d="M6 16h1v-1H6zM10 1V0H9v1z" style="fill:#230a26;fill-opacity:.561;stroke:none"/><path d="M9 0H7v1h2z" style="fill:#270e2b;fill-opacity:.71;stroke:none"/><path d="M10 6V5H7v1z" style="fill:#362031;fill-opacity:1;stroke:none"/><path d="M7 8h2V7H7zM10 7h1V6h-1z" style="fill:#aba4a9;fill-opacity:1;stroke:none"/><path d="M7 8v1h2V8z" style="fill:#493543;fill-opacity:1;stroke:none"/><path d="M7 15v1h2v-1zM11 14v1h1v-1z" style="fill:#240c29;fill-opacity:.675;stroke:none"/><path d="M10 7V6H9v1zM10 9h1V8h-1z" style="fill:#503d4b;fill-opacity:1;stroke:none"/><path d="M9 7v1h1V7zM11 7v1h1V7z" style="fill:#6b5c67;fill-opacity:1;stroke:none"/><path d="M9 16h1v-1H9z" style="fill:#220925;fill-opacity:.525;stroke:none"/><path d="M10 7v1h1V7z" style="fill:#b5afb3;fill-opacity:1;stroke:none"/><path d="M12 1h-1v1h1z" style="fill:#29122e;fill-opacity:.714;stroke:none"/><path d="M12 9V8h-1v1z" style="fill:#5b4956;fill-opacity:1;stroke:none"/><path d="M12 16v-1h-1v1zM16 5V4h-1v1zM15 11v1h1v-1z" style="fill:#18021a;fill-opacity:.039;stroke:none"/><path d="M12 1v1h1V1zM16 5h-1v1h1zM15 11h1v-1h-1z" style="fill:#220925;fill-opacity:.247;stroke:none"/><path d="M12 3h1V2h-1zM12 13v1h1v-1zM14 4V3h-1v1zM13 12v1h1v-1z" style="fill:#301936;fill-opacity:.894;stroke:none"/><path d="M13 15v-1h-1v1zM14 4h1V3h-1zM15 13v-1h-1v1z" style="fill:#210723;fill-opacity:.216;stroke:none"/><path d="M15 5V4h-1v1zM15 11h-1v1h1z" style="fill:#2c1533;fill-opacity:.675;stroke:none"/><path d="M14 6h1V5h-1zM14 10v1h1v-1z" style="fill:#36203e;fill-opacity:.933;stroke:none"/><path d="M15 7h1V6h-1zM16 10V9h-1v1z" style="fill:#2a122f;fill-opacity:.494;stroke:none"/></svg>