<?xml version="1.0" standalone="no"?>
<!DOCTYPE svg PUBLIC "-//W3C//DTD SVG 20010904//EN"
 "http://www.w3.org/TR/2001/REC-SVG-20010904/DTD/svg10.dtd">
<svg version="1.0" xmlns="http://www.w3.org/2000/svg"
 width="64.000000pt" height="64.000000pt" viewBox="0 0 64.000000 64.000000"
 preserveAspectRatio="xMidYMid meet">
<metadata>
Created by potrace 1.16, written by Peter Selinger 2001-2019
</metadata>
<g transform="translate(0.000000,64.000000) scale(0.100000,-0.100000)"
fill="#000000" stroke="none">
<path d="M196 610 c-62 -24 -129 -89 -163 -158 -33 -67 -36 -162 -9 -242 26
-75 111 -159 185 -183 65 -21 154 -22 210 -2 22 8 41 12 41 10 0 -2 14 9 32
23 104 88 133 145 133 262 0 66 -5 96 -22 131 -28 61 -92 125 -156 155 -67 31
-178 33 -251 4z m-4 -222 c2 -13 10 -23 18 -23 8 0 16 10 18 23 6 40 22 23 22
-22 0 -62 14 -64 38 -6 12 28 26 50 32 50 6 0 21 -23 32 -51 l21 -51 18 24
c16 20 16 25 3 45 -7 12 -14 25 -14 28 0 12 24 4 36 -12 12 -17 13 -17 19 0 4
9 13 17 21 17 18 0 17 -10 -1 -34 -13 -17 -12 -22 6 -47 22 -32 8 -40 -21 -14
-15 14 -18 14 -30 0 -16 -19 -56 -19 -64 0 -3 8 -15 15 -26 15 -11 0 -23 -7
-26 -15 -4 -9 -19 -15 -35 -15 -22 0 -29 5 -29 20 0 13 -7 20 -20 20 -13 0
-20 -7 -20 -20 0 -12 -7 -20 -16 -20 -11 0 -14 5 -10 16 3 9 6 33 6 55 0 42
16 54 22 17z"/>
</g>
</svg>
