<svg width="48" height="48" xmlns="http://www.w3.org/2000/svg"><path d="M0 20h1v-1H0zM0 29h1v-1H0zM2 14h1v-1H2zM5 10V9H4v1zM6 7v1h1V7zM16 46v1h1v-1zM27 48v-1h-1v1zM28 0h-1v1h1zM32 1h-1v1h1zM43 39v-1h-1v1zM45 35h-1v1h1zM45 34h1v-1h-1zM47 26h1v-4h-1z" style="fill:#220925;fill-opacity:.012;stroke:none"/><path d="M1 20H0v1h1zM0 28h1v-1H0zM1 16v1h1v-1zM2 31H1v1h1zM4 11h1v-1H4zM5 37H4v1h1zM11 5V4h-1v1zM21 1h1V0h-1zM25 48v-1h-3v1zM26 1h1V0h-1zM31 46h-1v1h1zM33 2v1h1V2zM36 4V3h-1v1zM39 5h-1v1h1zM39 41v1h1v-1zM41 41v-1h-1v1zM42 8h-1v1h1zM41 39v1h1v-1zM46 18h1v-1h-1z" style="fill:#220925;fill-opacity:.067;stroke:none"/><path d="M1 22v-1H0v1zM0 26h1v-1H0zM2 33v1h1v-1zM4 36v-1H3v1zM5 9v1h1V9zM9 6h1V5H9zM13 3h-1v1h1zM15 2h-1v1h1zM37 43h-1v1h1zM44 36h-1v1h1zM46 33v-1h-1v1zM47 19v-1h-1v1zM47 29h-1v1h1z" style="fill:#220925;fill-opacity:.169;stroke:none"/><path d="M1 25v-3H0v3zM2 31v-1H1v1zM3 14H2v1h1zM4 12H3v1h1zM6 40h1v-1H6zM7 41h1v-1H7zM8 41v1h1v-1zM18 2V1h-1v1zM29 47h1v-1h-1zM32 46h1v-1h-1zM44 11h-1v1h1zM44 35h1v-1h-1zM46 15h-1v1h1z" style="fill:#220925;fill-opacity:.22;stroke:none"/><path d="M0 27h1v-1H0zM6 38H5v1h1zM10 43v-1H9v1zM13 44h-1v1h1zM15 45h-1v1h1zM18 46h-1v1h1zM26 1V0h-4v1zM31 2V1h-1v1zM39 6v1h1V6zM41 8V7h-1v1z" style="fill:#220925;fill-opacity:.118;stroke:none"/><path d="M2 17H1v1h1zM7 9V8H6v1zM8 8V7H7v1zM9 7V6H8v1zM18 46v1h1v-1zM29 1v1h1V1zM34 44v1h1v-1zM36 5h1V4h-1zM45 13h-1v1h1zM47 29v-1h-1v1z" style="fill:#220925;fill-opacity:.29;stroke:none"/><path d="M2 19v-1H1v1zM1 30h1v-1H1zM3 33v-1H2v1zM5 12v-1H4v1zM11 4v1h1V4zM13 44v1h1v-1zM16 2h-1v1h1zM19 46v1h1v-1zM28 2h1V1h-1zM37 5v1h1V5zM45 16v1h1v-1zM46 31h-1v1h1zM46 20v1h1v-1zM46 28h1v-1h-1z" style="fill:#220925;fill-opacity:.478;stroke:none"/><path d="M2 19H1v1h1zM1 28v1h1v-1zM5 38h1v-1H5zM17 45h-1v1h1zM27 2h1V1h-1zM32 3V2h-1v1zM35 43v1h1v-1zM38 6v1h1V6zM44 13v-1h-1v1zM45 14h-1v1h1zM44 34h1v-1h-1zM47 22h-1v1h1zM47 26v-1h-1v1z" style="fill:#210824;fill-opacity:.659;stroke:none"/><path d="M2 21v-1H1v1zM1 28h1v-1H1zM2 17h1v-1H2zM2 32h1v-1H2zM6 38v1h1v-1zM12 43v1h1v-1zM15 45v-1h-1v1zM22 2V1h-1v1zM25 47v-1h-2v1zM31 46v-1h-1v1zM34 3h-1v1h1z" style="fill:#210824;fill-opacity:.8;stroke:none"/><path d="M1 21v1h1v-1zM1 26v1h1v-1zM3 34h1v-1H3zM4 13h1v-1H4zM4 36h1v-1H4zM7 8v1h1V8zM8 7v1h1V7zM13 4h-1v1h1zM14 4h1V3h-1zM18 45h-1v1h1zM31 3V2h-1v1zM36 42v1h1v-1zM43 11h-1v1h1z" style="fill:#210824;fill-opacity:.886;stroke:none"/><path d="M2 22H1v4h1zM3 15h1v-1H3zM18 2h-1v1h1zM37 6V5h-1v1zM44 35v-1h-1v1zM44 15v1h1v-1zM44 32v1h1v-1zM45 18v1h1v-1zM45 29v1h1v-1z" style="fill:#210824;fill-opacity:.925;stroke:none"/><path d="M3 15H2v1h1zM3 34v1h1v-1zM14 4V3h-1v1zM19 1v1h1V1zM28 46h-1v1h1zM31 46h1v-1h-1zM38 42h1v-1h-1zM41 39h1v-1h-1z" style="fill:#220925;fill-opacity:.553;stroke:none"/><path d="M3 17H2v1h1zM2 30v1h1v-1zM12 42h-1v1h1zM29 45v1h1v-1zM33 44h-1v1h1zM35 43h-1v1h1zM38 41h-1v1h1zM42 38v-1h-1v1zM44 13h-1v1h1z" style="fill:#220925;fill-opacity:.961;stroke:none"/><path d="M3 19v-1H2v1zM3 29H2v1h1zM3 15v1h1v-1zM5 13H4v1h1zM6 36v-1H5v1zM6 11h1v-1H6zM8 10V9H7v1zM9 8H8v1h1zM11 40h-1v1h1zM14 43v-1h-1v1zM17 3v1h1V3zM19 44v1h2v-1zM27 45h2v-1h-2zM30 4V3h-1v1zM32 44v-1h-1v1zM33 5V4h-1v1zM34 6h1V5h-1zM35 41v1h1v-1zM37 6h-1v1h1zM38 39v1h1v-1zM40 39v-1h-1v1zM41 37h-1v1h1zM41 37h1v-1h-1zM43 12h-1v1h1zM44 14h-1v1h1zM43 33v1h1v-1zM45 16h-1v1h1zM46 21v-1h-1v1zM45 27v1h1v-1z" style="fill:#230b28;fill-opacity:1;stroke:none"/><path d="M2 20h1v-1H2zM3 17h1v-1H3zM7 34h1v-1H7zM8 38v-1H7v1zM8 39h1v-1H8zM10 7v1h1V7zM12 41v1h1v-1zM15 43v-1h-1v1zM19 4h1V3h-1zM22 45h4v-1h-4zM30 44h1v-1h-1zM39 9v1h1V9zM43 32v1h1v-1zM44 17v1h1v-1zM46 26v-4h-1v4z" style="fill:#2b1531;fill-opacity:1;stroke:none"/><path d="M2 21h1v-1H2zM3 28v-1H2v1zM5 15v-1H4v1zM5 25v-2H4v2zM5 29v1h1v-1zM7 11H6v1h1zM10 12v-1H9v1zM10 10v1h1v-1zM17 6v1h1V6zM18 43h-1v1h1zM25 6V5h-2v1zM28 4V3h-1v1zM32 5V4h-1v1zM33 7h-1v1h1zM36 7V6h-1v1zM37 41v-1h-1v1zM39 34v1h1v-1zM41 16v1h1v-1zM43 14v-1h-1v1zM43 28h-1v1h1z" style="fill:#301a34;fill-opacity:1;stroke:none"/><path d="M3 21H2v1h1zM4 21v1h1v-1zM5 26H4v1h1zM6 17H5v1h1zM5 34v1h1v-1zM7 11h1v-1H7zM9 10V9H8v1zM11 9v1h1V9zM12 41v-1h-1v1zM13 6h-1v1h1zM13 39v1h1v-1zM15 40v1h1v-1zM22 3h-1v1h1zM22 5h-1v1h1zM26 3v1h1V3zM27 5h-1v1h1zM30 42v-1h-1v1zM30 44v-1h-1v1zM32 42v1h1v-1zM34 42h1v-1h-1zM37 40h1v-1h-1zM42 31h-1v1h1zM43 18h-1v1h1zM45 19v-1h-1v1z" style="fill:#35213c;fill-opacity:1;stroke:none"/><path d="M2 26h1v-4H2zM4 17H3v1h1zM4 32v1h1v-1zM7 33v-1H6v1zM7 13v1h1v-1zM10 36H9v1h1zM14 6h1V5h-1zM15 8V7h-1v1zM18 43v1h1v-1zM21 5h-1v1h1zM22 3v1h4V3zM30 4v1h1V4zM38 11v-1h-1v1zM39 12v-1h-1v1zM41 34v-1h-1v1zM41 37v-1h-1v1z" style="fill:#382440;fill-opacity:1;stroke:none"/><path d="M2 26v1h1v-1zM4 30H3v1h1zM4 22v1h1v-1zM5 25H4v1h1zM6 16h1v-1H6zM8 13h1v-1H8zM10 8H9v1h1zM16 4v1h1V4zM18 41v1h1v-1zM20 4h1V3h-1zM22 5v1h1V5zM25 5v1h1V5zM30 6v1h1V6zM34 5h-1v1h1zM35 8h-1v1h1zM36 38h-1v1h1zM40 14v1h1v-1zM42 35h-1v1h1zM43 16h1v-1h-1zM45 29h-1v1h1z" style="fill:#331e38;fill-opacity:1;stroke:none"/><path d="M2 29h1v-1H2zM3 32h1v-1H3zM4 33v1h1v-1zM5 12v1h1v-1zM7 36H6v1h1zM9 39v1h1v-1zM12 6h-1v1h1zM13 5v1h1V5zM16 5V4h-1v1zM17 44v-1h-1v1zM19 4V3h-1v1zM22 44h-1v1h1zM26 44v1h1v-1zM28 4h1V3h-1zM34 43v-1h-1v1zM37 7v1h1V7zM39 9V8h-1v1zM41 10h-1v1h1zM42 11h-1v1h1zM42 34v1h1v-1zM45 30h-1v1h1zM45 22h1v-1h-1zM45 27h1v-1h-1z" style="fill:#28112c;fill-opacity:1;stroke:none"/><path d="M3 14h1v-1H3zM11 42h-1v1h1zM20 46v1h1v-1zM39 41h1v-1h-1zM41 39h-1v1h1zM41 10h1V9h-1zM44 35h-1v1h1zM46 22h1v-1h-1zM47 26h-1v1h1z" style="fill:#220824;fill-opacity:.608;stroke:none"/><path d="M3 19h1v-1H3zM11 7v1h1V7zM14 40v1h1v-1zM20 43h-1v1h1zM21 43h1v-1h-1zM27 43v-1h-1v1zM29 5h-1v1h1zM30 4h-1v1h1zM30 41v1h1v-1zM32 7V6h-1v1zM31 42v1h1v-1zM32 6h1V5h-1zM35 6h-1v1h1zM36 8h-1v1h1zM35 41h1v-1h-1zM37 8v1h1V8zM37 37v1h1v-1zM38 36v1h1v-1zM40 12h1v-1h-1zM42 14v1h1v-1zM43 16v1h1v-1zM44 27v1h1v-1z" style="fill:#412e4b;fill-opacity:1;stroke:none"/><path d="M4 20v-1H3v1zM4 16v1h1v-1zM6 15v-1H5v1zM7 12h1v-1H7zM9 11v-1H8v1zM8 36v1h1v-1zM9 10h1V9H9zM10 38v-1H9v1zM10 9h2V8h-2zM11 39v-1h-1v1zM12 40v1h1v-1zM15 42v-1h-1v1zM17 6h1V5h-1zM20 5V4h-1v1zM20 42h-1v1h1zM23 43h-2v1h2zM25 43v1h2v-1zM28 5h1V4h-1zM29 43v-1h-1v1zM31 42h-1v1h1zM31 6h1V5h-1zM31 41v1h1v-1zM33 7V6h-1v1zM36 8V7h-2v1zM37 40v-1h-2v1zM37 10h1V9h-1zM39 10h-1v1h1zM42 32v1h1v-1zM43 30v1h1v-1zM45 22v-1h-1v1z" style="fill:#463453;fill-opacity:1;stroke:none"/><path d="M4 20H3v8h1zM4 18h1v-1H4zM5 29H4v2h1zM5 15v1h1v-1zM5 32v1h1v-1zM6 13v1h1v-1zM7 34H6v1h1zM7 35v1h1v-1zM40 12v-1h-1v1zM41 12h-1v1h1zM41 15h1v-1h-1zM42 33h-1v1h1zM43 17v-1h-1v1zM43 31h-1v1h1zM44 18h-1v2h1zM43 28v2h1v-2zM44 22v4h1v-4z" style="fill:#4a3355;fill-opacity:1;stroke:none"/><path d="M3 29h1v-1H3zM5 19v-1H4v1zM6 31H5v1h1zM7 34v-1H6v1zM7 13h1v-1H7zM8 12h1v-1H8zM10 9v1h1V9zM29 5v1h1V5zM34 41v-1h-1v1zM40 34v1h1v-1zM43 20v1h1v-1zM44 28v-1h-1v1zM45 27v-1h-1v1z" style="fill:#463052;fill-opacity:1;stroke:none"/><path d="M3 29v1h1v-1zM5 16v-1H4v1zM6 35v1h1v-1zM11 40v-1h-1v1zM12 39v-1h-1v1zM12 9h1V8h-1zM13 41v1h1v-1zM18 4h-1v1h1zM17 42h1v-1h-1zM19 6h1V5h-1zM22 42v1h4v-1zM29 43h-1v1h1zM33 7v1h1V7zM34 40h1v-1h-1zM37 10V9h-1v1zM40 12h-1v1h1zM45 19h-1v1h1z" style="fill:#3e2a46;fill-opacity:1;stroke:none"/><path d="M3 32v1h1v-1zM4 34v1h1v-1zM6 12v-1H5v1zM7 38v-1H6v1zM8 38H7v1h1zM8 39v1h1v-1zM9 7v1h1V7zM9 41h1v-1H9zM10 7h1V6h-1zM10 41v1h2v-1zM13 6V5h-1v1zM13 42h-1v1h1zM15 5V4h-2v1zM16 44v-1h-3v1zM15 3v1h2V3zM19 45v-1h-3v1zM18 2v1h11V2zM19 46h10v-1H19zM32 45v-1h-3v1zM30 3v1h2V3zM34 44v-1h-2v1zM33 5h1V4h-1zM36 42h-2v1h2zM36 5h-1v1h1zM36 42h1v-1h-1zM39 40h-2v1h2zM38 7v1h1V7zM40 8h-1v1h1zM40 39h-1v1h1zM40 9v1h1V9zM41 38h-1v1h1zM43 36v-1h-1v1zM45 31h-1v1h1z" style="fill:#220925;fill-opacity:1;stroke:none"/><path d="M4 19v1h1v-1zM41 15v1h1v-1zM44 26v-4h-1v4z" style="fill:#41274a;fill-opacity:1;stroke:none"/><path d="M5 20H4v1h1zM5 28v-1H4v1zM6 14v-1H5v1zM6 30H5v1h1zM9 36v-1H8v1zM10 37v1h1v-1zM15 42v1h1v-1zM16 6v1h1V6zM28 5h-1v1h1zM33 40h-1v1h1zM36 8h1V7h-1zM38 38v1h1v-1zM40 37h-1v1h1zM41 13h1v-1h-1zM43 29h-1v1h1zM43 33h-1v1h1zM43 32h1v-1h-1zM45 28h-1v1h1z" style="fill:#3b2743;fill-opacity:1;stroke:none"/><path d="M4 28v1h1v-1zM5 17h1v-1H5zM7 15v-1H6v1zM8 34H7v1h1zM40 36v-1h-1v1zM40 13v1h1v-1zM41 32v1h1v-1zM42 17v1h1v-1zM43 31v-1h-1v1zM44 21h-1v1h1zM43 27h1v-1h-1z" style="fill:#432b4e;fill-opacity:1;stroke:none"/><path d="M5 32v-1H4v1zM6 33H5v1h1zM6 13h1v-1H6zM8 37v-1H7v1zM9 37H8v1h1zM9 11h1v-1H9zM9 38v1h1v-1zM13 40v-1h-1v1zM14 6h-1v2h1zM16 5h-1v2h1zM16 43h1v-2h-1zM19 6V4h-1v2zM21 42h-1v2h1zM28 42h-1v2h1zM33 41v1h1v-1zM36 39h1v-1h-1zM38 10h1V9h-1zM40 10h-1v1h1zM42 35v-1h-1v1zM44 20v1h1v-1z" style="fill:#43314f;fill-opacity:1;stroke:none"/><path d="M4 36v1h1v-1zM18 2h1V1h-1zM28 46v1h1v-1zM34 3v1h1V3zM38 43v-1h-1v1zM43 10h-1v1h1z" style="fill:#220925;fill-opacity:.408;stroke:none"/><path d="M5 10v1h1v-1zM9 42h1v-1H9zM16 3h1V2h-1zM23 47v-1h-1v1zM26 46h-1v1h1zM27 1h-1v1h1zM35 5h1V4h-1zM46 18v-1h-1v1zM46 31v-1h-1v1z" style="fill:#220825;fill-opacity:.753;stroke:none"/><path d="M6 19v-1H5v1zM12 39h1v-1h-1zM14 9V8h-1v1zM15 7v1h1V7zM20 42v-1h-1v1zM28 41v1h1v-1zM30 6h-1v1h1zM32 24h-1v1h1zM31 40v1h1v-1zM34 40v-1h-1v1zM37 38v-1h-1v1zM38 37v-1h-1v1zM38 35v1h1v-1zM43 19h-1v1h1z" style="fill:#2c172b;fill-opacity:1;stroke:none"/><path d="M6 20v-1H5v1zM5 28h1v-1H5zM8 14h1v-1H8zM9 36h1v-1H9zM10 37h1v-1h-1zM13 9h-1v1h1zM20 6h-1v1h1zM20 21v1h1v-1zM21 41v1h1v-1zM27 41h-2v1h2zM28 17h-1v1h1zM27 27v1h1v-1zM28 7h1V6h-1zM29 19h-1v1h1zM31 41v-1h-1v1zM32 8V7h-1v1zM31 18h1v-1h-1zM33 27v-2h-1v1h-1v1zM34 8h-1v1h1zM34 20v1h1v-1zM34 38v1h1v-1zM37 28v-1h-1v1zM38 12v-1h-1v1zM41 16v-1h-1v1zM42 26h1v-5h-1z" style="fill:#230c1f;fill-opacity:1;stroke:none"/><path d="M6 20H5v1h1zM27 28v-1h-1v-1h-4v1h-5v-1h-2v1h-3v-1h-1v-4h1v-3h-2v1H8v1H6v1H5v1h1v2H5v1h2v1h2v1h1v1h1v1h2v1h1v1h1v1h3v1h5v1h2v-1h5v-1h2v-1h2v-1h1v-1h1v-1h1v-1zM36 17v-1h-3v-1h-2v-1h-3v-1h-8v1h-3v1h-2v1h-3v1z" style="fill:#22091b;fill-opacity:1;stroke:none"/><path d="M23 25h2v-1h-2zM28 27h1v-1h-1zM31 27v-1h-1v1zM35 27v-1h-2v1zM35 22h1v1h1v1h1v2h-1v2h2v-1h2v-1h1v-4h-1v-1h-2v-1h-1v-1h-2v1h-1z" style="fill:#22091b;fill-opacity:1;stroke:none"/><path d="M6 22v-1H5v1zM9 29v1h2v-1h-1v-1H9v-1H7v-1H5v1h1v1h2v1zM7 20H6v1h2v-1h2v-1h1v-1h1v-2h-1v1h-1v1H9v1H7zM10 12H9v1h1zM13 33h2v-1h-1v-1h-1v-1h-2v1h1v1h1zM20 13h8v1h3v-1h-2v-1H19v1h-3v1h-2v1h-1v1h2v-1h2v-1h3zM27 36v-1h3v-1h-5v1h-2v-1h-5v-1h-3v1h2v1h4v1zM34 33v-1h-2v1h-2v1h3v-1zM33 14h-2v1h2zM35 16v-1h-2v1zM36 29v1h-1v1h-1v1h2v-1h1v-1h1v-1h2v-1h1v-1h-2v1h-2v1zM41 21v-2h-2v-1h-2v1h1v1h1v1zM41 21v1h1v-1zM42 27v-1h-1v1z" style="fill:#21091b;fill-opacity:1;stroke:none"/><path d="M5 23v2h1v-2zM12 18h-1v1h1zM11 24h1v-2h-1zM15 26h-1v1h1zM16 17h-1v1h1zM16 26v-1h-1v1zM21 19h1v-2h-2v1h1zM23 25v1h2v-1zM27 19v1h1v-2h-1v-1h-1v2zM29 22v-2h-1v2zM30 26h-1v1h1zM31 25v1h1v-1zM35 22v-1h-1v1zM35 20h1v-1h-1zM36 23v-1h-1v1zM37 26h-2v1h2zM36 19h1v-2h-1zM36 23v1h1v-1zM38 24h-1v2h1z" style="fill:#21061a;fill-opacity:1;stroke:none"/><path d="M6 29v-1H5v1zM6 16v1h1v-1zM8 34v1h1v-1zM11 37v1h1v-1zM15 40v-1h-1v1zM16 18h1v-1h-1zM16 19v1h1v-1zM17 24v-1h-1v1zM17 26v-1h-1v1zM20 41v1h1v-1zM23 25h-1v1h1zM25 25v1h1v-1zM27 22h1v-1h-1zM29 21v1h1v-1zM33 27h-1v1h1zM36 24v-1h-1v1zM36 10v1h1v-1zM39 13v-1h-1v1zM41 18h1v-1h-1zM43 26h-1v1h1z" style="fill:#270f22;fill-opacity:1;stroke:none"/><path d="M6 36H5v1h1zM12 5h-1v1h1zM16 44h-1v1h1zM18 46h1v-1h-1zM30 2h-1v1h1zM32 3v1h1V3zM35 4h-1v1h1zM38 6h-1v1h1zM41 10v1h1v-1zM45 19v1h1v-1zM46 28h-1v1h1z" style="fill:#220925;fill-opacity:.988;stroke:none"/><path d="M7 9H6v1h1zM8 39H7v1h1zM8 41h1v-1H8zM10 7V6H9v1zM22 2h4V1h-4zM42 37h1v-1h-1z" style="fill:#220925;fill-opacity:.851;stroke:none"/><path d="M7 19h2v-1h1v-1h1v-1h2v-1h1v-1h2v-1h3v-1h10v1h2v1h2v1h2v1h1v1h1v1h2v1h3v-1h-1v-1h-1v-1h-2v-1h-1v-1h-2v-1h-2v-1h-2v-1h-3v-1h-8v1h-4v1h-2v1h-1v1h-2v1H9v1H8v1H6v1h1zM7 19H6v1h1zM34 32v1h-1v1h-3v1h-3v1h-6v-1h-4v-1h-2v-1h-2v-1h-1v-1h-1v-1H9v-1H8v-1H6v1h1v2h1v1h2v1h2v1h1v1h2v1h3v1h5v1h2v-1h5v-1h3v-1h1v-1h2v-1h2v-1h1v-1h1v-1h1v-2h-1v1h-2v1h-1v1h-1v1zM41 20v1h1v-1z" style="fill:#210a1a;fill-opacity:1;stroke:none"/><path d="M6 18v1h1v-1zM6 30h1v-1H6zM7 15v2h1v-1h1v-1h2v-1h2v-1h1v-1h2v-1h4v-1h8v1h3v1h2v1h2v1h2v1h1v1h2v-2h-1v-1h-1v-1h-2v-1h-1v-1h-2V9h-3V8H18v1h-3v1h-2v1h-3v2H9v1H8v1zM8 32v-1H7v1zM10 33v-1H8v2h1v1h1v1h2v1h1v2h1v-1h2v1h3v1h9v-1h4v-1h2v-1h1v1h1v-2h2v-1h1v-2h1v-1h1v-2h-1v1h-1v1h-1v1h-2v1h-2v1h-1v1h-3v1h-5v1h-2v-1h-5v-1h-3v-1h-2v-1h-1v-1zM21 7V6h-1v1zM41 16h-1v1h1zM42 20v-1h-1v1zM41 29h1v-2h-1z" style="fill:#200a1a;fill-opacity:1;stroke:none"/><path d="M7 31v-1H6v1zM8 33v-1H7v1zM12 10h-1v1h1zM14 9h1V8h-1zM17 8V7h-1v1zM17 40v1h1v-1zM25 42v-1h-3v1zM27 7h1V6h-1zM32 40h1v-1h-1zM40 34v-1h-1v1zM42 30v-1h-1v1z" style="fill:#210c1b;fill-opacity:1;stroke:none"/><path d="M6 31v1h1v-1zM8 15v-1H7v1zM17 19v-1h-1v1zM16 25h1v-1h-1zM17 40h-1v1h1zM19 6h-1v1h1zM28 41h-1v1h1zM35 9v1h1V9zM39 14h1v-1h-1zM41 32h-1v1h1zM42 30h-1v1h1zM42 20v1h1v-1zM42 27v1h1v-1z" style="fill:#291227;fill-opacity:1;stroke:none"/><path d="M11 5h-1v1h1zM20 2h1V1h-1zM21 47h1v-1h-1zM27 46h-1v1h1zM34 45v-1h-1v1zM40 7h-1v1h1zM41 8h-1v1h1zM46 25h1v-2h-1z" style="fill:#210824;fill-opacity:.698;stroke:none"/><path d="M10 44h1v-1h-1zM16 2h1V1h-1zM20 1h1V0h-1zM22 48v-1h-1v1zM25 48h1v-1h-1zM34 45h-1v1h1zM36 44h-1v1h1zM39 43v-1h-1v1zM43 10V9h-1v1zM44 13h1v-1h-1zM45 14v1h1v-1zM46 31h1v-1h-1z" style="fill:#220925;fill-opacity:.031;stroke:none"/><path d="M11 25h1v-1h-1zM20 18h-1v6h1zM22 24v1h1v-1zM26 25v-1h-1v1zM28 22h-1v1h1z" style="fill:#4a3544;fill-opacity:1;stroke:none"/><path d="M12 25h-1v1h1zM14 25v1h1v-1zM20 17h-1v1h1zM31 26v-1h-1v1zM34 23h1v-1h-1zM36 25v1h1v-1z" style="fill:#3d2636;fill-opacity:1;stroke:none"/><path d="M11 37h1v-1h-1zM12 10v1h1v-1zM12 38h1v-1h-1zM13 10h2V9h-2zM19 40v-1h-3v-1h-2v1h1v1h3v1h12v-1h2v-1h-4v1zM33 9V8h-2V7h-4V6h-6v1h-4v1h-2v1h3V8h12v1zM32 38v1h2v-1zM35 9h-2v1h2zM34 37v1h1v-1zM36 11v-1h-1v1zM37 12v-1h-1v1zM37 36h-1v1h1z" style="fill:#1f0a18;fill-opacity:1;stroke:none"/><path d="M11 39v1h1v-1zM13 8V7h-1v1zM14 41v-1h-1v1zM15 6h-1v1h1zM16 42v-1h-1v1zM16 5v1h1V5zM17 42v1h2v-1zM28 5V4h-8v1zM23 43v1h2v-1zM29 42v1h1v-1zM31 6V5h-1v1zM33 42v-1h-1v1zM33 6v1h1V6zM34 40v1h1v-1zM36 8v1h1V8zM37 39h1v-1h-1zM39 38v-1h-1v1zM39 37h1v-1h-1zM41 35h-1v1h1zM41 13v1h1v-1zM42 16h1v-1h-1zM44 18v-1h-1v1z" style="fill:#493554;fill-opacity:1;stroke:none"/><path d="M12 43h-1v1h1zM16 45h-1v1h1zM32 2v1h1V2zM42 38h1v-1h-1zM46 20h1v-1h-1z" style="fill:#220925;fill-opacity:.349;stroke:none"/><path d="M13 17h-1v1h1zM12 25v1h2v-1zM15 22v1h1v-1zM18 25v1h3v-1zM27 25v1h3v-1zM29 22v1h1v-1zM34 25v1h2v-1z" style="fill:#5e4c59;fill-opacity:1;stroke:none"/><path d="M13 18h-1v6h1zM18 17v1h1v-1zM20 25v-1h-1v1zM21 24v-1h-1v1zM25 22v-1h-2v1zM27 24h1v-1h-1zM29 19v1h1v-1zM34 20h-1v1h1z" style="fill:#887c85;fill-opacity:1;stroke:none"/><path d="M13 25v-1h-1v1zM31 24h-1v1h1zM33 23h-1v1h1z" style="fill:#a69da3;fill-opacity:1;stroke:none"/><path d="M14 26h-2v1h2zM16 18h-1v1h1zM16 25v-1h-1v1zM22 27v-1h-5v1zM21 18h-1v2h1zM26 26v1h2v-1zM28 20h-1v1h1zM29 23v-1h-1v1z" style="fill:#200618;fill-opacity:1;stroke:none"/><path d="M13 17v1h1v-1zM15 23v-1h-1v1zM29 18h1v-1h-1zM35 17h-1v1h1zM34 23v1h1v-1z" style="fill:#8f838c;fill-opacity:1;stroke:none"/><path d="M14 18h-1v1h1zM13 20v4h1v-4zM23 23v-1h-1v1zM26 22h-1v1h1zM31 22h1v-2h-1zM34 23h-1v1h1z" style="fill:#e5e5e5;fill-opacity:1;stroke:none"/><path d="M13 19v1h1v-1zM17 22h1v-1h-1zM22 23h-1v1h1zM23 22v-1h-1v1zM23 20h2v-2h-2zM25 22h1v-1h-1zM26 24h1v-1h-1zM30 19v1h1v-1zM31 24v-1h-1v1zM33 20h-1v1h1zM33 22h-1v1h1zM33 18v1h1v-1z" style="fill:#e3e2e2;fill-opacity:1;stroke:none"/><path d="M13 24v1h1v-1zM14 22h3v-1h-3zM23 20h-1v1h1zM25 20v1h1v-1zM29 25h1v-1h-1zM33 22v-1h-1v1z" style="fill:#dcdbdc;fill-opacity:1;stroke:none"/><path d="M15 18v-1h-1v1zM18 25h-1v1h1zM22 26v-1h-1v1zM26 26h1v-1h-1zM31 19h1v-1h-1z" style="fill:#523e4d;fill-opacity:1;stroke:none"/><path d="M14 18v2h1v-2zM14 23v2h1v-2zM15 20v1h1v-1zM22 19h1v-1h-1zM25 18v1h1v-1zM33 22h1v-1h-1z" style="fill:#6f5f6a;fill-opacity:1;stroke:none"/><path d="M15 20h-1v1h1zM22 21h-1v1h1zM27 22v-1h-1v1zM28 24v1h1v-1z" style="fill:#9b9198;fill-opacity:1;stroke:none"/><path d="M15 19v1h1v-1zM16 23h-1v1h1z" style="fill:#1c0315;fill-opacity:1;stroke:none"/><path d="M16 20v1h1v-1zM17 18h1v-1h-1z" style="fill:#766672;fill-opacity:1;stroke:none"/><path d="M17 22h-1v1h1zM29 18v-1h-1v1zM30 17v1h1v-1z" style="fill:#665461;fill-opacity:1;stroke:none"/><path d="M17 18v2h1v-2zM18 25v-2h-1v2zM22 19v1h1v-1zM22 24h1v-1h-1zM25 21v-1h-2v1zM26 20v-1h-1v1zM26 23h-1v1h1zM29 23v1h1v-1zM30 21h1v-1h-1zM34 19h1v-1h-1z" style="fill:#b2abb0;fill-opacity:1;stroke:none"/><path d="M17 20v1h1v-1zM18 22h-1v1h1zM20 24v1h1v-1zM28 25v-1h-1v1zM32 19h-1v1h1zM34 23v-1h-1v1z" style="fill:#bfb9bd;fill-opacity:1;stroke:none"/><path d="M18 25h1v-7h-1zM25 23v-1h-2v1zM29 18v1h1v-1zM30 23h2v-1h-2zM33 19v1h1v-1z" style="fill:#d6d4d5;fill-opacity:1;stroke:none"/><path d="M21 20h-1v1h1z" style="fill:#1e0517;fill-opacity:1;stroke:none"/><path d="M21 22h-1v1h1zM36 17h-1v1h1zM36 25h1v-1h-1z" style="fill:#463140;fill-opacity:1;stroke:none"/><path d="M21 20h1v-1h-1zM27 19h-1v1h1zM28 27v1h4v-1zM36 28v-1h-3v1z" style="fill:#2f1328;fill-opacity:1;stroke:none"/><path d="M21 20v1h1v-1zM26 20v1h1v-1zM28 19h1v-1h-1zM35 20v-1h-1v1z" style="fill:#594654;fill-opacity:1;stroke:none"/><path d="M22 22h-1v1h1zM22 24h-1v1h1zM27 23v-1h-1v1zM26 25h1v-1h-1zM31 19v-1h-1v1zM32 19v1h1v-1zM35 25v-1h-2v1z" style="fill:#cecacd;fill-opacity:1;stroke:none"/><path d="M22 17v1h1v-1zM26 18v-1h-1v1zM28 23v1h1v-1zM29 21h1v-1h-1zM32 17v1h1v-1zM36 18h-1v1h1z" style="fill:#361f30;fill-opacity:1;stroke:none"/><path d="M25 18v-1h-2v1zM31 23v1h1v-1zM33 19v-1h-1v1zM34 18v-1h-1v1zM35 24v1h1v-1z" style="fill:#82747e;fill-opacity:1;stroke:none"/><path d="M25 23h-2v1h2zM30 22h1v-1h-1z" style="fill:#968b93;fill-opacity:1;stroke:none"/><path d="M33 25v-1h-1v1zM34 25h-1v1h1z" style="fill:#4d3848;fill-opacity:1;stroke:none"/></svg>