<?xml version="1.0" standalone="no"?>
<!DOCTYPE svg PUBLIC "-//W3C//DTD SVG 20010904//EN"
 "http://www.w3.org/TR/2001/REC-SVG-20010904/DTD/svg10.dtd">
<svg version="1.0" xmlns="http://www.w3.org/2000/svg"
 width="1200.000000pt" height="1200.000000pt" viewBox="0 0 1200.000000 1200.000000"
 preserveAspectRatio="xMidYMid meet">

<g transform="translate(0.000000,1200.000000) scale(0.100000,-0.100000)"
fill="#000000" stroke="none">
<path d="M5680 11744 c-256 -14 -585 -53 -825 -100 -403 -78 -884 -228 -1230
-384 -99 -44 -411 -201 -480 -240 -38 -22 -79 -45 -90 -50 -11 -6 -49 -29 -85
-51 -36 -23 -74 -47 -85 -53 -43 -24 -202 -131 -241 -163 -23 -18 -44 -33 -48
-33 -8 0 -145 -102 -216 -161 -110 -91 -279 -236 -318 -273 -170 -160 -372
-371 -499 -521 -101 -120 -252 -314 -278 -356 -5 -10 -46 -70 -90 -135 -44
-65 -84 -126 -90 -135 -5 -9 -30 -49 -55 -89 -100 -161 -244 -432 -299 -560
-13 -30 -35 -80 -48 -110 -14 -30 -32 -70 -40 -87 -7 -18 -20 -47 -28 -65 -7
-18 -23 -60 -35 -93 -12 -33 -33 -87 -45 -120 -23 -59 -95 -284 -134 -420 -71
-246 -140 -622 -178 -965 -26 -237 -26 -893 0 -1130 38 -343 107 -719 178
-965 39 -136 111 -361 134 -420 12 -33 33 -87 45 -120 12 -33 28 -75 36 -92 8
-18 20 -48 28 -65 7 -18 25 -58 39 -88 13 -30 35 -80 48 -110 55 -128 199
-399 299 -560 25 -40 50 -80 55 -89 6 -9 46 -70 90 -135 44 -65 85 -125 90
-135 26 -42 177 -236 278 -356 127 -150 329 -361 499 -521 39 -37 208 -182
318 -273 71 -59 208 -161 216 -161 4 0 25 -15 48 -33 37 -30 205 -145 231
-157 5 -3 43 -25 83 -50 163 -100 227 -135 437 -239 299 -147 456 -212 755
-311 410 -136 818 -220 1285 -266 236 -24 794 -24 1030 0 333 32 577 74 895
153 279 68 667 201 915 313 99 44 411 201 480 240 39 22 79 45 90 50 11 6 49
29 85 51 36 23 74 47 85 53 43 24 202 131 241 163 23 18 44 33 48 33 8 0 145
102 216 161 110 91 279 236 318 273 170 160 372 371 499 521 101 120 252 314
278 356 6 10 46 70 90 135 44 65 85 126 90 135 6 9 30 49 55 89 100 161 244
432 299 560 13 30 35 80 48 110 14 30 32 70 39 88 8 17 20 47 28 65 8 17 24
59 36 92 12 33 33 87 45 120 23 59 95 284 134 420 47 161 105 442 140 670 47
310 56 442 56 860 0 418 -9 550 -56 860 -35 228 -93 509 -140 670 -39 136
-111 361 -134 420 -12 33 -33 87 -45 120 -12 33 -28 75 -35 93 -8 18 -21 47
-28 65 -8 17 -26 57 -40 87 -13 30 -35 80 -48 110 -55 128 -199 399 -299 560
-25 40 -49 80 -55 89 -5 9 -46 70 -90 135 -44 65 -84 125 -90 135 -26 42 -177
236 -278 356 -127 150 -329 361 -499 521 -39 37 -208 182 -318 273 -71 59
-208 161 -216 161 -4 0 -25 15 -48 33 -37 30 -205 145 -231 157 -5 3 -43 25
-83 50 -163 100 -227 135 -437 239 -299 147 -456 212 -755 311 -410 136 -832
223 -1280 265 -161 15 -640 26 -790 19z m-2108 -4521 l3 -398 372 -3 373 -2 2
397 3 398 212 3 213 2 2 -892 3 -893 131 -3 131 -3 88 203 c180 417 419 967
465 1073 26 61 87 201 135 313 l88 202 207 0 208 0 42 -97 c56 -130 407 -944
586 -1358 l142 -330 68 -3 69 -3 280 427 c154 235 279 430 278 435 -1 4 -133
211 -293 459 -159 249 -290 456 -290 461 0 5 113 9 254 9 l254 0 167 -262 c93
-145 174 -271 180 -281 11 -16 24 -1 106 128 52 80 133 206 181 280 l87 135
257 0 c201 0 255 -3 251 -13 -2 -6 -135 -214 -294 -460 l-290 -449 167 -256
c91 -142 219 -337 283 -434 l116 -178 131 0 130 0 0 -60 0 -60 -357 2 -356 3
-194 300 c-107 165 -197 303 -201 307 -4 3 -96 -133 -206 -303 l-198 -309
-493 0 -493 0 -87 205 -88 205 -397 0 -397 0 -87 -205 -88 -205 -552 2 -551 3
-3 373 -2 372 -373 -2 -372 -3 -3 -372 -2 -373 -330 0 -330 0 0 60 0 60 115 0
115 0 0 895 0 895 215 0 215 0 2 -397z"/>
<path d="M5992 7020 c-5 -14 -56 -131 -112 -260 -56 -129 -104 -241 -107 -247
-4 -10 45 -13 226 -13 127 0 231 2 231 4 0 2 -49 118 -108 257 -60 140 -111
261 -114 269 -4 11 -8 8 -16 -10z"/>
</g>
</svg>
